<svg width="48" height="49" viewBox="0 0 48 49" fill="none" xmlns="http://www.w3.org/2000/svg">
<g id="Frame">
<path id="Vector" d="M4.354 27.0388L2 25.2808L11.496 10.4693L17.704 17.2273L25.904 4.43081L32.1115 13.1503L39.196 2.43481L41.5305 4.16181L32.1425 18.1848L26.0345 9.56531L18.227 21.8773L12 15.1888L4.354 27.0388Z" fill="#475467" fill-opacity="0.45"/>
<path id="Vector_2" d="M29.077 37.3654C30.695 37.3654 32.0802 36.8161 33.2325 35.7174C34.3852 34.6184 34.9615 33.2601 34.9615 31.6424C34.9615 30.0041 34.3903 28.6138 33.248 27.4714C32.1053 26.3291 30.7148 25.7579 29.0765 25.7579C27.4588 25.7579 26.1007 26.3376 25.002 27.4969C23.9033 28.6559 23.354 30.0379 23.354 31.6429C23.354 33.2606 23.9033 34.6188 25.002 35.7174C26.101 36.8161 27.4593 37.3654 29.077 37.3654ZM39.7 44.2849L34.0925 38.6769C33.3975 39.1566 32.6263 39.5444 31.779 39.8404C30.9313 40.1368 30.0307 40.2849 29.077 40.2849C26.661 40.2849 24.6165 39.4489 22.9435 37.7769C21.2708 36.1046 20.4345 34.0609 20.4345 31.6459C20.4345 29.2436 21.2707 27.1836 22.943 25.4659C24.615 23.7479 26.6585 22.8889 29.0735 22.8889C31.5092 22.8889 33.5777 23.7419 35.279 25.4479C36.98 27.1539 37.8305 29.2188 37.8305 31.6424C37.8305 32.5964 37.6825 33.5086 37.3865 34.3789C37.0902 35.2496 36.692 36.0324 36.192 36.7274L41.7305 42.2539L39.7 44.2849Z" fill="#E15247"/>
</g>
</svg>
