<svg width="96" height="96" viewBox="0 0 96 96" fill="none" xmlns="http://www.w3.org/2000/svg">
<g clip-path="url(#clip0_3_1103)">
<circle cx="48" cy="48" r="36" fill="#E15247" fill-opacity="0.2"/>
<circle cx="48" cy="48" r="48" fill="#E15247" fill-opacity="0.1"/>
<circle cx="47.5" cy="48" r="28" fill="#E15247"/>
<path d="M27.5 58V55.6529C27.5 54.5404 28.0879 53.635 29.2638 52.9367C30.4399 52.2381 31.985 51.8888 33.8992 51.8888C34.245 51.8888 34.5774 51.8957 34.8962 51.9096C35.2154 51.9235 35.5278 51.955 35.8333 52.0042C35.5556 52.52 35.3472 53.0493 35.2083 53.5921C35.0694 54.1351 35 54.7017 35 55.2917V58H27.5ZM37.5 58V55.2917C37.5 54.4028 37.7431 53.5903 38.2292 52.8542C38.7153 52.1181 39.4028 51.4722 40.2917 50.9167C41.1806 50.3611 42.2431 49.9444 43.4792 49.6667C44.7153 49.3889 46.0556 49.25 47.5 49.25C48.9722 49.25 50.3264 49.3889 51.5625 49.6667C52.7986 49.9444 53.8611 50.3611 54.75 50.9167C55.6389 51.4722 56.3194 52.1181 56.7917 52.8542C57.2639 53.5903 57.5 54.4028 57.5 55.2917V58H37.5ZM60 58V55.2917C60 54.6831 59.9375 54.1096 59.8125 53.5712C59.6875 53.0329 59.4907 52.5113 59.2221 52.0063C59.5276 51.9557 59.8371 51.9235 60.1504 51.9096C60.464 51.8957 60.7843 51.8888 61.1113 51.8888C63.0279 51.8888 64.5718 52.2315 65.7429 52.9171C66.9143 53.6026 67.5 54.5146 67.5 55.6529V58H60ZM40.3471 55.2221H54.6667V55.0554C54.5742 54.1851 53.8496 53.4629 52.4929 52.8888C51.1365 52.3149 49.4722 52.0279 47.5 52.0279C45.5278 52.0279 43.8635 52.3149 42.5071 52.8888C41.1504 53.4629 40.4304 54.1944 40.3471 55.0833V55.2221ZM33.8767 50.5C33.0422 50.5 32.3264 50.2008 31.7292 49.6025C31.1319 49.0042 30.8333 48.2849 30.8333 47.4446C30.8333 46.5926 31.1325 45.8704 31.7308 45.2779C32.3292 44.6851 33.0485 44.3888 33.8888 44.3888C34.7407 44.3888 35.4629 44.6851 36.0554 45.2779C36.6482 45.8704 36.9446 46.5967 36.9446 47.4567C36.9446 48.2911 36.6482 49.0069 36.0554 49.6042C35.4629 50.2014 34.7367 50.5 33.8767 50.5ZM61.0992 50.5C60.2644 50.5 59.5485 50.2008 58.9513 49.6025C58.354 49.0042 58.0554 48.2849 58.0554 47.4446C58.0554 46.5926 58.3547 45.8704 58.9533 45.2779C59.5517 44.6851 60.271 44.3888 61.1113 44.3888C61.9629 44.3888 62.6851 44.6851 63.2779 45.2779C63.8704 45.8704 64.1667 46.5967 64.1667 47.4567C64.1667 48.2911 63.8704 49.0069 63.2779 49.6042C62.6851 50.2014 61.9589 50.5 61.0992 50.5ZM47.5 48C46.1111 48 44.9306 47.5139 43.9583 46.5417C42.9861 45.5694 42.5 44.3889 42.5 43C42.5 41.5833 42.9861 40.3958 43.9583 39.4375C44.9306 38.4792 46.1111 38 47.5 38C48.9167 38 50.1042 38.4792 51.0625 39.4375C52.0208 40.3958 52.5 41.5833 52.5 43C52.5 44.3889 52.0208 45.5694 51.0625 46.5417C50.1042 47.5139 48.9167 48 47.5 48ZM47.5096 45.2221C48.1421 45.2221 48.669 45.0082 49.0904 44.5804C49.5115 44.1526 49.7221 43.6226 49.7221 42.9904C49.7221 42.3579 49.5101 41.831 49.0863 41.4096C48.6621 40.9885 48.1365 40.7779 47.5096 40.7779C46.8829 40.7779 46.3543 40.9899 45.9238 41.4137C45.4932 41.8379 45.2779 42.3635 45.2779 42.9904C45.2779 43.6171 45.4918 44.1457 45.9196 44.5763C46.3474 45.0068 46.8774 45.2221 47.5096 45.2221Z" fill="white"/>
</g>
<defs>
<clipPath id="clip0_3_1103">
<rect width="96" height="96" fill="white"/>
</clipPath>
</defs>
</svg>
