<svg width="56" height="56" viewBox="0 0 56 56" fill="none" xmlns="http://www.w3.org/2000/svg">
<circle cx="28" cy="28" r="28" fill="#E15247"/>
<path d="M28.0028 27.7218C28.8437 27.7218 29.5627 27.4223 30.1599 26.8234C30.7571 26.2248 31.0557 25.505 31.0557 24.6638C31.0557 23.823 30.7563 23.104 30.1574 22.5068C29.5588 21.9095 28.8389 21.6109 27.9978 21.6109C27.157 21.6109 26.438 21.9104 25.8407 22.5093C25.2435 23.1079 24.9449 23.8277 24.9449 24.6688C24.9449 25.5097 25.2444 26.2287 25.8432 26.8259C26.4419 27.4231 27.1617 27.7218 28.0028 27.7218ZM28.0003 40.9997C31.5928 37.7219 34.2502 34.7473 35.9724 32.0759C37.6946 29.4048 38.5557 27.0461 38.5557 24.9997C38.5557 21.8091 37.5369 19.1966 35.4991 17.1622C33.4613 15.128 30.9617 14.1109 28.0003 14.1109C25.0389 14.1109 22.5394 15.128 20.5016 17.1622C18.4638 19.1966 17.4449 21.8091 17.4449 24.9997C17.4449 27.0461 18.3199 29.4048 20.0699 32.0759C21.8199 34.7473 24.4634 37.7219 28.0003 40.9997ZM28.0003 44.6663C23.5281 40.8608 20.1878 37.3261 17.9795 34.0622C15.7712 30.7983 14.667 27.7775 14.667 24.9997C14.667 20.833 16.0073 17.5136 18.6878 15.0413C21.3684 12.5691 24.4725 11.333 28.0003 11.333C31.5281 11.333 34.6323 12.5691 37.3128 15.0413C39.9934 17.5136 41.3337 20.833 41.3337 24.9997C41.3337 27.7775 40.2295 30.7983 38.0212 34.0622C35.8128 37.3261 32.4725 40.8608 28.0003 44.6663Z" fill="white"/>
</svg>
