<svg width="106" height="60" viewBox="0 0 106 60" fill="none" xmlns="http://www.w3.org/2000/svg">
<g clip-path="url(#clip0_0_753)">
<path d="M17.0529 18.9062H1.08458V24.4262H5.53774V41.0939H12.5997V24.4262H17.0529V18.9062Z" fill="#30485B"/>
<path d="M26.3976 18.9062H19.3356V41.0939H26.3976V18.9062Z" fill="#30485B"/>
<path d="M38.0215 18.9062H30.9595V41.0939H38.0215V18.9062Z" fill="#30485B"/>
<path d="M55.1053 17.8862H52.8618V17.1779H58.1079V17.8862H55.868V23.8347H55.1053V17.8862Z" fill="#30485B"/>
<path d="M60.1768 23.3034C60.772 23.3087 61.3404 23.0555 61.7325 22.611L62.1905 23.02C61.6915 23.6204 60.9413 23.9586 60.1572 23.9391C58.8011 23.9391 57.6945 22.9049 57.6945 21.3784C57.6945 19.9617 58.696 18.8159 60.061 18.8159C61.5222 18.8159 62.3633 19.9741 62.3633 21.4156C62.3633 21.5006 62.3615 21.5874 62.3526 21.6724H58.4323C58.5427 22.7066 59.3072 23.3034 60.1768 23.3034ZM61.6184 21.0844C61.5311 20.199 61.0161 19.4322 60.0432 19.4322C59.1932 19.4322 58.5427 20.1406 58.4394 21.0844H61.6184Z" fill="#30485B"/>
<path d="M63.1563 21.3959V21.3782C63.1527 19.9668 64.3003 18.8192 65.7206 18.8157C66.4636 18.8139 67.1729 19.1327 67.6629 19.6887L67.1764 20.2005C66.7844 19.7932 66.346 19.4621 65.6778 19.4621C64.6745 19.4621 63.9101 20.305 63.9101 21.3587V21.3782C63.9101 22.4407 64.6941 23.2854 65.7241 23.2854C66.3549 23.2854 66.8414 22.972 67.2335 22.5541L67.7003 22.9915C67.2049 23.5405 66.6133 23.9389 65.6867 23.9389C64.2878 23.9371 63.1545 22.8073 63.1563 21.4171C63.1563 21.4101 63.1563 21.403 63.1563 21.3959Z" fill="#30485B"/>
<path d="M68.725 17.1779H69.4592V19.7669C69.7977 19.1595 70.4499 18.7894 71.1485 18.8089C72.3424 18.8089 73.0392 19.6058 73.0392 20.7728V23.8187H72.305V20.9605C72.305 20.0503 71.8078 19.48 70.94 19.48C70.0722 19.48 69.4592 20.0963 69.4592 21.0172V23.8258H68.725V17.1779Z" fill="#30485B"/>
<path d="M74.4166 18.9204H75.1508V19.774C75.4894 19.1666 76.1416 18.7964 76.8401 18.8159C78.034 18.8159 78.7308 19.6128 78.7308 20.7799V23.8258H77.9966V20.9605C77.9966 20.0502 77.4995 19.48 76.6316 19.48C75.7638 19.48 75.1508 20.0963 75.1508 21.0172V23.8258H74.4166V18.9204Z" fill="#30485B"/>
<path d="M79.8018 21.3961V21.3784C79.7964 19.967 80.944 18.8176 82.366 18.8106C83.7863 18.8053 84.9428 19.9457 84.9481 21.3589V21.3784C84.9553 22.7845 83.8148 23.932 82.3999 23.9391C82.3874 23.9391 82.3732 23.9391 82.3607 23.9391C80.9636 23.955 79.8178 22.8447 79.8018 21.4563C79.8018 21.4368 79.8018 21.4156 79.8018 21.3961ZM84.1944 21.3961V21.3784C84.1944 20.3158 83.4014 19.4623 82.3607 19.4623C81.32 19.4623 80.5556 20.3247 80.5556 21.3589V21.3784C80.5556 22.4303 81.3396 23.2856 82.3803 23.2856C83.421 23.2856 84.1944 22.4303 84.1944 21.3961Z" fill="#30485B"/>
<path d="M86.1527 17.1779H86.8887V23.8187H86.1527V17.1779Z" fill="#30485B"/>
<path d="M88.1004 21.3961V21.3784C88.0951 19.967 89.2427 18.8176 90.6647 18.8106C92.0849 18.8053 93.2414 19.9457 93.2468 21.3589V21.3784C93.2539 22.7845 92.1134 23.932 90.6985 23.9391C90.6861 23.9391 90.6718 23.9391 90.6593 23.9391C89.2623 23.955 88.1165 22.8447 88.1004 21.4563C88.1004 21.4368 88.1004 21.4156 88.1004 21.3961ZM92.493 21.3961V21.3784C92.493 20.3158 91.7 19.4623 90.6593 19.4623C89.6187 19.4623 88.856 20.3247 88.856 21.3589V21.3784C88.856 22.4303 89.6383 23.2856 90.6789 23.2856C91.7196 23.2856 92.5001 22.4303 92.5001 21.3961H92.493Z" fill="#30485B"/>
<path d="M94.3284 24.6794L94.6617 24.1109C95.2105 24.5182 95.877 24.7378 96.5612 24.7361C97.65 24.7361 98.3575 24.1393 98.3575 22.9917V22.4126C97.9262 22.9811 97.3257 23.4468 96.4187 23.4468C95.157 23.4645 94.1199 22.4622 94.1021 21.2084C94.1021 21.1872 94.1021 21.1659 94.1021 21.1447V21.127C94.1039 19.8448 95.1517 18.8071 96.4419 18.8088C97.201 18.8088 97.9138 19.179 98.3504 19.797V18.9116H99.0863V22.9634C99.0863 23.7213 98.8564 24.3004 98.4555 24.6989C98.0171 25.1363 97.3578 25.3541 96.5755 25.3541C95.7736 25.3665 94.9895 25.131 94.3284 24.6794ZM98.3753 21.1376V21.1181C98.3753 20.1122 97.4968 19.4588 96.5612 19.4588C95.6257 19.4588 94.8523 20.1034 94.8523 21.1092V21.1287C94.847 22.0443 95.5901 22.7916 96.5131 22.7969C96.5292 22.7969 96.5452 22.7969 96.5612 22.7969C97.4897 22.8005 98.3806 22.1364 98.3806 21.1411L98.3753 21.1376Z" fill="#30485B"/>
<path d="M100.248 25.1255L100.496 24.5465C100.733 24.6722 101 24.7324 101.269 24.7235C101.709 24.7235 101.982 24.4951 102.281 23.8027L100.038 18.9203H100.85L102.645 23.0093L104.229 18.9203H105.013L102.941 23.9868C102.52 25.0016 102.05 25.3717 101.3 25.3717C100.934 25.3752 100.572 25.292 100.248 25.1255Z" fill="#30485B"/>
<path d="M55.0073 25.8125H55.7611V32.4534H55.0073V25.8125Z" fill="#30485B"/>
<path d="M57.4041 27.5481H58.14V28.4017C58.4786 27.7925 59.1308 27.4241 59.8293 27.4436C61.0233 27.4436 61.72 28.2405 61.72 29.4075V32.4535H60.9841V29.5882C60.9841 28.6779 60.4887 28.1077 59.6191 28.1077C58.7495 28.1077 58.14 28.724 58.14 29.6448V32.4535H57.4041V27.5481Z" fill="#30485B"/>
<path d="M63.0975 27.5483H63.8335V28.4019C64.172 27.7962 64.8242 27.4279 65.521 27.4491C66.7149 27.4491 67.4117 28.246 67.4117 29.413V32.459H66.6757V29.5884C66.6757 28.6781 66.1803 28.1079 65.3107 28.1079C64.4411 28.1079 63.8317 28.7242 63.8317 29.645V32.4537H63.0975V27.5483Z" fill="#30485B"/>
<path d="M68.4826 30.0257V30.0062C68.4773 28.5948 69.6249 27.4455 71.0469 27.4384C72.4671 27.4331 73.6236 28.5735 73.629 29.9867V30.0062C73.6361 31.4123 72.4956 32.5598 71.0807 32.5669C71.0683 32.5669 71.054 32.5669 71.0415 32.5669C69.6445 32.5828 68.4986 31.4725 68.4826 30.0841C68.4826 30.0646 68.4826 30.0451 68.4826 30.0257ZM72.8752 30.0257V30.0062C72.8752 28.9525 72.0822 28.0901 71.0415 28.0901C70.0009 28.0901 69.2364 28.9525 69.2364 29.9867V30.0062C69.2364 31.0581 70.0205 31.9134 71.0611 31.9134C72.1018 31.9134 72.8752 31.0581 72.8752 30.0257Z" fill="#30485B"/>
<path d="M73.9925 27.5482H74.8051L76.4659 31.6213L78.1374 27.5482H78.9286L76.7902 32.4926H76.1398L73.9925 27.5482Z" fill="#30485B"/>
<path d="M79.2849 31.0299V31.0121C79.2849 29.9496 80.1439 29.4077 81.3948 29.4077C81.9045 29.4024 82.4123 29.4732 82.9024 29.6167V29.4644C82.9024 28.5931 82.3678 28.1362 81.4429 28.1362C80.9226 28.1397 80.4094 28.2602 79.9425 28.4904L79.7233 27.8918C80.2811 27.6173 80.8959 27.4739 81.5195 27.4739C82.2163 27.4739 82.7669 27.6634 83.1126 28.0158C83.4583 28.3682 83.6294 28.8304 83.6294 29.4573V32.4554H82.9024V31.7258C82.4783 32.2713 81.8154 32.5812 81.1204 32.5599C80.2044 32.5599 79.2849 32.0357 79.2849 31.0299ZM82.9131 30.6509V30.1958C82.4444 30.0576 81.9597 29.9868 81.4714 29.9868C80.5537 29.9868 80.0298 30.3852 80.0298 30.9732V30.9909C80.0298 31.6072 80.6018 31.9684 81.2772 31.9684C82.1771 31.9684 82.9131 31.4283 82.9131 30.6509Z" fill="#30485B"/>
<path d="M85.2065 31.1537V28.1945H84.5186V27.5481H85.2065V26.0676H85.9407V27.5481H87.5106V28.1945H85.9442V31.058C85.9442 31.6566 86.2792 31.8744 86.7764 31.8744C87.0241 31.8744 87.27 31.8124 87.4892 31.6973V32.3225C87.2148 32.4659 86.9083 32.5367 86.5982 32.5314C85.8088 32.5385 85.2065 32.1507 85.2065 31.1537Z" fill="#30485B"/>
<path d="M88.635 26.1262H89.4707V26.9338H88.6314L88.635 26.1262ZM88.6831 27.5429H89.4173V32.4483H88.6831V27.5429Z" fill="#30485B"/>
<path d="M90.6308 30.0257V30.0062C90.6255 28.5948 91.7731 27.4455 93.1951 27.4384C94.6153 27.4331 95.7718 28.5735 95.7772 29.9867V30.0062C95.7843 31.4123 94.6438 32.5598 93.2289 32.5669C93.2165 32.5669 93.2022 32.5669 93.1897 32.5669C91.7944 32.5846 90.6486 31.4743 90.6308 30.0876C90.6308 30.0664 90.6308 30.0469 90.6308 30.0257ZM95.0234 30.0257V30.0062C95.0234 28.9525 94.2304 28.0901 93.1897 28.0901C92.1491 28.0901 91.3846 28.9525 91.3846 29.9867V30.0062C91.3846 31.0581 92.1669 31.9134 93.2093 31.9134C94.2518 31.9134 95.0234 31.0581 95.0234 30.0257Z" fill="#30485B"/>
<path d="M96.9141 27.5481H97.6501V28.4017C97.9887 27.7925 98.6409 27.4241 99.3394 27.4436C100.533 27.4436 101.23 28.2405 101.23 29.4075V32.4535H100.494V29.5882C100.494 28.6779 99.9987 28.1077 99.1291 28.1077C98.2595 28.1077 97.6501 28.724 97.6501 29.6448V32.4535H96.9141V27.5481Z" fill="#30485B"/>
<path d="M55.0073 34.4404H55.7611V41.0849H55.0073V34.4404Z" fill="#30485B"/>
<path d="M57.4041 36.176H58.14V37.0296C58.4786 36.4204 59.1308 36.0521 59.8293 36.0715C61.0233 36.0715 61.72 36.8684 61.72 38.0355V41.085H60.9841V38.2161C60.9841 37.3059 60.4887 36.7356 59.6191 36.7356C58.7495 36.7356 58.14 37.3519 58.14 38.2728V41.085H57.4041V36.176Z" fill="#30485B"/>
<path d="M62.6858 40.4546L63.0583 39.9339C63.5448 40.32 64.1453 40.5396 64.7672 40.5591C65.3588 40.5591 65.7883 40.2562 65.7883 39.7816V39.7621C65.7883 39.2698 65.2073 39.0804 64.5569 38.8997C63.7835 38.6819 62.9246 38.4163 62.9246 37.5149V37.4954C62.9246 36.6507 63.6374 36.0911 64.605 36.0911C65.2376 36.0999 65.8542 36.2841 66.387 36.6223L66.0466 37.189C65.6136 36.8986 65.1075 36.7339 64.5854 36.7144C64.0045 36.7144 63.6321 37.019 63.6321 37.4228V37.4423C63.6321 37.9062 64.2415 38.0869 64.9008 38.287C65.6653 38.5137 66.485 38.8076 66.485 39.6895V39.709C66.485 40.6387 65.7116 41.1806 64.7298 41.1806C63.9867 41.1682 63.2685 40.9132 62.6858 40.4546Z" fill="#30485B"/>
<path d="M67.8233 39.7816V36.8224H67.1354V36.176H67.8233V34.6956H68.5592V36.176H70.1238V36.8224H68.5592V39.686C68.5592 40.2845 68.8925 40.5024 69.3896 40.5024C69.6373 40.5006 69.8832 40.4404 70.1024 40.3253V40.9522C69.828 41.0938 69.5215 41.1647 69.2114 41.1594C68.4256 41.1664 67.8233 40.7786 67.8233 39.7816Z" fill="#30485B"/>
<path d="M71.2518 34.6956H72.0929V35.5031H71.2518V34.6956ZM71.2999 36.176H72.0341V41.085H71.2946L71.2999 36.176Z" fill="#30485B"/>
<path d="M73.8107 39.7816V36.8224H73.1247V36.176H73.8107V34.6956H74.5467V36.176H76.1059V36.8224H74.5396V39.686C74.5396 40.2845 74.8728 40.5024 75.37 40.5024C75.6177 40.5006 75.8636 40.4404 76.0828 40.3253V40.9522C75.8083 41.0938 75.5018 41.1647 75.1918 41.1594C74.4131 41.1664 73.8107 40.7786 73.8107 39.7816Z" fill="#30485B"/>
<path d="M77.1448 39.222V36.176H77.8879V39.0413C77.8879 39.9534 78.3851 40.5218 79.2529 40.5218C80.1207 40.5218 80.7337 39.9055 80.7337 38.9847V36.176H81.4519V41.085H80.7266V40.2314C80.3862 40.837 79.734 41.2072 79.0355 41.1895C77.8416 41.1859 77.1448 40.389 77.1448 39.222Z" fill="#30485B"/>
<path d="M83.1697 39.7816V36.8224H82.4836V36.176H83.1697V34.6956H83.9056V36.176H85.472V36.8224H83.9056V39.686C83.9056 40.2845 84.2389 40.5024 84.736 40.5024C84.9837 40.5006 85.2296 40.4404 85.4488 40.3253V40.9522C85.1744 41.0938 84.8679 41.1647 84.5578 41.1594C83.7684 41.1664 83.1697 40.7786 83.1697 39.7816Z" fill="#30485B"/>
<path d="M88.6136 40.5538C89.2088 40.5591 89.7791 40.3076 90.1711 39.8613L90.6291 40.2704C90.1301 40.8707 89.3799 41.209 88.5958 41.1895C87.2397 41.1895 86.1313 40.1553 86.1313 38.6288C86.1313 37.2121 87.1346 36.0663 88.4996 36.0663C89.9608 36.0663 90.8001 37.2245 90.8001 38.666V38.9228H86.8798C86.976 39.9623 87.7458 40.5538 88.6136 40.5538ZM90.0553 38.3348C89.9697 37.4494 89.4547 36.6843 88.48 36.6843C87.63 36.6843 86.9814 37.3927 86.8762 38.3348H90.0553Z" fill="#30485B"/>
<path d="M19.325 60V57.3631C26.8966 57.3631 33.4436 54.666 38.7859 49.3427C44.1283 44.0194 46.8583 37.5237 46.8583 30.0009C46.8583 22.4781 44.1426 15.9824 38.7877 10.6591C33.4329 5.33573 26.8823 2.63688 19.325 2.63688V0C27.6112 0 34.7907 2.95918 40.6624 8.79431C46.534 14.6294 49.5099 21.7644 49.5099 30.0009C49.5099 38.2374 46.534 45.3865 40.6606 51.2075C34.7872 57.0284 27.6254 60 19.325 60Z" fill="#30485B"/>
</g>
<defs>
<clipPath id="clip0_0_753">
<rect width="105" height="60" fill="white" transform="translate(0.642105)"/>
</clipPath>
</defs>
</svg>
