<svg width="106" height="54" viewBox="0 0 106 54" fill="none" xmlns="http://www.w3.org/2000/svg">
<g clip-path="url(#clip0_0_789)">
<path d="M103.923 17.7911C102.943 17.8167 102.036 16.9395 102.066 15.9339C102.053 14.971 102.947 14.0467 103.936 14.0638C104.971 14.0638 105.81 14.9282 105.78 15.9339C105.81 16.9395 104.898 17.821 103.923 17.7911Z" fill="#30485B"/>
<path d="M90.0067 18.5358C89.3049 18.1592 89.0395 17.2862 89.4161 16.5844C89.7799 15.8912 90.6571 15.6302 91.3589 16.0067C92.0607 16.3833 92.326 17.2606 91.9494 17.9581C91.8895 18.0779 91.7954 18.1934 91.7055 18.2833C91.2562 18.7326 90.5758 18.8439 90.0067 18.5401V18.5358Z" fill="#30485B"/>
<path d="M96.357 17.3332C95.5825 16.7341 95.4456 15.6172 96.0318 14.8512L96.0447 14.8384C96.648 14.0852 97.7478 13.9354 98.5223 14.5388C99.3012 15.1379 99.4381 16.2548 98.8347 17.0293C98.7962 17.0935 98.7449 17.1406 98.6978 17.1919C98.073 17.821 97.0674 17.8937 96.357 17.3289V17.3332Z" fill="#30485B"/>
<path d="M83.9728 20.3585C83.7888 20.1745 83.6776 19.922 83.6819 19.661C83.6819 18.8009 84.7474 18.313 85.385 18.9464C85.5776 19.1347 85.6803 19.4 85.676 19.661C85.6974 20.5083 84.6233 21.009 83.9728 20.3585Z" fill="#30485B"/>
<path d="M38.9594 17.3888C40.1876 16.1606 39.2119 14.1708 37.6543 14.2136C36.6914 14.2007 35.7671 15.0951 35.7842 16.0836C35.7842 17.1192 36.6486 17.9579 37.6543 17.928C38.1421 17.9408 38.6171 17.7311 38.9594 17.3888Z" fill="#30485B"/>
<path d="M51.917 18.4458C51.8271 18.5357 51.7158 18.6298 51.5918 18.6897C50.89 19.0663 50.017 18.801 49.6404 18.0992C49.2638 17.3974 49.5291 16.5244 50.2181 16.1564C50.9199 15.7798 51.7972 16.0451 52.1737 16.7469C52.4776 17.3161 52.3663 17.9965 51.9213 18.4458H51.917Z" fill="#30485B"/>
<path d="M45.605 17.3502C45.5537 17.4016 45.5066 17.4486 45.4424 17.4872C44.6636 18.0862 43.551 17.9493 42.9519 17.1748C42.3528 16.4002 42.5026 15.2962 43.2515 14.6971L43.2643 14.6842C44.0303 14.0937 45.1429 14.2349 45.7463 15.0095C46.3068 15.7241 46.2341 16.7254 45.6093 17.3502H45.605Z" fill="#30485B"/>
<path d="M85.2096 13.7685C84.4778 13.4433 84.1526 12.5874 84.4693 11.8685C84.786 11.1453 85.629 10.8115 86.3607 11.1154C87.0925 11.4406 87.4177 12.2964 87.1053 13.0196C87.0326 13.1908 86.9299 13.3363 86.8015 13.469C86.4035 13.8669 85.7745 14.0081 85.2139 13.7728L85.2096 13.7685Z" fill="#30485B"/>
<path d="M101.77 4.17028C101.321 3.72096 101.056 3.12187 101.073 2.50565C101.056 1.29035 102.19 0.156346 103.418 0.156346C104.68 0.122112 105.78 1.15341 105.78 2.51849C105.78 4.58537 103.251 5.64663 101.77 4.166V4.17028Z" fill="#30485B"/>
<path d="M74.4387 10.5976C74.5884 9.95569 75.2218 9.562 75.8722 9.70322C76.5013 9.86155 76.9078 10.5034 76.758 11.141C76.7067 11.3593 76.5911 11.5647 76.4456 11.7059C75.5812 12.5703 74.1691 11.753 74.4429 10.5933L74.4387 10.5976Z" fill="#30485B"/>
<path d="M80.2542 9.18128C79.5182 8.92452 79.1416 8.10719 79.4069 7.37971C79.6765 6.65224 80.4939 6.27567 81.217 6.54526C81.9317 6.80629 82.3211 7.61079 82.0515 8.33827L82.0601 8.34682C81.9787 8.54367 81.8718 8.71484 81.7306 8.85178C81.354 9.22835 80.7763 9.36957 80.2457 9.18128H80.2542Z" fill="#30485B"/>
<path d="M85.3465 7.34113C84.4393 6.90036 84.0798 5.78776 84.5334 4.89767C84.9999 3.99475 86.0868 3.63101 87.0025 4.08462C87.8969 4.53822 88.2564 5.65082 87.807 6.54091C87.7043 6.72063 87.6016 6.87469 87.469 7.00734C86.9255 7.55081 86.0611 7.7177 85.3465 7.34113Z" fill="#30485B"/>
<path d="M90.6443 6.00596C89.66 5.35551 89.3862 4.02467 90.0366 3.04044C90.6871 2.05621 92.0179 1.78662 93.0021 2.43706C93.9864 3.11746 94.2431 4.43547 93.5927 5.41542C93.5328 5.53524 93.4258 5.64222 93.3359 5.73209C92.6256 6.44244 91.5044 6.5965 90.6443 6.00596Z" fill="#30485B"/>
<path d="M96.2029 4.78632C95.3085 4.01177 95.2058 2.66809 95.9761 1.77373C96.7335 0.866525 98.0815 0.759543 98.9887 1.51697C99.8831 2.28724 99.9858 3.6352 99.2326 4.5424C99.1898 4.58519 99.1556 4.61943 99.1128 4.66222C98.3254 5.4496 97.0844 5.50951 96.2072 4.78204L96.2029 4.78632Z" fill="#30485B"/>
<path d="M103.717 11.5433C102.562 11.5433 101.655 10.5933 101.65 9.47645C101.633 8.37668 102.648 7.39673 103.73 7.39673C104.813 7.39673 105.814 8.32105 105.78 9.47645C105.81 10.5805 104.924 11.539 103.713 11.5433H103.717Z" fill="#30485B"/>
<path d="M74.2504 18.1505C74.3274 17.5429 74.888 17.1235 75.4871 17.2091C76.0862 17.2947 76.5141 17.8467 76.4285 18.4458C76.3986 18.694 76.2873 18.9122 76.1247 19.0748C75.3844 19.8151 74.1049 19.1947 74.2504 18.1505Z" fill="#30485B"/>
<path d="M79.0902 14.6544C79.2871 13.9569 80.0145 13.5461 80.7206 13.7515C81.4181 13.9483 81.8289 14.6758 81.6364 15.3733C81.5636 15.5958 81.4481 15.7841 81.2898 15.9425C80.3312 16.901 78.7265 15.951 79.0902 14.6544Z" fill="#30485B"/>
<path d="M90.6057 12.1166C89.8012 11.6031 89.5444 10.5418 90.0451 9.72449C90.5458 8.93283 91.607 8.67607 92.4115 9.16391C93.2289 9.66458 93.4856 10.7258 92.985 11.5432C92.9122 11.6673 92.8266 11.7743 92.741 11.8598C92.1805 12.4204 91.2989 12.5445 90.6057 12.1166Z" fill="#30485B"/>
<path d="M96.2586 11.0941C95.4669 10.4351 95.3471 9.26262 95.9933 8.45812C96.6523 7.66646 97.8248 7.55092 98.6164 8.20992C99.4209 8.85609 99.5408 10.0286 98.8818 10.8203L98.8946 10.8331C98.8432 10.8845 98.8047 10.9272 98.7619 10.9658C98.0901 11.6376 96.9946 11.7018 96.2586 11.0984V11.0941Z" fill="#30485B"/>
<path d="M39.7938 0.858211C39.3445 0.40889 38.7454 0.143576 38.1292 0.160693C36.9139 0.143576 35.7799 1.27758 35.7842 2.50572C35.7499 3.7681 36.7812 4.86787 38.1463 4.86787C39.4686 4.86787 41.2531 2.31744 39.7938 0.858211Z" fill="#30485B"/>
<path d="M66.8302 11.8771C66.689 12.0183 66.4836 12.1381 66.2654 12.1895C65.6278 12.3392 64.9859 11.937 64.8275 11.3037C64.6863 10.6575 65.08 10.0242 65.7219 9.87012C66.8773 9.59625 67.7032 11.0084 66.8345 11.8728L66.8302 11.8771Z" fill="#30485B"/>
<path d="M61.8363 9.01855C61.6951 9.15976 61.5282 9.26674 61.3313 9.34805L61.3228 9.33949C60.5953 9.60908 59.7908 9.21967 59.534 8.50504C59.2644 7.77756 59.6453 6.96451 60.3685 6.69491C61.096 6.42532 61.909 6.80617 62.1701 7.54221C62.3583 8.07283 62.2214 8.64625 61.8406 9.02711L61.8363 9.01855Z" fill="#30485B"/>
<path d="M56.7054 7.16569C56.5771 7.29407 56.4187 7.39677 56.239 7.50375C55.3489 7.95735 54.2363 7.59362 53.7784 6.69925C53.3248 5.78349 53.6886 4.69656 54.5915 4.23012C55.4816 3.77652 56.5985 4.14026 57.0349 5.04318C57.4115 5.75354 57.2446 6.62222 56.7012 7.16569H56.7054Z" fill="#30485B"/>
<path d="M51.2751 5.89472C51.1852 5.98459 51.0782 6.09157 50.9584 6.15148C49.9742 6.80192 48.6605 6.54517 47.9801 5.56094C47.3296 4.57671 47.6035 3.24587 48.5834 2.59542C49.5677 1.94497 50.8985 2.21885 51.549 3.20307C52.1395 4.0632 51.9897 5.18437 51.2751 5.89472Z" fill="#30485B"/>
<path d="M45.4938 4.90205C45.4467 4.94912 45.4168 4.97907 45.374 5.02186C44.4668 5.77929 43.1188 5.67231 42.3485 4.77795C41.5911 3.87075 41.6981 2.52278 42.6053 1.76535C43.4997 0.995088 44.8433 1.09779 45.6179 1.99215C46.3411 2.8694 46.2855 4.11038 45.4981 4.89777L45.4938 4.90205Z" fill="#30485B"/>
<path d="M39.3274 8.16711C38.9337 7.77342 38.4202 7.5509 37.8639 7.5509C36.7641 7.53806 35.7842 8.54797 35.7842 9.63062C35.7842 10.7133 36.7128 11.7146 37.8639 11.6804C39.7083 11.7275 40.6112 9.44661 39.3274 8.16283V8.16711Z" fill="#30485B"/>
<path d="M67.0227 19.2418C66.8601 19.4044 66.6419 19.5157 66.3937 19.5456C65.7946 19.6312 65.2425 19.2033 65.157 18.6042C65.0714 18.0051 65.4907 17.4445 66.0984 17.3675C67.1425 17.2177 67.763 18.5015 67.0227 19.2418Z" fill="#30485B"/>
<path d="M62.1572 16.0923C61.9989 16.2506 61.8149 16.3619 61.5881 16.4389C60.8906 16.6358 60.1588 16.225 59.9663 15.5232C59.7609 14.8128 60.1717 14.0853 60.8692 13.8928C62.1615 13.529 63.1115 15.1338 62.1572 16.0923Z" fill="#30485B"/>
<path d="M56.821 13.606C56.6883 13.7386 56.5471 13.8413 56.376 13.9098C55.6528 14.2265 54.8012 13.9013 54.4717 13.1652C54.1679 12.4335 54.5016 11.5905 55.2248 11.2738C55.948 10.9571 56.7996 11.2824 57.1291 12.0141C57.3645 12.5747 57.219 13.2037 56.8253 13.6017L56.821 13.606Z" fill="#30485B"/>
<path d="M51.2879 12.0226C51.2023 12.1082 51.091 12.1938 50.9712 12.2665C50.1539 12.7672 49.0926 12.5104 48.5919 11.6931C48.1041 10.8886 48.3609 9.82734 49.1525 9.32667C49.9699 8.826 51.0311 9.08275 51.5446 9.88725C51.9726 10.5805 51.8485 11.462 51.2879 12.0226Z" fill="#30485B"/>
<path d="M45.2969 11.124C45.2584 11.1626 45.2199 11.2011 45.1643 11.2567L45.1514 11.2439C44.3598 11.9029 43.1873 11.7831 42.5411 10.9828C41.8821 10.1912 42.0019 9.01866 42.7893 8.35965C43.5938 7.71349 44.7663 7.83331 45.4253 8.62497C46.0287 9.36528 45.9645 10.4565 45.2926 11.1283L45.2969 11.124Z" fill="#30485B"/>
<path d="M57.8952 19.8067C57.8952 19.2546 57.4244 18.7968 56.8981 18.8096C56.038 18.8096 55.5501 19.8751 56.1835 20.5127C56.376 20.701 56.6328 20.808 56.8981 20.8037C57.403 20.8166 57.8952 20.3844 57.8952 19.8067Z" fill="#30485B"/>
<path d="M70.7542 15.57C70.0952 15.57 69.6331 15.0437 69.6502 14.466C69.6502 13.5459 70.8099 12.964 71.5373 13.6914C72.2049 14.359 71.777 15.5743 70.7542 15.57Z" fill="#30485B"/>
<path d="M70.7543 23.5039C70.2108 23.5168 69.7358 23.0289 69.7487 22.4983C69.7487 21.6553 70.8228 21.1375 71.4732 21.7837C72.1065 22.417 71.6401 23.5253 70.7543 23.4996V23.5039Z" fill="#30485B"/>
<path d="M33.9142 51.7769H34.5347V49.5474H35.5916V49.1451H34.5389C34.5389 49.1024 34.5389 48.6102 34.5389 48.653C34.5389 47.8999 34.7272 47.442 35.4419 47.4292H35.4675V47.4334H35.8013V47.0654C35.5745 47.0783 35.1466 47.0226 34.7101 47.1852C33.636 47.5918 33.9399 48.4562 33.9099 51.7769H33.9142Z" fill="#30485B"/>
<path d="M27.4568 48.1824H26.8363L26.8277 50.1979C26.8277 50.904 26.6651 51.3875 25.9762 51.4218C24.8636 51.3661 25.1374 50.2321 25.116 48.1824H24.4955C24.5383 50.2578 24.2259 51.2592 25.2958 51.6657C25.5739 51.7727 25.8349 51.7684 25.9462 51.7812C25.9462 51.7812 25.989 51.7855 26.0061 51.7855C26.3784 51.7427 26.4469 51.7684 26.7935 51.5972L26.8277 51.5801C26.8063 52.5814 26.9433 53.4715 25.912 53.4886L25.9462 53.8481C26.4169 53.8481 26.8748 53.7197 27.1872 53.3645C27.4225 53.0907 27.4311 52.7013 27.4653 52.2862C27.4653 52.2434 27.4653 50.0909 27.4653 50.2279L27.4568 48.1866V48.1824Z" fill="#30485B"/>
<path d="M7.77649 47.827C7.95622 47.827 8.10171 47.6815 8.10171 47.5018V47.3948C8.10171 47.2151 7.95622 47.0696 7.77649 47.0696C7.59676 47.0696 7.45126 47.2151 7.45126 47.3948V47.5018C7.45126 47.6815 7.59676 47.827 7.77649 47.827Z" fill="#30485B"/>
<path d="M7.45126 48.2251H8.11455V51.7769H7.45126V48.2251Z" fill="#30485B"/>
<path d="M14.4179 47.827C14.5976 47.827 14.7431 47.6815 14.7431 47.5018V47.3948C14.7431 47.2151 14.5976 47.0696 14.4179 47.0696C14.2382 47.0696 14.0927 47.2151 14.0927 47.3948V47.5018C14.0927 47.6815 14.2382 47.827 14.4179 47.827Z" fill="#30485B"/>
<path d="M14.0927 48.1824H14.756V51.7812H14.0927V48.1824Z" fill="#30485B"/>
<path d="M61.7764 47.7485C61.9561 47.7485 62.1016 47.6033 62.1016 47.424V47.3941C62.1016 47.2148 61.9561 47.0696 61.7764 47.0696C61.5967 47.0696 61.4512 47.2148 61.4512 47.3941V47.424C61.4512 47.6033 61.5967 47.7485 61.7764 47.7485Z" fill="#30485B"/>
<path d="M61.4426 48.1824H62.1059V51.7812H61.4426V48.1824Z" fill="#30485B"/>
<path d="M46.8417 50.5574V48.1824H46.1913L46.1827 50.0652C46.1827 51.0452 46.6834 51.7299 47.7404 51.7727L49.6147 51.7769V48.1824H48.9514V51.426H47.7104C47.2312 51.426 46.8417 51.0366 46.8417 50.5574Z" fill="#30485B"/>
<path d="M41.6767 49.894C41.6895 49.9496 41.5398 51.2548 42.6096 51.6613C42.9048 51.7726 43.1915 51.7726 43.2557 51.7812H45.2114V47.0654H44.5481V48.1823C44.5053 48.1823 43.1488 48.1866 43.2343 48.1866C42.1945 48.2294 41.6767 48.8969 41.6767 49.894ZM43.3071 48.5332H44.5481V51.4303H43.3071C42.8278 51.4303 42.4384 51.0409 42.4384 50.5616V49.4019C42.4384 48.9226 42.8278 48.5332 43.3071 48.5332Z" fill="#30485B"/>
<path d="M69.8556 48.3063C69.5561 48.1908 69.2523 48.1951 69.2095 48.1865H67.3309V51.7854H67.9942V48.5374H69.2351C69.7144 48.5374 70.1038 48.9268 70.1038 49.4061V51.7854H70.7842L70.7928 49.8982C70.7928 49.0081 70.3777 48.5075 69.8599 48.3106L69.8556 48.3063Z" fill="#30485B"/>
<path d="M50.4962 50.0908C50.4962 51.0665 50.9969 51.7383 52.0368 51.7769H52.0625H53.6244V51.4302H52.1095C51.6345 51.4302 51.2494 51.0451 51.2494 50.5701C51.2494 50.5701 51.2237 50.1721 51.2237 49.9496C51.2237 49.7271 51.2494 49.3848 51.2494 49.3805C51.2494 48.9098 51.6345 48.5246 52.1095 48.5246H53.6244V48.178C52.3534 48.2122 51.4676 48.0068 50.8985 48.6573C50.3294 49.3206 50.5519 49.7742 50.5005 50.0866L50.4962 50.0908Z" fill="#30485B"/>
<path d="M17.7386 49.7399C17.3364 49.5859 16.5961 49.7228 16.472 49.1323C16.4121 48.8584 16.6774 48.5032 17.2765 48.5032H17.9611V48.0582C17.4776 48.0582 16.9213 47.964 16.4591 48.1395C15.6846 48.4348 15.5562 49.1879 15.9542 49.6543C16.549 50.3305 17.2893 49.9796 17.6231 50.3604C17.79 50.553 17.8242 50.737 17.7258 50.9039C17.4006 51.4516 16.6817 51.2976 15.9884 51.319V51.7811C16.1253 51.794 17.0625 51.7811 17.1823 51.7683C18.7913 51.6014 18.8897 50.1721 17.7429 49.7357L17.7386 49.7399Z" fill="#30485B"/>
<path d="M1.56303 47.0653H0.78421V51.7767H1.43466V48.4047L3.1592 51.7767H3.51009L5.23891 48.2977L5.37157 48.0538V51.7767H6.06909V47.0653H5.3031L3.48442 50.724H3.41595C2.82113 49.5472 1.47317 46.8984 1.56303 47.0653Z" fill="#30485B"/>
<path d="M38.7027 49.4404H40.3844V49.0767H38.7027V47.4677H41.2146V47.0654H38.0394V51.7769H41.2146V51.4303H38.7027" fill="#30485B"/>
<path d="M20.0023 51.1693C19.6642 50.7627 19.7798 50.0995 19.7541 48.6488H20.8068V48.1866H19.7541V47.1211H19.1293C19.155 49.8085 18.9881 50.8184 19.3989 51.3019C19.5401 51.4603 19.7198 51.5844 19.9295 51.6657C20.3318 51.8197 20.7597 51.7726 20.948 51.7812V51.4346C20.6613 51.4217 20.2505 51.4688 20.0023 51.1735V51.1693Z" fill="#30485B"/>
<path d="M21.7739 51.7811H22.4287C22.4543 49.7142 22.1762 48.5631 23.4172 48.5588H23.6996V48.178C23.4899 48.1908 23.0534 48.1395 22.6127 48.3064C21.4915 48.73 21.821 49.8084 21.7739 51.7768V51.7811Z" fill="#30485B"/>
<path d="M65.6277 48.3021C65.3581 48.1994 65.1228 48.1994 64.9944 48.1823C64.8446 48.1994 63.9888 48.071 63.4795 48.653C62.9789 49.2435 63.1072 49.9796 63.0858 50.1079C63.0858 51.1007 63.6036 51.734 64.6093 51.7726C64.7291 51.7469 65.6149 51.9138 66.1498 51.3061C66.4237 50.9852 66.5435 50.6172 66.5435 50.1079C66.5221 50.0566 66.7189 48.7129 65.632 48.2978L65.6277 48.3021ZM64.6734 51.4388C63.9674 51.4388 63.8133 50.7156 63.7834 50.4032C63.5437 48.1352 64.896 48.5845 64.943 48.5246C65.6363 48.5246 65.7946 49.2221 65.8331 49.5217C66.1156 51.8239 64.7205 51.3874 64.6734 51.4388Z" fill="#30485B"/>
<path d="M54.1208 50.3818C54.2748 51.5843 55.182 51.8966 56.3802 51.764C56.7568 51.6827 56.8167 51.6442 57.0349 51.5115V51.7768H57.7153V48.178C57.6725 48.178 55.5586 48.1823 55.6912 48.1823C55.2334 48.1994 54.8097 48.332 54.5102 48.6701C53.9325 49.3462 54.1379 50.1764 54.1208 50.3818ZM54.8782 49.419C54.8782 48.9311 55.2762 48.5332 55.764 48.5332H57.0306V50.2577L57.0221 50.5401C57.0221 51.0194 56.5984 51.4259 56.1021 51.4259H55.7597C55.2719 51.4259 54.8739 51.028 54.8739 50.5401C54.8739 50.5401 54.844 50.262 54.844 49.9795C54.844 49.6971 54.8739 49.419 54.8739 49.4147L54.8782 49.419Z" fill="#30485B"/>
<path d="M59.4912 50.7884C59.3971 50.3819 59.4442 50.0652 59.4271 48.5889H60.4798V48.1866H59.4271V47.1211H58.8023C58.828 49.8085 58.6654 50.8184 59.0719 51.3019C59.6111 51.9139 60.4969 51.7512 60.621 51.7769V51.4303C60.4584 51.3961 59.7223 51.6057 59.4955 50.7884H59.4912Z" fill="#30485B"/>
<path d="M32.318 48.2936C32.0441 48.1909 31.7917 48.1867 31.6804 48.1738C31.6119 48.1995 29.7633 47.9085 29.7633 49.8513C29.7804 49.924 29.6092 51.2592 30.679 51.6657C31.107 51.8283 31.8901 51.8283 32.318 51.6657C32.5234 51.5887 32.6989 51.4689 32.8358 51.3105C33.3322 50.7285 33.2124 50.0267 33.2295 49.8513C33.2295 48.9783 32.8272 48.4862 32.3137 48.2936H32.318ZM32.5191 50.6002C32.318 51.64 31.4194 51.4089 31.368 51.4432C30.6577 51.4432 30.5079 50.7157 30.4736 50.4033C30.234 48.1225 31.5905 48.5761 31.6376 48.5162C32.3308 48.5162 32.4935 49.2137 32.5277 49.5132C32.5576 49.7486 32.5919 50.1979 32.5148 50.5959L32.5191 50.6002Z" fill="#30485B"/>
<path d="M11.2127 48.1865H9.33414V51.7854H9.99742V48.5374H11.2427C11.722 48.5374 12.1114 48.9268 12.1114 49.4061V51.7854H12.7918L12.8003 49.8982C12.8003 49.3762 12.6762 48.9953 12.3981 48.6701C11.953 48.1608 11.2641 48.2036 11.2213 48.1908L11.2127 48.1865Z" fill="#30485B"/>
<path d="M50.4663 34.1762C50.7948 34.1762 51.0611 33.9099 51.0611 33.5814C51.0611 33.2529 50.7948 32.9866 50.4663 32.9866C50.1378 32.9866 49.8715 33.2529 49.8715 33.5814C49.8715 33.9099 50.1378 34.1762 50.4663 34.1762Z" fill="#30485B"/>
<path d="M61.9989 35.4558L61.9904 40.2571C61.9904 40.5524 61.9647 40.8177 61.9133 41.0402C61.8534 41.2499 61.7764 41.4168 61.678 41.5324C61.5796 41.6479 61.4512 41.7335 61.2971 41.7848C61.1602 41.8319 60.9847 41.8533 60.7836 41.8533H60.7579L60.8136 42.4481H60.835C61.2115 42.4481 61.5453 42.3925 61.8406 42.2812C62.1316 42.17 62.3798 42.0031 62.5766 41.7805C62.8933 41.4125 63.0773 40.9119 63.1329 40.2914L63.1244 35.4558H62.0075H61.9989Z" fill="#30485B"/>
<path d="M59.0633 32.9866H60.1545V39.9917H59.0633V32.9866Z" fill="#30485B"/>
<path d="M56.2348 35.4558L56.2262 40.2571C56.2262 40.5524 56.2005 40.8177 56.1492 41.0402C56.0893 41.2499 56.0122 41.4168 55.9138 41.5324C55.8154 41.6479 55.687 41.7335 55.533 41.7848C55.396 41.8319 55.2206 41.8533 55.0194 41.8533H54.9938L55.0494 42.4481H55.0708C55.4474 42.4481 55.7812 42.3925 56.0764 42.2812C56.3674 42.17 56.6156 42.0031 56.8125 41.7805C57.1291 41.4125 57.3131 40.9119 57.3688 40.2914L57.3602 35.4558H56.2433H56.2348Z" fill="#30485B"/>
<path d="M47.9544 37.8051V39.9875H54.2064V35.4558H50.3037C49.0071 35.4558 47.9544 36.5085 47.9544 37.8051ZM53.1066 36.3545V39.0375H49.0541V37.6981C49.0541 36.9578 49.6532 36.3545 50.3978 36.3545H53.1109H53.1066Z" fill="#30485B"/>
<path d="M35.6986 34.1762C36.0271 34.1762 36.2934 33.9099 36.2934 33.5814C36.2934 33.2529 36.0271 32.9866 35.6986 32.9866C35.3701 32.9866 35.1038 33.2529 35.1038 33.5814C35.1038 33.9099 35.3701 34.1762 35.6986 34.1762Z" fill="#30485B"/>
<path d="M8.76495 42.414C9.09346 42.414 9.35977 42.1477 9.35977 41.8192C9.35977 41.4907 9.09346 41.2244 8.76495 41.2244C8.43644 41.2244 8.17014 41.4907 8.17014 41.8192C8.17014 42.1477 8.43644 42.414 8.76495 42.414Z" fill="#30485B"/>
<path d="M10.4895 42.414C10.818 42.414 11.0843 42.1477 11.0843 41.8192C11.0843 41.4907 10.818 41.2244 10.4895 41.2244C10.161 41.2244 9.89471 41.4907 9.89471 41.8192C9.89471 42.1477 10.161 42.414 10.4895 42.414Z" fill="#30485B"/>
<path d="M37.4232 34.1762C37.7517 34.1762 38.018 33.9099 38.018 33.5814C38.018 33.2529 37.7517 32.9866 37.4232 32.9866C37.0946 32.9866 36.8283 33.2529 36.8283 33.5814C36.8283 33.9099 37.0946 34.1762 37.4232 34.1762Z" fill="#30485B"/>
<path d="M52.1909 34.1762C52.5194 34.1762 52.7857 33.9099 52.7857 33.5814C52.7857 33.2529 52.5194 32.9866 52.1909 32.9866C51.8624 32.9866 51.5961 33.2529 51.5961 33.5814C51.5961 33.9099 51.8624 34.1762 52.1909 34.1762Z" fill="#30485B"/>
<path d="M62.5723 34.1806C62.9032 34.1806 63.1714 33.9124 63.1714 33.5815C63.1714 33.2506 62.9032 32.9824 62.5723 32.9824C62.2414 32.9824 61.9732 33.2506 61.9732 33.5815C61.9732 33.9124 62.2414 34.1806 62.5723 34.1806Z" fill="#30485B"/>
<path d="M40.3074 39.0374H37.5772V35.4557H36.486V39.0374H25.5739V37.7708C25.5739 36.992 26.2073 36.3586 26.9861 36.3586H31.6419V35.46H26.8919C25.5568 35.46 24.4742 36.5426 24.4742 37.8778V39.0374H15.6589V32.9866H14.5805V39.0417H11.538V35.46H10.4468V39.0417H8.37991L8.37135 37.9505V37.9334C8.37135 37.1631 8.13171 36.5555 7.65243 36.1275C7.22879 35.7253 6.62541 35.4985 5.86371 35.46H1.54166L1.5545 40.073C1.5545 40.3683 1.52882 40.6336 1.47747 40.8561C1.41756 41.0658 1.34054 41.2327 1.24211 41.3482C1.14369 41.4638 1.01959 41.5494 0.86126 41.6007C0.839864 41.6093 0.809909 41.6093 0.788513 41.6178V42.2426C1.01103 42.2169 1.21644 42.1698 1.40473 42.1014C1.69571 41.9901 1.94391 41.8232 2.14076 41.6007C2.45742 41.2327 2.64143 40.732 2.69706 40.1115V39.9917H41.4371V32.9866H40.3117V39.0374H40.3074ZM2.75269 36.3543H5.91078H5.99208C6.03915 36.3629 6.08195 36.3672 6.12474 36.3757C6.77519 36.4956 7.25018 37.0647 7.25018 37.728V39.0332H2.6885L2.67994 36.4228C2.67994 36.3843 2.7099 36.3501 2.75269 36.3501V36.3543Z" fill="#30485B"/>
<path d="M70.7884 35.4558H66.9286C65.6106 35.4558 64.545 36.5213 64.545 37.8394V39.9875H69.6587V40.2571C69.6587 40.5524 69.633 40.8177 69.5774 41.0402C69.5175 41.2499 69.4405 41.4168 69.3421 41.5324C69.2436 41.6479 69.1153 41.7335 68.9612 41.7848C68.9056 41.8019 68.8371 41.8148 68.7686 41.8276V42.4395C69.0382 42.4182 69.2821 42.3668 69.5047 42.2812C69.7957 42.17 70.0439 42.0031 70.2407 41.7805C70.5574 41.4125 70.7414 40.9119 70.797 40.2914V35.4558H70.7884ZM67.0227 36.3545H69.6673V39.0375H65.6448V37.7324C65.6448 36.9707 66.261 36.3545 67.0227 36.3545Z" fill="#30485B"/>
<path d="M43.0889 32.9866C43.0889 32.9866 43.0718 32.9951 43.0718 33.0037V39.9746C43.0718 39.9746 43.0803 39.9917 43.0889 39.9917H44.1501C44.1501 39.9917 44.1673 39.9831 44.1673 39.9746V33.0037C44.1673 33.0037 44.1587 32.9866 44.1501 32.9866H43.0889Z" fill="#30485B"/>
</g>
<defs>
<clipPath id="clip0_0_789">
<rect width="105" height="53.6875" fill="white" transform="translate(0.78421 0.15625)"/>
</clipPath>
</defs>
</svg>
