<svg width="98" height="42" viewBox="0 0 98 42" fill="none" xmlns="http://www.w3.org/2000/svg">
<g clip-path="url(#clip0_0_866)">
<path d="M9.12481 27.6159C9.12481 30.0471 7.14949 32.0351 4.70565 32.0351C2.26182 32.0351 0.286499 30.0598 0.286499 27.6159C0.286499 25.1721 2.26182 23.1968 4.70565 23.1968C7.14949 23.1968 9.12481 25.1721 9.12481 27.6159Z" fill="#30485B"/>
<path d="M63.1676 0.810303H57.9634V6.00186H63.1676V0.810303Z" fill="#30485B"/>
<path d="M70.9677 0.810303H65.7635V6.00186H70.9677V0.810303Z" fill="#30485B"/>
<path d="M37.2225 36.0491H32.0182V41.2406H37.2225V36.0491Z" fill="#30485B"/>
<path d="M45.0226 36.0491H39.8184V41.2406H45.0226V36.0491Z" fill="#30485B"/>
<path d="M90.0118 0.746582H84.8076V5.93814H90.0118V0.746582Z" fill="#30485B"/>
<path d="M87.3907 11.2562C81.6547 11.2562 76.9949 15.9033 76.9949 21.652C76.9949 23.5767 77.5141 25.3621 78.4258 26.8436H73.4748C74.3612 25.3114 74.8803 23.5387 74.8803 21.652C74.8803 15.9033 70.2206 11.2562 64.4845 11.2562C63.269 11.2562 62.0914 11.4715 61.0151 11.8514C56.9758 13.2822 54.0888 17.1315 54.0888 21.652V26.8436H47.8082C48.6946 25.3114 49.2138 23.5387 49.2138 21.652V11.2562H44.0095V21.652C44.0095 24.5264 41.6797 26.8436 38.8053 26.8436H32.2082C33.0946 25.3114 33.6138 23.5387 33.6138 21.652V11.2562H23.218C17.4819 11.2562 12.8222 15.9033 12.8222 21.652C12.8222 27.4007 17.4819 32.0478 23.218 32.0478C26.9407 32.0478 30.1949 30.0851 32.031 27.1601V32.0478H38.818C42.5407 32.0478 45.7949 30.0851 47.631 27.1475V32.0478H64.4845C68.1946 32.0478 71.4488 30.0851 73.2722 27.1728V32.0478H87.3907C93.1267 32.0478 97.7865 27.388 97.7865 21.652V11.2562H87.3907ZM28.4222 21.652C28.4222 24.5264 26.0923 26.8436 23.218 26.8436C20.3436 26.8436 18.0264 24.5137 18.0264 21.652C18.0264 18.7903 20.3436 16.4604 23.218 16.4604H28.4222V21.652ZM69.6761 21.6647C69.6761 24.5264 67.3462 26.8942 64.4719 26.8562H59.255V21.6647H59.2677C59.2677 18.7903 61.5849 16.4731 64.4719 16.4731C67.3589 16.4731 69.6634 18.803 69.6634 21.6647H69.6761ZM92.5949 21.652C92.5949 24.5264 90.2651 26.8436 87.3907 26.8436C84.5164 26.8436 82.1865 24.5137 82.1865 21.652C82.1865 18.7903 84.5164 16.4604 87.3907 16.4604H92.5949V21.652Z" fill="#30485B"/>
</g>
<defs>
<clipPath id="clip0_0_866">
<rect width="97.5" height="40.5068" fill="white" transform="translate(0.286499 0.746582)"/>
</clipPath>
</defs>
</svg>
