<svg width="62" height="60" viewBox="0 0 62 60" fill="none" xmlns="http://www.w3.org/2000/svg">
<g clip-path="url(#clip0_0_874)">
<path d="M19.6861 28.3075L19.009 27.6304L28.9644 17.675C29.0314 17.608 29.0314 17.4964 28.9644 17.4295L20.9361 9.4012L21.6132 8.72412L29.634 16.745C30.0805 17.1914 30.0805 17.9057 29.634 18.3521" fill="#30485B"/>
<path d="M24.9837 16.8341H14.1355V15.8743H23.9867L21.442 13.3297L22.1191 12.6526L25.3706 15.9041C25.5269 16.0603 25.5715 16.291 25.4897 16.4993C25.4078 16.7002 25.2069 16.8341 24.9837 16.8341Z" fill="#30485B"/>
<path d="M22.119 22.4518L21.442 21.7747L23.9866 19.2301H17.2976V18.2703H24.9836C25.2068 18.2703 25.4077 18.4042 25.4896 18.6051C25.5714 18.806 25.5268 19.0441 25.3705 19.2003" fill="#30485B"/>
<path d="M31.4643 16.0528C31.1741 16.0528 30.8839 15.9412 30.6607 15.718L20.7128 5.7701L21.3899 5.09302L31.3452 15.0409C31.4122 15.1079 31.5238 15.1079 31.5907 15.0409L39.6116 7.0201L40.2887 7.69718L32.2678 15.718C32.0521 15.9412 31.7544 16.0528 31.4643 16.0528Z" fill="#30485B"/>
<path d="M32.7292 11.6183C32.6622 11.6183 32.5878 11.6034 32.5209 11.5736C32.3125 11.4918 32.186 11.2909 32.186 11.0677V0.219482H33.1459V10.0707L35.6905 7.52603L36.3676 8.20311L33.1161 11.4546C33.0119 11.5588 32.8706 11.6183 32.7292 11.6183Z" fill="#30485B"/>
<path d="M30.2069 11.6184C30.0655 11.6184 29.9241 11.5664 29.82 11.4548L26.5685 8.20326L27.2456 7.52618L29.7902 10.0708V3.38184H30.75V11.0678C30.75 11.2911 30.6161 11.4845 30.4152 11.5738C30.3408 11.6036 30.2738 11.6184 30.2069 11.6184Z" fill="#30485B"/>
<path d="M41.3154 26.3729L33.2945 18.3521C32.8481 17.9056 32.8481 17.1913 33.2945 16.7449L43.2499 6.78955L43.927 7.46663L33.9716 17.4294C33.9047 17.4964 33.9047 17.608 33.9716 17.675L41.9925 25.6958" fill="#30485B"/>
<path d="M40.8096 22.4518L37.5581 19.2003C37.4018 19.0441 37.3572 18.8134 37.439 18.6051C37.5209 18.3968 37.7218 18.2703 37.945 18.2703H48.7932V19.2301H38.942L41.4867 21.7747" fill="#30485B"/>
<path d="M45.631 16.8341H37.945C37.7218 16.8341 37.5209 16.7002 37.439 16.4993C37.3572 16.291 37.4018 16.0603 37.5581 15.9041L40.8096 12.6526L41.4867 13.3297L38.942 15.8743H45.631" fill="#30485B"/>
<path d="M41.5387 30.0113L31.5908 20.056C31.5461 20.0113 31.4941 20.0039 31.4643 20.0039C31.4345 20.0039 31.3825 20.0113 31.3378 20.056L23.317 28.0768L22.6399 27.3997L30.6607 19.3789C30.8765 19.1631 31.1592 19.0441 31.4643 19.0441C31.7694 19.0441 32.0521 19.1631 32.2679 19.3789L42.2232 29.3342" fill="#30485B"/>
<path d="M30.5939 43.4635C30.7129 43.3445 30.7724 43.1808 30.765 43.0171C30.7575 42.8534 30.6757 42.6972 30.5492 42.593L21.018 34.907L20.4153 35.651L29.6192 43.0766L27.1415 45.5543H28.5031" fill="#30485B"/>
<path d="M33.3095 43.0842L42.5134 35.6586L41.9107 34.9146L32.3795 42.6006C32.253 42.7047 32.1711 42.861 32.1637 43.0247C32.1563 43.1884 32.2158 43.3521 32.3348 43.4711L34.4256 45.5619H35.7872" fill="#30485B"/>
<path d="M29.7903 38.8952L13.9718 26.1348L13.3691 26.8788L29.6935 40.0485C29.8126 40.1452 29.954 40.1973 30.1028 40.1973C30.2367 40.1973 30.3632 40.1601 30.4822 40.0708C30.6608 39.9443 30.7501 39.7285 30.7501 39.5128V23.6646H29.7903" fill="#30485B"/>
<path d="M48.957 26.1348L33.1385 38.8952V23.6646H32.1787V39.5128C32.1787 39.7285 32.268 39.9443 32.4466 40.0708C32.5656 40.1526 32.6995 40.1898 32.826 40.1898C32.9748 40.1898 33.1162 40.1378 33.2353 40.041L49.5522 26.8714" fill="#30485B"/>
<path d="M6.48657 54.8922L6.85116 55.2568L7.21574 54.8922L6.85116 54.5276" fill="#30485B"/>
<path d="M7.21582 54.8922L7.58784 55.2568L7.95243 54.8922L7.58784 54.5276" fill="#30485B"/>
<path d="M20.1248 53.5677H18.8822C18.845 53.5677 18.8004 53.5677 18.7557 53.5528C18.7037 53.5453 18.659 53.5305 18.6218 53.5156C18.5772 53.5007 18.54 53.4784 18.5176 53.4486C18.4879 53.4189 18.473 53.3891 18.473 53.3519V51.395H17.9596V53.0766C17.9596 53.2477 17.9373 53.3668 17.8852 53.4486C17.8331 53.523 17.729 53.5602 17.5653 53.5602H16.4492C16.3748 53.4635 16.3153 53.337 16.2929 53.1956C16.2632 53.0468 16.2409 52.8906 16.2185 52.7269C16.1962 52.5632 16.1665 52.3995 16.1367 52.2358C16.1069 52.0721 16.04 51.9233 15.9581 51.7894C15.8688 51.6555 15.7498 51.5513 15.5935 51.4694C15.4373 51.3876 15.229 51.343 14.9611 51.343C14.79 51.343 14.6412 51.3578 14.5147 51.3876C14.3882 51.4174 14.284 51.4471 14.2096 51.4843L14.1575 51.8936C14.2245 51.8712 14.3659 51.8266 14.4775 51.8043C14.5891 51.7745 14.7304 51.7671 14.8867 51.7671C15.0578 51.7671 15.1992 51.7968 15.2959 51.8564C15.3926 51.9159 15.4745 51.9977 15.5266 52.0944C15.5787 52.1912 15.6159 52.3028 15.6382 52.4293C15.6605 52.5558 15.6754 52.6822 15.6903 52.8162C15.7051 52.9501 15.7275 53.084 15.7572 53.2105C15.787 53.3444 15.8316 53.4561 15.8912 53.5602H13.4135C13.3763 53.5602 13.3316 53.5602 13.287 53.5453C13.2349 53.5379 13.1903 53.523 13.1531 53.5081C13.1159 53.4933 13.0787 53.4709 13.0489 53.4412C13.0191 53.4114 13.0043 53.3817 13.0043 53.3444V52.9203C13.0043 52.6971 12.9819 52.4888 12.9373 52.3028C12.8926 52.1168 12.8108 51.9531 12.6843 51.8192C12.5578 51.6852 12.3867 51.5811 12.1709 51.5066C11.9551 51.4322 11.6724 51.395 11.3376 51.395C11.2185 51.395 11.0846 51.4025 10.9432 51.4174C10.7944 51.4322 10.6531 51.4471 10.5043 51.4694C10.3554 51.4918 10.2141 51.5141 10.0876 51.5439C9.95366 51.5736 9.84205 51.5959 9.75277 51.6108V49.5721H9.23937V53.5528H7.95217C7.91497 53.5528 7.87033 53.5528 7.82568 53.5379C7.7736 53.5305 7.72896 53.5156 7.69176 53.5007C7.64711 53.4858 7.60991 53.4635 7.58759 53.4337C7.55783 53.404 7.54295 53.3742 7.54295 53.337V51.3802H7.02955V53.0617C7.02955 53.2328 7.00723 53.3519 6.95515 53.4337C6.90306 53.5081 6.7989 53.5453 6.63521 53.5453H5.75723C5.72003 53.5453 5.67539 53.5453 5.63074 53.5305C5.57866 53.523 5.53402 53.5081 5.49681 53.4933C5.45217 53.4784 5.42241 53.4561 5.39265 53.4263C5.36289 53.3965 5.348 53.3668 5.348 53.3296V52.9055C5.348 52.6822 5.32568 52.4739 5.28104 52.2879C5.2364 52.1019 5.15455 51.9382 5.02806 51.8043C4.90158 51.6703 4.73045 51.5662 4.51467 51.4918C4.2989 51.4174 4.01616 51.3802 3.68134 51.3802C3.56229 51.3802 3.4358 51.3876 3.28699 51.4025C3.14562 51.4174 2.99681 51.4322 2.85545 51.4546C2.70664 51.4769 2.57271 51.4992 2.43878 51.529C2.30485 51.5587 2.19324 51.5811 2.10396 51.5959V49.5572H1.59056V53.5379H1.01021L0.950684 53.962H4.52955C4.73789 53.962 4.90158 53.9322 5.00574 53.8802C5.10991 53.8281 5.19176 53.7686 5.2364 53.7016C5.30336 53.7983 5.37777 53.8653 5.47449 53.9025C5.56378 53.9397 5.67539 53.962 5.78699 53.962H6.72449C6.93283 53.962 7.09652 53.9322 7.20068 53.8802C7.30485 53.8281 7.3867 53.7686 7.43134 53.7016C7.4983 53.7983 7.57271 53.8653 7.66943 53.9025C7.75872 53.9397 7.86289 53.962 7.98193 53.962H12.1932C12.4016 53.962 12.5653 53.9322 12.6694 53.8802C12.7736 53.8281 12.8554 53.7686 12.9001 53.7016C12.9671 53.7983 13.0415 53.8653 13.1382 53.9025C13.2275 53.9397 13.3316 53.962 13.4507 53.962H17.662C17.8703 53.962 18.034 53.9322 18.1382 53.8802C18.2424 53.8281 18.3242 53.7686 18.3688 53.7016C18.4358 53.7983 18.5102 53.8653 18.6069 53.9025C18.6962 53.9397 18.8004 53.962 18.9194 53.962H20.6307V49.5498H20.1174M4.81973 53.0915C4.81973 53.2626 4.79741 53.3816 4.74533 53.4635C4.69324 53.5379 4.58908 53.5751 4.42539 53.5751H2.08164V52.02C2.17092 51.9977 2.27509 51.9754 2.39414 51.9531C2.51318 51.9308 2.63223 51.9084 2.76616 51.8861C2.89265 51.8638 3.02658 51.8489 3.16051 51.834C3.29443 51.8192 3.42092 51.8192 3.53997 51.8192C3.79295 51.8192 4.00872 51.8415 4.17241 51.8936C4.3361 51.9456 4.47003 52.02 4.56676 52.1242C4.66348 52.2284 4.73045 52.3549 4.76765 52.5037C4.80485 52.6525 4.81973 52.8385 4.81973 53.0394V53.0915ZM12.4834 53.0915C12.4834 53.2626 12.4611 53.3816 12.409 53.4635C12.3569 53.5379 12.2528 53.5751 12.0891 53.5751H9.73789V52.02C9.82717 51.9977 9.93134 51.9754 10.0504 51.9531C10.1694 51.9308 10.2959 51.9084 10.4224 51.8861C10.5563 51.8638 10.6903 51.8489 10.8168 51.834C10.9507 51.8192 11.0772 51.8192 11.1962 51.8192C11.4492 51.8192 11.665 51.8415 11.8287 51.8936C11.9924 51.9456 12.1263 52.02 12.223 52.1242C12.3197 52.2284 12.3867 52.3549 12.4239 52.5037C12.4611 52.6525 12.476 52.8385 12.476 53.0394V53.0915H12.4834Z" fill="#30485B"/>
<path d="M22.32 49.5874H21.8066V53.9996H22.32V49.5874Z" fill="#30485B"/>
<path d="M25.0059 51.3578C24.7157 51.3578 24.4628 51.3875 24.2544 51.4545C24.0461 51.5215 23.875 51.6108 23.7485 51.7298C23.6145 51.8489 23.5178 51.9902 23.4583 52.1539C23.3988 52.3176 23.3616 52.4962 23.3616 52.6971C23.3616 52.831 23.3765 52.9724 23.4137 53.1286C23.4509 53.2849 23.5253 53.4262 23.6294 53.5527C23.7336 53.6792 23.8898 53.7908 24.0833 53.8727C24.2768 53.9545 24.5372 53.9992 24.8571 53.9992H25.2143C25.1994 54.2298 25.1398 54.4009 25.0357 54.5051C24.9315 54.6093 24.7529 54.6614 24.5074 54.6614H23.7634V55.0706H24.5074C24.7529 55.0706 24.9538 55.0408 25.1101 54.9887C25.2738 54.9292 25.3928 54.8474 25.4895 54.7432C25.5788 54.6316 25.6458 54.5051 25.6756 54.3489C25.7128 54.1926 25.7276 54.0215 25.7276 53.828V51.4173C25.6086 51.4099 25.4821 51.4024 25.3482 51.3875C25.2291 51.3652 25.1101 51.3578 25.0059 51.3578ZM25.2291 53.5676H24.9092C24.7529 53.5676 24.6116 53.5527 24.4851 53.523C24.3586 53.4932 24.2544 53.4411 24.1577 53.3742C24.0684 53.3072 23.994 53.2179 23.9494 53.0989C23.8973 52.9873 23.875 52.8533 23.875 52.6896C23.875 52.4739 23.9122 52.3027 23.9866 52.1762C24.061 52.0498 24.1577 51.9605 24.2693 51.8935C24.3809 51.834 24.5074 51.7893 24.6413 51.7819C24.7753 51.767 24.9018 51.7596 25.0208 51.7596H25.1324C25.1696 51.7596 25.2068 51.767 25.2366 51.767V53.5676H25.2291Z" fill="#30485B"/>
<path d="M30.2814 51.7894C30.1624 51.6703 29.9913 51.5736 29.768 51.5066C29.5523 51.4397 29.2695 51.4025 28.9198 51.4025H28.3916L28.332 51.8117H28.8826C29.1654 51.8117 29.3811 51.8415 29.5374 51.8935C29.6936 51.9456 29.8127 52.02 29.8945 52.1168C29.9764 52.2135 30.021 52.3251 30.0433 52.459C30.0657 52.5929 30.0731 52.7418 30.0731 52.898V53.5602H28.0121V53.9843H30.5865V52.7864C30.5865 52.5781 30.5642 52.3846 30.5195 52.2135C30.4898 52.0572 30.4079 51.9084 30.2814 51.7894Z" fill="#30485B"/>
<path d="M42.2085 51.358C41.9555 51.358 41.7323 51.3877 41.5463 51.4547C41.3603 51.5217 41.204 51.611 41.085 51.7226C40.9659 51.8342 40.8692 51.9681 40.8097 52.1243C40.7502 52.2806 40.7204 52.4443 40.7204 52.6303C40.7204 52.7717 40.7353 52.9205 40.7725 53.0842C40.8097 53.2479 40.8618 53.4116 40.9287 53.5752H39.7606C39.7234 53.5752 39.6787 53.5752 39.6341 53.5604C39.5894 53.5529 39.5374 53.538 39.5002 53.5232C39.4555 53.5083 39.4183 53.486 39.396 53.4562C39.3662 53.4264 39.3514 53.3967 39.3514 53.3595V51.4026H38.8305V53.0842C38.8305 53.2553 38.8082 53.3743 38.7561 53.4562C38.704 53.5306 38.5999 53.5678 38.4362 53.5678H37.7219C37.6847 53.5678 37.64 53.5678 37.5954 53.5529C37.5433 53.5455 37.4987 53.5306 37.4615 53.5157C37.4168 53.5008 37.3871 53.4785 37.3573 53.4488C37.3275 53.419 37.3127 53.3892 37.3127 53.352V52.9279C37.3127 52.7047 37.2903 52.4964 37.2457 52.3104C37.2011 52.1243 37.1192 51.9607 36.9927 51.8267C36.8662 51.6928 36.6951 51.5886 36.4793 51.5142C36.2636 51.4398 35.9808 51.4026 35.646 51.4026C35.5269 51.4026 35.393 51.4101 35.2517 51.4249C35.1028 51.4398 34.9615 51.4547 34.8127 51.477C34.6639 51.4993 34.5299 51.5217 34.396 51.5514C34.2621 51.5812 34.1505 51.6035 34.0612 51.6184V51.3952H33.5478V53.5604H32.3722C32.1936 53.5604 32.0746 53.5157 32.0225 53.4339C31.9704 53.352 31.9406 53.233 31.9406 53.0693V49.5723H31.4272V53.1363C31.4272 53.4413 31.5091 53.6571 31.6653 53.7836C31.8216 53.9101 32.0299 53.977 32.2903 53.977H36.5165C36.7249 53.977 36.8886 53.9473 36.9927 53.8952C37.0969 53.8431 37.1787 53.7836 37.2234 53.7166C37.2903 53.8133 37.3647 53.8803 37.4615 53.9175C37.5508 53.9547 37.6549 53.977 37.774 53.977H38.5478C38.7561 53.977 38.9198 53.9473 39.024 53.8952C39.1281 53.8431 39.21 53.7836 39.2546 53.7166C39.3216 53.8133 39.396 53.8803 39.4927 53.9175C39.582 53.9547 39.6862 53.977 39.8052 53.977H43.1311V51.3877C43.0046 51.3803 42.8633 51.3729 42.7219 51.358C42.5731 51.3654 42.4019 51.358 42.2085 51.358ZM36.7993 53.0916C36.7993 53.2627 36.7769 53.3818 36.7249 53.4636C36.6802 53.538 36.5686 53.5752 36.4049 53.5752H34.0612V52.0202C34.1505 51.9979 34.2546 51.9755 34.3737 51.9532C34.4927 51.9309 34.6192 51.9086 34.7457 51.8863C34.8796 51.8639 35.0136 51.8491 35.14 51.8342C35.274 51.8193 35.4005 51.8193 35.5195 51.8193C35.7725 51.8193 35.9883 51.8416 36.1519 51.8937C36.3156 51.9458 36.4496 52.0202 36.5463 52.1243C36.643 52.2285 36.71 52.355 36.7472 52.5038C36.7844 52.6526 36.7993 52.8386 36.7993 53.0395V53.0916ZM42.6177 53.5678H41.4868C41.3752 53.2999 41.3082 53.0991 41.2859 52.9428C41.2636 52.794 41.2487 52.6824 41.2487 52.6154C41.2487 52.3029 41.3454 52.0797 41.5389 51.9532C41.7323 51.8267 42.015 51.7598 42.3871 51.7598C42.4168 51.7598 42.454 51.7598 42.4987 51.7672C42.5359 51.7746 42.5805 51.7746 42.6177 51.7821V53.5678Z" fill="#30485B"/>
<path d="M46.7397 53.5681H45.6236V50.6514H45.1102V53.5681H43.8602V53.9996H47.2531V49.5874H46.7397" fill="#30485B"/>
<path d="M48.9345 49.5874H48.4211V53.9996H48.9345V49.5874Z" fill="#30485B"/>
<path d="M53.4807 51.7671C53.3691 51.6406 53.2426 51.5439 53.0789 51.4621C52.9152 51.3877 52.7292 51.3505 52.5208 51.3505C52.3125 51.3505 52.1265 51.3877 51.9628 51.4621C51.7991 51.5365 51.6652 51.6406 51.561 51.7671C51.4569 51.8936 51.375 52.035 51.3155 52.2061C51.2634 52.3698 51.2336 52.5409 51.2336 52.7195C51.2336 52.8683 51.256 53.0171 51.3006 53.1734C51.3453 53.3296 51.4197 53.471 51.5238 53.5975C51.628 53.724 51.7619 53.8281 51.9256 53.91C52.0893 53.9918 52.2828 54.029 52.5134 54.029C52.7441 54.029 52.945 53.9918 53.1012 53.91C53.2649 53.8281 53.3988 53.724 53.503 53.5975C53.6072 53.471 53.6816 53.3296 53.7262 53.1734C53.7708 53.0171 53.7932 52.8683 53.7932 52.7195C53.7932 52.5409 53.7634 52.3698 53.7113 52.2061C53.6741 52.035 53.5923 51.8936 53.4807 51.7671ZM53.2351 53.0618C53.2054 53.1659 53.1607 53.2552 53.1012 53.3371C53.0417 53.4189 52.9598 53.4784 52.8631 53.5305C52.7664 53.5752 52.6548 53.5975 52.5283 53.5975C52.4018 53.5975 52.2827 53.5752 52.186 53.5305C52.0893 53.4859 52.0149 53.4189 51.9554 53.3371C51.8958 53.2552 51.8512 53.1659 51.814 53.0618C51.7842 52.9576 51.7694 52.846 51.7694 52.727C51.7694 52.593 51.7842 52.4665 51.8214 52.3549C51.8586 52.2359 51.9033 52.1392 51.9702 52.0499C52.0372 51.968 52.1116 51.9011 52.2083 51.849C52.3051 51.8043 52.4092 51.7746 52.5283 51.7746C52.6473 51.7746 52.7515 51.7969 52.8482 51.849C52.945 51.9011 53.0194 51.968 53.0863 52.0499C53.1533 52.1317 53.1979 52.2359 53.2351 52.3549C53.2723 52.474 53.2872 52.593 53.2872 52.727C53.2798 52.846 53.2649 52.9576 53.2351 53.0618Z" fill="#30485B"/>
<path d="M54.9838 53.895C54.9838 54.1554 54.9392 54.3414 54.8424 54.4605C54.7532 54.5795 54.582 54.6391 54.3291 54.6391H54.2621V55.0632H54.3737C54.5969 55.0632 54.7829 55.0334 54.9243 54.9739C55.0731 54.9144 55.1847 54.8325 55.2666 54.7284C55.3484 54.6242 55.4079 54.4977 55.4377 54.3563C55.4674 54.215 55.4823 54.0513 55.4823 53.8801V51.395H54.9689" fill="#30485B"/>
<path d="M57.0372 49.5874H56.5238V53.9996H57.0372V49.5874Z" fill="#30485B"/>
<path d="M58.3171 53.895C58.3171 54.1554 58.2724 54.3414 58.1757 54.4605C58.0864 54.5795 57.9153 54.6391 57.6623 54.6391H57.5953V55.0632H57.7069C57.9302 55.0632 58.1162 55.0334 58.265 54.9739C58.4138 54.9144 58.5254 54.8325 58.6072 54.7284C58.6891 54.6242 58.7486 54.4977 58.7784 54.3563C58.8081 54.215 58.8305 54.0513 58.8305 53.8801V51.395H58.3171" fill="#30485B"/>
<path d="M61.6206 51.3728C61.4867 51.3579 61.3677 51.3505 61.2635 51.3505C60.9733 51.3505 60.7203 51.3802 60.512 51.4472C60.3037 51.5142 60.1325 51.6034 60.006 51.7225C59.8721 51.8415 59.7754 51.9829 59.7159 52.1466C59.6489 52.3103 59.6191 52.4889 59.6191 52.6897C59.6191 52.8237 59.634 52.965 59.6712 53.1213C59.7084 53.2775 59.7828 53.4189 59.887 53.5454C59.9912 53.6719 60.1474 53.7835 60.3409 53.8653C60.5343 53.9472 60.7947 53.9918 61.1147 53.9918H61.4718C61.4569 54.2225 61.3974 54.3936 61.2932 54.4978C61.1891 54.602 61.0105 54.654 60.765 54.654H60.0209V55.0633H60.765C61.0105 55.0633 61.2114 55.0335 61.3677 54.9814C61.5313 54.9219 61.6504 54.84 61.7471 54.7359C61.8364 54.6243 61.9034 54.4978 61.9331 54.3415C61.9703 54.1853 61.9852 54.0142 61.9852 53.8207V51.41C61.8736 51.3951 61.7471 51.3877 61.6206 51.3728ZM61.4867 53.5677H61.1668C61.0105 53.5677 60.8691 53.5528 60.7427 53.5231C60.6162 53.4933 60.512 53.4412 60.4153 53.3743C60.326 53.3073 60.2516 53.218 60.2069 53.099C60.1623 52.9874 60.1325 52.8534 60.1325 52.6897C60.1325 52.474 60.1697 52.3028 60.2441 52.1764C60.3185 52.0499 60.4153 51.9606 60.5269 51.8936C60.6385 51.8341 60.765 51.7894 60.8989 51.782C61.0328 51.7671 61.1593 51.7597 61.2784 51.7597H61.39C61.4272 51.7597 61.4569 51.7671 61.4941 51.7671V53.5677H61.4867Z" fill="#30485B"/>
<path d="M39.0909 50.3906L38.7188 50.0186L38.3542 50.3906L38.7188 50.7552" fill="#30485B"/>
<path d="M39.82 50.3906L39.4554 50.0186L39.0908 50.3906L39.4554 50.7552" fill="#30485B"/>
<path d="M18.2128 50.3906L17.8482 50.0186L17.4762 50.3906L17.8482 50.7552" fill="#30485B"/>
<path d="M15.5119 50.3906L15.1473 50.0186L14.7827 50.3906L15.1473 50.7552" fill="#30485B"/>
<path d="M18.9421 50.3906L18.5775 50.0186L18.2129 50.3906L18.5775 50.7552" fill="#30485B"/>
<path d="M42.4091 50.3906L42.0445 50.0186L41.6799 50.3906L42.0445 50.7552" fill="#30485B"/>
<path d="M42.4093 50.3906L42.7813 50.7552L43.1459 50.3906L42.7813 50.0186" fill="#30485B"/>
<path d="M52.5208 50.3906L52.1562 50.0186L51.7916 50.3906L52.1562 50.7552" fill="#30485B"/>
<path d="M53.2576 50.3906L52.893 50.0186L52.521 50.3906L52.893 50.7552" fill="#30485B"/>
<path d="M58.1907 50.3906L58.5553 50.7552L58.9198 50.3906L58.5553 50.0186" fill="#30485B"/>
<path d="M1.37502 57.1243L2.09674 58.6347L2.79615 57.1243H3.24258V59.721H2.81847V57.8832L2.26043 59.1034H1.91817L1.3527 57.9055V59.721H0.928589V57.1243" fill="#30485B"/>
<path d="M4.26197 57.1243H3.80811V59.721H4.26197V57.1243Z" fill="#30485B"/>
<path d="M5.22174 57.1243L6.34525 58.9769V57.1243H6.76192V59.721H6.36757L5.24406 57.8683V59.721H4.82739V57.1243" fill="#30485B"/>
<path d="M7.78126 57.1243H7.32739V59.721H7.78126V57.1243Z" fill="#30485B"/>
<path d="M8.99402 59.7583C8.84522 59.7583 8.70385 59.7509 8.56992 59.7285C8.43599 59.7062 8.31694 59.6765 8.22021 59.6467L8.29462 59.2895C8.39879 59.3193 8.50295 59.3416 8.622 59.3565C8.73361 59.3788 8.85266 59.3863 8.97914 59.3863C9.18004 59.3863 9.32141 59.3565 9.41069 59.2895C9.49254 59.2226 9.53718 59.1184 9.53718 58.9771C9.53718 58.9324 9.52974 58.8878 9.5223 58.8506C9.51486 58.8134 9.49254 58.7762 9.47021 58.7464C9.44045 58.7166 9.40325 58.6869 9.35861 58.6645C9.31397 58.6422 9.247 58.6273 9.1726 58.6199L8.88242 58.5827C8.67408 58.5529 8.51783 58.4785 8.41367 58.3595C8.3095 58.2404 8.24998 58.0842 8.24998 57.8833V57.8461C8.24998 57.5857 8.33182 57.3997 8.49551 57.2806C8.6592 57.1616 8.90474 57.1021 9.23212 57.1021C9.35861 57.1021 9.47765 57.1095 9.58926 57.1318C9.70087 57.1467 9.81248 57.1765 9.92408 57.2137L9.84968 57.5708C9.76783 57.541 9.67855 57.5187 9.57438 57.5038C9.47022 57.489 9.35861 57.4815 9.23212 57.4815C9.03867 57.4815 8.8973 57.5113 8.80801 57.5634C8.71873 57.6229 8.67408 57.7122 8.67408 57.8535C8.67408 57.9651 8.70385 58.0395 8.75593 58.0916C8.81545 58.1437 8.90474 58.1809 9.03867 58.1958L9.32141 58.2404C9.41813 58.2553 9.50742 58.2776 9.58926 58.3148C9.67111 58.3446 9.73807 58.3893 9.7976 58.4413C9.85712 58.4934 9.90176 58.5604 9.93152 58.6422C9.96129 58.7241 9.97617 58.8282 9.97617 58.9473V58.9845C9.98361 59.4904 9.65623 59.7583 8.99402 59.7583Z" fill="#30485B"/>
<path d="M12.3573 57.1243L12.3052 57.5037H11.5537V59.721H11.0924V57.5037H10.2888L10.3409 57.1243" fill="#30485B"/>
<path d="M14.5743 57.9576C14.5743 58.1362 14.5296 58.2924 14.4478 58.4115C14.3659 58.5305 14.2394 58.6198 14.0832 58.6644L14.6636 59.7136H14.1725L13.6442 58.7165H13.2052V59.7136H12.7588V57.1243H13.8005C13.9418 57.1243 14.0609 57.1466 14.1576 57.1838C14.2543 57.221 14.3362 57.2805 14.3957 57.3475C14.4552 57.4144 14.4999 57.4963 14.5296 57.5856C14.5594 57.6749 14.5743 57.7716 14.5743 57.8758M13.2052 58.3519H13.6888C13.8302 58.3519 13.9344 58.3222 14.0088 58.2552C14.0832 58.1957 14.1204 58.0915 14.1204 57.9502V57.8981C14.1204 57.6302 13.9865 57.4963 13.7112 57.4963H13.2052V58.3519Z" fill="#30485B"/>
<path d="M15.8839 58.2999L16.4717 57.1243H16.9554L16.0997 58.6719V59.721H15.6458V58.6719L14.8051 57.1243H15.3036" fill="#30485B"/>
<path d="M19.2099 57.0721C19.4182 57.0721 19.5968 57.1019 19.7307 57.1614C19.8646 57.221 19.9688 57.3028 20.0507 57.407C20.1325 57.5111 20.1846 57.6376 20.2143 57.7864C20.2441 57.9352 20.259 58.0915 20.259 58.2701V58.5826C20.259 58.7611 20.2441 58.9248 20.2143 59.0662C20.1846 59.215 20.1251 59.3415 20.0507 59.4457C19.9688 59.5498 19.8646 59.6317 19.7307 59.6912C19.5968 59.7507 19.4257 59.7805 19.2173 59.7805C19.009 59.7805 18.8379 59.7507 18.7039 59.6912C18.57 59.6317 18.4658 59.5498 18.384 59.4457C18.3096 59.3415 18.2501 59.215 18.2203 59.0662C18.1905 58.9174 18.1757 58.7611 18.1757 58.5826V58.2701C18.1757 58.0915 18.1905 57.9278 18.2277 57.7864C18.2575 57.6376 18.317 57.5111 18.3989 57.407C18.4807 57.3028 18.5849 57.221 18.7188 57.1614C18.8304 57.1019 19.0016 57.0721 19.2099 57.0721ZM19.2099 59.3936C19.2992 59.3936 19.381 59.3861 19.4554 59.3638C19.5298 59.3415 19.5893 59.3043 19.634 59.2373C19.6861 59.1778 19.7233 59.096 19.7456 58.9843C19.7679 58.8802 19.7828 58.7463 19.7828 58.5751V58.2552C19.7828 58.084 19.7679 57.9501 19.7456 57.846C19.7233 57.7418 19.6861 57.6599 19.6414 57.6004C19.5968 57.5409 19.5373 57.4963 19.4629 57.4814C19.3885 57.4591 19.3066 57.4516 19.2099 57.4516C19.1206 57.4516 19.0313 57.4591 18.9643 57.4814C18.8899 57.5037 18.8304 57.5409 18.7783 57.6004C18.7337 57.6599 18.6965 57.7418 18.6667 57.846C18.6444 57.9501 18.6295 58.084 18.6295 58.2552V58.5751C18.6295 58.7388 18.6444 58.8802 18.6667 58.9843C18.6891 59.0885 18.7263 59.1704 18.7783 59.2299C18.8304 59.2894 18.8899 59.3341 18.9569 59.3564C19.0313 59.3861 19.1132 59.3936 19.2099 59.3936Z" fill="#30485B"/>
<path d="M22.3647 57.1243L22.3126 57.5037H21.2114V58.2627H22.201L22.1489 58.6347H21.2114V59.721H20.7501V57.1243" fill="#30485B"/>
<path d="M25.3407 57.1243L25.2887 57.4889H24.1205V58.2106H25.2291L25.177 58.5752H24.1205V59.3564H25.3407L25.2887 59.721H23.6666V57.1243" fill="#30485B"/>
<path d="M26.7843 59.758C26.5685 59.758 26.39 59.7357 26.256 59.6836C26.1147 59.6316 26.0031 59.5572 25.9212 59.4604C25.8394 59.3637 25.7798 59.2372 25.7501 59.0884C25.7203 58.9396 25.698 58.7685 25.698 58.575V58.2997C25.698 58.1211 25.7129 57.95 25.7501 57.8012C25.7873 57.6524 25.8468 57.5259 25.9287 57.4217C26.0105 57.3176 26.1295 57.2357 26.2709 57.1762C26.4123 57.1167 26.5983 57.0869 26.8141 57.0869C26.9182 57.0869 27.0224 57.0944 27.1191 57.1092C27.2159 57.1241 27.3051 57.1464 27.3795 57.1762L27.3051 57.5259C27.2456 57.511 27.1861 57.4961 27.1042 57.4813C27.0298 57.4664 26.948 57.4589 26.8587 57.4589C26.7322 57.4589 26.6281 57.4738 26.5388 57.4961C26.4495 57.5185 26.3751 57.5631 26.323 57.6226C26.2635 57.6822 26.2263 57.7714 26.1965 57.8756C26.1742 57.9872 26.1593 58.1211 26.1593 58.2923V58.5378C26.1593 58.7089 26.1742 58.8429 26.1965 58.947C26.2188 59.0512 26.256 59.1405 26.3156 59.2C26.3751 59.2595 26.442 59.3042 26.5388 59.3265C26.6281 59.3488 26.7471 59.3563 26.881 59.3563C26.9554 59.3563 27.0298 59.3488 27.1191 59.3414C27.2084 59.3339 27.2977 59.3191 27.3721 59.3042L27.2977 59.6688C27.2159 59.6911 27.134 59.706 27.0373 59.7134C26.948 59.7506 26.8662 59.758 26.7843 59.758Z" fill="#30485B"/>
<path d="M28.7709 57.0721C28.9793 57.0721 29.1578 57.1019 29.2918 57.1614C29.4257 57.221 29.5299 57.3028 29.6117 57.407C29.6861 57.5111 29.7456 57.6376 29.7754 57.7864C29.8051 57.9352 29.82 58.0915 29.82 58.2701V58.5826C29.82 58.7611 29.8051 58.9248 29.7754 59.0662C29.7456 59.215 29.6861 59.3415 29.6117 59.4457C29.5299 59.5498 29.4257 59.6317 29.2918 59.6912C29.1578 59.7507 28.9867 59.7805 28.7784 59.7805C28.57 59.7805 28.3989 59.7507 28.265 59.6912C28.131 59.6317 28.0269 59.5498 27.945 59.4457C27.8706 59.3415 27.8111 59.215 27.7813 59.0662C27.7516 58.9174 27.7367 58.7611 27.7367 58.5826V58.2701C27.7367 58.0915 27.7516 57.9278 27.7888 57.7864C27.8185 57.6376 27.8781 57.5111 27.9599 57.407C28.0418 57.3028 28.1459 57.221 28.2798 57.1614C28.3989 57.1019 28.5626 57.0721 28.7709 57.0721ZM28.7709 59.3936C28.8602 59.3936 28.9421 59.3861 29.0165 59.3638C29.0909 59.3415 29.1504 59.3043 29.195 59.2373C29.2471 59.1778 29.2843 59.096 29.3066 58.9843C29.329 58.8802 29.3438 58.7463 29.3438 58.5751V58.2552C29.3438 58.084 29.329 57.9501 29.3066 57.846C29.2843 57.7418 29.2471 57.6599 29.2025 57.6004C29.1578 57.5409 29.0983 57.4963 29.0239 57.4814C28.9495 57.4591 28.8676 57.4516 28.7709 57.4516C28.6816 57.4516 28.5998 57.4591 28.5254 57.4814C28.451 57.5037 28.3915 57.5409 28.3394 57.6004C28.2947 57.6599 28.2575 57.7418 28.2278 57.846C28.2054 57.9501 28.1906 58.084 28.1906 58.2552V58.5751C28.1906 58.7388 28.2054 58.8802 28.2278 58.9843C28.2501 59.0885 28.2873 59.1704 28.3394 59.2299C28.3915 59.2894 28.451 59.3341 28.5179 59.3564C28.5923 59.3861 28.6742 59.3936 28.7709 59.3936Z" fill="#30485B"/>
<path d="M30.7128 57.1243L31.8363 58.9769V57.1243H32.2604V59.721H31.8587L30.7351 57.8683V59.721H30.3185V57.1243" fill="#30485B"/>
<path d="M33.8079 57.0721C34.0162 57.0721 34.1948 57.1019 34.3287 57.1614C34.4627 57.221 34.5668 57.3028 34.6487 57.407C34.7305 57.5111 34.7826 57.6376 34.8124 57.7864C34.8421 57.9352 34.857 58.0915 34.857 58.2701V58.5826C34.857 58.7611 34.8421 58.9248 34.8124 59.0662C34.7826 59.215 34.7231 59.3415 34.6487 59.4457C34.5668 59.5498 34.4627 59.6317 34.3287 59.6912C34.1948 59.7507 34.0237 59.7805 33.8154 59.7805C33.607 59.7805 33.4359 59.7507 33.302 59.6912C33.168 59.6317 33.0639 59.5498 32.982 59.4457C32.9076 59.3415 32.8481 59.215 32.8183 59.0662C32.7886 58.9174 32.7737 58.7611 32.7737 58.5826V58.2701C32.7737 58.0915 32.7886 57.9278 32.8258 57.7864C32.8555 57.6376 32.9151 57.5111 32.9969 57.407C33.0787 57.3028 33.1829 57.221 33.3168 57.1614C33.4359 57.1019 33.5996 57.0721 33.8079 57.0721ZM33.8079 59.3936C33.8972 59.3936 33.979 59.3861 34.0534 59.3638C34.1278 59.3415 34.1874 59.3043 34.232 59.2373C34.2841 59.1778 34.3213 59.096 34.3436 58.9843C34.3659 58.8802 34.3808 58.7463 34.3808 58.5751V58.2552C34.3808 58.084 34.3659 57.9501 34.3436 57.846C34.3213 57.7418 34.2841 57.6599 34.2395 57.6004C34.1948 57.5409 34.1353 57.4963 34.0609 57.4814C33.9865 57.4591 33.9046 57.4516 33.8079 57.4516C33.7186 57.4516 33.6368 57.4591 33.5624 57.4814C33.488 57.5037 33.4284 57.5409 33.3838 57.6004C33.3317 57.6599 33.2945 57.7418 33.2722 57.846C33.2499 57.9501 33.235 58.084 33.235 58.2552V58.5751C33.235 58.7388 33.2499 58.8802 33.2722 58.9843C33.2945 59.0885 33.3317 59.1704 33.3838 59.2299C33.4359 59.2894 33.4954 59.3341 33.5624 59.3564C33.6293 59.3861 33.7112 59.3936 33.8079 59.3936Z" fill="#30485B"/>
<path d="M35.8021 57.1243L36.5164 58.6347L37.2158 57.1243H37.6697V59.721H37.2382V57.8832L36.6876 59.1034H36.3453L35.7798 57.9055V59.721H35.3557V57.1243" fill="#30485B"/>
<path d="M39.1428 58.2999L39.7381 57.1243H40.2143L39.3586 58.6719V59.721H38.9047V58.6719L38.064 57.1243H38.5699" fill="#30485B"/>
<path d="M45.3036 58.7536V59.7209H44.8497V57.1316H45.8691C46.0104 57.1316 46.1221 57.1539 46.2262 57.1911C46.3229 57.2283 46.4048 57.2804 46.4643 57.3548C46.5238 57.4218 46.5685 57.5036 46.5982 57.5929C46.628 57.6822 46.6429 57.7864 46.6429 57.898V57.9872C46.6429 58.2402 46.5685 58.4262 46.4271 58.5602C46.2857 58.6941 46.07 58.7611 45.7947 58.7611M45.3036 58.3965H45.75C45.8988 58.3965 46.003 58.3667 46.0774 58.2997C46.1518 58.2328 46.1816 58.1286 46.1816 57.9872V57.9054C46.1816 57.764 46.1444 57.6599 46.0849 57.5929C46.0179 57.5185 45.9137 57.4887 45.7649 57.4887H45.3036V58.3965Z" fill="#30485B"/>
<path d="M47.5359 57.1243V59.3415H48.6892L48.6371 59.721H47.082V57.1243" fill="#30485B"/>
<path d="M50.5639 59.0364H49.6488L49.433 59.7209H48.9791L49.8645 57.1316H50.3556L51.2559 59.7209H50.7797M49.7604 58.6718H50.4523L50.1101 57.5706L49.7604 58.6718Z" fill="#30485B"/>
<path d="M52.0595 57.1243L53.183 58.9769V57.1243H53.5997V59.721H53.1979L52.0744 57.8683V59.721H51.6577V57.1243" fill="#30485B"/>
<path d="M54.5595 57.1243L55.683 58.9769V57.1243H56.0997V59.721H55.6979L54.5818 57.8683V59.721H54.1577V57.1243" fill="#30485B"/>
<path d="M57.1192 57.1243H56.6653V59.721H57.1192V57.1243Z" fill="#30485B"/>
<path d="M58.079 57.1243L59.2025 58.9769V57.1243H59.6192V59.721H59.2174L58.1014 57.8683V59.721H57.6772V57.1243" fill="#30485B"/>
<path d="M61.3528 57.4666C61.2114 57.4666 61.0998 57.4815 61.0031 57.5038C60.9064 57.5262 60.8245 57.5708 60.765 57.6378C60.7055 57.6973 60.6608 57.7866 60.6311 57.8982C60.6013 58.0098 60.5864 58.1437 60.5864 58.3148V58.5604C60.5864 58.7241 60.6013 58.858 60.6236 58.9696C60.646 59.0738 60.6906 59.1631 60.7427 59.2226C60.7948 59.2821 60.8692 59.3268 60.9585 59.3491C61.0477 59.3714 61.1519 59.3863 61.2858 59.3863C61.3379 59.3863 61.3826 59.3863 61.4272 59.3788C61.4718 59.3788 61.5239 59.3714 61.5686 59.364V58.6794H61.1966L61.2412 58.3223H62.0001V59.6541C61.9183 59.6839 61.7992 59.7137 61.6579 59.736C61.5165 59.7583 61.3677 59.7657 61.2189 59.7657C60.9957 59.7657 60.8096 59.736 60.6683 59.6765C60.5269 59.6169 60.4153 59.5425 60.3335 59.4309C60.2516 59.3268 60.1995 59.2003 60.1698 59.0589C60.14 58.9175 60.1251 58.7538 60.1251 58.5827V58.3074C60.1251 58.1288 60.1474 57.9651 60.1772 57.8163C60.2144 57.6675 60.2739 57.541 60.3632 57.4369C60.4525 57.3327 60.5716 57.2509 60.7278 57.1913C60.8841 57.1318 61.0701 57.1021 61.3082 57.1021C61.4272 57.1021 61.5463 57.1095 61.6579 57.1318C61.7695 57.1541 61.8662 57.1765 61.9406 57.2062L61.8588 57.5559C61.7918 57.5336 61.7174 57.5187 61.6281 57.5038C61.5463 57.4741 61.457 57.4666 61.3528 57.4666Z" fill="#30485B"/>
<path d="M42.3276 59.7135C42.216 59.7135 42.1044 59.7061 41.9853 59.6837C41.8663 59.6614 41.7547 59.6242 41.6579 59.5721C41.5538 59.5126 41.4719 59.4382 41.4124 59.3415C41.3454 59.2448 41.3157 59.1108 41.3157 58.9546C41.3157 58.8579 41.3306 58.7611 41.3603 58.6793C41.3901 58.5974 41.4347 58.5305 41.4942 58.4709C41.5463 58.4114 41.6133 58.3668 41.6951 58.3296C41.71 58.3221 41.7249 58.3147 41.7398 58.3073C41.6877 58.2849 41.6431 58.2477 41.5984 58.2105C41.5463 58.1659 41.5091 58.0989 41.4719 58.0245C41.4422 57.9501 41.4273 57.8608 41.4273 57.7567C41.4273 57.6302 41.457 57.526 41.5091 57.4367C41.5612 57.3474 41.6356 57.273 41.7175 57.2209C41.7993 57.1614 41.896 57.1242 41.9928 57.1019C42.0895 57.0796 42.1862 57.0647 42.2829 57.0647C42.3573 57.0647 42.4392 57.0721 42.5136 57.0796C42.588 57.087 42.6475 57.0945 42.7517 57.1242L42.8335 57.154L42.7591 57.5111L42.7219 57.4962C42.6624 57.4814 42.5954 57.4665 42.5359 57.4516C42.4764 57.4367 42.4094 57.4367 42.3499 57.4367C42.2904 57.4367 42.2309 57.4442 42.1639 57.459C42.1044 57.4739 42.0523 57.4888 42.0076 57.5186C41.963 57.5483 41.9258 57.5855 41.896 57.6302C41.8663 57.6748 41.8588 57.7343 41.8588 57.8013C41.8588 57.8832 41.8737 57.9427 41.9109 57.9873C41.9481 58.032 41.9928 58.0692 42.0523 58.0915C42.1118 58.1138 42.1788 58.1361 42.2532 58.1436C42.3276 58.151 42.3945 58.1584 42.4615 58.1584H42.8038V57.6971H43.2576V58.1584H43.7115L43.6371 58.5082H43.2576V59.7061M42.4466 58.523C42.3722 58.523 42.2904 58.5305 42.2011 58.5379C42.1192 58.5454 42.0448 58.5602 41.9779 58.59C41.9109 58.6198 41.8588 58.657 41.8142 58.7165C41.777 58.7686 41.7547 58.843 41.7547 58.9323C41.7547 59.029 41.777 59.1034 41.8216 59.1555C41.8663 59.215 41.9258 59.2522 42.0002 59.282C42.0746 59.3117 42.1564 59.3266 42.2457 59.334C42.335 59.3415 42.4243 59.3415 42.5062 59.3415H42.8038V58.5156H42.4466V58.523Z" fill="#30485B"/>
</g>
<defs>
<clipPath id="clip0_0_874">
<rect width="61.0714" height="59.561" fill="white" transform="translate(0.928589 0.219482)"/>
</clipPath>
</defs>
</svg>
