<svg width="67" height="42" viewBox="0 0 67 42" fill="none" xmlns="http://www.w3.org/2000/svg">
<path d="M14.3042 27.0392C14.0472 26.5356 13.6791 26.2787 13.1756 26.2787C12.9707 26.2787 12.7762 26.3307 12.5991 26.421C12.415 26.5148 12.2692 26.6364 12.1372 26.7996C12.0053 26.9628 11.9011 27.1573 11.8281 27.3761C11.7552 27.6018 11.7135 27.8275 11.7135 28.0845C11.7135 28.5256 11.8282 28.8659 12.0712 29.1125C12.3074 29.359 12.6373 29.4806 13.0575 29.4806C13.252 29.4806 13.4256 29.4597 13.5923 29.3972C13.759 29.3347 13.9118 29.2548 14.0438 29.1611V29.8279C14.0438 29.9494 13.8389 30.0536 13.4187 30.1161C12.9985 30.1786 5.83069 30.2203 4.99722 30.2203H4.77149C4.452 30.2203 4.23669 30.1578 4.0943 30.0466C3.95192 29.932 3.88941 29.7271 3.89983 29.4597L3.9415 26.2266L3.19138 26.3585V26.935C2.42043 27.0878 1.82659 27.3448 1.39596 27.6851C0.965342 28.0255 0.750031 28.4457 0.750031 28.9388C0.750031 29.1437 0.791704 29.3278 0.871577 29.484C0.954924 29.6473 1.06605 29.7827 1.20149 29.8938C1.34387 29.998 1.51057 30.0883 1.69462 30.1404C1.8891 30.2029 2.08357 30.2238 2.29888 30.2238C2.667 30.2238 2.97607 30.1508 3.24348 29.9876C3.34766 30.7065 3.86857 31.0642 4.77496 31.0642H5.00069C5.34103 31.0642 12.1789 31.0538 12.4359 31.0433C12.6929 31.0329 12.9186 31.0225 13.1131 30.9912C13.3075 30.9704 13.4812 30.9287 13.627 30.8975C13.7694 30.8662 13.9049 30.8141 14.0264 30.7551C14.273 30.6405 14.4466 30.4773 14.5508 30.262C14.655 30.0466 14.7036 29.7271 14.7036 29.2965C14.6828 28.2998 14.5612 27.5393 14.3042 27.0357M13.627 28.6679C13.4742 28.7096 13.3075 28.7305 13.1443 28.7305C12.8769 28.7305 12.672 28.6679 12.5296 28.5464C12.3873 28.4318 12.3143 28.2477 12.3143 28.0116C12.3143 27.7442 12.3977 27.5184 12.5505 27.3448C12.7033 27.1712 12.9082 27.067 13.1374 27.067C13.3944 27.067 13.5888 27.1712 13.7243 27.3969C13.8667 27.6226 13.95 27.9734 14.0021 28.4735C13.9188 28.5568 13.7972 28.6158 13.634 28.6679M2.42043 29.366C2.28847 29.366 2.15303 29.3556 2.03148 29.3347C1.90993 29.3139 1.79533 29.2722 1.70157 29.2305C1.59739 29.1784 1.52793 29.1264 1.47584 29.0361C1.41333 28.9631 1.39249 28.8624 1.39249 28.7478C1.39249 28.6054 1.44458 28.4804 1.54529 28.3589C1.64948 28.2443 1.78144 28.1331 1.94466 28.0394C2.10788 27.9456 2.31277 27.8761 2.52114 27.8032C2.73645 27.7407 2.96218 27.699 3.19833 27.6712L3.21917 29.2028C2.98302 29.3174 2.71562 29.366 2.41696 29.366" fill="#30485B"/>
<path d="M25.9522 25.9175L25.3653 25.3236L24.7715 25.9175L25.3653 26.5252L25.9522 25.9175Z" fill="#30485B"/>
<path d="M27.3475 25.9175L26.7537 25.3236L26.1564 25.9175L26.7537 26.5252L27.3475 25.9175Z" fill="#30485B"/>
<path d="M37.0927 25.7647L36.4989 25.1709L35.9016 25.7647L36.4989 26.3725L37.0927 25.7647Z" fill="#30485B"/>
<path d="M37.186 27.6017L37.7902 26.9975L37.186 26.4001L36.5991 26.9975L37.186 27.6017Z" fill="#30485B"/>
<path d="M36.3949 26.9975L35.8011 26.4001L35.2142 26.9975L35.8011 27.6017L36.3949 26.9975Z" fill="#30485B"/>
<path d="M45.4138 25.0249L45.4347 29.6959C45.4347 29.7896 45.4034 29.8591 45.3305 29.932C45.2575 30.0049 45.1777 30.0466 45.0735 30.0848C44.9693 30.123 44.8478 30.1473 44.7158 30.1682C44.5838 30.189 37.9057 30.189 37.7737 30.189C37.0236 30.189 36.6347 29.9945 36.6347 29.6021C36.6347 29.55 36.6555 29.4076 36.6763 29.1923C36.6972 28.977 36.7389 28.7304 36.7597 28.4526L36.1138 28.3797C36.0929 28.463 36.0929 28.5637 36.0721 28.6679C36.0512 28.7721 36.0512 28.8832 36.02 28.9874C35.9992 29.0916 35.9783 29.2027 35.9575 29.3069C35.9366 29.4111 35.9262 29.5014 35.9054 29.5743C35.8533 29.8 35.7318 29.9528 35.5373 30.057C35.3428 30.1612 28.491 30.1994 28.0708 30.1994C27.8764 30.1994 27.7027 30.1994 27.5256 30.189C27.3485 30.1786 27.1957 30.1682 27.0429 30.1682C27.3728 29.8487 27.536 29.4701 27.536 28.9978C27.536 28.7617 27.4944 28.5464 27.4214 28.331C27.3381 28.1261 27.227 27.9421 27.1019 27.7962C26.97 27.6434 26.8033 27.5184 26.6192 27.4281C26.4352 27.3343 26.2511 27.2961 26.0427 27.2961C25.8344 27.2961 25.6434 27.3378 25.4663 27.4281C25.2822 27.5219 25.1259 27.633 24.9835 27.7962C24.8412 27.949 24.737 28.1261 24.6641 28.331C24.5807 28.5359 24.5495 28.7617 24.5495 28.9978C24.5495 29.4701 24.7127 29.8591 25.0426 30.1682C24.8898 30.189 24.7231 30.189 24.5495 30.189C24.3758 30.1994 17.6595 30.1994 17.4754 30.1994C17.1559 30.1994 16.9406 30.1369 16.8087 30.0258C16.6663 29.9112 16.6038 29.7063 16.6038 29.4389L16.6454 24.9103L15.8953 25.0423L15.937 29.7236C15.9578 30.6057 16.4718 31.0572 17.4963 31.0572C17.854 31.0572 24.7474 31.0364 25.0947 30.9738C25.435 30.9113 25.7614 30.8315 26.0601 30.7273C26.3692 30.8315 26.6852 30.9218 27.0255 30.9738C27.3763 31.0364 27.7236 31.0572 28.0743 31.0572C28.4737 31.0572 35.3671 30.9947 35.6519 30.894C35.9366 30.7933 36.145 30.6266 36.277 30.4217C36.5235 30.8419 37.0271 31.0572 37.7668 31.0572C38.0029 31.0572 44.7609 31.0364 44.9763 30.9843C45.1916 30.9322 45.386 30.8627 45.5527 30.7481C45.716 30.6439 45.8618 30.4911 45.9625 30.3071C46.0632 30.123 46.1153 29.8973 46.1153 29.6403L46.157 24.9069L45.4069 25.0215H45.4138V25.0249ZM26.0671 29.9528C25.4802 29.7584 25.185 29.4493 25.185 29.0082C25.185 28.8867 25.2058 28.7617 25.2475 28.6505C25.2892 28.5464 25.3517 28.4456 25.4315 28.3623C25.5114 28.279 25.6052 28.2095 25.7094 28.1678C25.8135 28.1261 25.9351 28.1053 26.0601 28.1053C26.1851 28.1053 26.2963 28.1261 26.4004 28.1678C26.5046 28.2095 26.5949 28.272 26.6783 28.3623C26.7616 28.4456 26.8206 28.5464 26.8727 28.6505C26.9144 28.7547 26.9352 28.8763 26.9352 29.0082C26.9457 29.4493 26.647 29.7584 26.074 29.9528" fill="#30485B"/>
<path d="M47.4136 31.0434L47.3615 25.025L48.1227 24.8931L48.0706 31.0434H47.4136Z" fill="#30485B"/>
<path d="M54.1928 29.616C54.1928 30.0674 54.04 30.439 53.7518 30.7134C53.4635 30.9877 53.0537 31.1232 52.5502 31.1232C52.0154 31.1232 51.5952 30.9912 51.3174 30.7238C51.0395 30.4564 50.8972 30.0779 50.8972 29.5847C50.8972 29.2652 50.9388 28.9805 51.0291 28.7026C51.1229 28.4248 51.234 28.1782 51.3868 27.9733C51.5396 27.7684 51.7063 27.6052 51.9112 27.4802C52.1057 27.3587 52.321 27.2961 52.5467 27.2961C52.7724 27.2961 52.9878 27.3587 53.1927 27.4802C53.3871 27.6018 53.5608 27.7684 53.717 27.9733C53.8733 28.1782 53.9844 28.4248 54.0678 28.713C54.1511 28.9909 54.1893 29.2895 54.1893 29.616M51.8383 26.5252L51.2514 25.9209L51.8383 25.3167L52.4252 25.9209L51.8383 26.5252ZM53.5434 29.6993C53.5434 29.4736 53.5226 29.2687 53.4705 29.0846C53.4184 28.8902 53.3559 28.7339 53.2656 28.5915C53.1718 28.4595 53.0711 28.3554 52.9461 28.272C52.8245 28.1991 52.6891 28.1574 52.5467 28.1574C52.4148 28.1574 52.2793 28.1887 52.1578 28.2616C52.0362 28.3241 51.9216 28.4144 51.8383 28.5394C51.7445 28.654 51.6855 28.786 51.623 28.9388C51.5709 29.0916 51.5396 29.2583 51.5396 29.4319C51.5396 29.7097 51.623 29.9146 51.7966 30.057C51.9702 30.1994 52.2168 30.2723 52.5467 30.2723C52.6787 30.2723 52.8037 30.2515 52.9253 30.2307C53.0468 30.2098 53.151 30.1682 53.2447 30.1091C53.3385 30.057 53.3975 29.9945 53.4601 29.9251C53.5121 29.8417 53.5434 29.7723 53.5434 29.6993ZM53.2343 26.5252L52.6474 25.9209L53.2343 25.3167L53.8212 25.9209L53.2343 26.5252Z" fill="#30485B"/>
<path d="M53.9247 32.2033C54.2755 32.0817 54.5915 31.9254 54.8797 31.7622C55.168 31.599 55.425 31.4219 55.6403 31.2378C55.8556 31.0538 56.0188 30.8697 56.1334 30.6926C56.255 30.5085 56.3175 30.3349 56.3175 30.1682C56.3175 30.064 56.2966 29.9321 56.255 29.7792C56.2133 29.6264 56.1508 29.4493 56.0709 29.2549C55.9876 29.0604 55.8973 28.8763 55.7931 28.668C55.6889 28.4596 55.5674 28.2686 55.4423 28.081L56.1299 27.7025C56.3973 28.0602 56.6127 28.4526 56.755 28.8833C56.9078 29.3139 56.9912 29.7237 56.9912 30.0953C56.9912 30.6926 56.755 31.2344 56.3036 31.7483C55.8521 32.2415 55.2062 32.6513 54.3623 32.9603L53.9213 32.1998L53.9247 32.2033Z" fill="#30485B"/>
<path d="M58.3112 31.0434L58.2591 25.025L59.0099 24.8931L58.9578 31.0434H58.3112Z" fill="#30485B"/>
<path d="M59.4818 32.2033C59.8221 32.0817 60.1486 31.9254 60.4368 31.7622C60.7251 31.599 60.982 31.4219 61.1974 31.2378C61.4127 31.0538 61.5759 30.8697 61.6905 30.6926C61.812 30.5085 61.8745 30.3349 61.8745 30.1682C61.8745 30.064 61.8537 29.932 61.812 29.7792C61.7704 29.6264 61.7078 29.4493 61.628 29.2548C61.5446 29.0604 61.4543 28.8763 61.3502 28.6679C61.246 28.4596 61.1244 28.2686 60.9994 28.081L61.687 27.7025C61.9544 28.0602 62.1697 28.4526 62.3121 28.8833C62.4545 29.3139 62.5483 29.7237 62.5483 30.0953C62.5483 30.6926 62.3121 31.2343 61.8606 31.7483C61.4092 32.2415 60.7633 32.6512 59.9194 32.9603L59.4783 32.1998L59.4818 32.2033ZM61.239 26.9246L60.6521 26.3203L61.239 25.7161L61.8259 26.3203L61.239 26.9246Z" fill="#30485B"/>
<path d="M63.806 32.1616C65.1812 31.9671 65.973 31.4739 66.1883 30.6613C66.0667 30.7655 65.9105 30.8245 65.7368 30.887C65.5736 30.9391 65.3861 30.96 65.202 30.96C64.7818 30.96 64.4519 30.8072 64.1949 30.5189C63.9379 30.2307 63.8164 29.8417 63.8164 29.3694C63.8164 29.102 63.8581 28.8554 63.931 28.6297C64.0039 28.404 64.115 28.2095 64.2505 28.0428C64.3824 27.8796 64.5387 27.7442 64.7332 27.6539C64.9173 27.5601 65.1117 27.5115 65.3305 27.5115C65.8236 27.5115 66.2126 27.7372 66.4904 28.1783C66.7682 28.6297 66.9002 29.2548 66.9002 30.0779C66.9002 30.4564 66.8377 30.8176 66.7057 31.1371C66.5738 31.4566 66.3862 31.7518 66.1501 31.9983C65.9139 32.2449 65.6153 32.4498 65.2888 32.613C64.9485 32.7762 64.5804 32.8908 64.1602 32.9429L63.8094 32.1616H63.806ZM65.3166 30.189C65.4903 30.189 65.6674 30.1682 65.841 30.1161C66.0042 30.064 66.1397 30.0015 66.2404 29.9216C66.2195 29.418 66.1258 29.0291 65.9626 28.7513C65.7993 28.4734 65.5736 28.3415 65.2958 28.3415C65.0492 28.3415 64.8443 28.4352 64.6915 28.6193C64.5387 28.8034 64.4554 29.0395 64.4554 29.3382C64.4554 29.6056 64.5283 29.8105 64.6915 29.9633C64.8339 30.1161 65.0492 30.189 65.3166 30.189Z" fill="#30485B"/>
<path d="M0.996853 34.4432H1.77822L3.48335 37.3604L5.1989 34.4432H5.94554L6.21295 40.0483H5.41421L5.2371 35.7351L3.65699 38.3849H3.2472L1.68446 35.7664L1.5004 40.0483H0.739868L0.996853 34.4432Z" fill="#30485B"/>
<path d="M7.59144 34.412L8.18876 35.0093L7.59144 35.6136L6.98718 35.0093L7.59144 34.412ZM7.22333 36.138H7.97345V40.0518H7.22333V36.138Z" fill="#30485B"/>
<path d="M9.04661 40.0484V36.3915C9.04661 36.3395 9.04661 36.2596 9.03619 36.145H9.75506L9.77589 36.7319C9.82798 36.6694 9.89049 36.5895 9.95995 36.5062C10.0329 36.4228 10.1232 36.3533 10.2274 36.2804C10.3315 36.2179 10.4635 36.1589 10.5955 36.1172C10.7378 36.0755 10.9045 36.0547 11.0782 36.0547C11.5921 36.0547 11.9603 36.2075 12.2172 36.5062C12.4638 36.8048 12.5854 37.2146 12.5854 37.7182V40.0588H11.8352V37.7703C11.8352 37.4021 11.7623 37.1451 11.5991 36.968C11.4463 36.7944 11.2206 36.711 10.9323 36.711C10.717 36.711 10.533 36.7527 10.3871 36.843C10.2343 36.9368 10.1197 37.0479 10.0364 37.1938C9.94259 37.3362 9.88355 37.5028 9.84188 37.6869C9.8002 37.871 9.77937 38.055 9.77937 38.253V40.0692H9.03967V40.0484H9.04661Z" fill="#30485B"/>
<path d="M13.9056 34.412L14.5029 35.0093L13.9056 35.6136L13.3014 35.0093L13.9056 34.412ZM13.5271 36.138H14.2772V40.0518H13.5271V36.138Z" fill="#30485B"/>
<path d="M15.5482 39.0655C15.6906 39.2078 15.8572 39.312 16.0517 39.4058C16.2462 39.4891 16.4719 39.5273 16.7289 39.5273C16.9859 39.5273 17.1908 39.4857 17.354 39.4058C17.5172 39.3259 17.6006 39.2009 17.6006 39.0273C17.6006 38.9335 17.5797 38.864 17.5381 38.7911C17.4964 38.7286 17.4339 38.6696 17.354 38.6175C17.2741 38.5654 17.1595 38.5133 17.0033 38.4751C16.8609 38.4334 16.6838 38.3813 16.4685 38.3327C16.3157 38.3014 16.1698 38.2598 16.017 38.2007C15.8642 38.1417 15.7392 38.0688 15.6176 37.975C15.503 37.8812 15.4023 37.7701 15.3294 37.6347C15.2565 37.4992 15.2252 37.3464 15.2252 37.1624C15.2252 36.9679 15.2669 36.8047 15.3572 36.6692C15.4405 36.5268 15.5516 36.4018 15.7079 36.3011C15.8642 36.2004 16.017 36.1275 16.2011 36.0754C16.3851 36.0233 16.5692 36.0024 16.7671 36.0024C17.097 36.0024 17.3818 36.0441 17.6179 36.1344C17.8541 36.2282 18.0694 36.3393 18.243 36.5025L17.8333 37.0269C17.7187 36.9227 17.5659 36.8324 17.3922 36.7491C17.2186 36.6762 17.0137 36.6449 16.7671 36.6449C16.5205 36.6449 16.3261 36.6866 16.1906 36.7595C16.0378 36.8324 15.9753 36.9644 15.9753 37.1485C15.9753 37.3117 16.0795 37.4367 16.2636 37.5166C16.458 37.5999 16.715 37.6694 17.0241 37.7527C17.2082 37.7944 17.3818 37.8569 17.5381 37.9055C17.6909 37.968 17.8367 38.0375 17.9583 38.1313C18.0798 38.225 18.1736 38.3362 18.2465 38.4716C18.309 38.6036 18.3507 38.7703 18.3507 38.9647C18.3507 39.1592 18.309 39.3329 18.2187 39.4787C18.125 39.6315 18.0138 39.7565 17.8506 39.8468C17.6978 39.951 17.5311 40.0205 17.3262 40.0726C17.1318 40.1247 16.9164 40.1455 16.7116 40.1455C15.9719 40.1455 15.4162 39.951 15.0481 39.5482L15.5516 39.0655H15.5482Z" fill="#30485B"/>
<path d="M19.6046 36.763H18.8962V36.1379H19.6046V34.8634H20.3547V36.1379H21.4938V36.763H20.3547V38.6939C20.3547 39.0134 20.4068 39.2287 20.5075 39.3398C20.6083 39.451 20.7437 39.5135 20.9173 39.5135C21.0701 39.5135 21.1847 39.4926 21.2854 39.451C21.3792 39.4093 21.4799 39.3364 21.5737 39.2565L21.9244 39.7184C21.7612 39.8712 21.5945 39.9962 21.4209 40.0587C21.2472 40.1212 21.0528 40.1629 20.8062 40.1629C20.3964 40.1629 20.0873 40.0483 19.8929 39.8226C19.6984 39.5968 19.6046 39.2461 19.6046 38.7738V36.7596V36.763Z" fill="#30485B"/>
<path d="M22.5628 40.0483V36.381C22.5628 36.3289 22.5628 36.249 22.5524 36.1448H23.2713L23.2921 36.7699C23.3338 36.7074 23.3963 36.6275 23.4658 36.5442C23.5352 36.4609 23.629 36.3914 23.7332 36.3185C23.8374 36.256 23.9589 36.1969 24.1013 36.1448C24.2437 36.0927 24.3999 36.0719 24.5736 36.0719C24.6569 36.0719 24.7368 36.0823 24.8097 36.0927C24.8827 36.1032 24.9417 36.1136 25.0042 36.1448L24.841 36.8533C24.7368 36.8116 24.6048 36.7908 24.452 36.7908C24.2888 36.7908 24.1325 36.822 24.0006 36.8845C23.8582 36.947 23.7436 37.0373 23.6429 37.1415C23.5422 37.2457 23.4588 37.3777 23.4067 37.5201C23.3442 37.6729 23.313 37.8187 23.313 37.9819V40.0448H22.5628V40.0483Z" fill="#30485B"/>
<path d="M25.7784 41.0034C25.8409 41.0555 25.9 41.0972 25.9729 41.1354C26.0458 41.177 26.1361 41.1979 26.2507 41.1979C26.3445 41.1979 26.4139 41.177 26.4869 41.1354C26.5598 41.0937 26.6084 41.0312 26.6605 40.9513C26.7126 40.8714 26.7647 40.7672 26.8133 40.6631C26.8654 40.5485 26.9175 40.4165 26.9765 40.2637L27.0807 40.0171L25.3339 36.1345H26.2056L27.4696 39.0829L28.5775 36.1345H29.4005L27.8308 39.9442C27.7579 40.1282 27.678 40.3227 27.6051 40.5415C27.5322 40.7603 27.4314 40.9617 27.3273 41.1562C27.2127 41.3507 27.0807 41.5139 26.9175 41.6389C26.7543 41.7709 26.5494 41.8334 26.3028 41.8334C26.1083 41.8334 25.9347 41.8126 25.8097 41.75C25.6777 41.6979 25.5631 41.6285 25.452 41.5347L25.7819 40.9999L25.7784 41.0034Z" fill="#30485B"/>
<path d="M33.1091 40.1628C32.8105 40.1628 32.5327 40.1003 32.2687 39.9996C32.0222 39.8954 31.7964 39.7426 31.6124 39.5482C31.4283 39.3537 31.2929 39.1384 31.1818 38.8814C31.0776 38.6348 31.029 38.3674 31.029 38.0792C31.029 37.7909 31.0811 37.5235 31.1818 37.2769C31.2859 37.0304 31.4283 36.8046 31.6124 36.6102C31.7964 36.4157 32.0118 36.2698 32.2687 36.1587C32.5153 36.0545 32.8035 35.9955 33.1091 35.9955C33.4148 35.9955 33.6856 36.058 33.9426 36.1587C34.1892 36.2629 34.4149 36.4157 34.599 36.6102C34.783 36.8046 34.9289 37.02 35.0296 37.2769C35.1338 37.5235 35.1824 37.7909 35.1824 38.0792C35.1824 38.3674 35.1303 38.6348 35.0296 38.8814C34.9254 39.128 34.783 39.3537 34.599 39.5482C34.4149 39.7426 34.1892 39.8885 33.9426 39.9996C33.6856 40.1142 33.4078 40.1628 33.1091 40.1628ZM33.1091 39.5065C33.3036 39.5065 33.4877 39.4648 33.6544 39.3849C33.8176 39.3016 33.953 39.1905 34.0642 39.0654C34.1788 38.9335 34.2586 38.7876 34.3211 38.614C34.3837 38.4403 34.4149 38.2632 34.4149 38.0896C34.4149 37.9159 34.3837 37.7388 34.3211 37.5652C34.2586 37.3916 34.1683 37.2457 34.0642 37.1137C33.9496 36.9818 33.8176 36.8776 33.6544 36.7942C33.5016 36.7109 33.314 36.6727 33.1091 36.6727C32.9043 36.6727 32.7306 36.7144 32.5639 36.7942C32.4007 36.8776 32.2653 36.9887 32.1541 37.1137C32.0395 37.2457 31.9597 37.3916 31.8972 37.5652C31.8346 37.7388 31.8034 37.9159 31.8034 38.1C31.8034 38.2841 31.8346 38.4577 31.8972 38.6244C31.9597 38.7911 32.05 38.9439 32.1541 39.0759C32.2687 39.2078 32.4007 39.312 32.5639 39.3954C32.7167 39.4683 32.9043 39.51 33.1091 39.51" fill="#30485B"/>
<path d="M36.3324 36.7631H35.624V36.138H36.3324V35.8185C36.3324 35.5511 36.3741 35.3254 36.447 35.1309C36.52 34.9364 36.6207 34.7801 36.7457 34.6586C36.8672 34.537 37.0235 34.4433 37.1763 34.3808C37.3395 34.3182 37.5062 34.287 37.6903 34.287C37.8952 34.287 38.1001 34.3182 38.305 34.3912C38.4994 34.4537 38.6835 34.5648 38.8502 34.7211L38.4717 35.2142C38.2668 35.0406 38.041 34.9572 37.8049 34.9572C37.5896 34.9572 37.4055 35.0302 37.2805 35.1621C37.1485 35.3045 37.086 35.5407 37.086 35.881V36.1276H38.2043V36.7527H37.086V40.0379H36.3359V36.7631H36.3324Z" fill="#30485B"/>
<path d="M45.4928 39.0655C45.4303 39.1697 45.34 39.2808 45.2045 39.4163C45.0726 39.5482 44.9163 39.6628 44.7322 39.7844C44.5482 39.9059 44.3329 39.9997 44.0967 40.0726C43.8606 40.1456 43.5932 40.1872 43.3049 40.1872C42.8951 40.1872 42.5131 40.1143 42.1659 39.9719C41.8255 39.8191 41.5303 39.6212 41.2838 39.3572C41.0372 39.1002 40.8427 38.7808 40.7073 38.4335C40.5649 38.0758 40.5024 37.6833 40.5024 37.2631C40.5024 36.8429 40.5649 36.4713 40.7073 36.1136C40.8497 35.7559 41.0372 35.4469 41.2838 35.169C41.5303 34.8912 41.829 34.6863 42.1659 34.5335C42.5166 34.3807 42.8951 34.2974 43.3153 34.2974C43.614 34.2974 43.8814 34.3286 44.1176 34.4015C44.3537 34.4745 44.5586 34.5648 44.7427 34.6794C44.9163 34.7836 45.0726 34.9155 45.1941 35.0371C45.3157 35.169 45.4303 35.2836 45.5032 35.4052L44.9267 35.8983C44.8642 35.8046 44.7739 35.7038 44.6906 35.5997C44.5968 35.4955 44.4857 35.4052 44.3607 35.3218C44.2287 35.2385 44.0828 35.169 43.9092 35.1169C43.746 35.0544 43.5411 35.0336 43.3327 35.0336C43.0236 35.0336 42.7458 35.0961 42.4993 35.2072C42.2631 35.3218 42.0478 35.4851 41.8742 35.69C41.7005 35.8844 41.5755 36.131 41.4852 36.3984C41.3914 36.6762 41.3532 36.9541 41.3532 37.2597C41.3532 37.5653 41.4053 37.8466 41.4956 38.1105C41.5859 38.3744 41.7214 38.6036 41.8846 38.8085C42.0478 39.003 42.2527 39.1593 42.4993 39.2704C42.7354 39.3746 43.0132 39.4336 43.3119 39.4336C43.5584 39.4336 43.7842 39.4024 43.9682 39.3295C44.1523 39.2669 44.3086 39.1871 44.4301 39.0933C44.5517 38.9995 44.6663 38.9092 44.7496 38.8155C44.8329 38.7217 44.9024 38.6523 44.9545 38.5793L45.4893 39.062H45.4928V39.0655Z" fill="#30485B"/>
<path d="M46.2853 36.138H47.0354V38.437C47.0354 38.8051 47.1083 39.0725 47.2611 39.2392C47.4139 39.4059 47.6292 39.4858 47.9175 39.4858C48.1328 39.4858 48.3168 39.4441 48.4627 39.3538C48.6051 39.26 48.7197 39.1489 48.8134 39.003C48.9072 38.8572 48.9662 38.694 49.0079 38.5099C49.0392 38.3258 49.0704 38.1418 49.0704 37.9438V36.1276H49.8205V39.7948C49.8205 39.8782 49.8205 39.9581 49.831 40.031H49.1121L49.0913 39.4545C49.0392 39.517 48.9767 39.5969 48.9072 39.6698C48.8343 39.7427 48.744 39.8226 48.6294 39.8851C48.5252 39.9476 48.3932 39.9997 48.2613 40.0484C48.1189 40.09 47.9626 40.1109 47.7786 40.1109C47.2646 40.1109 46.8965 39.9581 46.6499 39.6698C46.4138 39.3816 46.2818 38.9718 46.2818 38.4578L46.2922 36.138H46.2853Z" fill="#30485B"/>
<path d="M51.616 34.4432H50.8652V40.0518H51.616V34.4432Z" fill="#30485B"/>
<path d="M52.9905 36.763H52.2821V36.1379H52.9905V34.8634H53.7406V36.1379H54.8797V36.763H53.7406V38.6939C53.7406 39.0134 53.7927 39.2287 53.8934 39.3398C53.9941 39.451 54.1296 39.5135 54.3032 39.5135C54.456 39.5135 54.5706 39.4926 54.6713 39.451C54.7651 39.4093 54.8658 39.3364 54.9596 39.2565L55.3103 39.7184C55.1471 39.8712 54.9804 39.9962 54.8172 40.0587C54.6436 40.1212 54.4491 40.1629 54.2025 40.1629C53.7927 40.1629 53.4837 40.0483 53.2892 39.8226C53.0947 39.5968 53.0009 39.2461 53.0009 38.7738L52.9905 36.7596V36.763Z" fill="#30485B"/>
<path d="M55.7834 36.138H56.5335V38.437C56.5335 38.8051 56.6064 39.0725 56.7592 39.2392C56.912 39.4059 57.1273 39.4858 57.4156 39.4858C57.6309 39.4858 57.8149 39.4441 57.9608 39.3538C58.1032 39.26 58.2178 39.1489 58.3116 39.003C58.4053 38.8572 58.4644 38.694 58.506 38.5099C58.5373 38.3258 58.5685 38.1418 58.5685 37.9438V36.1276H59.3187V39.7948C59.3187 39.8782 59.3187 39.9581 59.3291 40.031H58.6102L58.5894 39.4545C58.5373 39.517 58.4748 39.5969 58.4053 39.6698C58.3324 39.7427 58.2421 39.8226 58.1275 39.8851C58.0233 39.9476 57.8913 39.9997 57.7594 40.0484C57.617 40.09 57.4607 40.1109 57.2767 40.1109C56.7627 40.1109 56.3946 39.9581 56.148 39.6698C55.9119 39.3816 55.7799 38.9718 55.7799 38.4578L55.7903 36.138H55.7834Z" fill="#30485B"/>
<path d="M60.3636 40.0483V36.381C60.3636 36.3289 60.3636 36.249 60.3531 36.1448H61.072L61.0928 36.7699C61.1345 36.7074 61.197 36.6275 61.2665 36.5442C61.3359 36.4609 61.4297 36.3914 61.5339 36.3185C61.6381 36.256 61.7596 36.1969 61.902 36.1448C62.0444 36.0927 62.2007 36.0719 62.3743 36.0719C62.4576 36.0719 62.5375 36.0823 62.6104 36.0927C62.6834 36.1032 62.7424 36.1136 62.8049 36.1448L62.6417 36.8533C62.5375 36.8116 62.4056 36.7908 62.2528 36.7908C62.0895 36.7908 61.9333 36.822 61.8013 36.8845C61.6589 36.947 61.5443 37.0373 61.4436 37.1415C61.3429 37.2457 61.2595 37.3777 61.2074 37.5201C61.1449 37.6729 61.1137 37.8187 61.1137 37.9819V40.0448H60.3636V40.0483Z" fill="#30485B"/>
<path d="M66.7814 39.4753C66.7397 39.5274 66.6668 39.5899 66.5869 39.6698C66.4931 39.7427 66.382 39.8226 66.2361 39.8955C66.0903 39.9684 65.9166 40.0275 65.7326 40.09C65.5381 40.1421 65.3228 40.1733 65.0658 40.1733C64.7567 40.1733 64.4893 40.1212 64.2254 40.0205C63.9684 39.9163 63.7531 39.7844 63.5795 39.5899C63.3954 39.4058 63.26 39.1801 63.1697 38.9231C63.0655 38.6661 63.0169 38.3779 63.0169 38.0619C63.0169 37.7736 63.069 37.5062 63.1593 37.2596C63.253 37.0131 63.3954 36.7978 63.569 36.6137C63.7427 36.4296 63.9476 36.2942 64.1941 36.1831C64.4407 36.0719 64.6873 36.0303 64.9859 36.0303C65.3263 36.0303 65.611 36.0928 65.8576 36.2248C66.0937 36.3567 66.2986 36.5234 66.4549 36.7387C66.6112 36.954 66.7223 37.1902 66.7952 37.468C66.8682 37.7458 66.8994 38.0341 66.8994 38.3293H63.8087C63.8191 38.5029 63.8503 38.6592 63.9233 38.812C63.9962 38.9648 64.0865 39.0898 64.2011 39.1905C64.3157 39.2947 64.4477 39.385 64.6109 39.4371C64.7637 39.4996 64.9304 39.5309 65.0936 39.5309C65.4235 39.5309 65.6978 39.4683 65.9062 39.3676C66.1215 39.253 66.2743 39.1419 66.3681 39.0377L66.7883 39.4788H66.7814V39.4753ZM66.1042 37.7493C66.0833 37.4402 65.9722 37.1832 65.7847 36.9783C65.5902 36.763 65.3332 36.6589 64.9825 36.6589C64.7984 36.6589 64.6421 36.6901 64.4997 36.7526C64.3574 36.8151 64.2323 36.895 64.1316 36.9888C64.0274 37.093 63.9476 37.2041 63.8955 37.3395C63.833 37.4715 63.8017 37.6069 63.8017 37.7493H66.1042Z" fill="#30485B"/>
<path d="M53.1338 2.74C52.724 8.34858 53.2276 13.9224 53.0921 19.5727C53.0713 20.611 53.1963 21.7189 53.113 22.7676C53.1025 22.8892 53.0713 22.983 52.8768 22.9934C52.6198 22.9725 52.3628 22.9413 52.1059 22.9934C52.0225 22.2433 52.0538 21.6702 51.9912 21.0208C51.8384 19.6143 51.9287 18.4648 51.9183 16.9333C51.8975 14.3044 51.6822 11.6338 51.8662 9.01536C51.9287 8.08117 51.9392 6.54967 51.8871 5.61548C51.835 4.66046 51.7829 3.96243 51.8454 2.75042C52.3073 2.68791 52.7275 2.68791 53.1303 2.74" fill="#30485B"/>
<path d="M6.63324 1.15989C7.0847 1.20156 7.30001 1.34395 7.33127 1.85792C7.38336 2.62888 7.26876 3.03867 7.3521 3.79922C7.62992 6.30658 7.03261 8.84172 7.30001 11.356C7.4424 12.6792 7.31043 13.8703 7.3521 15.1969C7.41461 17.1799 7.33127 19.4268 7.28959 21.7501H1.11849C0.903179 21.441 0.944852 19.9026 1.01431 19.4997C1.07682 19.149 1.07682 18.7913 1.0664 18.4301C1.04556 16.9715 1.13933 15.6692 1.12891 14.2107C1.11849 13.3598 1.10807 12.4951 0.976107 11.6547C0.85456 10.9046 1.03862 9.60227 0.934434 8.84172C0.792051 7.89712 0.719123 2.27813 0.771214 1.20156C0.760796 1.19114 5.90743 1.08696 6.63671 1.15989" fill="#30485B"/>
<path d="M17.951 2.47265C17.5934 2.34068 17.6524 2.76089 17.6524 2.9762C17.6524 3.19152 17.6524 3.30612 17.642 3.58047C17.6316 4.11528 17.6836 5.60511 17.6836 6.13645C17.6941 7.02896 17.7462 7.82076 17.7357 8.51879C17.7045 9.84193 17.7045 11.179 17.7566 12.5125C17.8885 15.8186 17.7357 19.1456 17.8295 22.4343C17.8399 22.7121 18.024 22.8024 18.281 22.8649L18.6595 22.9274C18.6387 20.1145 18.8644 17.1557 18.6907 14.3427C18.6178 13.1619 18.6595 12.002 18.6595 10.8213C18.6595 9.64051 18.6491 8.57089 18.6699 7.44223C18.6907 6.75461 18.6803 6.07741 18.6491 5.3898C18.6282 4.54938 18.6699 2.91369 18.4442 2.68796C18.3226 2.54558 18.1768 2.55599 17.951 2.47265Z" fill="#30485B"/>
<path d="M11.852 20.611C12.2202 20.6006 12.1507 20.3228 12.1507 20.097C12.1507 19.8921 12.2028 19.7671 12.2028 19.4928C12.2132 18.9475 12.182 17.4508 12.1715 16.9159C12.1611 16.013 12.109 15.2212 12.1299 14.5128C12.1611 13.1688 12.182 11.8318 12.1299 10.4878C12.0153 7.15043 12.1924 3.80265 12.109 0.486124C12.0986 0.197881 11.9146 0.187463 11.5846 0.166626L11.1332 0.187463C11.1332 3.03169 11.1644 6.05302 11.1957 9.08131C11.2165 10.2621 11.1957 11.1858 11.1957 12.3666C11.1957 13.5473 11.2165 14.4086 11.2165 15.5511C11.2165 16.1554 11.1957 16.8152 11.1853 17.6557C11.1749 18.5065 11.1332 20.1213 11.3381 20.3783C11.4805 20.5728 11.6263 20.6145 11.852 20.6145" fill="#30485B"/>
<path d="M19.9762 22.3544C19.6358 22.3127 19.5872 22.1599 19.5976 21.7675C19.6289 20.6076 19.556 18.1211 19.4344 16.6035C19.3302 15.2282 19.3511 13.8217 19.5282 12.4639C19.6428 11.5193 19.4761 10.8212 19.4761 9.65091C19.4657 8.1194 19.5594 6.91781 19.5594 5.88292C19.549 5.2474 19.5386 4.6084 19.4969 3.97288C19.4761 3.37556 19.4761 2.06284 19.4761 1.92045C19.5803 1.8892 19.9275 1.89962 20.0213 1.89962C20.3512 1.93087 20.5144 1.97255 20.7402 2.09409C20.8826 2.69836 20.8444 3.9833 20.8444 4.70217C20.8444 5.12238 20.8235 6.86919 20.8444 7.27898C20.8964 7.97702 20.8652 8.67505 20.8652 9.37308C20.8756 10.2552 20.9277 11.1616 20.9277 12.0437C20.9277 13.1723 20.8339 14.294 20.8062 15.4227C20.7541 17.5064 21.0215 20.1874 21.0006 21.9238C20.9902 22.2745 21.0319 22.4586 20.6707 22.4586C20.6707 22.4378 20.32 22.3961 19.9831 22.3544" fill="#30485B"/>
<path d="M51.2236 21.3994C51.2861 20.5382 51.109 19.2012 51.109 18.5031C51.109 18.0933 51.0569 16.4195 51.0881 16.0062C51.1298 15.3394 51.0985 14.6518 51.0985 13.9711C51.0985 13.1099 51.1506 12.2451 51.1402 11.3839C51.1298 10.2865 51.0256 9.20644 50.9874 8.10904C50.9041 5.83783 51.2444 2.80954 51.102 1.20858C50.5255 1.08704 49.8275 1.05578 49.06 1.0662C48.8655 2.3303 48.9176 3.60134 48.9454 5.14327C48.9663 6.15038 48.8725 7.3103 48.8933 8.80013C48.9142 9.92879 49.2024 11.2762 49.0878 12.2C48.9246 13.5162 48.8933 14.881 49.0253 16.2146C49.2093 18.1246 49.1399 21.2466 49.1677 21.2883L51.2201 21.4029L51.2236 21.3994Z" fill="#30485B"/>
<path d="M57.242 21.4515C57.3358 19.1004 57.3149 17.6835 57.3566 15.6484C57.3775 14.2107 57.1621 12.4048 57.183 10.8942C57.2351 8.12288 57.2663 7.17828 57.0406 4.59799C56.9885 4.0215 57.0718 2.93451 57.051 2.34761C57.0302 1.95866 57.0198 1.46552 57.0093 1.07309C57.0093 1.07309 58.9089 1.48288 60.3779 1.17728C62.7186 0.684139 66.6011 1.19811 66.6011 1.19811C66.8373 1.59749 66.8685 2.51431 66.8581 2.72962C66.8164 4.42435 66.7852 3.82702 66.8373 5.52175C66.8998 7.12271 66.6011 8.53962 66.6011 10.79C66.6011 12.2694 66.8268 13.2557 66.8789 14.242C66.931 15.2595 66.7574 16.1103 66.8164 17.7217C66.8581 18.7184 66.8373 21.3265 66.8477 21.5626C66.8477 21.5626 59.8639 21.6043 58.3637 21.4202C57.5823 21.3265 57.2455 21.4515 57.2455 21.4515" fill="#30485B"/>
<path d="M44.4578 0.215245C44.4995 3.72625 44.5203 7.61926 44.6939 10.7934C44.7564 11.8526 44.7148 13.1757 44.7564 14.3773C44.7773 14.9121 44.6835 15.9887 44.6418 16.6972C44.6106 17.2736 44.621 17.8571 44.6314 18.4336C44.6523 19.0482 44.6523 20.3332 44.6106 20.354C44.2529 20.2915 43.8709 20.2915 43.4715 20.354C43.3396 19.8817 43.4299 19.4407 43.4403 18.958C43.5132 14.7385 43.2145 11.6651 43.2875 7.78595C43.3083 6.52185 43.2666 4.79587 43.1729 3.55608C43.0895 2.46909 43.1208 1.24667 43.2562 0.166626C43.6764 0.166626 44.0793 0.177044 44.4578 0.218718" fill="#30485B"/>
<path d="M56.186 0.409753C56.2902 2.22603 56.2069 3.4172 56.2485 4.97996C56.2798 6.34477 56.4326 7.5151 56.3527 9.07786C56.2798 10.4323 56.4152 11.7901 56.4569 13.1445C56.4777 14.4607 56.509 15.7838 56.5194 17.107C56.5402 18.1245 56.5715 19.0587 56.5715 20.0866C56.5715 20.2603 56.5507 20.6215 56.5507 20.7951C56.5507 20.7951 56.193 20.7326 55.8422 20.7638C54.9601 20.8472 54.2725 20.743 54.0155 20.6909C53.8002 20.6388 53.9843 17.0653 53.9947 16.7389C54.0155 15.3949 54.0155 14.0579 54.0155 12.7139C54.0051 11.3595 53.8836 9.91134 53.8627 8.56389C53.8419 7.18866 53.9148 5.90372 53.8836 4.53891C53.8523 3.15327 53.8106 1.98293 53.769 0.593811C53.7586 0.315987 54.026 0.163184 54.4774 0.284732C55.0331 0.427117 55.6582 0.23264 56.193 0.40628" fill="#30485B"/>
<path d="M9.66471 2.10451C10.0745 2.16702 10.3836 2.55598 10.394 3.01786C10.4044 3.68464 10.394 4.27154 10.3732 4.84455C10.3523 5.4905 10.3315 6.11907 10.3523 6.82752C10.3836 9.69258 10.5051 12.4361 10.3836 15.3915C10.2794 17.9058 10.5051 20.3506 10.4878 22.6635C9.72722 22.6218 8.81389 22.5489 8.07419 22.5107C8.27908 18.26 8.14712 14.235 8.09502 9.80719C8.07419 7.32066 8.47356 5.37242 8.12628 2.05242C8.6715 2.01075 9.18547 2.042 9.66819 2.10451" fill="#30485B"/>
<path d="M42.5375 11.5504C42.4854 10.0293 42.4958 7.1747 42.6104 5.64667C42.732 3.95194 42.3222 1.39596 41.388 1.44805C40.5754 1.40638 39.6829 1.50014 38.8633 1.54181C38.2069 1.57307 37.3735 1.57307 36.7171 1.63558C35.5989 1.73976 35.4739 1.58349 34.3452 1.58349C32.9388 1.58349 31.7268 1.69809 30.3203 1.69809C28.9138 1.69809 27.4448 1.66684 26.0905 1.55571C24.7569 1.45152 23.3366 1.26746 22.0134 1.30914C21.819 1.31956 21.7148 2.17039 21.6731 3.2296C21.6419 4.24713 21.5689 6.44541 21.6523 7.50114C22.2774 6.7406 23.0483 6.45236 23.8193 6.37248C24.434 6.30997 25.1424 6.27872 25.8126 6.3829C25.8752 6.39332 25.382 5.92102 24.9722 5.5911C24.7361 5.40704 24.4791 5.22298 24.1909 5.18131C23.8332 5.12922 23.4616 5.16047 23.0935 5.13964C23.3609 4.90349 23.8228 4.327 24.9618 4.47286C25.5765 4.55621 26.6044 5.62236 26.976 5.33411C27.3858 5.01462 27.2226 3.74357 27.7678 3.59771C28.2193 3.48311 28.5075 5.17784 28.7228 5.54943C29.216 4.9139 29.9661 4.45202 30.7648 4.36867C31.185 4.31658 32.4804 4.47286 32.654 5.08754C32.654 5.07713 31.001 4.78888 29.9834 6.2683C31.4316 5.69181 32.9006 5.88976 34.1334 6.83436C34.4737 7.10177 34.6995 7.36917 34.9252 7.6852C35.2551 8.13666 35.2134 8.33114 35.203 8.58813C34.6682 8.48394 34.1646 7.54976 33.2409 7.27194C32.4595 7.03579 31.6295 7.07746 30.8482 7.31361C32.6158 7.60185 35.0571 9.95294 34.2167 11.8838C33.9389 12.5089 33.866 12.0887 33.7653 11.5643C33.6507 10.9392 33.477 10.5885 33.1784 10.1787C32.9214 9.82097 32.6436 9.51189 32.3276 9.21323C32.0497 8.93541 31.1781 8.55687 30.7683 8.58813C31.9074 8.90763 32.6366 11.1754 32.7304 11.4115C32.9665 11.9984 32.9665 12.6756 32.977 13.2903C32.9874 13.648 33.0186 14.9017 32.5672 15.0163C32.5776 15.0163 32.6401 11.988 30.5044 10.262C31.06 11.2379 31.1086 12.4395 31.0392 13.5369C31.0079 14.1516 30.9072 14.6447 30.6294 15.2003C30.5669 15.3219 30.3516 15.8775 30.2613 15.8984C29.9834 15.9609 30.1293 14.2036 30.0876 13.8946C30.0355 13.516 29.3375 10.9045 28.6082 11.5539C28.2401 11.8734 28.4242 13.3424 28.4763 13.9883C28.5388 14.7801 28.6291 15.9505 28.6395 16.7492C28.6707 18.4023 28.7124 19.5726 28.9277 21.2361C30.8377 20.2081 39.2071 15.9262 40.3983 19.458C40.4087 19.5726 40.3358 19.4893 40.3358 19.4893C39.5127 18.2668 37.2867 18.8919 36.165 19.2427C34.1716 19.8574 32.272 20.8228 30.4766 21.8508C33.4354 21.8612 38.0055 21.8508 41.3811 21.8508C42.1624 21.8508 42.7771 21.2048 42.7563 20.4234C42.7354 19.847 42.725 19.1593 42.725 18.43C42.725 17.5896 42.7667 16.6936 42.7875 15.8532C42.8292 14.2106 42.6139 13.2243 42.5514 11.5504M25.9342 13.2972C25.8196 13.7279 25.6668 14.4572 25.6564 14.6516C25.6355 14.8461 25.4827 15.8741 25.4827 15.8741C25.4202 15.8324 25.3786 15.7595 25.3404 15.6796C24.9201 14.7246 25 13.2139 25 13.2139C25.1528 10.842 25.9967 10.2065 25.9967 10.2169C25.6182 10.0016 24.8576 10.8941 24.4444 11.4601C23.9096 12.2103 23.9929 12.7242 23.9304 13.905C23.6422 13.8425 23.3539 13.3702 23.3435 13.0125C23.2393 11.1649 24.0624 9.47022 24.9549 8.78261C25.0591 8.68884 23.9374 8.91457 23.7325 8.9875C23.0032 9.28616 22.4788 9.81055 22.1211 10.5086C21.371 11.9672 21.8433 13.7036 21.753 15.3045C21.6905 16.2283 21.8259 17.1312 21.8155 18.0585C21.8051 18.7565 21.6314 18.8919 22.3295 18.9405C22.6073 18.9614 22.8747 19.0031 23.1525 19.0621C24.7951 19.4198 26.1009 20.1699 27.2504 21.3611C27.4344 19.2357 27.4553 17.2632 27.4553 15.1274C27.4553 14.287 27.5976 12.4672 27.0351 11.7484C26.469 11.0191 26.0696 12.818 25.9377 13.3007M21.9232 19.524C21.8815 20.3575 21.944 21.0138 21.944 21.9897C22.7566 21.9272 23.2497 22.0105 24.0589 22.0522C24.8403 22.1043 25.6703 22.0209 26.4412 22.1147C25.2605 20.8298 23.729 19.6803 21.9232 19.5275M23.2567 8.10888C23.5449 7.91441 24.7465 7.30666 24.8889 7.31708C24.0276 6.98717 22.9893 7.07051 22.2392 7.55323C21.4995 8.01512 21.746 9.31047 21.6523 10.1405C22.01 9.39035 22.5656 8.57076 23.2532 8.10541" fill="#30485B"/>
<path d="M47.6818 1.83712C47.786 1.85795 47.8763 1.9413 47.8763 2.05243C47.9388 4.35143 47.9805 6.42816 48.1333 8.8105C48.1958 9.7551 48.2375 11.1512 48.102 12.2625C47.918 13.721 48.2965 14.9018 48.1958 16.3708C48.0638 18.3121 48.3486 19.8922 48.2375 21.8335L45.8343 21.8856C45.6399 21.896 45.4558 21.7015 45.4836 21.2397C45.5044 20.7778 45.4732 18.7844 45.4732 17.2876C45.4732 15.7908 45.6676 14.4017 45.5044 12.7278C45.4211 11.9048 45.619 11.0331 45.5669 10.2135C45.4836 8.72368 45.435 7.41096 45.4037 5.92113C45.3829 5.03904 45.4037 3.68117 45.3829 2.8095C45.362 2.20523 45.4975 1.76072 45.8343 1.60791C46.2024 1.44469 47.2512 1.78155 47.6818 1.84406" fill="#30485B"/>
<path d="M12.9706 19.4997C12.9497 20.0553 12.9393 20.2498 12.9393 20.4651C12.9393 20.6075 13.0609 20.6283 13.1755 20.6908C13.2484 20.7325 13.8943 20.8645 14.1096 20.9166C14.2937 20.9583 14.5611 20.9791 14.7347 20.9791C15.3598 20.9687 15.978 21.184 16.6031 21.1319C16.6239 21.1319 16.6448 21.1215 16.6656 21.1111C16.7177 21.0798 16.8913 20.9965 16.9434 20.6492C17.0163 20.1144 16.8705 19.6525 16.9538 18.6975C17.0372 17.732 16.9643 15.1239 16.9747 14.4988C17.0163 9.74458 16.7385 9.67165 16.8705 5.99743C16.9122 4.70207 16.8809 4.27144 16.7385 2.91705C16.7073 2.55935 16.5441 1.65295 16.6239 1.01743C16.6552 0.78128 16.5197 0.597221 16.294 0.586803C15.2661 0.534711 13.0991 0.690987 13.0991 0.690987C12.9845 1.17371 12.9567 1.62517 12.9949 2.26069C13.0157 2.71216 12.9324 3.44144 12.9324 3.89291C12.9324 4.39647 12.9011 4.90002 12.922 5.414C12.9845 6.76839 13.0261 8.13667 12.9845 9.48065C12.8803 12.9222 13.1789 14.9121 13.047 18.2911L12.9636 19.5031H12.9706V19.4997Z" fill="#30485B"/>
</svg>
