<svg width="51" height="42" viewBox="0 0 51 42" fill="none" xmlns="http://www.w3.org/2000/svg">
<g clip-path="url(#clip0_0_66)">
<path d="M13.0399 23.9876V15.2824C13.0096 14.1278 12.5842 13.3985 11.779 12.7605C10.9738 12.1072 10.2294 11.7882 9.07476 11.773H8.63419C7.44919 11.8034 6.67439 12.1832 5.8692 12.9428C5.06401 13.6872 4.65381 14.4468 4.62343 15.571V23.6229C4.65381 24.7472 5.06401 25.5068 5.8692 26.2512C6.67439 26.9956 7.434 27.3906 8.63419 27.421H9.07476C10.2142 27.4058 10.9738 27.0716 11.779 26.4183C12.5842 25.765 13.0096 25.0814 13.0399 23.9876ZM12.5234 30.3227C12.3867 30.4139 12.2499 30.5202 12.098 30.6418L12.0524 30.6721C12.0221 30.6873 11.9917 30.7177 11.9613 30.7329C11.9309 30.7633 11.9005 30.7785 11.8701 30.7937C11.8398 30.8089 11.8094 30.8393 11.779 30.8545C11.7486 30.8696 11.7182 30.9 11.6878 30.9152C11.6575 30.9304 11.6119 30.9608 11.5815 30.976C11.5511 30.9912 11.5055 31.0216 11.4751 31.0368C11.4448 31.052 11.3992 31.0823 11.3688 31.0975C11.3384 31.1127 11.2928 31.1279 11.2625 31.1583C11.2321 31.1735 11.1865 31.1887 11.1409 31.2039C11.1105 31.2191 11.065 31.2343 11.0194 31.2495C10.9738 31.2646 10.9434 31.2798 10.8978 31.295C10.8675 31.3102 10.8219 31.3254 10.7763 31.3406C10.7307 31.3558 10.7003 31.371 10.6548 31.3862C10.6092 31.4014 10.5788 31.4166 10.5332 31.4166C10.4876 31.4318 10.4573 31.447 10.4117 31.447C10.3661 31.4621 10.3357 31.4621 10.2901 31.4773C10.2598 31.4925 10.2142 31.4925 10.1838 31.5077C10.1534 31.5077 10.1078 31.5229 10.0775 31.5229C10.0471 31.5229 10.0015 31.5381 9.97111 31.5381C9.51534 31.6141 9.05957 31.6596 8.57342 31.6596H8.224C5.91477 31.5989 3.98535 30.8393 2.43574 29.3808C0.886131 27.9223 0.0809412 26.0841 0.0201721 23.8812V15.2064C0.0809412 13.0035 0.886131 11.1653 2.43574 9.70682C3.98535 8.24836 5.91477 7.48875 8.224 7.42798H8.67977C9.12034 7.42798 9.53053 7.45836 9.91034 7.51913L10.0167 7.53432C10.0471 7.53432 10.0926 7.54952 10.1382 7.54952C10.1838 7.54952 10.2142 7.56471 10.2598 7.5799C10.3053 7.59509 10.3357 7.59509 10.3813 7.61029C10.4269 7.62548 10.4573 7.62548 10.5028 7.64067C10.5484 7.65586 10.5788 7.65586 10.6244 7.67106C10.67 7.68625 10.7003 7.70144 10.7459 7.70144C10.7763 7.71663 10.8219 7.73182 10.8675 7.74702C10.913 7.76221 10.9434 7.7774 10.989 7.79259C11.0346 7.80779 11.065 7.82298 11.1105 7.83817C11.1561 7.85336 11.1865 7.86855 11.2321 7.88375C11.2625 7.89894 11.308 7.91413 11.3384 7.92932C11.3688 7.94452 11.4144 7.95971 11.4448 7.99009C11.4751 8.00528 11.5207 8.02048 11.5511 8.05086C11.5815 8.06605 11.6119 8.09644 11.6574 8.11163L11.6878 8.12682L11.7334 8.15721L11.779 8.18759L11.8246 8.21798L11.8701 8.24836L11.9157 8.27875L11.9613 8.30913L12.0069 8.33951L12.0524 8.3699L12.0828 8.40028L12.1132 8.43067L12.1436 8.46105L12.174 8.49144L12.2044 8.52182L12.2348 8.55221L12.2651 8.58259L12.2955 8.61298L12.3259 8.64336C12.3259 8.64336 12.3563 8.67374 12.3867 8.70413C12.4019 8.71932 12.4323 8.73451 12.4474 8.73451C12.4778 8.74971 12.5082 8.74971 12.5234 8.7649C12.5538 8.7649 12.5842 8.78009 12.6146 8.78009C12.6449 8.78009 12.6753 8.78009 12.7057 8.7649C12.7361 8.7649 12.7665 8.74971 12.7817 8.73451C12.8121 8.71932 12.8273 8.70413 12.8576 8.68894C12.888 8.67374 12.9032 8.65855 12.9184 8.64336C12.9336 8.62817 12.9488 8.59778 12.964 8.58259C12.9792 8.5674 12.9944 8.53701 13.0096 8.50663C13.0248 8.47625 13.0248 8.46105 13.0399 8.43067C13.0399 8.40028 13.0551 8.3699 13.0551 8.33951C13.0551 8.05086 13.0399 7.67106 13.3742 7.56471C13.5717 7.50394 13.7996 7.53432 13.9971 7.53432H16.9292C17.233 7.53432 17.6736 7.45836 17.8103 7.82298C17.9015 8.09644 17.8407 8.65855 17.8407 8.94721V27.4514C17.8407 29.0921 17.9015 30.7633 17.7192 32.3889C17.2026 36.9466 14.9238 40.8206 10.0926 41.6713C7.17573 42.1879 4.25882 41.1396 2.01036 39.2862C1.7369 39.0583 1.15959 38.6785 1.18998 38.2835C1.20517 38.1467 1.26594 38.0252 1.35709 37.9189C1.35709 37.9189 3.22574 35.9439 3.36247 35.7616C3.4992 35.6096 3.68151 35.3969 3.8942 35.3969C4.18285 35.3969 4.50189 35.6704 5.03362 35.9894C5.94516 36.5212 6.91746 37.0073 7.96573 37.1744C8.619 37.2656 9.33303 37.1744 9.97111 36.9769C12.4171 36.1869 13.1007 33.0877 13.2374 30.6721V30.5354C13.2374 30.5202 13.2223 30.505 13.2223 30.4898C13.2223 30.4746 13.2071 30.4595 13.2071 30.4443C13.2071 30.4291 13.1919 30.4139 13.1919 30.4139C13.1919 30.3987 13.1767 30.3987 13.1767 30.3835C13.1767 30.3683 13.1615 30.3683 13.1463 30.3531C13.1311 30.3531 13.1311 30.3379 13.1159 30.3227C13.1058 30.3126 13.0957 30.3025 13.0855 30.2923C13.0703 30.2923 13.0703 30.2771 13.0551 30.262C13.0399 30.262 13.0399 30.2468 13.0248 30.2468C13.0096 30.2468 12.9944 30.2316 12.9944 30.2316C12.9792 30.2316 12.964 30.2164 12.9488 30.2164C12.9336 30.2164 12.9184 30.2164 12.9032 30.2012H12.7209C12.7057 30.2012 12.6905 30.2012 12.6753 30.2164C12.6601 30.2164 12.6449 30.2316 12.6449 30.2316C12.5842 30.2923 12.5386 30.3075 12.5234 30.3227Z" fill="#30485B"/>
<path d="M50.8535 31.1431V27.9527C50.8535 27.7704 50.8079 27.6337 50.7016 27.5425C50.6104 27.4514 50.4737 27.421 50.3218 27.421H41.5558C41.3432 27.421 41.1912 27.3754 41.1001 27.3147C41.0241 27.2387 40.9633 27.1475 40.9633 27.0108C40.9633 26.8893 41.0089 26.7222 41.0697 26.631L50.6864 8.49144C50.7168 8.43067 50.732 8.3699 50.7624 8.30913C50.7776 8.24836 50.7927 8.1724 50.7927 8.12682C50.7776 7.85336 50.5952 7.71663 50.2154 7.70144H34.4611C34.0964 7.68625 33.9293 7.86855 33.9293 8.23317V11.4235C33.9141 11.7882 34.0964 11.9705 34.4611 11.9553H42.6801C42.8624 11.9553 43.0143 11.9857 43.1207 12.0616C43.227 12.1376 43.2574 12.2439 43.2726 12.3807C43.2726 12.4414 43.2574 12.5022 43.2422 12.563C43.227 12.6389 43.1966 12.6997 43.1662 12.7453L33.4584 30.8848C33.428 30.9456 33.4128 31.0064 33.3824 31.0671C33.3672 31.1431 33.352 31.2039 33.352 31.2495C33.3672 31.5229 33.5495 31.6596 33.9445 31.6748H50.337C50.5193 31.6748 50.656 31.6293 50.7472 31.5533C50.8079 31.4621 50.8535 31.3254 50.8535 31.1431Z" fill="#30485B"/>
<path d="M23.6289 4.61736C23.6441 4.79967 23.6897 4.92121 23.7809 5.01236C23.8872 5.11871 24.0391 5.16428 24.267 5.17947H27.5789C27.7916 5.17947 27.9587 5.11871 28.0651 5.01236C28.1562 4.92121 28.217 4.78448 28.217 4.61736V0.849679C28.217 0.636987 28.1562 0.45468 28.0499 0.363526C27.9435 0.25718 27.7916 0.211603 27.5637 0.196411H27.3055C27.0928 0.196411 26.9257 0.241988 26.7433 0.439487L23.9632 3.53871L23.8264 3.69063C23.6745 3.85775 23.6137 4.00967 23.6137 4.19198V4.51101C23.6137 4.55659 23.6289 4.61736 23.6289 4.61736Z" fill="#30485B"/>
<path d="M28.1866 8.24839C28.1866 8.06609 28.1411 7.91416 28.0499 7.82301C27.9587 7.73186 27.8068 7.68628 27.6093 7.68628H24.1607C23.9632 7.68628 23.8113 7.74705 23.7201 7.85339C23.6289 7.95974 23.5834 8.08128 23.5834 8.24839V31.0976C23.5834 31.2799 23.6289 31.4318 23.7201 31.5229C23.8113 31.6141 23.9632 31.6597 24.1607 31.6597H27.6093C27.8068 31.6597 27.9587 31.5989 28.0499 31.4926C28.1411 31.3862 28.1866 31.2647 28.1866 31.0976V8.24839Z" fill="#30485B"/>
</g>
<defs>
<clipPath id="clip0_0_66">
<rect width="50.8333" height="41.6071" fill="white" transform="translate(0.0202026 0.196411)"/>
</clipPath>
</defs>
</svg>
