<svg width="118" height="42" viewBox="0 0 118 42" fill="none" xmlns="http://www.w3.org/2000/svg">
<g clip-path="url(#clip0_0_209)">
<path d="M58.2997 24.9332V27.3337H47.9397V12.0853H57.7368V14.3778H50.8155V18.0966H56.9376V20.497H50.8155V24.9537H58.2997V24.9332Z" fill="#30485B"/>
<path d="M59.4022 27.3133L64.7018 19.6571C63.0364 17.1254 61.3068 14.5966 59.6414 12.0446H63.0364L66.2797 17.0204C67.3618 15.3754 68.4643 13.71 69.5231 12.0446H72.7664L67.8576 19.5725L73.0493 27.3366H69.9343C68.8085 25.6275 67.3822 23.6587 66.2797 21.9291C65.1772 23.6587 63.7714 25.6275 62.6689 27.3366H59.4022V27.3162V27.3133Z" fill="#30485B"/>
<path d="M78.0251 21.9059V27.3134H75.3214V12.1963C83.9722 11.0063 86.5038 13.3425 86.5038 17.1721C86.5038 20.7188 83.3451 22.1246 78.0251 21.9088V21.9059ZM78.1126 19.5696C82.0268 19.765 83.5639 18.7909 83.5639 16.8863C83.5639 15.1771 82.3739 13.9667 78.1126 14.3546V19.5667V19.5696Z" fill="#30485B"/>
<path d="M96.9513 21.0396L100.801 27.3337H97.5347L94.0084 21.5791C93.3172 21.5791 92.623 21.5996 91.8238 21.5996V27.3308H89.0326V12.2137C97.2955 11.0879 99.9555 13.1879 99.9555 16.9504C99.9759 19.2633 98.4418 20.3016 96.9484 21.0396H96.9513ZM91.8472 19.31C95.5018 19.4383 97.0826 18.7704 97.0826 16.65C97.0826 15.0283 95.6563 13.9258 91.8472 14.3779V19.31Z" fill="#30485B"/>
<path d="M109.648 11.7616C113.973 11.7616 117.068 15.3316 117.068 19.7008C117.068 24.0699 113.953 27.6399 109.648 27.6399C105.343 27.6399 102.251 24.0699 102.251 19.7008C102.251 15.3316 105.322 11.7616 109.648 11.7616ZM109.668 24.9566C112.068 24.9566 114.276 22.9441 114.276 19.7008C114.276 16.4574 112.071 14.4012 109.668 14.4012C107.265 14.4012 105.083 16.4545 105.083 19.7008C105.083 22.947 107.247 24.9566 109.668 24.9566Z" fill="#30485B"/>
<path d="M49.1297 33.4993V33.3477C49.1297 33.3272 49.1297 33.3039 49.1501 33.2835C49.1501 33.2631 49.1705 33.2631 49.1939 33.2631L49.3893 33.2427C49.4534 33.2427 49.4768 33.2631 49.4768 33.3068V34.6252C49.4768 34.7535 49.4972 34.841 49.5643 34.9052C49.6314 34.9693 49.7364 34.9927 49.888 34.9927H49.9084V35.3602H49.8209C49.6489 35.3602 49.4972 35.3397 49.3893 35.2727C49.2814 35.2085 49.1939 35.1443 49.1501 35.0335C48.9984 35.0977 48.8264 35.1414 48.6309 35.1414C48.5434 35.1414 48.4589 35.1414 48.3714 35.121C48.2839 35.1006 48.2197 35.0772 48.1555 35.0335C48.0914 34.9897 48.0272 34.9256 48.0039 34.8614C47.9601 34.7972 47.9397 34.7097 47.9397 34.6018C47.9397 34.386 48.0476 34.1906 48.243 33.9952C48.4384 33.7997 48.7418 33.6277 49.1297 33.4964V33.4993ZM49.1297 34.6893V33.8231C48.8701 33.9106 48.6747 34.0185 48.523 34.1264C48.3714 34.2547 48.3072 34.386 48.3072 34.5143C48.3072 34.5785 48.3276 34.6427 48.3947 34.6864C48.4618 34.7302 48.5464 34.7506 48.6747 34.7506C48.803 34.771 48.9547 34.7302 49.1297 34.6864V34.6893ZM49.0655 32.6768C49.0218 32.7206 48.978 32.741 48.9139 32.741C48.8497 32.741 48.8059 32.7206 48.7622 32.6768C48.7184 32.6331 48.698 32.5893 48.698 32.5252C48.698 32.461 48.7184 32.4172 48.7622 32.3735C48.8059 32.3297 48.8497 32.3093 48.9139 32.3093C48.978 32.3093 49.0218 32.3297 49.0655 32.3735C49.1093 32.4172 49.1297 32.461 49.1297 32.5252C49.1297 32.5893 49.1093 32.6535 49.0655 32.6768ZM49.6255 32.6768C49.5818 32.7206 49.538 32.741 49.4739 32.741C49.4097 32.741 49.3659 32.7206 49.3222 32.6768C49.2784 32.6331 49.258 32.5893 49.258 32.5252C49.258 32.461 49.2784 32.4172 49.3222 32.3735C49.3659 32.3297 49.4097 32.3093 49.4739 32.3093C49.538 32.3093 49.5818 32.3297 49.6255 32.3735C49.6693 32.4172 49.6897 32.461 49.6897 32.5252C49.6897 32.5893 49.6693 32.6535 49.6255 32.6768Z" fill="#30485B"/>
<path d="M50.0601 36.2236C50.0164 36.2674 49.9726 36.2878 49.9085 36.2878C49.8443 36.2878 49.8005 36.2674 49.7568 36.2236C49.713 36.1799 49.6926 36.1361 49.6926 36.072C49.6926 36.0078 49.713 35.9641 49.7568 35.9203C49.8005 35.8766 49.8443 35.8561 49.9085 35.8561C49.9726 35.8561 50.0164 35.8766 50.0601 35.9203C50.1039 35.9641 50.1243 36.0078 50.1243 36.072C50.1243 36.1361 50.1039 36.1799 50.0601 36.2236ZM49.8647 34.9928H50.2118C50.3401 34.9928 50.4072 34.9724 50.451 34.9286C50.4947 34.8849 50.5151 34.8003 50.5151 34.6691V33.6307C50.5151 33.6103 50.5151 33.587 50.5355 33.5666C50.556 33.5461 50.5793 33.5461 50.5997 33.5461H50.7718C50.836 33.5461 50.8593 33.5666 50.8593 33.6336V34.8003C50.9672 34.9082 51.1189 34.9724 51.291 34.9724H51.3347V35.3399H51.291C51.0751 35.3399 50.9235 35.2524 50.7922 35.1007C50.7047 35.2524 50.5326 35.3399 50.273 35.3399H49.8851C49.8414 35.3399 49.821 35.3195 49.7976 35.2961C49.7772 35.2757 49.7539 35.232 49.7539 35.1445C49.7539 35.0803 49.7743 35.0161 49.7976 34.9928C49.7772 34.9928 49.818 34.9928 49.8618 34.9928H49.8647ZM50.6435 36.2236C50.5997 36.2674 50.556 36.2878 50.4918 36.2878C50.4276 36.2878 50.3839 36.2674 50.3401 36.2236C50.2964 36.1799 50.276 36.1361 50.276 36.072C50.276 36.0078 50.2964 35.9641 50.3401 35.9203C50.3839 35.8766 50.4276 35.8561 50.4918 35.8561C50.556 35.8561 50.5997 35.8766 50.6435 35.9203C50.6872 35.9641 50.7076 36.0078 50.7076 36.072C50.7076 36.1361 50.6872 36.1799 50.6435 36.2236Z" fill="#30485B"/>
<path d="M51.2705 34.9928H51.8334C51.7693 34.9053 51.7255 34.8207 51.7051 34.7128C51.6847 34.6049 51.6614 34.497 51.6614 34.3891C51.6614 34.1295 51.7255 33.9136 51.8772 33.762C52.0289 33.6103 52.2243 33.5461 52.4605 33.5461C52.7201 33.5461 52.9155 33.6336 53.0439 33.7853C53.1955 33.937 53.2597 34.1528 53.2597 34.4328C53.2597 34.7361 53.1722 34.952 53.0205 35.1036C52.8689 35.2553 52.653 35.3428 52.3497 35.3428H51.2676C51.2239 35.3428 51.2034 35.3224 51.1801 35.2991C51.1597 35.2786 51.1364 35.2349 51.1364 35.1474C51.1364 35.0832 51.1568 35.0191 51.1801 34.9957H51.2676L51.2705 34.9928ZM51.9851 34.4503C51.9851 34.6661 52.0493 34.8382 52.1572 34.9899H52.3964C52.548 34.9899 52.6764 34.9461 52.7639 34.8616C52.8514 34.7741 52.8922 34.6457 52.8922 34.4503C52.8922 34.3861 52.8922 34.322 52.8718 34.2549C52.8514 34.1907 52.828 34.147 52.8076 34.0828C52.7639 34.0186 52.7201 33.9953 52.6559 33.9545C52.5918 33.9107 52.5276 33.9107 52.4401 33.9107C52.3526 33.9107 52.2884 33.9311 52.2243 33.9545C52.1601 33.9749 52.1164 34.0186 52.0726 34.0828C52.0289 34.147 52.0084 34.1907 52.0084 34.2549C52.0084 34.3191 51.988 34.3832 51.988 34.4503H51.9851Z" fill="#30485B"/>
<path d="M54.2134 36.0078C54.4292 35.8999 54.6013 35.792 54.7122 35.684C54.823 35.5761 54.9076 35.4682 54.9513 35.337H54.5838C54.3242 35.337 54.1084 35.2728 53.9567 35.1211C53.8051 34.9695 53.7409 34.7536 53.7409 34.4299C53.7409 34.1703 53.8051 33.9545 53.9567 33.7824C54.1084 33.6307 54.3038 33.5432 54.5401 33.5432C54.7763 33.5432 54.9717 33.6074 55.1234 33.759C55.2751 33.9107 55.3392 34.1061 55.3392 34.3861V34.9695H55.7709V35.337H55.2955C55.2517 35.5528 55.1438 35.7249 54.9922 35.8561C54.8405 36.0078 54.6247 36.1361 54.3213 36.2878C54.2776 36.3082 54.2338 36.2878 54.2134 36.244L54.1259 36.0924C54.1259 36.072 54.1463 36.0282 54.2134 36.0049V36.0078ZM55.0126 34.7536V34.4065C55.0126 34.2549 54.9688 34.147 54.9047 34.0595C54.8405 33.972 54.7326 33.9311 54.5809 33.9311C54.4292 33.9311 54.3009 33.9749 54.2338 34.0828C54.1463 34.1703 54.1055 34.2986 54.1055 34.4707C54.1055 34.6865 54.1492 34.8382 54.2338 34.9024C54.3213 34.9899 54.473 35.0103 54.6655 35.0103H55.0126V34.7507V34.7536Z" fill="#30485B"/>
<path d="M55.7477 34.9927H56.6547C56.9785 34.9927 57.1302 34.8848 57.1302 34.6894C57.1302 34.5377 57.0222 34.3656 56.7831 34.2139C56.5439 34.0419 56.2202 33.8902 55.7652 33.7589C55.7214 33.7385 55.6777 33.7152 55.6777 33.6714V33.4993C55.6777 33.4556 55.6981 33.4352 55.7214 33.4119L57.0193 32.2656C57.0631 32.2219 57.1068 32.2219 57.1272 32.2656L57.2556 32.4173C57.2993 32.461 57.2993 32.4814 57.2556 32.5252L56.0889 33.5635C56.5643 33.7356 56.9114 33.9106 57.1272 34.1031C57.3664 34.2985 57.4743 34.5144 57.4743 34.7739V34.9023C57.5822 34.9898 57.7135 35.0306 57.8856 35.0306H57.9731V35.3981H57.8856C57.6697 35.3981 57.4977 35.3106 57.3868 35.1385C57.2585 35.3106 57.0193 35.3981 56.6518 35.3981H55.7652C55.7214 35.3981 55.701 35.3777 55.6777 35.3543C55.6572 35.3339 55.6339 35.2902 55.6339 35.2027C55.6339 35.1385 55.6543 35.0743 55.6777 35.051C55.6777 34.9868 55.6981 34.9868 55.7418 34.9868L55.7477 34.9927Z" fill="#30485B"/>
<path d="M57.9118 34.9928H59.7493C59.6851 34.9286 59.6414 34.8644 59.5976 34.7769C59.5539 34.6894 59.5334 34.5815 59.4897 34.4298C59.4459 34.214 59.3818 34.0419 59.2739 33.9544C59.1864 33.8669 59.058 33.8261 58.886 33.8261C58.7343 33.8261 58.5622 33.8698 58.3668 33.9778C58.3464 33.9982 58.323 33.9982 58.3026 33.9982C58.2822 33.9982 58.2822 33.9778 58.2589 33.9544L58.1714 33.7823C58.151 33.7386 58.1714 33.7182 58.2151 33.6948C58.4105 33.5432 58.6468 33.479 58.886 33.479C59.0143 33.479 59.1455 33.4994 59.2534 33.5432C59.3614 33.5869 59.4489 33.6511 59.513 33.7386C59.5772 33.8261 59.6414 33.9107 59.6851 34.0186C59.7289 34.1265 59.7726 34.2578 59.793 34.3861C59.8135 34.5378 59.8572 34.6661 59.9214 34.7536C59.9651 34.8411 60.0497 34.9257 60.1605 34.9928H60.3764V35.3603H57.8885C57.8447 35.3603 57.8243 35.3398 57.801 35.3165C57.7805 35.2961 57.7572 35.2523 57.7572 35.1648C57.7572 35.1007 57.7776 35.0365 57.801 35.0132C57.8447 34.9928 57.8651 34.9928 57.9089 34.9928H57.9118Z" fill="#30485B"/>
<path d="M60.3559 34.9928H60.6593C60.7876 34.9928 60.8751 34.9724 60.9189 34.9286C60.9626 34.8849 60.983 34.8003 60.983 34.669V32.3328C60.983 32.3124 60.983 32.289 61.0034 32.2686C61.0034 32.2482 61.0239 32.2482 61.0472 32.2482L61.2426 32.2278C61.3068 32.2278 61.3301 32.2482 61.3301 32.292V34.844C61.3301 35.0161 61.2864 35.1474 61.2018 35.2115C61.1172 35.2757 60.9626 35.3399 60.7701 35.3399H60.4026C60.3589 35.3399 60.3384 35.3195 60.3151 35.2961C60.2947 35.2757 60.2714 35.232 60.2714 35.1445C60.2714 35.0803 60.2918 35.0161 60.3151 34.9928C60.2947 34.9928 60.3151 34.9928 60.3589 34.9928H60.3559Z" fill="#30485B"/>
<path d="M61.9543 35.2494V32.3299C61.9543 32.3094 61.9543 32.2861 61.9747 32.2657C61.9747 32.2453 61.9951 32.2453 62.0185 32.2453L62.2139 32.2249C62.278 32.2249 62.3014 32.2453 62.3014 32.289V35.2524C62.3014 35.3165 62.281 35.3399 62.2139 35.3399H62.0418C61.9776 35.3399 61.9543 35.3194 61.9543 35.2524V35.2494Z" fill="#30485B"/>
<path d="M64.9847 34.9927H66.6297C66.758 34.9927 66.8251 34.9723 66.8689 34.9286C66.9126 34.8848 66.933 34.8002 66.933 34.669V33.6306C66.933 33.6102 66.933 33.5869 66.9535 33.5665C66.9739 33.5461 66.9972 33.5461 67.0176 33.5461H67.1897C67.2539 33.5461 67.2772 33.5665 67.2772 33.6336V34.8236C67.2772 35.1706 67.0818 35.3223 66.6939 35.3223H64.9001C64.5764 35.3223 64.3168 35.2348 64.1418 35.0831C63.9697 34.9315 63.8822 34.6952 63.8822 34.4123V33.9136C63.8822 33.8494 63.9026 33.8261 63.9697 33.8261H64.1418C64.206 33.8261 64.2293 33.8465 64.2293 33.9136V34.1936C64.2293 34.4736 64.2935 34.6923 64.4014 34.8002C64.4889 34.9286 64.6814 34.9956 64.9847 34.9956V34.9927ZM65.4601 33.2398C65.4164 33.2836 65.3726 33.304 65.3085 33.304C65.2443 33.304 65.2005 33.2836 65.1568 33.2398C65.113 33.1961 65.0926 33.1523 65.0926 33.0881C65.0926 33.024 65.113 32.9802 65.1568 32.9365C65.2005 32.8927 65.2443 32.8723 65.3085 32.8723C65.3726 32.8723 65.4164 32.8927 65.4601 32.9365C65.5039 32.9802 65.5243 33.024 65.5243 33.0881C65.5243 33.1523 65.5039 33.1961 65.4601 33.2398ZM66.0434 33.2398C65.9997 33.2836 65.956 33.304 65.8918 33.304C65.8276 33.304 65.7839 33.2836 65.7401 33.2398C65.6964 33.1961 65.676 33.1523 65.676 33.0881C65.676 33.024 65.6964 32.9802 65.7401 32.9365C65.7839 32.8927 65.8276 32.8723 65.8918 32.8723C65.956 32.8723 65.9997 32.8927 66.0434 32.9365C66.0872 32.9802 66.1076 33.024 66.1076 33.0881C66.1076 33.1523 66.0872 33.1961 66.0434 33.2398Z" fill="#30485B"/>
<path d="M68.2484 32.2891V34.6691C68.2484 34.7974 68.2688 34.8849 68.3126 34.9287C68.3563 34.9724 68.4409 34.9928 68.5722 34.9928H68.7005V35.3603H68.5051C68.3097 35.3603 68.158 35.3166 68.0734 35.232C67.9859 35.1445 67.9451 35.0162 67.9451 34.8645V32.3328C67.9451 32.3124 67.9451 32.2891 67.9655 32.2687C67.9655 32.2482 67.9859 32.2482 68.0092 32.2482L68.2047 32.2278C68.2251 32.2074 68.2484 32.2278 68.2484 32.292V32.2891Z" fill="#30485B"/>
<path d="M68.6393 34.9927H69.3305C69.1351 34.7769 69.0272 34.5377 69.0272 34.2781C69.0272 34.1498 69.0476 34.039 69.0914 33.931C69.1351 33.8231 69.1993 33.7356 69.2868 33.6919C69.3743 33.6277 69.4589 33.584 69.5464 33.5402C69.6339 33.4965 69.7418 33.4965 69.8497 33.4965C70.0655 33.4965 70.2814 33.5606 70.4564 33.6685C70.5001 33.689 70.5001 33.7123 70.5001 33.756L70.4126 33.9281C70.4126 33.9485 70.3922 33.9719 70.3689 33.9719C70.3455 33.9719 70.3251 33.9719 70.3047 33.9515C70.153 33.8873 70.0014 33.8435 69.8497 33.8435C69.6776 33.8435 69.5464 33.8873 69.4822 33.9719C69.3947 34.0594 69.3539 34.1673 69.3539 34.319C69.3539 34.4269 69.3743 34.5348 69.4414 34.666C69.5055 34.774 69.5697 34.9052 69.701 35.0131H70.6751C70.7393 35.0131 70.7626 35.0335 70.7626 35.1006V35.296C70.7626 35.3602 70.7422 35.3835 70.6751 35.3835H68.6218C68.578 35.3835 68.5576 35.3631 68.5343 35.3398C68.5139 35.3194 68.4905 35.2756 68.4905 35.1881C68.4905 35.124 68.511 35.0598 68.5343 35.0365C68.578 34.9927 68.5985 34.9927 68.6422 34.9927H68.6393Z" fill="#30485B"/>
<path d="M71.5151 36.0078C71.7747 35.8794 71.9467 35.7686 72.0547 35.6607C72.1626 35.5528 72.2501 35.4011 72.2705 35.229C72.1422 35.3165 71.9905 35.3573 71.8155 35.3573C71.5763 35.3573 71.3838 35.2698 71.2526 35.1182C71.1009 34.9461 71.0367 34.7303 71.0367 34.4473C71.0367 34.1878 71.1009 33.9719 71.2526 33.7998C71.4042 33.6482 71.5997 33.5607 71.8359 33.5607C72.0722 33.5607 72.2676 33.6248 72.4192 33.7765C72.5709 33.9282 72.6351 34.1236 72.6351 34.4036V34.8148C72.6351 34.9665 72.6351 35.1182 72.6147 35.2261C72.5942 35.334 72.5709 35.4419 72.5272 35.5498C72.4834 35.6578 72.4192 35.7453 72.3551 35.8298C72.2676 35.9173 72.183 36.0019 72.0751 36.069C71.9672 36.1332 71.8155 36.2207 71.6434 36.3082C71.5997 36.3286 71.5559 36.3082 71.5355 36.2644L71.448 36.1128C71.448 36.069 71.4684 36.0253 71.5122 36.0048L71.5151 36.0078ZM72.3376 34.3861C72.3376 34.2344 72.2938 34.1265 72.2297 34.039C72.1655 33.9515 72.0576 33.9107 71.9059 33.9107C71.7542 33.9107 71.6259 33.9544 71.5588 34.0623C71.4713 34.1498 71.4305 34.2782 71.4305 34.4503C71.4305 34.6457 71.4742 34.774 71.5588 34.8615C71.6463 34.949 71.7542 34.9898 71.9263 34.9898C72.078 34.9898 72.2297 34.9461 72.358 34.8615V34.3861H72.3376Z" fill="#30485B"/>
<path d="M74.3267 34.9928V35.3603H73.8717C73.828 35.5761 73.7638 35.7482 73.6326 35.8999C73.5042 36.0515 73.3292 36.1799 73.0697 36.3111C73.0259 36.3315 72.9822 36.3315 72.9617 36.2674L72.8742 36.1157C72.8742 36.0953 72.8538 36.0719 72.8742 36.0515C72.8742 36.0311 72.8947 36.0311 72.9384 36.0078C73.1105 35.9203 73.2184 35.8124 73.3059 35.7278C73.3934 35.6403 73.4576 35.5119 73.5013 35.3807C73.5451 35.229 73.5655 35.0569 73.5655 34.8178V33.6511C73.5655 33.6307 73.5655 33.6074 73.5859 33.5869C73.6063 33.5665 73.6297 33.5665 73.6501 33.5665H73.8222C73.8863 33.5665 73.9097 33.5869 73.9097 33.654V34.9957H74.3209L74.3267 34.9928Z" fill="#30485B"/>
<path d="M74.283 34.9928H74.7147C74.9743 34.9928 75.1026 34.8645 75.1026 34.6049V34.042C75.1026 33.9778 75.123 33.9545 75.1901 33.9545H75.3622C75.4264 33.9545 75.4497 33.9749 75.4497 34.042V34.8207C75.578 34.949 75.7297 34.9928 75.8814 34.9928C76.1205 34.9928 76.2489 34.8645 76.2489 34.6049V34.042C76.2489 33.9778 76.2693 33.9545 76.3364 33.9545H76.5084C76.5726 33.9545 76.5959 33.9749 76.5959 34.042V34.8003C76.7243 34.9082 76.8759 34.9724 77.0276 34.9724C77.2668 34.9724 77.3951 34.844 77.3951 34.5845V33.6103C77.3951 33.5899 77.3951 33.5665 77.4155 33.5461C77.436 33.5257 77.4593 33.5257 77.4797 33.5257H77.6518C77.716 33.5257 77.7393 33.5461 77.7393 33.6132V34.7799C77.8472 34.8878 77.9989 34.952 78.171 34.952H78.2147V35.3195H78.171C77.9318 35.3195 77.7597 35.232 77.6518 35.0395C77.5439 35.2349 77.3718 35.3195 77.1122 35.3195C76.8526 35.3195 76.6572 35.232 76.5289 35.0395C76.4209 35.2349 76.2489 35.3195 75.966 35.3195C75.7064 35.3195 75.511 35.232 75.3826 35.0395C75.2747 35.2349 75.0793 35.3195 74.8197 35.3195H74.2801C74.2364 35.3195 74.2159 35.299 74.1926 35.2757C74.1722 35.2553 74.1489 35.2115 74.1489 35.124C74.1489 35.0599 74.1693 34.9957 74.1926 34.9724C74.213 34.9928 74.2364 34.9928 74.2801 34.9928H74.283ZM76.2955 32.9803C76.2518 33.024 76.208 33.0445 76.1439 33.0445C76.0797 33.0445 76.036 33.024 75.9922 32.9803C75.9485 32.9365 75.928 32.8928 75.928 32.8286C75.928 32.7645 75.9485 32.7207 75.9922 32.677C76.036 32.6332 76.0797 32.6128 76.1439 32.6128C76.208 32.6128 76.2518 32.6332 76.2955 32.677C76.3393 32.7207 76.3597 32.7645 76.3597 32.8286C76.3597 32.8928 76.3393 32.9365 76.2955 32.9803ZM76.5755 32.4611C76.5318 32.5049 76.488 32.5253 76.4239 32.5253C76.3597 32.5253 76.3159 32.5049 76.2722 32.4611C76.2284 32.4174 76.208 32.3736 76.208 32.3095C76.208 32.2453 76.2284 32.2015 76.2722 32.1578C76.3159 32.114 76.3597 32.0936 76.4239 32.0936C76.488 32.0936 76.5318 32.114 76.5755 32.1578C76.6193 32.2015 76.6397 32.2453 76.6397 32.3095C76.6397 32.3736 76.6193 32.4378 76.5755 32.4611ZM76.8789 32.9803C76.8351 33.024 76.7914 33.0445 76.7272 33.0445C76.663 33.0445 76.6193 33.024 76.5755 32.9803C76.5318 32.9365 76.5114 32.8928 76.5114 32.8286C76.5114 32.7645 76.5318 32.7207 76.5755 32.677C76.6193 32.6332 76.663 32.6128 76.7272 32.6128C76.7914 32.6128 76.8351 32.6332 76.8789 32.677C76.9226 32.7207 76.943 32.7645 76.943 32.8286C76.9226 32.8928 76.9226 32.9365 76.8789 32.9803Z" fill="#30485B"/>
<path d="M78.1564 34.9928H78.5676V34.8411C78.5676 34.5815 78.6318 34.3657 78.7835 34.214C78.9351 34.0623 79.1305 33.9982 79.3668 33.9982C79.6264 33.9982 79.8218 34.0857 79.9501 34.2373C80.0785 34.389 80.166 34.6048 80.166 34.8848V35.0132H80.5335V35.3807H80.0785C80.0143 35.5323 79.9064 35.6403 79.7751 35.7044C79.6468 35.7686 79.4718 35.8123 79.2764 35.8123H78.9526C78.9089 35.8123 78.8885 35.8123 78.8651 35.7919C78.8447 35.7715 78.8214 35.7482 78.8214 35.7278C78.7572 35.6198 78.693 35.5119 78.6493 35.3807H78.1505C78.1068 35.3807 78.0864 35.3603 78.063 35.3369C78.0426 35.3165 78.0193 35.2728 78.0193 35.1853C78.0193 35.1211 78.0397 35.0569 78.063 35.0336C78.0835 34.9898 78.1068 34.9898 78.1505 34.9898L78.1564 34.9928ZM78.8914 34.8819C78.8914 35.0773 78.9351 35.2494 79.043 35.4215H79.3026C79.4543 35.4215 79.5826 35.3778 79.6701 35.2932C79.7576 35.2057 79.7985 35.0773 79.7985 34.8819C79.7985 34.8178 79.7985 34.7536 79.778 34.6865C79.7576 34.6223 79.7343 34.5786 79.7139 34.5144C79.6701 34.4503 79.6264 34.4269 79.5622 34.3861C79.498 34.3657 79.4339 34.3423 79.3464 34.3423C79.2589 34.3423 79.1947 34.3628 79.1305 34.3861C79.0664 34.4065 79.0226 34.4503 78.9789 34.5144C78.9351 34.5786 78.9147 34.6223 78.9147 34.6865C78.9147 34.7507 78.8943 34.8148 78.8943 34.8819H78.8914Z" fill="#30485B"/>
<path d="M80.4693 34.9928H80.7726C80.901 34.9928 80.9885 34.9724 81.0322 34.9286C81.076 34.8849 81.0964 34.8003 81.0964 34.669V32.3328C81.0964 32.3124 81.0964 32.289 81.1168 32.2686C81.1168 32.2482 81.1372 32.2482 81.1605 32.2482L81.356 32.2278C81.4201 32.2278 81.4435 32.2482 81.4435 32.292V34.844C81.4435 35.0161 81.3997 35.1474 81.3151 35.2115C81.2276 35.2757 81.076 35.3399 80.8835 35.3399H80.5159C80.4722 35.3399 80.4518 35.3195 80.4285 35.2961C80.408 35.2757 80.3847 35.232 80.3847 35.1445C80.3847 35.0803 80.4051 35.0161 80.4285 34.9928C80.408 34.9928 80.4285 34.9928 80.4722 34.9928H80.4693Z" fill="#30485B"/>
<path d="M82.0706 35.2494V32.3299C82.0706 32.3094 82.0706 32.2861 82.091 32.2657C82.091 32.2453 82.1114 32.2453 82.1347 32.2453L82.3301 32.2249C82.3943 32.2249 82.4176 32.2453 82.4176 32.289V35.2524C82.4176 35.3165 82.3972 35.3399 82.3301 35.3399H82.1581C82.0939 35.3399 82.0706 35.3194 82.0706 35.2524V35.2494Z" fill="#30485B"/>
<path d="M83.4326 36.0078C83.6922 35.8794 83.8643 35.7686 83.9722 35.6607C84.0801 35.5528 84.1676 35.4011 84.188 35.229C84.0597 35.3165 83.908 35.3573 83.733 35.3573C83.4939 35.3573 83.3014 35.2698 83.1701 35.1182C83.0184 34.9461 82.9543 34.7303 82.9543 34.4473C82.9543 34.1878 83.0184 33.9719 83.1701 33.7998C83.3218 33.6482 83.5172 33.5607 83.7534 33.5607C83.9897 33.5607 84.1851 33.6248 84.3368 33.7765C84.4884 33.9282 84.5526 34.1236 84.5526 34.4036V34.8148C84.5526 34.9665 84.5526 35.1182 84.5322 35.2261C84.5118 35.334 84.4884 35.4419 84.4447 35.5498C84.4009 35.6578 84.3368 35.7453 84.2726 35.8298C84.1851 35.9173 84.1005 36.0019 83.9926 36.069C83.8847 36.1332 83.733 36.2207 83.5609 36.3082C83.5172 36.3286 83.4734 36.3082 83.453 36.2644L83.3655 36.1128C83.3655 36.069 83.386 36.0253 83.4297 36.0048L83.4326 36.0078ZM84.2318 34.3861C84.2318 34.2344 84.188 34.1265 84.1239 34.039C84.0597 33.9515 83.9518 33.9107 83.8001 33.9107C83.6484 33.9107 83.5201 33.9544 83.453 34.0623C83.3655 34.1498 83.3247 34.2782 83.3247 34.4503C83.3247 34.6457 83.3684 34.774 83.453 34.8615C83.5405 34.949 83.6485 34.9898 83.8205 34.9898C83.9722 34.9898 84.1239 34.9461 84.2522 34.8615V34.3861H84.2318Z" fill="#30485B"/>
<path d="M86.6555 34.5377C86.5476 34.7536 86.5039 34.949 86.5039 35.1648C86.5039 35.684 86.8918 35.9436 87.6501 35.9436C88.0614 35.9436 88.3647 35.8794 88.5805 35.7482C88.7759 35.6198 88.8839 35.4244 88.8839 35.2086C88.7555 35.3165 88.5805 35.3602 88.4084 35.3602C88.1693 35.3602 87.9768 35.2727 87.8455 35.1211C87.6939 34.949 87.6297 34.7332 87.6297 34.4502C87.6297 34.1907 87.6939 33.9748 87.8455 33.8027C87.9972 33.6511 88.1926 33.5636 88.4289 33.5636C88.6651 33.5636 88.8605 33.6277 89.0122 33.7794C89.1639 33.9311 89.228 34.1265 89.228 34.4065V35.1852C89.228 35.5527 89.0997 35.8561 88.8168 36.0282C88.5368 36.2236 88.1693 36.3082 87.6705 36.3082C87.4984 36.3082 87.3468 36.2877 87.2155 36.2644C87.0639 36.244 86.9355 36.2002 86.8043 36.1565C86.6759 36.1127 86.5651 36.0282 86.4805 35.9407C86.3959 35.8532 86.3084 35.7452 86.2647 35.6169C86.2005 35.4886 86.1772 35.3369 86.1772 35.1852C86.1772 34.9257 86.2414 34.6661 86.3726 34.4065C86.393 34.3627 86.393 34.3423 86.4164 34.3423H86.4805L86.6089 34.4065C86.6293 34.4269 86.6526 34.4269 86.6526 34.4502C86.673 34.494 86.673 34.5144 86.6526 34.5377H86.6555ZM87.9534 34.4298C87.9534 34.6252 87.9972 34.7536 88.0614 34.8411C88.1489 34.9286 88.2568 34.9694 88.4289 34.9694C88.5805 34.9694 88.7322 34.9257 88.8605 34.8411V34.3861C88.8605 34.2344 88.8168 34.1265 88.7526 34.039C88.6884 33.9515 88.5805 33.9107 88.4289 33.9107C88.2772 33.9107 88.1489 33.9544 88.0818 34.0623C87.9943 34.1498 87.9534 34.2782 87.9534 34.4298ZM88.3209 33.024C88.2772 33.0677 88.2334 33.0882 88.1693 33.0882C88.1051 33.0882 88.0614 33.0677 88.0176 33.024C87.9739 32.9802 87.9534 32.9365 87.9534 32.8723C87.9534 32.8082 87.9739 32.7644 88.0176 32.7207C88.0614 32.6769 88.1051 32.6565 88.1693 32.6565C88.2334 32.6565 88.2772 32.6769 88.3209 32.7207C88.3647 32.7644 88.3851 32.8082 88.3851 32.8723C88.3851 32.9365 88.3647 32.9802 88.3209 33.024ZM88.9043 33.024C88.8605 33.0677 88.8168 33.0882 88.7526 33.0882C88.6884 33.0882 88.6447 33.0677 88.6009 33.024C88.5572 32.9802 88.5368 32.9365 88.5368 32.8723C88.5368 32.8082 88.5572 32.7644 88.6009 32.7207C88.6447 32.6769 88.6884 32.6565 88.7526 32.6565C88.8168 32.6565 88.8605 32.6769 88.9043 32.7207C88.948 32.7644 88.9684 32.8082 88.9684 32.8723C88.9684 32.9365 88.948 32.9802 88.9043 33.024Z" fill="#30485B"/>
<path d="M90.2022 32.2891V34.6691C90.2022 34.7974 90.2226 34.8849 90.2664 34.9287C90.3101 34.9724 90.3947 34.9928 90.5259 34.9928H90.6543V35.3603H90.4589C90.2634 35.3603 90.1118 35.3166 90.0272 35.232C89.9397 35.1445 89.8989 35.0162 89.8989 34.8645V32.3328C89.8989 32.3124 89.8989 32.2891 89.9193 32.2687C89.9193 32.2482 89.9397 32.2482 89.963 32.2482L90.1584 32.2278C90.1789 32.2074 90.2022 32.2278 90.2022 32.292V32.2891Z" fill="#30485B"/>
<path d="M90.593 34.9927H90.8963C91.0684 34.9927 91.1997 34.9927 91.3076 34.9723C91.1793 34.8644 91.0684 34.7331 90.9838 34.6048C90.8963 34.4765 90.8759 34.3248 90.8759 34.1936C90.8759 33.9981 90.9634 33.8261 91.1151 33.6948C91.2668 33.5665 91.4826 33.479 91.7422 33.479C92.0018 33.479 92.2176 33.5431 92.3693 33.6948C92.5209 33.8465 92.6084 33.9981 92.6084 34.1936C92.6084 34.3219 92.5647 34.4531 92.5005 34.6048C92.413 34.7331 92.3051 34.8644 92.1768 34.9723C92.2847 34.9927 92.4363 34.9927 92.588 34.9927H92.8476V35.3602H92.588C92.2847 35.3602 92.0047 35.3165 91.7655 35.2086C91.5059 35.3165 91.2259 35.3602 90.943 35.3602H90.6397C90.5959 35.3602 90.5755 35.3398 90.5522 35.3165C90.5318 35.2961 90.5084 35.2523 90.5084 35.1648C90.5084 35.1006 90.5288 35.0365 90.5522 35.0131C90.5084 34.9927 90.5522 34.9927 90.5959 34.9927H90.593ZM92.2147 34.214C92.2147 34.1061 92.1709 34.0186 92.0863 33.934C91.9988 33.8698 91.8705 33.8261 91.7188 33.8261C91.5672 33.8261 91.4388 33.8698 91.3513 33.934C91.2638 33.9981 91.223 34.1061 91.223 34.214C91.223 34.3219 91.2668 34.4298 91.3513 34.5377C91.4388 34.6456 91.5672 34.7536 91.7188 34.8411C91.8909 34.7536 92.0222 34.669 92.0863 34.5377C92.1738 34.4094 92.2147 34.2986 92.2147 34.214ZM91.8676 32.9365C91.8238 32.9802 91.7801 33.0006 91.7159 33.0006C91.6518 33.0006 91.608 32.9802 91.5643 32.9365C91.5205 32.8927 91.5001 32.849 91.5001 32.7848C91.5001 32.7206 91.5205 32.6769 91.5643 32.6331C91.608 32.5894 91.6518 32.569 91.7159 32.569C91.7801 32.569 91.8238 32.5894 91.8676 32.6331C91.9113 32.6769 91.9318 32.7206 91.9318 32.7848C91.9318 32.849 91.9113 32.8927 91.8676 32.9365Z" fill="#30485B"/>
<path d="M92.7776 34.9928H93.0809C93.2093 34.9928 93.2763 34.9724 93.3201 34.9286C93.3638 34.8849 93.3843 34.8003 93.3843 34.669V33.6307C93.3843 33.6103 93.3842 33.587 93.4047 33.5665C93.4251 33.5461 93.4484 33.5461 93.4688 33.5461H93.6409C93.7051 33.5461 93.7284 33.5665 93.7284 33.6336V34.8236C93.7284 35.1707 93.533 35.3224 93.1451 35.3224H92.798C92.7543 35.3224 92.7338 35.302 92.7105 35.2786C92.6901 35.2582 92.6667 35.2145 92.6667 35.127C92.6667 35.0628 92.6872 34.9986 92.7105 34.9753C92.6901 34.9957 92.7309 34.9957 92.7747 34.9957L92.7776 34.9928ZM93.6847 32.9803C93.6409 33.024 93.5972 33.0445 93.533 33.0445C93.4688 33.0445 93.4251 33.024 93.3813 32.9803C93.3376 32.9365 93.3172 32.8928 93.3172 32.8286C93.3172 32.7645 93.3376 32.7207 93.3813 32.677C93.4251 32.6332 93.4688 32.6128 93.533 32.6128C93.5972 32.6128 93.6409 32.6332 93.6847 32.677C93.7284 32.7207 93.7488 32.7645 93.7488 32.8286C93.7488 32.8928 93.7284 32.9365 93.6847 32.9803Z" fill="#30485B"/>
<path d="M95.6738 34.9928H95.8459C95.9742 34.9928 96.0413 34.9724 96.0851 34.9286C96.1288 34.8849 96.1492 34.8003 96.1492 34.669V32.3328C96.1492 32.3124 96.1493 32.289 96.1697 32.2686C96.1697 32.2482 96.1901 32.2482 96.2134 32.2482L96.4088 32.2278C96.473 32.2278 96.4963 32.2482 96.4963 32.292V34.844C96.4963 35.1911 96.3009 35.3428 95.913 35.3428H94.3555C94.2913 35.3428 94.268 35.3224 94.268 35.2553V35.0599C94.268 34.9957 94.2884 34.9724 94.3555 34.9724H95.3297L94.6588 32.5719V32.5078C94.6588 32.4874 94.6793 32.4874 94.723 32.464L94.8747 32.4203C94.9388 32.3999 94.9622 32.4203 94.9826 32.4845L95.6738 34.9928ZM94.3759 36.4628H94.548C94.4838 36.3753 94.4605 36.2907 94.4605 36.2032C94.4605 36.0953 94.5043 36.0078 94.5684 35.9436C94.6559 35.8794 94.7405 35.8561 94.8484 35.8561C94.9563 35.8561 95.0643 35.8765 95.1518 35.9436C95.1722 35.964 95.1955 35.9874 95.1722 36.0078L95.1518 36.0953C95.1518 36.1157 95.1313 36.1157 95.1313 36.1157H95.0876C95.0234 36.072 94.9359 36.0719 94.8717 36.0719C94.8076 36.0719 94.7638 36.0924 94.7201 36.1361C94.6763 36.1799 94.6559 36.2236 94.6559 36.2878C94.6559 36.3753 94.6763 36.4394 94.7434 36.5269H95.2188V36.6786C95.2188 36.699 95.1984 36.7224 95.1751 36.7224H94.3526C94.3322 36.7224 94.3088 36.702 94.3088 36.6786V36.5269C94.3526 36.4628 94.373 36.4628 94.373 36.4628H94.3759Z" fill="#30485B"/>
<path d="M97.1234 35.2494V32.3299C97.1234 32.3094 97.1234 32.2861 97.1438 32.2657C97.1438 32.2453 97.1642 32.2453 97.1876 32.2453L97.383 32.2249C97.4472 32.2249 97.4705 32.2453 97.4705 32.289V35.2524C97.4705 35.3165 97.4501 35.3399 97.383 35.3399H97.2109C97.1672 35.3399 97.1234 35.3194 97.1234 35.2524V35.2494Z" fill="#30485B"/>
<path d="M100.518 35.1415C100.367 35.2931 100.151 35.3806 99.8913 35.3806C99.6318 35.3806 99.4159 35.2931 99.2642 35.1415C99.1126 34.9898 99.0251 34.774 99.0251 34.494C99.0251 34.3861 99.0455 34.2986 99.0688 34.214C99.0893 34.1265 99.133 34.0186 99.1767 33.934C99.2205 33.8465 99.2847 33.7619 99.3488 33.7181C99.413 33.654 99.5005 33.6102 99.588 33.5665C99.6755 33.5227 99.7834 33.5023 99.8913 33.5023C99.9993 33.5023 100.107 33.5227 100.195 33.5665C100.282 33.6102 100.367 33.654 100.434 33.7181C100.501 33.7823 100.562 33.8465 100.606 33.934C100.65 34.0215 100.693 34.1061 100.714 34.214C100.734 34.3015 100.758 34.4094 100.758 34.494C100.758 34.7536 100.67 34.9694 100.518 35.1415ZM99.7834 32.9365C99.7397 32.9802 99.6959 33.0006 99.6317 33.0006C99.5676 33.0006 99.5238 32.9802 99.4801 32.9365C99.4363 32.8927 99.4159 32.849 99.4159 32.7848C99.4159 32.7206 99.4363 32.6769 99.4801 32.6331C99.5238 32.5894 99.5676 32.569 99.6317 32.569C99.6959 32.569 99.7397 32.5894 99.7834 32.6331C99.8272 32.6769 99.8476 32.7206 99.8476 32.7848C99.8272 32.849 99.8038 32.8927 99.7834 32.9365ZM99.5238 34.8615C99.6113 34.9694 99.7397 35.0131 99.8913 35.0131C100.063 35.0131 100.171 34.9694 100.259 34.8615C100.346 34.7536 100.387 34.6456 100.387 34.494C100.387 34.4065 100.387 34.3423 100.367 34.2781C100.346 34.214 100.323 34.1265 100.279 34.0623C100.235 33.9981 100.192 33.9544 100.128 33.9106C100.063 33.8669 99.9759 33.8465 99.9117 33.8465C99.8242 33.8465 99.7601 33.8669 99.6959 33.9106C99.6317 33.9544 99.588 33.9981 99.5443 34.0623C99.5005 34.1265 99.4801 34.1906 99.4567 34.2781C99.4363 34.3656 99.4363 34.4298 99.4363 34.494C99.4159 34.6456 99.4567 34.774 99.5238 34.8615ZM100.346 32.9365C100.303 32.9802 100.259 33.0006 100.195 33.0006C100.13 33.0006 100.087 32.9802 100.043 32.9365C99.9992 32.8927 99.9788 32.849 99.9788 32.7848C99.9788 32.7206 99.9992 32.6769 100.043 32.6331C100.087 32.5894 100.13 32.569 100.195 32.569C100.259 32.569 100.303 32.5894 100.346 32.6331C100.39 32.6769 100.411 32.7206 100.411 32.7848C100.411 32.849 100.39 32.8927 100.346 32.9365Z" fill="#30485B"/>
<path d="M102.143 35.0131H102.922C102.942 35.0131 102.966 35.0131 102.986 35.0335C103.006 35.0539 103.006 35.0539 103.006 35.0977V35.2698C103.006 35.3135 102.986 35.3573 102.919 35.3573H101.341C101.297 35.3573 101.253 35.3369 101.253 35.2698V35.0977C101.253 35.0773 101.253 35.0539 101.274 35.0335C101.294 35.0131 101.318 35.0131 101.338 35.0131H101.793C101.641 34.841 101.577 34.666 101.577 34.4735C101.577 34.3014 101.641 34.1498 101.749 34.0185C101.878 33.9106 102.029 33.8464 102.225 33.8464C102.397 33.8464 102.572 33.8902 102.723 33.9748C102.767 33.9952 102.788 34.0389 102.767 34.0827L102.703 34.211C102.683 34.2752 102.639 34.2985 102.595 34.2548C102.467 34.1906 102.356 34.1673 102.248 34.1673C102.14 34.1673 102.053 34.1877 101.988 34.2548C101.924 34.3189 101.901 34.3831 101.901 34.4939C101.901 34.5814 101.921 34.666 101.965 34.7535C102.009 34.8614 102.053 34.9489 102.137 35.0131H102.143Z" fill="#30485B"/>
<path d="M103.916 32.2891V34.6691C103.916 34.7974 103.937 34.8849 103.981 34.9287C104.024 34.9724 104.109 34.9928 104.24 34.9928H104.368V35.3603H104.173C103.978 35.3603 103.826 35.3166 103.741 35.232C103.654 35.1445 103.613 35.0162 103.613 34.8645V32.3328C103.613 32.3124 103.613 32.2891 103.633 32.2687C103.633 32.2482 103.654 32.2482 103.677 32.2482L103.873 32.2278C103.893 32.2074 103.916 32.2278 103.916 32.292V32.2891Z" fill="#30485B"/>
<path d="M104.304 34.9927H104.608C104.78 34.9927 104.911 34.9927 105.019 34.9723C104.891 34.8644 104.78 34.7331 104.695 34.6048C104.608 34.4765 104.587 34.3248 104.587 34.1936C104.587 33.9981 104.675 33.8261 104.826 33.6948C104.978 33.5665 105.194 33.479 105.453 33.479C105.713 33.479 105.929 33.5431 106.081 33.6948C106.232 33.8465 106.32 33.9981 106.32 34.1936C106.32 34.3219 106.276 34.4531 106.212 34.6048C106.124 34.7331 106.016 34.8644 105.888 34.9723C105.996 34.9927 106.148 34.9927 106.299 34.9927H106.559V35.3602H106.299C105.996 35.3602 105.716 35.3165 105.477 35.2086C105.217 35.3165 104.937 35.3602 104.654 35.3602H104.351C104.307 35.3602 104.287 35.3398 104.263 35.3165C104.243 35.2961 104.22 35.2523 104.22 35.1648C104.22 35.1006 104.24 35.0365 104.263 35.0131C104.243 34.9927 104.263 34.9927 104.307 34.9927H104.304ZM105.949 34.214C105.949 34.1061 105.906 34.0186 105.821 33.934C105.733 33.8698 105.605 33.8261 105.453 33.8261C105.302 33.8261 105.173 33.8698 105.086 33.934C104.998 33.9981 104.958 34.1061 104.958 34.214C104.958 34.3219 105.001 34.4298 105.086 34.5377C105.173 34.6456 105.302 34.7536 105.453 34.8411C105.626 34.7536 105.757 34.669 105.821 34.5377C105.908 34.4094 105.949 34.2986 105.949 34.214ZM105.602 32.9365C105.558 32.9802 105.515 33.0006 105.451 33.0006C105.386 33.0006 105.343 32.9802 105.299 32.9365C105.255 32.8927 105.235 32.849 105.235 32.7848C105.235 32.7206 105.255 32.6769 105.299 32.6331C105.343 32.5894 105.386 32.569 105.451 32.569C105.515 32.569 105.558 32.5894 105.602 32.6331C105.646 32.6769 105.666 32.7206 105.666 32.7848C105.666 32.849 105.646 32.8927 105.602 32.9365Z" fill="#30485B"/>
<path d="M106.489 34.9927H107.396C107.72 34.9927 107.871 34.8848 107.871 34.6894C107.871 34.5377 107.763 34.3656 107.524 34.2139C107.285 34.0623 106.961 33.8902 106.506 33.7589C106.463 33.7385 106.419 33.7152 106.419 33.6714V33.4993C106.419 33.4556 106.439 33.4352 106.463 33.4119L107.761 32.2656C107.804 32.2219 107.848 32.2219 107.868 32.2656L107.997 32.4173C108.041 32.461 108.041 32.4814 107.997 32.5252L106.83 33.5635C107.306 33.7356 107.653 33.9106 107.868 34.1031C108.108 34.2985 108.216 34.5144 108.216 34.7739C108.216 34.8819 108.195 34.9694 108.172 35.0335C108.128 35.0977 108.084 35.1618 108.043 35.2056C108 35.2493 107.915 35.2931 107.848 35.3135C107.761 35.3339 107.696 35.3573 107.632 35.3777C107.568 35.3981 107.481 35.3981 107.393 35.3981H106.527C106.483 35.3981 106.463 35.3777 106.439 35.3543C106.419 35.3339 106.396 35.2902 106.396 35.2027C106.396 35.1385 106.416 35.0743 106.439 35.051C106.419 34.9868 106.439 34.9868 106.483 34.9868L106.489 34.9927Z" fill="#30485B"/>
<path d="M110.902 33.4993V33.3477C110.902 33.3272 110.902 33.3039 110.922 33.2835C110.943 33.2631 110.943 33.2631 110.966 33.2631L111.161 33.2427C111.226 33.2427 111.249 33.2631 111.249 33.3068V34.6252C111.249 34.7535 111.269 34.841 111.336 34.9052C111.401 34.9693 111.508 34.9927 111.66 34.9927H111.681V35.3602H111.593C111.421 35.3602 111.269 35.3397 111.161 35.2727C111.053 35.2085 110.966 35.1443 110.922 35.0335C110.771 35.0977 110.598 35.1414 110.403 35.1414C110.316 35.1414 110.231 35.1414 110.143 35.121C110.056 35.1006 109.992 35.0772 109.928 35.0335C109.863 34.9897 109.799 34.9256 109.776 34.8614C109.732 34.7972 109.712 34.7097 109.712 34.6018C109.712 34.386 109.82 34.1906 110.015 33.9952C110.211 33.7793 110.514 33.6277 110.902 33.4964V33.4993ZM110.902 34.6893V33.8231C110.642 33.9106 110.447 34.0185 110.295 34.1264C110.143 34.2547 110.079 34.386 110.079 34.5143C110.079 34.5785 110.1 34.6427 110.167 34.6864C110.231 34.7302 110.318 34.7506 110.447 34.7506C110.598 34.771 110.75 34.7302 110.902 34.6864V34.6893ZM110.838 32.6768C110.794 32.7206 110.75 32.741 110.686 32.741C110.622 32.741 110.578 32.7206 110.534 32.6768C110.491 32.6331 110.47 32.5893 110.47 32.5252C110.47 32.461 110.491 32.4172 110.534 32.3735C110.578 32.3297 110.622 32.3093 110.686 32.3093C110.75 32.3093 110.794 32.3297 110.838 32.3735C110.881 32.4172 110.902 32.461 110.902 32.5252C110.902 32.5893 110.881 32.6535 110.838 32.6768ZM111.421 32.6768C111.377 32.7206 111.333 32.741 111.269 32.741C111.205 32.741 111.161 32.7206 111.118 32.6768C111.074 32.6331 111.053 32.5893 111.053 32.5252C111.053 32.461 111.074 32.4172 111.118 32.3735C111.161 32.3297 111.205 32.3093 111.269 32.3093C111.333 32.3093 111.377 32.3297 111.421 32.3735C111.465 32.4172 111.485 32.461 111.485 32.5252C111.485 32.5893 111.465 32.6535 111.421 32.6768Z" fill="#30485B"/>
<path d="M111.637 34.9927H111.984C112.112 34.9927 112.179 34.9723 112.223 34.9286C112.267 34.8848 112.287 34.8002 112.287 34.669V33.6306C112.287 33.6102 112.287 33.5869 112.308 33.5665C112.328 33.5461 112.351 33.5461 112.372 33.5461H112.544C112.608 33.5461 112.631 33.5665 112.631 33.6336V34.8002C112.739 34.9081 112.891 34.9723 113.063 34.9723H113.107V35.3398H113.063C112.847 35.3398 112.696 35.2523 112.564 35.1006C112.477 35.2523 112.305 35.3398 112.045 35.3398H111.657C111.613 35.3398 111.593 35.3194 111.57 35.2961C111.549 35.2756 111.526 35.2319 111.526 35.1444C111.526 35.0802 111.546 35.0161 111.57 34.9927H111.634H111.637ZM112.048 32.849H112.22C112.156 32.7615 112.133 32.6769 112.133 32.5894C112.133 32.4815 112.176 32.394 112.241 32.3298C112.305 32.2656 112.413 32.2423 112.521 32.2423C112.628 32.2423 112.736 32.2627 112.824 32.3298C112.844 32.3502 112.868 32.3736 112.844 32.394L112.824 32.4815C112.824 32.5019 112.803 32.5019 112.803 32.5019H112.76C112.696 32.4581 112.608 32.4581 112.544 32.4581C112.48 32.4581 112.436 32.4786 112.392 32.5223C112.348 32.5661 112.328 32.6098 112.328 32.674C112.328 32.7615 112.348 32.8256 112.416 32.9131H112.891V33.0648C112.891 33.1086 112.871 33.1086 112.847 33.1086H112.025C112.004 33.1086 111.981 33.0881 111.981 33.0648V32.9131C111.981 32.8927 112.025 32.849 112.045 32.849H112.048Z" fill="#30485B"/>
<path d="M113.258 36.2236C113.215 36.2674 113.171 36.2878 113.107 36.2878C113.043 36.2878 112.999 36.2674 112.955 36.2236C112.911 36.1799 112.891 36.1361 112.891 36.072C112.891 36.0078 112.911 35.9641 112.955 35.9203C112.999 35.8766 113.043 35.8561 113.107 35.8561C113.171 35.8561 113.215 35.8766 113.258 35.9203C113.302 35.9641 113.323 36.0078 113.323 36.072C113.323 36.1361 113.302 36.1799 113.258 36.2236ZM113.063 34.9928H113.41C113.538 34.9928 113.606 34.9724 113.649 34.9286C113.693 34.8849 113.713 34.8003 113.713 34.6691V33.6307C113.713 33.6103 113.713 33.587 113.734 33.5666C113.754 33.5461 113.778 33.5461 113.798 33.5461H113.97C114.034 33.5461 114.058 33.5666 114.058 33.6336V34.8003C114.166 34.9082 114.317 34.9724 114.489 34.9724H114.533V35.3399H114.489C114.273 35.3399 114.122 35.2524 113.991 35.1007C113.903 35.2524 113.731 35.3399 113.471 35.3399H113.083C113.04 35.3399 113.019 35.3195 112.996 35.2961C112.976 35.2757 112.952 35.232 112.952 35.1445C112.952 35.0803 112.973 35.0161 112.996 34.9928C112.976 34.9928 113.016 34.9928 113.06 34.9928H113.063ZM113.842 36.2236C113.798 36.2674 113.754 36.2878 113.69 36.2878C113.626 36.2878 113.582 36.2674 113.538 36.2236C113.495 36.1799 113.474 36.1361 113.474 36.072C113.474 36.0078 113.495 35.9641 113.538 35.9203C113.582 35.8766 113.626 35.8561 113.69 35.8561C113.754 35.8561 113.798 35.8766 113.842 35.9203C113.886 35.9641 113.906 36.0078 113.906 36.072C113.906 36.1361 113.886 36.1799 113.842 36.2236Z" fill="#30485B"/>
<path d="M114.469 34.9928H114.577C114.9 34.9928 115.204 34.9491 115.463 34.8849C115.204 34.6457 115.075 34.4095 115.075 34.1703C115.075 34.042 115.119 33.9311 115.183 33.8232C115.248 33.7153 115.335 33.6511 115.443 33.6074L115.248 33.5432C115.183 33.5228 115.16 33.4995 115.183 33.4557L115.271 33.2836C115.291 33.2399 115.315 33.2195 115.358 33.2399C115.618 33.3041 115.857 33.412 116.093 33.5199C116.333 33.6278 116.525 33.7795 116.7 33.9078C116.872 34.0595 117.024 34.2111 117.111 34.3832C117.219 34.5553 117.263 34.7303 117.263 34.882C117.263 35.0336 117.219 35.162 117.111 35.2495C117.003 35.337 116.872 35.3778 116.68 35.3778C116.551 35.3778 116.4 35.3574 116.248 35.3136C116.096 35.2699 115.945 35.2057 115.793 35.1182C115.446 35.2699 115.035 35.3574 114.559 35.3574H114.451C114.408 35.3574 114.387 35.337 114.364 35.3136C114.343 35.2932 114.32 35.2495 114.32 35.162C114.32 35.0978 114.34 35.0336 114.364 35.0103C114.408 34.9899 114.428 34.9899 114.472 34.9899L114.469 34.9928ZM116.158 34.4503C116.245 34.3424 116.265 34.2549 116.265 34.147C116.265 34.0391 116.222 33.9749 116.114 33.8874C116.006 33.7999 115.898 33.7795 115.767 33.7795C115.659 33.7795 115.571 33.7999 115.507 33.867C115.443 33.9311 115.399 34.0186 115.399 34.1061C115.399 34.1936 115.443 34.3016 115.507 34.3861C115.571 34.4941 115.679 34.5816 115.831 34.6895C115.959 34.6457 116.07 34.5611 116.155 34.4503H116.158ZM116.653 35.0132C116.849 35.0132 116.933 34.9491 116.933 34.7974C116.933 34.7099 116.89 34.602 116.825 34.4941C116.761 34.3657 116.653 34.2549 116.545 34.1703V34.2141C116.545 34.322 116.502 34.4532 116.438 34.5611C116.373 34.6895 116.265 34.8003 116.158 34.8849C116.33 34.9724 116.505 35.0132 116.656 35.0132H116.653Z" fill="#30485B"/>
<path d="M48.3072 38.4521V39.3184H49.2376C49.258 39.3184 49.2814 39.3184 49.3018 39.3388C49.3154 39.3524 49.3222 39.367 49.3222 39.3825V39.5342C49.3222 39.5546 49.3222 39.5779 49.3018 39.5779C49.2814 39.5779 49.2814 39.5984 49.2376 39.5984H48.3072V40.5725H49.3893C49.4097 40.5725 49.433 40.5725 49.4534 40.5929C49.4739 40.5929 49.4739 40.6134 49.4739 40.6367V40.7884C49.4739 40.8088 49.4739 40.8321 49.4534 40.8321C49.433 40.8321 49.433 40.8525 49.3893 40.8525H48.0272C47.963 40.8525 47.9397 40.8321 47.9397 40.765V38.2567C47.9397 38.1925 47.9601 38.1692 48.0272 38.1692H49.3893C49.433 38.1692 49.4534 38.1896 49.4534 38.2334L49.433 38.385C49.433 38.4054 49.4126 38.4288 49.4126 38.4288C49.4126 38.4288 49.3689 38.4492 49.3484 38.4492H48.3101L48.3072 38.4521Z" fill="#30485B"/>
<path d="M50.5793 39.6188L50.9905 39.0355C51.0109 38.9917 51.0547 38.9917 51.0984 38.9917H51.3142C51.3347 38.9917 51.358 38.9917 51.358 39.0121C51.358 39.0325 51.358 39.0559 51.3376 39.0763L50.7542 39.8755L51.3813 40.8059C51.4018 40.8263 51.4017 40.8496 51.4017 40.87C51.4017 40.8905 51.3813 40.8905 51.3376 40.8905H51.0984C51.0343 40.8905 50.9905 40.87 50.9701 40.8263L50.5384 40.135L50.0834 40.8263C50.063 40.87 50.0192 40.8905 49.9755 40.8905H49.7597C49.7461 40.8905 49.7315 40.8836 49.7159 40.87C49.6955 40.8496 49.7159 40.8263 49.7363 40.8263L50.3838 39.9192L49.8209 39.0967C49.8005 39.0763 49.8005 39.053 49.8209 39.053C49.8209 39.0325 49.8413 39.0325 49.8647 39.0325H50.1038C50.1476 39.0325 50.1913 39.053 50.2117 39.0763L50.5793 39.6159V39.6188Z" fill="#30485B"/>
<path d="M53.4114 39.9017C53.4114 40.03 53.391 40.1613 53.3676 40.2692C53.3239 40.3771 53.2801 40.485 53.216 40.593C53.1518 40.6805 53.0643 40.765 52.9564 40.8088C52.8485 40.873 52.7172 40.8963 52.5889 40.8963C52.481 40.8963 52.3935 40.8759 52.3089 40.8321C52.2214 40.7884 52.1368 40.7446 52.0931 40.6805V41.6109C52.0931 41.675 52.0726 41.6984 52.0056 41.6984H51.8335C51.7897 41.6984 51.746 41.678 51.746 41.6109V39.0384C51.746 39.018 51.746 38.9946 51.7664 38.9742C51.78 38.9606 51.8014 38.9538 51.8306 38.9538H51.9822C52.026 38.9538 52.0464 38.9742 52.0464 39.018V39.1463C52.1106 39.0821 52.1981 39.018 52.306 38.9742C52.4139 38.9305 52.5218 38.91 52.6297 38.91C52.7581 38.91 52.8893 38.9305 52.9972 38.9975C53.1051 39.0413 53.1926 39.1259 53.2568 39.2134C53.321 39.3009 53.3647 39.4088 53.4085 39.5167V39.9046L53.4114 39.9017ZM53.0439 40.1613C53.0643 40.0738 53.0643 39.9892 53.0643 39.9017C53.0643 39.8142 53.0643 39.7296 53.0439 39.6421C53.0235 39.5546 53.0001 39.4905 52.9564 39.4263C52.9126 39.3621 52.8689 39.298 52.8047 39.2542C52.7406 39.2105 52.6531 39.19 52.5451 39.19C52.4576 39.19 52.3497 39.2105 52.2651 39.2542C52.1776 39.298 52.0931 39.3621 52.0493 39.4263V40.3334C52.0931 40.4209 52.1572 40.485 52.2447 40.5288C52.3322 40.5725 52.4168 40.6163 52.5247 40.6163C52.6122 40.6163 52.6968 40.5959 52.7843 40.5521C52.8485 40.5084 52.9126 40.4442 52.9564 40.38C53.0001 40.3159 53.0206 40.2517 53.0439 40.1642V40.1613Z" fill="#30485B"/>
<path d="M55.2722 39.9658H54.0822C54.0822 40.1612 54.1464 40.3129 54.2543 40.4412C54.3622 40.5696 54.5139 40.6366 54.686 40.6366C54.8814 40.6366 55.033 40.6162 55.1614 40.5491C55.2051 40.5287 55.2255 40.5287 55.2489 40.5696L55.2926 40.6979V40.7416C55.2926 40.7621 55.2722 40.7621 55.2489 40.7854C55.0972 40.8496 54.9018 40.8933 54.6218 40.8933C54.3418 40.8933 54.1026 40.8058 53.951 40.6337C53.7993 40.4616 53.7118 40.2225 53.7118 39.9191C53.7118 39.6391 53.7993 39.4 53.951 39.2046C54.1026 39.0325 54.3389 38.9246 54.5985 38.9246C54.7268 38.9246 54.8376 38.945 54.9222 38.9887C55.0301 39.0325 55.0943 39.0966 55.1614 39.1608C55.2255 39.2483 55.2693 39.3329 55.313 39.4204C55.3335 39.5283 55.3568 39.6362 55.3568 39.7441V39.8521C55.3568 39.8958 55.3568 39.9162 55.3364 39.9396C55.3568 39.9396 55.3364 39.96 55.2722 39.96V39.9658ZM54.0822 39.7296H55.0564V39.6654C55.0564 39.5371 55.0126 39.4058 54.9485 39.3183C54.8843 39.2308 54.753 39.19 54.6247 39.19C54.473 39.19 54.3447 39.2337 54.2572 39.3416C54.1697 39.4496 54.1055 39.5808 54.0851 39.7296H54.0822Z" fill="#30485B"/>
<path d="M56.1151 39.4263V40.768C56.1151 40.8321 56.0947 40.8555 56.0276 40.8555H55.8555C55.8118 40.8555 55.768 40.835 55.768 40.768V39.0384C55.768 39.018 55.768 38.9946 55.7884 38.9742C55.802 38.9606 55.8234 38.9538 55.8526 38.9538H56.0247C56.0684 38.9538 56.0888 38.9742 56.0888 39.018V39.1463C56.1763 39.0821 56.2843 39.018 56.3922 38.9742C56.5001 38.9305 56.608 38.91 56.7393 38.91C57.1505 38.91 57.3663 39.1492 57.3663 39.6013V40.7475C57.3663 40.8117 57.3459 40.835 57.2788 40.835H57.1068C57.063 40.835 57.0193 40.8146 57.0193 40.7475V39.6655C57.0193 39.6013 57.0193 39.5371 56.9988 39.47C56.9988 39.4263 56.9784 39.3621 56.9347 39.3184C56.9143 39.2746 56.8705 39.2309 56.8268 39.2105C56.783 39.19 56.7188 39.1667 56.6313 39.1667C56.5438 39.1667 56.4593 39.1871 56.3513 39.2309C56.2638 39.3184 56.1793 39.3592 56.1122 39.4263H56.1151Z" fill="#30485B"/>
<path d="M59.1426 40.6367C59.0784 40.7009 58.9909 40.765 58.883 40.8088C58.7751 40.8525 58.6672 40.873 58.5593 40.873C58.4309 40.873 58.2997 40.8525 58.1918 40.7855C58.0838 40.7417 57.9963 40.6571 57.9322 40.5696C57.868 40.4821 57.8243 40.3742 57.7805 40.2663C57.7601 40.1584 57.7368 40.0271 57.7368 39.8988C57.7368 39.6188 57.8243 39.3796 57.9759 39.1842C58.1276 38.9888 58.3434 38.9042 58.5826 38.9042C58.6701 38.9042 58.778 38.9246 58.8626 38.9684C58.9501 39.0121 59.0347 39.0559 59.0784 39.12V38.1692C59.0784 38.1488 59.0784 38.1255 59.0988 38.105C59.0988 38.0846 59.1193 38.0846 59.1426 38.0846L59.338 38.0642C59.3818 38.0642 59.4255 38.0846 59.4255 38.1284V40.768C59.4255 40.8321 59.4051 40.8555 59.338 40.8555H59.1863C59.1659 40.8555 59.1426 40.8555 59.1222 40.835C59.1086 40.8214 59.1018 40.8 59.1018 40.7709L59.1455 40.6425L59.1426 40.6367ZM59.1222 40.3771V39.47C59.0784 39.3825 59.0143 39.3417 58.9268 39.2746C58.8393 39.2309 58.7547 39.1871 58.6672 39.1871C58.4951 39.1871 58.3638 39.2513 58.2559 39.3825C58.148 39.5138 58.1043 39.6859 58.1043 39.9017C58.1043 40.1175 58.148 40.2896 58.2326 40.4209C58.3172 40.5521 58.4484 40.6163 58.6205 40.6163C58.708 40.6163 58.7926 40.5959 58.9005 40.5521C59.0084 40.5084 59.0726 40.4442 59.1163 40.38L59.1222 40.3771Z" fill="#30485B"/>
<path d="M60.0293 38.3645C60.073 38.3208 60.1168 38.3208 60.1809 38.3208C60.2451 38.3208 60.2888 38.3412 60.3326 38.3645C60.3763 38.4083 60.3968 38.452 60.3968 38.4929C60.3968 38.557 60.3763 38.6008 60.3326 38.6212C60.2888 38.665 60.2451 38.665 60.1809 38.665C60.1168 38.665 60.073 38.6446 60.0293 38.6212C59.9855 38.5775 59.9651 38.5337 59.9651 38.4929C59.9855 38.4491 59.9855 38.4054 60.0293 38.3645ZM60.3559 39.0354V40.765C60.3559 40.8291 60.3355 40.8525 60.2684 40.8525H60.0963C60.0526 40.8525 60.0088 40.832 60.0088 40.765V39.0354C60.0088 38.9916 60.0293 38.9479 60.0963 38.9479H60.2684C60.3122 38.9683 60.3559 38.9916 60.3559 39.0354Z" fill="#30485B"/>
<path d="M60.983 38.9712V38.5396C60.983 38.5192 60.983 38.4958 61.0034 38.4754C61.0171 38.4618 61.0316 38.455 61.0472 38.455L61.2426 38.4346C61.2864 38.4346 61.3301 38.455 61.3301 38.4987V38.9742H61.7851C61.8055 38.9742 61.8289 38.9742 61.8289 38.9946C61.8289 38.9946 61.8493 39.015 61.8493 39.0383V39.1462C61.8493 39.1667 61.8493 39.19 61.8289 39.19C61.8084 39.19 61.8084 39.2104 61.7851 39.2104H61.3097V40.2692C61.3097 40.3975 61.3301 40.5083 61.3739 40.5492C61.4176 40.6133 61.4818 40.6367 61.5897 40.6367C61.6772 40.6367 61.7414 40.6162 61.8289 40.5929C61.8726 40.5725 61.893 40.5929 61.9164 40.6367L61.9601 40.7446V40.7883C61.9601 40.7883 61.9397 40.8087 61.9164 40.8087C61.788 40.8525 61.6772 40.8729 61.5489 40.8729C61.4409 40.8729 61.3534 40.8525 61.2689 40.8292C61.1843 40.8058 61.1405 40.765 61.0968 40.7008C61.053 40.6367 61.0326 40.5929 61.0093 40.5054C60.9889 40.4412 60.9889 40.3537 60.9889 40.2458V39.1637H60.773C60.7526 39.1637 60.7293 39.1637 60.7293 39.1433C60.7293 39.1229 60.7089 39.1229 60.7089 39.0996V39.0354C60.7089 39.015 60.7089 38.9917 60.7293 38.9917C60.7293 38.9917 60.7497 38.9712 60.773 38.9712H60.9889H60.983Z" fill="#30485B"/>
<path d="M63.468 40.3772V39.0355C63.468 38.9917 63.4885 38.948 63.5555 38.948H63.7276C63.7714 38.948 63.7918 38.9684 63.7918 39.0355V40.7651C63.7918 40.7855 63.7918 40.8088 63.7714 40.8292C63.7578 40.8429 63.7364 40.8497 63.7072 40.8497H63.5351C63.4914 40.8497 63.471 40.8292 63.471 40.7855V40.6572C63.2989 40.8088 63.083 40.8963 62.8643 40.8963C62.453 40.8963 62.2576 40.6572 62.2576 40.1817V39.0355C62.2576 38.9917 62.278 38.948 62.3451 38.948H62.5172C62.561 38.948 62.5814 38.9684 62.5814 39.0355V40.1176C62.5814 40.2692 62.6018 40.3976 62.6689 40.4647C62.7126 40.5522 62.8205 40.593 62.9722 40.593C63.0597 40.593 63.1443 40.5726 63.2318 40.5288C63.3193 40.4851 63.4039 40.4413 63.471 40.3772H63.468Z" fill="#30485B"/>
<path d="M64.658 39.4467V40.765C64.658 40.8292 64.6376 40.8525 64.5705 40.8525H64.3984C64.3547 40.8525 64.3109 40.8321 64.3109 40.765V39.0354C64.3109 39.015 64.3109 38.9917 64.3313 38.9713C64.3449 38.9576 64.3663 38.9508 64.3955 38.9508H64.5676C64.6113 38.9508 64.6317 38.9713 64.6317 39.015V39.1433C64.7397 38.9713 64.8913 38.9042 65.0867 38.9042C65.1305 38.9042 65.1742 38.9042 65.1947 38.9246C65.2151 38.945 65.2151 38.945 65.2151 38.9888L65.1947 39.1608C65.1947 39.1813 65.1742 39.2046 65.1305 39.2046H65.0226C64.9584 39.2046 64.8942 39.225 64.8067 39.2688C64.7863 39.3125 64.7192 39.3563 64.6551 39.4408L64.658 39.4467Z" fill="#30485B"/>
<path d="M66.9505 39.9658H65.7605C65.7605 40.1612 65.8247 40.3129 65.9326 40.4412C66.0405 40.5696 66.1922 40.6366 66.3642 40.6366C66.5597 40.6366 66.7113 40.6162 66.8397 40.5491C66.8834 40.5287 66.9038 40.5287 66.9272 40.5696L66.9709 40.6979V40.7416C66.9709 40.7621 66.9505 40.7621 66.9272 40.7854C66.7755 40.8496 66.5801 40.8933 66.3001 40.8933C66.0201 40.8933 65.7809 40.8058 65.6292 40.6337C65.4776 40.4616 65.3901 40.2225 65.3901 39.9191C65.3901 39.6391 65.4776 39.4 65.6292 39.2046C65.7809 39.0325 66.0172 38.9246 66.2767 38.9246C66.4051 38.9246 66.5159 38.945 66.6005 38.9887C66.7084 39.0325 66.7726 39.0966 66.8397 39.1608C66.9038 39.2483 66.9476 39.3329 66.9913 39.4204C67.0351 39.5283 67.0351 39.6362 67.0351 39.7441V39.8521C67.0351 39.8958 67.0351 39.9162 67.0147 39.9396C66.9942 39.9629 66.9942 39.96 66.9505 39.96V39.9658ZM65.7605 39.7296H66.7347V39.6654C66.7347 39.5371 66.6909 39.4058 66.6267 39.3183C66.5626 39.2308 66.4313 39.19 66.303 39.19C66.1513 39.19 66.023 39.2337 65.9355 39.3416C65.8276 39.4496 65.7838 39.5808 65.7634 39.7296H65.7605Z" fill="#30485B"/>
<path d="M68.7676 38.4521V39.3184H69.698C69.7184 39.3184 69.7418 39.3184 69.7622 39.3388C69.7826 39.3592 69.7826 39.3592 69.7826 39.3825V39.5342C69.7826 39.5546 69.7826 39.5779 69.7622 39.5779C69.7418 39.5779 69.7418 39.5984 69.698 39.5984H68.7676V40.5725H69.8497C69.8701 40.5725 69.8934 40.5725 69.9138 40.5929C69.9343 40.6134 69.9343 40.6134 69.9343 40.6367V40.7884C69.9343 40.8088 69.9343 40.8321 69.9138 40.8321C69.8934 40.8321 69.8934 40.8525 69.8497 40.8525H68.4876C68.4234 40.8525 68.4001 40.8321 68.4001 40.765V38.2567C68.4001 38.1925 68.4205 38.1692 68.4876 38.1692H69.8497C69.8934 38.1692 69.9138 38.1896 69.9138 38.2334L69.8934 38.385C69.8934 38.4054 69.873 38.4288 69.873 38.4288C69.8526 38.4288 69.8293 38.4492 69.8088 38.4492H68.7705L68.7676 38.4521Z" fill="#30485B"/>
<path d="M70.7801 38.9712H71.2555C71.2759 38.9712 71.2993 38.9712 71.2993 38.9916C71.2993 38.9916 71.3197 39.012 71.3197 39.0354V39.1433C71.3197 39.1637 71.3197 39.187 71.2993 39.187C71.2788 39.187 71.2788 39.2074 71.2555 39.2074H70.7801V40.7649C70.7801 40.8291 70.7597 40.8524 70.6926 40.8524H70.5205C70.4768 40.8524 70.433 40.832 70.433 40.7649V39.2074H70.2172C70.1968 39.2074 70.1734 39.2074 70.1734 39.187C70.1734 39.1666 70.153 39.1666 70.153 39.1433V39.0354C70.153 39.0149 70.153 38.9916 70.1734 38.9916C70.1734 38.9916 70.1938 38.9712 70.2172 38.9712H70.433V38.907C70.433 38.7991 70.433 38.6912 70.4534 38.6037C70.4738 38.4316 70.5409 38.3004 70.6488 38.1924C70.7568 38.0845 70.888 38.0408 71.0805 38.0408C71.2322 38.0408 71.3401 38.0612 71.448 38.1049C71.4684 38.1049 71.4918 38.1254 71.4918 38.1487V38.1924L71.448 38.3208C71.448 38.3645 71.4043 38.3645 71.3605 38.3645C71.273 38.3441 71.1884 38.3208 71.1213 38.3208C70.993 38.3208 70.9055 38.3645 70.8618 38.4491C70.818 38.5337 70.7976 38.6445 70.7976 38.8166V38.9683H70.7772L70.7801 38.9712Z" fill="#30485B"/>
<path d="M72.1218 38.9713H73.0726C73.1163 38.9713 73.1368 38.9917 73.1368 39.0588V40.7884C73.1368 40.8526 73.1163 40.8759 73.0493 40.8759H72.8772C72.8334 40.8759 72.7897 40.8555 72.7897 40.7884V39.2309H72.1188V40.7884C72.1188 40.8526 72.0984 40.8759 72.0313 40.8759H71.8593C71.8155 40.8759 71.7718 40.8555 71.7718 40.7884V39.2309H71.5559C71.5355 39.2309 71.5122 39.2309 71.5122 39.2105C71.5122 39.1901 71.4918 39.1901 71.4918 39.1667V39.0384C71.4918 39.018 71.4918 38.9946 71.5122 38.9946C71.5122 38.9946 71.5326 38.9742 71.5559 38.9742H71.7718V38.9101C71.7718 38.6709 71.8155 38.4784 71.9234 38.3471C72.0518 38.1517 72.2472 38.0671 72.5301 38.0671C72.7255 38.0671 72.8772 38.0876 72.9851 38.1313C73.0055 38.1517 73.0288 38.1517 73.0288 38.1751V38.2188L72.9851 38.3471C72.9851 38.3909 72.9413 38.3909 72.8976 38.3909C72.7897 38.3471 72.6584 38.3471 72.5301 38.3471C72.2268 38.3471 72.0751 38.5426 72.0751 38.9305V38.9742H72.1188L72.1218 38.9713Z" fill="#30485B"/>
<path d="M75.0413 39.123L74.9976 39.2513C74.9772 39.2951 74.9538 39.2951 74.9101 39.2951C74.7818 39.2309 74.6505 39.2076 74.5222 39.2076C74.3268 39.2076 74.1984 39.2717 74.0905 39.403C73.9826 39.5342 73.9184 39.7063 73.9184 39.9221C73.9184 40.0301 73.9388 40.1176 73.9622 40.2022C73.9826 40.2897 74.0263 40.3742 74.0701 40.4413C74.1138 40.5055 74.178 40.5697 74.2422 40.6134C74.3297 40.6572 74.4143 40.6776 74.5018 40.6776C74.6534 40.6776 74.8051 40.6572 74.9334 40.5901C74.9772 40.5697 74.9976 40.5901 75.0209 40.6105L75.0647 40.7184V40.7826C75.0647 40.803 75.0443 40.803 75.0209 40.8263C74.8693 40.8905 74.6972 40.9342 74.5018 40.9342C74.3063 40.9342 74.1343 40.8905 74.003 40.8059C73.8718 40.7213 73.7638 40.6105 73.6997 40.4588C73.6355 40.3072 73.6122 40.1351 73.6122 39.9396C73.6122 39.6596 73.6997 39.4205 73.8718 39.2251C74.0438 39.053 74.2597 38.9451 74.5426 38.9451C74.738 38.9451 74.8897 38.9888 75.0413 39.053C75.0413 39.053 75.0618 39.0734 75.0413 39.1172V39.123Z" fill="#30485B"/>
<path d="M75.4526 38.3645C75.4963 38.3208 75.5401 38.3208 75.6043 38.3208C75.6684 38.3208 75.7122 38.3412 75.7559 38.3645C75.7997 38.4083 75.8201 38.452 75.8201 38.4929C75.8201 38.557 75.7997 38.6008 75.7559 38.6212C75.7122 38.6416 75.6684 38.665 75.6043 38.665C75.5401 38.665 75.4963 38.6446 75.4526 38.6212C75.4088 38.5775 75.3884 38.5337 75.3884 38.4929C75.3884 38.452 75.4088 38.4054 75.4526 38.3645ZM75.753 39.0354V40.765C75.753 40.8291 75.7326 40.8525 75.6655 40.8525H75.4934C75.4497 40.8525 75.4059 40.832 75.4059 40.765V39.0354C75.4059 38.9916 75.4263 38.9479 75.4934 38.9479H75.6655C75.7297 38.9683 75.753 38.9916 75.753 39.0354Z" fill="#30485B"/>
<path d="M77.7451 39.9658H76.5551C76.5551 40.1612 76.6193 40.3129 76.7272 40.4412C76.8351 40.5696 76.9868 40.6366 77.1589 40.6366C77.3543 40.6366 77.5059 40.6162 77.6343 40.5491C77.678 40.5287 77.6984 40.5287 77.7218 40.5696L77.7655 40.6979V40.7416C77.7655 40.7416 77.7451 40.7621 77.7218 40.7854C77.5701 40.8496 77.3747 40.8933 77.0947 40.8933C76.8147 40.8933 76.5755 40.8058 76.4239 40.6337C76.2722 40.4616 76.1847 40.2225 76.1847 39.9191C76.1847 39.6391 76.2722 39.4 76.4239 39.2046C76.5755 39.0325 76.8118 38.9246 77.0714 38.9246C77.1997 38.9246 77.3105 38.945 77.3951 38.9887C77.503 39.0325 77.5672 39.0966 77.6343 39.1608C77.6984 39.2483 77.7422 39.3329 77.7859 39.4204C77.8064 39.5283 77.8297 39.6362 77.8297 39.7441V39.8521C77.8297 39.8958 77.8297 39.9162 77.8093 39.9396C77.7889 39.9629 77.7889 39.96 77.7451 39.96V39.9658ZM76.5551 39.7296H77.5293V39.6654C77.5293 39.5371 77.4855 39.4058 77.4214 39.3183C77.3339 39.2308 77.2259 39.19 77.0976 39.19C76.9459 39.19 76.8176 39.2337 76.7301 39.3416C76.6426 39.4496 76.5784 39.5808 76.558 39.7296H76.5551Z" fill="#30485B"/>
<path d="M78.5881 39.4263V40.768C78.5881 40.8321 78.5676 40.8555 78.5005 40.8555H78.3285C78.2847 40.8555 78.241 40.835 78.241 40.768V39.0384C78.241 39.018 78.241 38.9946 78.2614 38.9742C78.275 38.9606 78.2964 38.9538 78.3256 38.9538H78.4976C78.5414 38.9538 78.5618 38.9742 78.5618 39.018V39.1463C78.6493 39.0821 78.7572 39.018 78.8651 38.9742C78.973 38.9305 79.081 38.91 79.2122 38.91C79.6235 38.91 79.8393 39.1492 79.8393 39.6013V40.7475C79.8393 40.8117 79.8189 40.835 79.7518 40.835H79.5797C79.536 40.835 79.4922 40.8146 79.4922 40.7475V39.6655C79.4922 39.6013 79.4922 39.5371 79.4718 39.47C79.4514 39.4263 79.4514 39.3621 79.4076 39.3184C79.3872 39.2746 79.3435 39.2309 79.2997 39.2105C79.256 39.19 79.1918 39.1667 79.1043 39.1667C79.0168 39.1667 78.9322 39.1871 78.8243 39.2309C78.7164 39.2746 78.6522 39.3592 78.5851 39.4263H78.5881Z" fill="#30485B"/>
<path d="M81.703 39.123L81.6593 39.2513C81.6389 39.2951 81.6155 39.2951 81.5718 39.2951C81.4435 39.2309 81.3122 39.2076 81.1839 39.2076C80.9884 39.2076 80.8601 39.2717 80.7522 39.403C80.6443 39.5342 80.5801 39.7063 80.5801 39.9221C80.5801 40.0301 80.6005 40.1176 80.6239 40.2022C80.6443 40.2897 80.688 40.3742 80.7318 40.4413C80.7755 40.5055 80.8397 40.5697 80.9039 40.6134C80.9914 40.6572 81.0759 40.6776 81.1634 40.6776C81.3151 40.6776 81.4668 40.6572 81.5951 40.5901C81.6389 40.5697 81.6593 40.5901 81.6826 40.6105L81.7264 40.7184V40.7826C81.7264 40.803 81.7059 40.803 81.6826 40.8263C81.5309 40.8905 81.3589 40.9342 81.1634 40.9342C80.968 40.9342 80.7959 40.8905 80.6647 40.8059C80.5334 40.7213 80.4255 40.6105 80.3614 40.4588C80.2972 40.3072 80.2739 40.1351 80.2739 39.9396C80.2739 39.6596 80.3614 39.4205 80.5334 39.2251C80.7055 39.053 80.9214 38.9451 81.2043 38.9451C81.3997 38.9451 81.5514 38.9888 81.703 39.053C81.7234 39.053 81.7234 39.0734 81.703 39.1172V39.123Z" fill="#30485B"/>
<path d="M82.7618 40.4849L83.2605 39.0354C83.2605 39.0149 83.2809 38.9916 83.3043 38.9916C83.3276 38.9916 83.348 38.9712 83.3684 38.9712H83.5638C83.6076 38.9712 83.628 38.9916 83.6076 39.0587L82.8493 41.0916C82.7618 41.3308 82.6538 41.4795 82.5459 41.5904C82.438 41.6779 82.2659 41.742 82.0705 41.742C82.0063 41.742 81.9626 41.742 81.8984 41.7216C81.8547 41.7216 81.8547 41.7012 81.8547 41.6574L81.8751 41.5058C81.8751 41.462 81.8955 41.462 81.9393 41.462C82.0034 41.462 82.0676 41.4824 82.0909 41.4824C82.1989 41.4824 82.2863 41.462 82.3505 41.4183C82.4147 41.3745 82.4788 41.2899 82.5226 41.2024L82.6101 40.9633L81.9188 39.1258V39.082C81.9188 39.0616 81.9393 39.0616 81.9626 39.0616H82.1784C82.2222 39.0616 82.2659 39.082 82.2659 39.1054L82.7647 40.4908L82.7618 40.4849Z" fill="#30485B"/>
<path d="M86.3959 40.5288C86.1363 40.7679 85.8564 40.8758 85.5093 40.8758C85.2701 40.8758 85.0776 40.8117 84.9259 40.6804C84.7743 40.5492 84.6868 40.3567 84.6868 40.1408C84.6868 40.0533 84.7072 39.9892 84.7305 39.925C84.7509 39.8608 84.7947 39.7967 84.818 39.7296C84.8618 39.6858 84.9055 39.6217 84.9697 39.5575C85.0339 39.4933 85.098 39.4496 85.1418 39.4292C85.1855 39.3854 85.2497 39.3417 85.3372 39.3008L85.2088 39.1492C85.1447 39.0617 85.0805 38.9771 85.0368 38.91C84.993 38.8458 84.9726 38.7583 84.9726 38.6504C84.9726 38.4988 85.0368 38.3704 85.1447 38.2625C85.2526 38.1546 85.4043 38.1108 85.5763 38.1108C85.7484 38.1108 85.9001 38.1546 86.008 38.2625C86.1159 38.3704 86.1801 38.5017 86.1801 38.6504C86.1801 38.7146 86.1597 38.7788 86.1364 38.8458C86.1159 38.91 86.0722 38.9742 86.0284 39.0179C85.9847 39.0821 85.9409 39.1258 85.8768 39.1696C85.833 39.2133 85.7688 39.2571 85.7047 39.2979L86.3755 40.0971C86.463 39.9892 86.5272 39.8579 86.5709 39.7092C86.6351 39.5575 86.6584 39.4058 86.6788 39.2338C86.6788 39.2133 86.6788 39.19 86.6993 39.19C86.7197 39.19 86.7197 39.1696 86.743 39.1696H86.9151C86.9588 39.1696 86.9588 39.19 86.9588 39.2133C86.9588 39.3854 86.9151 39.5808 86.8509 39.7763C86.7868 39.9717 86.6788 40.1438 86.5709 40.275C86.6993 40.4033 86.8743 40.5142 87.0697 40.5783C87.0901 40.5783 87.1134 40.5988 87.1134 40.6221V40.6863L87.0697 40.8146C87.0697 40.835 87.0493 40.8583 87.0259 40.8583H86.9618C86.8538 40.8379 86.7459 40.7942 86.638 40.73C86.5301 40.6658 86.4863 40.6221 86.3988 40.5346L86.3959 40.5288ZM86.2238 40.3333L85.5093 39.4904C85.3576 39.5983 85.2497 39.6858 85.1855 39.7938C85.098 39.9017 85.0776 40.0096 85.0776 40.1175C85.0776 40.2692 85.1213 40.3771 85.2293 40.485C85.3372 40.5725 85.4451 40.6133 85.5968 40.6133C85.8359 40.6133 86.0518 40.5054 86.2238 40.3333ZM85.5968 39.1229C85.7047 39.0588 85.7689 38.9713 85.8359 38.9071C85.903 38.8429 85.9234 38.7554 85.9234 38.6679C85.9234 38.5804 85.903 38.4958 85.8359 38.4521C85.7922 38.4083 85.7076 38.3646 85.6201 38.3646C85.5326 38.3646 85.4684 38.385 85.4043 38.4521C85.3401 38.4958 85.3168 38.5804 85.3168 38.6679C85.3168 38.7758 85.3809 38.8838 85.4889 39.015L85.5968 39.1229Z" fill="#30485B"/>
<path d="M90.0301 38.9917C90.0301 39.1434 90.0097 39.2717 89.9659 39.3796C89.9222 39.4875 89.8376 39.575 89.7501 39.6392C89.6626 39.7034 89.5547 39.7471 89.4263 39.7909C89.298 39.8346 89.1667 39.8346 89.0151 39.8346H88.7759V40.765C88.7759 40.8088 88.7555 40.8525 88.7117 40.8525H88.4959C88.4755 40.8525 88.4522 40.8525 88.4317 40.8321C88.4113 40.8117 88.4113 40.8117 88.4113 40.768V38.2596C88.4113 38.1955 88.4317 38.1721 88.4988 38.1721H88.9976C89.1492 38.1721 89.2776 38.1925 89.4088 38.2159C89.5372 38.2363 89.648 38.3034 89.7326 38.3442C89.8201 38.4084 89.9046 38.4959 89.9484 38.6038C89.9921 38.7117 90.0359 38.843 90.0359 38.9917H90.0301ZM88.7759 38.4317V39.5575H89.0151C89.2105 39.5575 89.3826 39.5138 89.4905 39.4292C89.5984 39.3446 89.6626 39.19 89.6626 38.9975C89.6626 38.805 89.5984 38.6505 89.4905 38.5659C89.3826 38.4813 89.2105 38.4375 88.9917 38.4375H88.7759V38.4317Z" fill="#30485B"/>
<path d="M90.7214 39.4467V40.765C90.7214 40.8292 90.7009 40.8525 90.6338 40.8525H90.4618C90.418 40.8525 90.3743 40.8321 90.3743 40.765V39.0354C90.3743 39.015 90.3743 38.9917 90.3947 38.9713C90.4083 38.9576 90.4297 38.9508 90.4588 38.9508H90.6309C90.6747 38.9508 90.6951 38.9713 90.6951 39.015V39.1433C90.803 38.9713 90.9547 38.9042 91.1501 38.9042C91.1939 38.9042 91.2376 38.9042 91.258 38.9246C91.2784 38.9246 91.2784 38.945 91.2784 38.9888L91.258 39.1608C91.258 39.1813 91.2376 39.2046 91.1939 39.2046H91.0859C91.0218 39.2046 90.9576 39.225 90.8701 39.2688C90.8497 39.3125 90.7826 39.3563 90.7184 39.4408L90.7214 39.4467Z" fill="#30485B"/>
<path d="M93.2297 39.9017C93.2297 40.0971 93.1859 40.2488 93.1218 40.4004C93.0576 40.5521 92.9497 40.66 92.8184 40.7475C92.6901 40.835 92.5151 40.8758 92.3197 40.8758C92.168 40.8758 92.0397 40.8554 91.9318 40.8117C91.8239 40.7679 91.7364 40.6833 91.6518 40.5958C91.5876 40.5083 91.5234 40.4004 91.5001 40.2925C91.4797 40.1846 91.4564 40.0533 91.4564 39.9046C91.4564 39.7092 91.5001 39.5575 91.5643 39.4058C91.6284 39.2542 91.7364 39.1463 91.8676 39.0588C91.9959 38.9713 92.1709 38.9304 92.3664 38.9304C92.5618 38.9304 92.7339 38.9742 92.8651 39.0588C92.9964 39.1433 93.1043 39.2542 93.1684 39.4058C93.1889 39.5342 93.2326 39.7092 93.2326 39.9046L93.2297 39.9017ZM92.8418 40.1817C92.8622 40.0942 92.8622 40.0096 92.8622 39.9221C92.8622 39.8346 92.8622 39.7267 92.8418 39.6625C92.8214 39.575 92.798 39.5108 92.7543 39.4233C92.7105 39.3592 92.6668 39.295 92.5822 39.2513C92.518 39.2075 92.4305 39.1871 92.3226 39.1871C92.2351 39.1871 92.1709 39.2075 92.1068 39.2308C92.0426 39.2542 91.9989 39.295 91.9551 39.3388C91.9114 39.3825 91.8909 39.4467 91.8472 39.5108C91.8268 39.575 91.8034 39.6392 91.783 39.7063C91.783 39.7704 91.7626 39.8346 91.7626 39.9221C91.7626 39.9863 91.7626 40.0738 91.783 40.1379C91.783 40.2021 91.8034 40.2663 91.8472 40.3333C91.8676 40.3975 91.9114 40.4617 91.9551 40.5054C91.9989 40.5492 92.0426 40.5929 92.1068 40.6133C92.1709 40.6338 92.2351 40.6571 92.3226 40.6571C92.4305 40.6571 92.4947 40.6367 92.5822 40.5929C92.6464 40.5492 92.7105 40.5054 92.7543 40.4208C92.798 40.3363 92.8418 40.2692 92.8418 40.1817Z" fill="#30485B"/>
<path d="M94.0959 39.0354V40.7445C94.0959 40.8525 94.0959 40.9604 94.0755 41.0683C94.0551 41.1558 94.0318 41.2404 94.0113 41.3279C93.9676 41.4154 93.9238 41.4795 93.883 41.5233C93.8393 41.567 93.7547 41.6108 93.6672 41.6516C93.5797 41.6721 93.4718 41.6954 93.3638 41.6954C93.2763 41.6954 93.2122 41.6954 93.148 41.675C93.1276 41.675 93.1042 41.6545 93.1042 41.6545V41.6108L93.1247 41.4591C93.1247 41.4154 93.1451 41.4154 93.1888 41.4154C93.253 41.4358 93.3172 41.4358 93.3843 41.4358C93.4513 41.4358 93.5126 41.4154 93.5563 41.3921C93.6001 41.3687 93.6438 41.3483 93.6643 41.3045C93.6847 41.2608 93.708 41.217 93.7284 41.1529C93.7488 41.0887 93.7488 41.045 93.7488 40.9808V39.0354C93.7488 38.9916 93.7692 38.9712 93.813 38.9712H94.0084C94.0726 38.9712 94.0959 38.9916 94.0959 39.0354ZM93.7926 38.3645C93.8363 38.3208 93.8801 38.3208 93.9442 38.3208C94.0084 38.3208 94.0522 38.3412 94.0959 38.3645C94.1397 38.4083 94.1601 38.452 94.1601 38.4929C94.1601 38.557 94.1397 38.6008 94.0959 38.6212C94.0522 38.665 94.0084 38.665 93.9442 38.665C93.8801 38.665 93.8363 38.6446 93.7926 38.6212C93.7488 38.5775 93.7284 38.5337 93.7284 38.4929C93.7488 38.4491 93.7488 38.4054 93.7926 38.3645Z" fill="#30485B"/>
<path d="M96.1085 39.9658H94.9184C94.9184 40.1612 94.9826 40.3129 95.0905 40.4412C95.1984 40.5696 95.3501 40.6366 95.5222 40.6366C95.7176 40.6366 95.8693 40.6162 95.9976 40.5491C96.0414 40.5287 96.0618 40.5287 96.0851 40.5696L96.1289 40.6979V40.7416C96.1289 40.7416 96.1084 40.7621 96.0851 40.7854C95.9334 40.8496 95.738 40.8933 95.458 40.8933C95.178 40.8933 94.9389 40.8058 94.7872 40.6337C94.6355 40.4616 94.548 40.2225 94.548 39.9191C94.548 39.6391 94.6355 39.4 94.7872 39.2046C94.9389 39.0325 95.1751 38.9246 95.4347 38.9246C95.563 38.9246 95.6739 38.945 95.7584 38.9887C95.8664 39.0325 95.9305 39.0966 95.9976 39.1608C96.0618 39.2483 96.1055 39.3329 96.1493 39.4204C96.1697 39.5283 96.193 39.6362 96.193 39.7441V39.8521C96.193 39.8958 96.193 39.9162 96.1726 39.9396C96.1522 39.9629 96.1522 39.96 96.1085 39.96V39.9658ZM94.9184 39.7296H95.8926V39.6654C95.8926 39.5371 95.8489 39.4058 95.7847 39.3183C95.6972 39.2308 95.5893 39.19 95.461 39.19C95.3093 39.19 95.1809 39.2337 95.0934 39.3416C95.0059 39.4496 94.9214 39.5808 94.9214 39.7296H94.9184Z" fill="#30485B"/>
<path d="M97.9664 39.123L97.9226 39.2513C97.9022 39.2951 97.8789 39.2951 97.8351 39.2951C97.7068 39.2309 97.5756 39.2076 97.4472 39.2076C97.2518 39.2076 97.1235 39.2717 97.0156 39.403C96.9076 39.5342 96.8435 39.7063 96.8435 39.9221C96.8435 40.0301 96.8639 40.1176 96.8872 40.2022C96.9076 40.2897 96.9514 40.3742 96.9951 40.4413C97.0389 40.5055 97.1031 40.5697 97.1672 40.6134C97.2547 40.6572 97.3393 40.6776 97.4268 40.6776C97.5785 40.6776 97.7301 40.6572 97.8585 40.5901C97.9022 40.5697 97.9226 40.5901 97.946 40.6105L97.9897 40.7184V40.7826C97.9897 40.803 97.9693 40.803 97.946 40.8263C97.7943 40.8905 97.6222 40.9342 97.4268 40.9342C97.2314 40.9342 97.0593 40.8905 96.9281 40.8059C96.7968 40.7213 96.6889 40.6105 96.6247 40.4588C96.5606 40.3072 96.5372 40.1351 96.5372 39.9396C96.5372 39.6596 96.6247 39.4205 96.7968 39.2251C96.9689 39.053 97.1847 38.9451 97.4676 38.9451C97.6631 38.9451 97.8147 38.9888 97.9664 39.053C97.9664 39.053 97.9868 39.0734 97.9664 39.1172V39.123Z" fill="#30485B"/>
<path d="M98.4009 38.9712V38.5396C98.4009 38.5192 98.4009 38.4958 98.4214 38.4754C98.435 38.4618 98.4495 38.455 98.4651 38.455L98.6605 38.4346C98.7043 38.4346 98.748 38.455 98.748 38.4987V38.9742H99.203C99.2234 38.9742 99.2468 38.9742 99.2468 38.9946C99.2468 38.9946 99.2672 39.015 99.2672 39.0383V39.1462C99.2672 39.1667 99.2672 39.19 99.2468 39.19C99.2264 39.19 99.2264 39.2104 99.203 39.2104H98.7276V40.2692C98.7276 40.3975 98.748 40.5083 98.7918 40.5492C98.8355 40.6133 98.8997 40.6367 99.0076 40.6367C99.0951 40.6367 99.1593 40.6162 99.2468 40.5929C99.2905 40.5725 99.3109 40.5929 99.3343 40.6367L99.378 40.7446V40.7883C99.378 40.7883 99.3576 40.8087 99.3343 40.8087C99.2059 40.8525 99.0951 40.8729 98.9668 40.8729C98.8589 40.8729 98.7714 40.8525 98.6868 40.8292C98.6226 40.8087 98.5584 40.765 98.5147 40.7008C98.4709 40.6367 98.4505 40.5929 98.4272 40.5054C98.4068 40.4412 98.4068 40.3537 98.4068 40.2458V39.1637H98.1909C98.1705 39.1637 98.1472 39.1637 98.1472 39.1433C98.1472 39.1229 98.1268 39.1229 98.1268 39.0996V39.0354C98.1268 39.015 98.1268 38.9917 98.1472 38.9917C98.1472 38.9917 98.1676 38.9712 98.1909 38.9712H98.4068H98.4009Z" fill="#30485B"/>
<path d="M100.238 40.03L99.9788 39.9221C99.8505 39.8784 99.763 39.8142 99.6988 39.7267C99.6347 39.6392 99.5909 39.5546 99.5909 39.4234C99.5909 39.2513 99.6551 39.1434 99.7863 39.0354C99.9147 38.9275 100.066 38.9071 100.241 38.9071C100.416 38.9071 100.588 38.9509 100.74 39.015C100.784 39.0354 100.784 39.0588 100.784 39.0792L100.74 39.2075C100.72 39.2513 100.696 39.2513 100.653 39.2279C100.501 39.1638 100.373 39.1404 100.241 39.1404C100.133 39.1404 100.046 39.1609 100.002 39.2046C99.938 39.2484 99.9147 39.3125 99.9147 39.3767C99.9147 39.4409 99.9351 39.4846 99.9788 39.5284C100.023 39.5721 100.087 39.6159 100.174 39.6363L100.478 39.7646C100.737 39.8725 100.866 40.0446 100.866 40.2634C100.866 40.4354 100.801 40.5871 100.67 40.695C100.542 40.8029 100.367 40.8467 100.151 40.8467C100.063 40.8467 99.9555 40.8263 99.8709 40.8029C99.7834 40.7825 99.6988 40.7592 99.6318 40.7154C99.588 40.695 99.588 40.6717 99.588 40.6279L99.6318 40.4996C99.6522 40.4559 99.6755 40.4559 99.6959 40.4559C99.868 40.5434 100.02 40.5638 100.151 40.5638C100.259 40.5638 100.367 40.5434 100.431 40.4763C100.495 40.4325 100.539 40.3479 100.539 40.2604C100.539 40.1963 100.518 40.1321 100.475 40.0884C100.411 40.1088 100.323 40.0679 100.236 40.0242L100.238 40.03Z" fill="#30485B"/>
<path d="M102.551 40.0534L102.292 40.7884C102.292 40.8088 102.271 40.8321 102.271 40.8321C102.271 40.8321 102.228 40.8526 102.207 40.8526H101.991C101.948 40.8526 101.927 40.8321 101.948 40.7651L102.922 38.213C102.942 38.1692 102.966 38.1488 102.986 38.1488H103.202C103.246 38.1488 103.266 38.1692 103.266 38.1926L104.24 40.7446C104.261 40.7884 104.24 40.8321 104.196 40.8321H103.916C103.896 40.8321 103.873 40.8321 103.852 40.8117C103.832 40.7913 103.832 40.7913 103.832 40.768L103.572 40.033H102.554V40.0534H102.551ZM102.639 39.7938H103.461L103.05 38.6271L102.639 39.7938Z" fill="#30485B"/>
<path d="M105.69 40.3772V39.0355C105.69 38.9917 105.71 38.948 105.777 38.948H105.949C105.993 38.948 106.013 38.9684 106.013 39.0355V40.7651C106.013 40.7855 106.013 40.8088 105.993 40.8292C105.979 40.8429 105.958 40.8497 105.929 40.8497H105.757C105.713 40.8497 105.693 40.8292 105.693 40.7855V40.6572C105.52 40.8088 105.305 40.8963 105.086 40.8963C104.675 40.8963 104.479 40.6572 104.479 40.1817V39.0355C104.479 38.9917 104.5 38.948 104.567 38.948H104.739C104.783 38.948 104.803 38.9684 104.803 39.0355V40.1176C104.803 40.2692 104.823 40.3976 104.89 40.4647C104.934 40.5522 105.042 40.593 105.194 40.593C105.281 40.593 105.366 40.5726 105.453 40.5288C105.541 40.4851 105.625 40.4413 105.693 40.3772H105.69Z" fill="#30485B"/>
<path d="M106.64 38.9712V38.5396C106.64 38.5192 106.64 38.4958 106.661 38.4754C106.674 38.4618 106.689 38.455 106.705 38.455L106.9 38.4346C106.944 38.4346 106.988 38.455 106.988 38.4987V38.9742H107.443C107.463 38.9742 107.486 38.9742 107.486 38.9946C107.486 38.9946 107.507 39.015 107.507 39.0383V39.1462C107.507 39.1667 107.507 39.19 107.486 39.19C107.466 39.19 107.466 39.2104 107.443 39.2104H106.988V40.2692C106.988 40.3975 107.008 40.5083 107.052 40.5492C107.095 40.6133 107.16 40.6367 107.268 40.6367C107.355 40.6367 107.419 40.6162 107.507 40.5929C107.55 40.5725 107.571 40.5929 107.594 40.6367L107.638 40.7446V40.7883C107.638 40.7883 107.618 40.8087 107.594 40.8087C107.466 40.8525 107.355 40.8729 107.227 40.8729C107.119 40.8729 107.031 40.8525 106.947 40.8292C106.883 40.8087 106.818 40.765 106.775 40.7008C106.731 40.6367 106.71 40.5929 106.687 40.5054C106.667 40.4412 106.667 40.3537 106.667 40.2458V39.1637H106.451C106.43 39.1637 106.407 39.1637 106.407 39.1433C106.407 39.1229 106.387 39.1229 106.387 39.0996V39.0354C106.387 39.015 106.387 38.9917 106.407 38.9917C106.407 38.9917 106.428 38.9712 106.451 38.9712H106.646H106.64Z" fill="#30485B"/>
<path d="M108.242 39.4265V40.7682C108.242 40.8324 108.221 40.8557 108.154 40.8557H107.982C107.938 40.8557 107.895 40.8353 107.895 40.7682V38.1957C107.895 38.1753 107.895 38.1519 107.915 38.1315C107.915 38.1111 107.935 38.1111 107.959 38.1111L108.154 38.0907C108.198 38.0907 108.242 38.1111 108.242 38.1549V39.1728C108.329 39.1086 108.414 39.0445 108.545 39.0007C108.653 38.957 108.784 38.9365 108.892 38.9365C109.303 38.9365 109.499 39.1757 109.499 39.6278V40.774C109.499 40.8382 109.478 40.8615 109.411 40.8615H109.239C109.195 40.8615 109.152 40.8411 109.152 40.774V39.6919C109.152 39.5403 109.131 39.4324 109.064 39.3449C109 39.2574 108.913 39.2165 108.761 39.2165C108.673 39.2165 108.589 39.2369 108.481 39.2807C108.393 39.3244 108.309 39.3682 108.242 39.4324V39.4265Z" fill="#30485B"/>
<path d="M111.681 39.9017C111.681 40.0971 111.637 40.2488 111.573 40.4004C111.508 40.5521 111.401 40.66 111.269 40.7475C111.141 40.835 110.966 40.8758 110.771 40.8758C110.619 40.8758 110.491 40.8554 110.383 40.8117C110.275 40.7679 110.187 40.6833 110.103 40.5958C110.038 40.5083 109.974 40.4004 109.951 40.2925C109.931 40.1846 109.907 40.0533 109.907 39.9046C109.907 39.7092 109.951 39.5575 110.015 39.4058C110.079 39.2542 110.187 39.1463 110.318 39.0588C110.447 38.9713 110.622 38.9304 110.817 38.9304C111.013 38.9304 111.185 38.9742 111.316 39.0588C111.447 39.1433 111.555 39.2542 111.619 39.4058C111.64 39.5342 111.683 39.7092 111.683 39.9046L111.681 39.9017ZM111.313 40.1817C111.333 40.0942 111.333 40.0096 111.333 39.9221C111.333 39.8346 111.333 39.7267 111.313 39.6625C111.293 39.575 111.269 39.5108 111.226 39.4233C111.182 39.3592 111.138 39.295 111.053 39.2513C110.989 39.2075 110.902 39.1871 110.794 39.1871C110.706 39.1871 110.642 39.2075 110.578 39.2308C110.514 39.2542 110.47 39.295 110.426 39.3388C110.383 39.3825 110.362 39.4467 110.318 39.5108C110.298 39.575 110.275 39.6392 110.254 39.7063C110.254 39.7704 110.234 39.8346 110.234 39.9221C110.234 39.9863 110.234 40.0738 110.254 40.1379C110.254 40.2021 110.275 40.2663 110.318 40.3333C110.339 40.3975 110.383 40.4617 110.426 40.5054C110.47 40.5492 110.514 40.5929 110.578 40.6133C110.642 40.6338 110.706 40.6571 110.794 40.6571C110.902 40.6571 110.966 40.6367 111.053 40.5929C111.118 40.5492 111.182 40.5054 111.226 40.4208C111.246 40.3333 111.29 40.2692 111.313 40.1817Z" fill="#30485B"/>
<path d="M112.416 39.4467V40.765C112.416 40.8292 112.395 40.8525 112.328 40.8525H112.156C112.112 40.8525 112.068 40.8321 112.068 40.765V39.0354C112.068 39.015 112.068 38.9917 112.089 38.9713C112.103 38.9576 112.124 38.9508 112.153 38.9508H112.325C112.369 38.9508 112.389 38.9713 112.389 39.015V39.1433C112.497 38.9713 112.649 38.9042 112.844 38.9042C112.888 38.9042 112.932 38.9042 112.952 38.9246C112.973 38.9246 112.973 38.945 112.973 38.9888L112.952 39.1608C112.952 39.1813 112.932 39.2046 112.888 39.2046H112.78C112.716 39.2046 112.652 39.225 112.564 39.2688C112.521 39.3125 112.477 39.3563 112.413 39.4408L112.416 39.4467Z" fill="#30485B"/>
<path d="M113.39 38.3645C113.433 38.3208 113.477 38.3208 113.541 38.3208C113.606 38.3208 113.649 38.3412 113.693 38.3645C113.737 38.4083 113.757 38.452 113.757 38.4929C113.757 38.557 113.737 38.6008 113.693 38.6212C113.649 38.6416 113.606 38.665 113.541 38.665C113.477 38.665 113.433 38.6446 113.39 38.6212C113.346 38.5775 113.326 38.5337 113.326 38.4929C113.326 38.452 113.346 38.4054 113.39 38.3645ZM113.69 39.0354V40.765C113.69 40.8291 113.67 40.8525 113.603 40.8525H113.431C113.387 40.8525 113.343 40.832 113.343 40.765V39.0354C113.343 38.9916 113.363 38.9479 113.431 38.9479H113.603C113.667 38.9683 113.69 38.9916 113.69 39.0354Z" fill="#30485B"/>
<path d="M114.317 38.9712V38.5396C114.317 38.5192 114.317 38.4958 114.338 38.4754C114.351 38.4618 114.366 38.455 114.381 38.455L114.577 38.4346C114.621 38.4346 114.664 38.455 114.664 38.4987V38.9742H115.119C115.14 38.9742 115.163 38.9742 115.163 38.9946C115.163 38.9946 115.183 39.015 115.183 39.0383V39.1462C115.183 39.1667 115.183 39.19 115.163 39.19C115.143 39.19 115.143 39.2104 115.119 39.2104H114.664V40.2692C114.664 40.3975 114.685 40.5083 114.728 40.5492C114.772 40.6133 114.836 40.6367 114.944 40.6367C115.032 40.6367 115.096 40.6162 115.183 40.5929C115.227 40.5725 115.248 40.5929 115.271 40.6367L115.315 40.7446V40.7883C115.315 40.7883 115.294 40.8087 115.271 40.8087C115.143 40.8525 115.032 40.8729 114.903 40.8729C114.796 40.8729 114.708 40.8525 114.623 40.8292C114.559 40.8087 114.495 40.765 114.451 40.7008C114.408 40.6367 114.387 40.5929 114.364 40.5054C114.343 40.4412 114.343 40.3537 114.343 40.2458V39.1637H114.128C114.107 39.1637 114.084 39.1637 114.084 39.1433C114.084 39.1229 114.063 39.1229 114.063 39.0996V39.0354C114.063 39.015 114.063 38.9917 114.084 38.9917C114.084 38.9917 114.104 38.9712 114.128 38.9712H114.323H114.317Z" fill="#30485B"/>
<path d="M116.33 40.4849L116.828 39.0354C116.828 39.0149 116.849 38.9916 116.872 38.9916C116.896 38.9916 116.916 38.9712 116.936 38.9712H117.132C117.176 38.9712 117.196 38.9916 117.176 39.0587L116.417 41.0916C116.33 41.3308 116.222 41.4795 116.114 41.5904C116.006 41.6779 115.834 41.742 115.638 41.742C115.574 41.742 115.531 41.742 115.466 41.7216C115.423 41.7216 115.423 41.7012 115.423 41.6574L115.443 41.5058C115.443 41.462 115.463 41.462 115.507 41.462C115.571 41.462 115.636 41.4824 115.659 41.4824C115.767 41.4824 115.854 41.462 115.918 41.4183C115.983 41.3745 116.047 41.2899 116.091 41.2024L116.178 40.9633L115.487 39.1258V39.082C115.487 39.0616 115.507 39.0616 115.531 39.0616H115.746C115.79 39.0616 115.834 39.082 115.834 39.1054L116.333 40.4908L116.33 40.4849Z" fill="#30485B"/>
<path d="M21.8997 12.4965H19.088C18.5689 12.4965 18.0701 12.2369 17.7697 11.8257L17.163 10.7669L15.2818 7.52359C14.8268 6.74484 15.1097 5.75026 15.8884 5.29526L15.9526 5.25151C16.7314 4.79651 17.7259 5.05609 18.1809 5.85817L20.9926 10.7028L21.1005 10.8982L21.7072 11.9365C21.8151 12.1319 21.8793 12.304 21.9026 12.4994L21.8997 12.4965Z" fill="#30485B"/>
<path d="M29.6405 1.94109C29.6405 2.22109 29.5763 2.504 29.4247 2.76359L24.6676 11.0032L24.3438 11.5661C23.9559 12.2136 23.2413 12.4732 22.6784 12.4732H19.1959C20.0184 12.3011 20.3422 11.8461 20.4938 11.5661L20.9051 10.8748L21.013 10.6794L26.5488 1.09817C27.0038 0.299004 28.0188 0.0160876 28.8209 0.491504C29.3401 0.815254 29.6434 1.37817 29.6434 1.94109H29.6405Z" fill="#30485B"/>
<path d="M15.3021 15.2645L13.8963 17.6883C13.6367 18.1433 13.1613 18.4466 12.6626 18.4875H7.68673C6.77965 18.4875 6.06506 17.7524 6.06506 16.8658V16.7783C6.06506 15.8712 6.80006 15.1566 7.68673 15.1566H14.7363C14.9317 15.177 15.1242 15.2004 15.2992 15.2645H15.3021Z" fill="#30485B"/>
<path d="M10.0463 3.30616C10.2855 3.45783 10.5013 3.65324 10.653 3.91283L15.41 12.1524L15.7338 12.7153C16.1013 13.3862 15.973 14.1212 15.69 14.6199L13.9371 17.6474C14.1967 16.8482 13.9575 16.3495 13.8088 16.0695L13.4209 15.3782L13.313 15.1828L7.77421 5.59866C7.31921 4.79949 7.57879 3.78158 8.38088 3.32658C8.90004 3.00283 9.54754 3.02324 10.0463 3.30616Z" fill="#30485B"/>
<path d="M14.4155 22.3811L15.8214 24.8048C16.081 25.2598 16.1014 25.7994 15.8855 26.2748L15.2789 27.3336L13.3976 30.5769C12.9426 31.3557 11.948 31.6153 11.1693 31.1836L11.1051 31.1398C10.3264 30.6848 10.0668 29.6903 10.4985 28.9115L13.3101 24.0669L13.418 23.8715L14.0247 22.8332C14.1326 22.6611 14.2639 22.5094 14.4126 22.3782L14.4155 22.3811Z" fill="#30485B"/>
<path d="M1.41595 20.9548C1.65512 20.8032 1.95554 20.739 2.23845 20.739H12.403C13.1614 20.7594 13.7447 21.2378 14.0247 21.7336L15.7776 24.7611C15.2147 24.134 14.6751 24.0903 14.3514 24.0903H2.25887C1.32845 24.0903 0.593452 23.3348 0.593452 22.4248C0.573036 21.7773 0.917202 21.2582 1.41595 20.9548Z" fill="#30485B"/>
<path d="M20.1263 26.7067H22.938C23.4572 26.7067 23.9559 26.9662 24.2563 27.3775L24.863 28.4362L26.7442 31.6796C27.1992 32.4583 26.9163 33.4529 26.1376 33.9079L26.0734 33.9517C25.2947 34.4067 24.3001 34.1471 23.8451 33.345L21.0334 28.5004L20.9255 28.305L20.3188 27.2666C20.2109 27.0946 20.1467 26.8992 20.1234 26.7037L20.1263 26.7067Z" fill="#30485B"/>
<path d="M12.3826 37.2621C12.3826 36.9821 12.4468 36.6991 12.5984 36.4396L17.3555 28.2L17.6793 27.6371C18.0672 26.9896 18.7818 26.73 19.3447 26.73H22.8272C22.0047 26.9021 21.6809 27.3571 21.5293 27.6371L21.118 28.3283L21.0101 28.5237L15.4743 38.105C15.0193 38.9041 14.0043 39.1871 13.2022 38.7116C12.683 38.3879 12.3797 37.825 12.3797 37.2621H12.3826Z" fill="#30485B"/>
<path d="M26.7209 23.9386L28.1268 21.5149C28.3864 21.0599 28.8618 20.7565 29.3605 20.7157H34.3364C35.2434 20.7157 35.958 21.4507 35.958 22.3374V22.4249C35.958 23.3319 35.223 24.0465 34.3364 24.0465H27.2868C27.0914 24.0465 26.8989 24.0028 26.7239 23.9386H26.7209Z" fill="#30485B"/>
<path d="M31.9768 35.8998C31.7376 35.7482 31.5218 35.5528 31.3701 35.2932L26.613 27.0536L26.2893 26.4907C25.9218 25.8198 26.0501 25.0848 26.333 24.5861L28.0859 21.5586C27.8263 22.3578 28.0655 22.8565 28.2143 23.1365L28.6022 23.8278L28.7101 24.0232L34.2693 33.6278C34.7243 34.4269 34.4647 35.4448 33.6626 35.8998C33.123 36.2032 32.4726 36.1798 31.9768 35.8998Z" fill="#30485B"/>
<path d="M27.6076 16.822L26.2018 14.3983C25.9422 13.9433 25.9218 13.4037 26.1376 12.9283L26.7443 11.8695L28.6255 8.62618C29.0805 7.84743 30.0751 7.58784 30.8538 8.01951L30.918 8.06326C31.6968 8.51826 31.9563 9.51284 31.5247 10.2916L28.713 15.1362L28.6051 15.3316L27.9984 16.3699C27.8905 16.5653 27.7593 16.717 27.6105 16.8249L27.6076 16.822Z" fill="#30485B"/>
<path d="M40.6072 18.2512C40.368 18.4029 40.0676 18.467 39.7847 18.467H29.6201C28.8617 18.4466 28.2784 17.9683 27.9984 17.4724L26.2455 14.4449C26.8084 15.072 27.348 15.1158 27.6717 15.1158H39.7613C40.6917 15.1158 41.4267 15.8741 41.4267 16.7812C41.4472 17.4287 41.103 17.9712 40.6042 18.2512H40.6072Z" fill="#30485B"/>
</g>
<defs>
<clipPath id="clip0_0_209">
<rect width="116.667" height="41.4779" fill="white" transform="translate(0.593445 0.260986)"/>
</clipPath>
</defs>
</svg>
