<svg width="153" height="42" viewBox="0 0 153 42" fill="none" xmlns="http://www.w3.org/2000/svg">
<g clip-path="url(#clip0_0_309)">
<path d="M2.1567 34.2686L1.00193 35.7564H0.979726V34.2686H0.402344V37.533H0.979726V36.5781L1.44607 36.0007L2.33435 37.533H2.97836L1.80139 35.5566L2.8007 34.2686H2.1567Z" fill="#30485B"/>
<path d="M3.91106 35.0902H3.33368V37.533H3.91106V35.0902Z" fill="#30485B"/>
<path d="M3.62234 34.0023C3.42248 34.0023 3.26703 34.1356 3.26703 34.3354C3.26703 34.5353 3.42248 34.6685 3.62234 34.6685C3.8222 34.6685 3.97765 34.5353 3.97765 34.3354C3.97765 34.1356 3.8222 34.0023 3.62234 34.0023Z" fill="#30485B"/>
<path d="M5.97634 35.0236C5.64324 35.0236 5.39896 35.2012 5.17689 35.4233H5.15468L5.11027 35.0902H4.64392V37.533H5.2213V35.823C5.42117 35.6232 5.55441 35.5121 5.77648 35.5121C6.04296 35.5121 6.154 35.6676 6.154 36.0673V37.533H6.73138V36.0007C6.73138 35.3789 6.4871 35.0236 5.97634 35.0236Z" fill="#30485B"/>
<path d="M8.68547 37.1554H8.24133C7.95264 37.1554 7.8416 37.0666 7.8416 36.9334C7.8416 36.8223 7.88602 36.7557 7.95264 36.6891C8.06367 36.7335 8.17471 36.7557 8.28574 36.7557C8.7965 36.7557 9.21844 36.467 9.21844 35.9118C9.21844 35.7342 9.15182 35.6009 9.0852 35.5121H9.52934V35.0902H8.66326C8.57443 35.0458 8.44119 35.0236 8.30795 35.0236C7.79719 35.0236 7.33084 35.3345 7.33084 35.9118C7.33084 36.2005 7.48629 36.4448 7.66395 36.5558V36.5781C7.53071 36.6669 7.39746 36.8445 7.39746 37.0444C7.39746 37.2443 7.48629 37.3775 7.61953 37.4441V37.4663C7.39746 37.5996 7.26422 37.7772 7.26422 37.9771C7.26422 38.399 7.70836 38.6211 8.28574 38.6211C9.0852 38.6211 9.59596 38.2436 9.59596 37.755C9.57375 37.3331 9.26285 37.1554 8.68547 37.1554ZM8.30795 35.4233C8.55223 35.4233 8.72988 35.6009 8.72988 35.9118C8.72988 36.2227 8.53002 36.4004 8.30795 36.4004C8.06367 36.4004 7.88602 36.2227 7.88602 35.9118C7.88602 35.6009 8.06367 35.4233 8.30795 35.4233ZM8.35237 38.2436C7.97485 38.2436 7.73057 38.1103 7.73057 37.8883C7.73057 37.7772 7.79719 37.6662 7.93043 37.5552C8.01926 37.5774 8.13029 37.5996 8.26354 37.5996H8.59664C8.88533 37.5996 9.01858 37.6662 9.01858 37.8438C9.01858 38.0659 8.75209 38.2436 8.35237 38.2436Z" fill="#30485B"/>
<path d="M12.5274 35.7564L12.0833 35.5787C11.8168 35.4677 11.5725 35.3789 11.5725 35.1124C11.5725 34.8681 11.7724 34.7349 12.0833 34.7349C12.372 34.7349 12.594 34.8459 12.7939 35.0236L13.0826 34.6461C12.8383 34.3796 12.4608 34.2241 12.0833 34.2241C11.4393 34.2241 10.9951 34.6238 10.9951 35.1346C10.9951 35.601 11.3282 35.8674 11.6613 36.0007L12.1055 36.2005C12.3942 36.3338 12.6162 36.4226 12.6162 36.6891C12.6162 36.9334 12.4164 37.111 12.0388 37.111C11.728 37.111 11.4171 36.9556 11.195 36.7335L10.8619 37.1332C11.1728 37.4441 11.5947 37.6218 12.0388 37.6218C12.7717 37.6218 13.2158 37.1777 13.2158 36.6447C13.1714 36.1561 12.9049 35.9119 12.5274 35.7564Z" fill="#30485B"/>
<path d="M14.7036 35.0236C14.3039 35.0236 13.9708 35.179 13.7043 35.3345L13.9264 35.712C14.1484 35.5787 14.3705 35.4677 14.6148 35.4677C14.9479 35.4677 15.0589 35.6898 15.0589 35.9563C14.0596 36.0673 13.6155 36.3338 13.6155 36.8667C13.6155 37.2887 13.9042 37.5774 14.3483 37.5774C14.637 37.5774 14.8813 37.4441 15.1033 37.2443H15.1256L15.17 37.5107H15.6363V36.0673C15.6141 35.4011 15.3032 35.0236 14.7036 35.0236ZM15.0367 36.889C14.8591 37.0666 14.7036 37.1554 14.5038 37.1554C14.3039 37.1554 14.1484 37.0666 14.1484 36.8445C14.1484 36.6003 14.3705 36.4226 15.0367 36.3338V36.889Z" fill="#30485B"/>
<path d="M16.991 37.1333C16.9243 37.1333 16.8577 37.0889 16.8577 36.9334V34.0243H16.2803V36.9112C16.2803 37.3331 16.4358 37.5996 16.8355 37.5996C16.9688 37.5996 17.0798 37.5774 17.1464 37.5552L17.0798 37.1333C17.0354 37.1333 17.0132 37.1333 16.991 37.1333Z" fill="#30485B"/>
<path d="M20.5663 36.0673V37.533H21.1437V36.0007C21.1437 35.3789 20.8994 35.0236 20.3887 35.0236C20.0778 35.0236 19.8335 35.2234 19.6114 35.4677C19.5004 35.2012 19.3005 35.0236 18.9452 35.0236C18.6343 35.0236 18.4123 35.2012 18.1902 35.4233H18.168L18.1236 35.0902H17.6572V37.533H18.2346V35.823C18.4345 35.6232 18.5899 35.5121 18.7454 35.5121C19.0119 35.5121 19.1229 35.6676 19.1229 36.0673V37.533H19.7003V35.823C19.9001 35.6232 20.0556 35.5121 20.211 35.5121C20.4553 35.5121 20.5663 35.6676 20.5663 36.0673Z" fill="#30485B"/>
<path d="M21.721 36.8669C21.721 37.2888 22.0097 37.5775 22.4538 37.5775C22.7425 37.5775 22.9868 37.4442 23.2089 37.2444H23.2311L23.2755 37.5109H23.7418V36.0674C23.7418 35.379 23.4309 35.0015 22.8314 35.0015C22.4316 35.0015 22.0985 35.1569 21.832 35.3124L22.0541 35.6899C22.2762 35.5566 22.4983 35.4456 22.7425 35.4456C23.0756 35.4456 23.1867 35.6677 23.1867 35.9342C22.1429 36.0896 21.721 36.3561 21.721 36.8669ZM23.1423 36.3339V36.8891C22.9646 37.0667 22.8092 37.1555 22.6093 37.1555C22.4094 37.1555 22.254 37.0667 22.254 36.8446C22.2762 36.5782 22.4983 36.4227 23.1423 36.3339Z" fill="#30485B"/>
<path d="M25.7405 35.0236C25.4074 35.0236 25.1631 35.2012 24.941 35.4233H24.9188L24.8744 35.0902H24.4081V37.533H24.9855V35.823C25.1853 35.6232 25.3186 35.5121 25.5406 35.5121C25.8071 35.5121 25.9182 35.6676 25.9182 36.0673V37.533H26.4955V36.0007C26.4955 35.3789 26.2735 35.0236 25.7405 35.0236Z" fill="#30485B"/>
<path d="M29.6045 37.5997C30.0487 37.5997 30.4262 37.422 30.6483 37.2222V35.7787H29.5157V36.2451H30.1375V36.9557C30.0265 37.0445 29.8488 37.0889 29.6712 37.0889C29.0271 37.0889 28.6718 36.6448 28.6718 35.8898C28.6718 35.1347 29.0494 34.7128 29.6489 34.7128C29.9598 34.7128 30.1375 34.846 30.3152 35.0015L30.6261 34.624C30.4262 34.4241 30.0931 34.202 29.6489 34.202C28.7829 34.202 28.1167 34.846 28.1167 35.912C28.0722 37.0001 28.7385 37.5997 29.6045 37.5997Z" fill="#30485B"/>
<path d="M31.8919 37.5996C32.0251 37.5996 32.114 37.5774 32.2028 37.5552L32.1362 37.1333H32.0474C31.9807 37.1333 31.9141 37.0889 31.9141 36.9334V34.0243H31.3367V36.9112C31.3367 37.3331 31.47 37.5996 31.8919 37.5996Z" fill="#30485B"/>
<path d="M33.6906 37.5996C34.2902 37.5996 34.8454 37.1332 34.8454 36.3116C34.8454 35.4899 34.2902 35.0236 33.6906 35.0236C33.091 35.0236 32.5359 35.4899 32.5359 36.3116C32.5137 37.1332 33.0688 37.5996 33.6906 37.5996ZM33.6906 35.4899C34.0459 35.4899 34.268 35.823 34.268 36.3116C34.268 36.8001 34.0459 37.1332 33.6906 37.1332C33.3353 37.1332 33.1132 36.8001 33.1132 36.3116C33.1132 35.823 33.3131 35.4899 33.6906 35.4899Z" fill="#30485B"/>
<path d="M35.8891 37.2667C36.1111 37.4666 36.3554 37.5776 36.5775 37.5776C37.1327 37.5776 37.6212 37.0891 37.6212 36.2452C37.6212 35.4902 37.2659 35.0016 36.6663 35.0016C36.422 35.0016 36.1556 35.1349 35.9557 35.3125L35.9779 34.9128V34.0023H35.4005V37.511H35.8447L35.8891 37.2667ZM35.9557 35.7789C36.1333 35.6012 36.311 35.5124 36.4887 35.5124C36.8662 35.5124 37.0216 35.8011 37.0216 36.2896C37.0216 36.8448 36.7773 37.1335 36.4442 37.1335C36.311 37.1335 36.1333 37.0891 35.9557 36.9336V35.7789Z" fill="#30485B"/>
<path d="M39.4867 37.2665L39.5533 37.533H40.0196V36.0895C40.0196 35.4011 39.7087 35.0236 39.1091 35.0236C38.7316 35.0236 38.3763 35.179 38.1098 35.3345L38.3097 35.712C38.5317 35.5787 38.7538 35.4677 38.9981 35.4677C39.3312 35.4677 39.4422 35.6898 39.4422 35.9563C38.4429 36.0673 37.9988 36.3338 37.9988 36.8667C37.9988 37.2887 38.2875 37.5774 38.7316 37.5774C38.9981 37.5996 39.2646 37.4441 39.4867 37.2665ZM38.554 36.8223C38.554 36.5781 38.776 36.4004 39.4422 36.3116V36.8667C39.2646 37.0444 39.1091 37.1332 38.9093 37.1332C38.7094 37.1332 38.554 37.0444 38.554 36.8223Z" fill="#30485B"/>
<path d="M41.3965 37.1333C41.3299 37.1333 41.2632 37.0889 41.2632 36.9334V34.0243H40.6859V36.9112C40.6859 37.3331 40.8413 37.5996 41.241 37.5996C41.3743 37.5996 41.4853 37.5774 41.5519 37.5552L41.4853 37.1333C41.4409 37.1333 41.4187 37.1333 41.3965 37.1333Z" fill="#30485B"/>
<path d="M43.5061 36.6447H44.5942L44.8385 37.533H45.4603L44.3944 34.2686H43.706L42.64 37.533H43.2396L43.5061 36.6447ZM43.7504 35.8008C43.8614 35.4455 43.9502 35.0902 44.0391 34.7349H44.0613C44.1501 35.0902 44.2611 35.4677 44.35 35.8008L44.461 36.2006H43.6393L43.7504 35.8008Z" fill="#30485B"/>
<path d="M47.4146 36.9112C47.2813 37.0222 47.1037 37.1332 46.9038 37.1332C46.5263 37.1332 46.2598 36.8001 46.2598 36.3116C46.2598 35.823 46.5263 35.4899 46.926 35.4899C47.0815 35.4899 47.1925 35.5565 47.3258 35.6676L47.6144 35.29C47.4368 35.1346 47.2147 35.0236 46.9038 35.0236C46.2598 35.0236 45.6824 35.4899 45.6824 36.3116C45.6824 37.1332 46.1932 37.5996 46.8594 37.5996C47.1481 37.5996 47.4368 37.5107 47.6589 37.2887L47.4146 36.9112Z" fill="#30485B"/>
<path d="M49.9684 36.0895C49.9684 35.4011 49.6575 35.0236 49.0579 35.0236C48.6581 35.0236 48.325 35.179 48.0586 35.3345L48.2806 35.712C48.5027 35.5787 48.7248 35.4677 48.969 35.4677C49.3021 35.4677 49.4132 35.6898 49.4132 35.9563C48.4139 36.0673 47.9697 36.3338 47.9697 36.8667C47.9697 37.2887 48.2584 37.5774 48.7026 37.5774C48.9912 37.5774 49.2355 37.4441 49.4576 37.2443H49.4798L49.5242 37.5107H49.9906V36.0895H49.9684ZM49.391 36.889C49.2133 37.0666 49.0579 37.1554 48.858 37.1554C48.6581 37.1554 48.5027 37.0666 48.5027 36.8445C48.5027 36.6003 48.7248 36.4226 49.391 36.3338V36.889Z" fill="#30485B"/>
<path d="M52.7221 37.533V34.0243H52.1447V34.9126L52.1669 35.3123C51.9671 35.1569 51.8116 35.0458 51.5229 35.0458C50.9899 35.0458 50.4792 35.5344 50.4792 36.3338C50.4792 37.1333 50.8789 37.6218 51.4785 37.6218C51.745 37.6218 51.9893 37.4886 52.1669 37.2887H52.1891L52.2335 37.5552H52.7221V37.533ZM52.1447 36.8446C51.9893 37.0444 51.8338 37.1111 51.634 37.1111C51.2786 37.1111 51.0788 36.8224 51.0788 36.2894C51.0788 35.7564 51.3453 35.49 51.6562 35.49C51.8116 35.49 51.9893 35.5344 52.1447 35.6898V36.8446Z" fill="#30485B"/>
<path d="M55.1426 36.9778C54.965 37.0888 54.7873 37.1554 54.5652 37.1554C54.1655 37.1554 53.899 36.9112 53.8546 36.467H55.4091C55.4313 36.4004 55.4313 36.2894 55.4313 36.1783C55.4313 35.4899 55.076 35.0236 54.4098 35.0236C53.8324 35.0236 53.2772 35.5121 53.2772 36.3116C53.2772 37.111 53.8102 37.5996 54.4764 37.5996C54.7873 37.5996 55.076 37.4885 55.3203 37.3331L55.1426 36.9778ZM54.432 35.4677C54.7651 35.4677 54.9427 35.6898 54.9427 36.0673H53.8546C53.899 35.6898 54.1433 35.4677 54.432 35.4677Z" fill="#30485B"/>
<path d="M57.4521 37.533H58.0295V35.823C58.2294 35.6232 58.3848 35.5121 58.5403 35.5121C58.8067 35.5121 58.9178 35.6676 58.9178 36.0673V37.533H59.4952V36.0007C59.4952 35.3789 59.2509 35.0236 58.7401 35.0236C58.4292 35.0236 58.185 35.2234 57.9629 35.4677C57.8518 35.2012 57.652 35.0236 57.2967 35.0236C56.9858 35.0236 56.7415 35.2012 56.5416 35.4233H56.5194L56.475 35.0902H56.0087V37.533H56.5861V35.823C56.7859 35.6232 56.9414 35.5121 57.0968 35.5121C57.3633 35.5121 57.4743 35.6676 57.4743 36.0673V37.533H57.4521Z" fill="#30485B"/>
<path d="M60.7832 37.6662C60.6943 37.9105 60.5611 38.0882 60.2946 38.0882C60.228 38.0882 60.1614 38.066 60.117 38.0437L60.0059 38.4879C60.0948 38.5101 60.1836 38.5323 60.3168 38.5323C60.8498 38.5323 61.1163 38.1992 61.3161 37.644L62.2044 35.0902H61.6492L61.2939 36.2894C61.2273 36.5115 61.1607 36.7557 61.1163 36.9778H61.0941C61.0274 36.7335 60.9608 36.5115 60.872 36.2894L60.4501 35.0902H59.8727L60.8276 37.5108L60.7832 37.6662Z" fill="#30485B"/>
<path d="M63.8256 34.8238V35.0903L63.4925 35.1125V35.5345H63.8256V37.5331H64.403V35.5345H64.8915V35.0681H64.403V34.8016C64.403 34.5129 64.514 34.3797 64.7139 34.3797C64.8027 34.3797 64.8915 34.4019 64.9804 34.4463L65.0914 34.0244C64.9804 33.98 64.8249 33.9355 64.6473 33.9355C64.0477 33.9578 63.8256 34.3131 63.8256 34.8238Z" fill="#30485B"/>
<path d="M66.2461 35.0236C65.6465 35.0236 65.0913 35.4899 65.0913 36.3116C65.0913 37.1332 65.6465 37.5996 66.2461 37.5996C66.8457 37.5996 67.4008 37.1332 67.4008 36.3116C67.423 35.4899 66.8679 35.0236 66.2461 35.0236ZM66.2461 37.111C65.8908 37.111 65.6687 36.7779 65.6687 36.2894C65.6687 35.8008 65.8908 35.4677 66.2461 35.4677C66.6014 35.4677 66.8235 35.8008 66.8235 36.2894C66.8235 36.7779 66.6014 37.111 66.2461 37.111Z" fill="#30485B"/>
<path d="M68.5112 35.5121L68.4446 35.068H67.9783V37.5107H68.5557V36.0229C68.7111 35.6454 68.9332 35.5121 69.133 35.5121C69.2441 35.5121 69.2885 35.5343 69.3773 35.5565L69.4661 35.068C69.3995 35.0236 69.3107 35.0236 69.1997 35.0236C68.9554 35.0236 68.6889 35.2012 68.5112 35.5121Z" fill="#30485B"/>
<path d="M71.5314 34.2686L70.4655 37.533H71.065L71.3093 36.6447H72.3975L72.6417 37.533H73.2635L72.1976 34.2686H71.5314ZM71.4426 36.2006L71.5536 35.8008C71.6646 35.4455 71.7535 35.0902 71.8423 34.7349H71.8645C71.9533 35.0902 72.0644 35.4677 72.1532 35.8008L72.2642 36.2006H71.4426Z" fill="#30485B"/>
<path d="M74.1518 35.5121L74.0852 35.068H73.6188V37.5107H74.1962V36.0229C74.3517 35.6454 74.5737 35.5121 74.7736 35.5121C74.8846 35.5121 74.9291 35.5343 75.0179 35.5565L75.1067 35.068C75.0401 35.0236 74.9513 35.0236 74.8402 35.0236C74.5737 35.0236 74.3295 35.2012 74.1518 35.5121Z" fill="#30485B"/>
<path d="M76.3059 35.0236C75.9061 35.0236 75.573 35.179 75.3065 35.3345L75.5286 35.712C75.7507 35.5787 75.9728 35.4677 76.217 35.4677C76.5501 35.4677 76.6612 35.6898 76.6612 35.9563C75.6619 36.0673 75.2177 36.3338 75.2177 36.8667C75.2177 37.2887 75.5064 37.5774 75.9505 37.5774C76.2392 37.5774 76.4835 37.4441 76.7056 37.2443H76.7278L76.7722 37.5107H77.2386V36.0673C77.2163 35.4011 76.9277 35.0236 76.3059 35.0236ZM76.6612 36.8667C76.4835 37.0444 76.3281 37.1332 76.1282 37.1332C75.9283 37.1332 75.7729 37.0444 75.7729 36.8223C75.7729 36.5781 75.995 36.4004 76.6612 36.3116V36.8667Z" fill="#30485B"/>
<path d="M79.1706 35.0238C78.9263 35.0238 78.6598 35.1571 78.46 35.3347L78.4822 34.935V34.0023H77.9048V37.511H78.3489L78.3933 37.2445H78.4155C78.6154 37.4444 78.8597 37.5554 79.0818 37.5554C79.6147 37.5554 80.1255 37.0669 80.1255 36.223C80.1477 35.5124 79.7924 35.0238 79.1706 35.0238ZM78.9707 37.1113C78.8375 37.1113 78.6598 37.0669 78.4822 36.9114V35.7789C78.6598 35.6012 78.8375 35.5124 79.0151 35.5124C79.3927 35.5124 79.5481 35.8011 79.5481 36.2896C79.5481 36.8226 79.3038 37.1113 78.9707 37.1113Z" fill="#30485B"/>
<path d="M81.0138 34.0023C80.814 34.0023 80.6585 34.1356 80.6585 34.3354C80.6585 34.5353 80.814 34.6685 81.0138 34.6685C81.2137 34.6685 81.3691 34.5353 81.3691 34.3354C81.3691 34.1356 81.2137 34.0023 81.0138 34.0023Z" fill="#30485B"/>
<path d="M81.3024 35.0902H80.725V37.533H81.3024V35.0902Z" fill="#30485B"/>
<path d="M83.1012 37.1111C82.7237 37.1111 82.4572 36.778 82.4572 36.2895C82.4572 35.8009 82.7237 35.4678 83.1234 35.4678C83.2789 35.4678 83.3899 35.5344 83.5231 35.6455L83.8118 35.2679C83.6342 35.1125 83.4121 35.0015 83.1012 35.0015C82.4572 35.0015 81.8798 35.4678 81.8798 36.2895C81.8798 37.1111 82.3906 37.5775 83.0568 37.5775C83.3455 37.5775 83.6342 37.4886 83.8562 37.2666L83.612 36.8891C83.4787 37.0223 83.3011 37.1111 83.1012 37.1111Z" fill="#30485B"/>
<path d="M85.9437 34.2686H85.3663V37.533H87.2983V37.0444H85.9437V34.2686Z" fill="#30485B"/>
<path d="M88.7863 35.0236C88.3865 35.0236 88.0534 35.179 87.7869 35.3345L88.009 35.712C88.2311 35.5787 88.4532 35.4677 88.6974 35.4677C89.0305 35.4677 89.1416 35.6898 89.1416 35.9563C88.1423 36.0673 87.6981 36.3338 87.6981 36.8667C87.6981 37.2887 87.9868 37.5774 88.4309 37.5774C88.7196 37.5774 88.9639 37.4441 89.186 37.2443H89.2082L89.2526 37.5107H89.719V36.0673C89.6967 35.4011 89.4081 35.0236 88.7863 35.0236ZM89.1194 36.8667C88.9417 37.0444 88.7863 37.1332 88.5864 37.1332C88.3865 37.1332 88.2311 37.0444 88.2311 36.8223C88.2311 36.5781 88.4532 36.4004 89.1194 36.3116V36.8667Z" fill="#30485B"/>
<path d="M91.7176 35.0236C91.3845 35.0236 91.1402 35.2012 90.9182 35.4233H90.896L90.8515 35.0902H90.3852V37.533H90.9626V35.823C91.1624 35.6232 91.2957 35.5121 91.5178 35.5121C91.7842 35.5121 91.8953 35.6676 91.8953 36.0673V37.533H92.4727V36.0007C92.4727 35.3789 92.2506 35.0236 91.7176 35.0236Z" fill="#30485B"/>
<path d="M94.449 37.1554H94.0049C93.7162 37.1554 93.6051 37.0666 93.6051 36.9334C93.6051 36.8223 93.6496 36.7557 93.7162 36.6891C93.8272 36.7335 93.9383 36.7557 94.0493 36.7557C94.56 36.7557 94.982 36.467 94.982 35.9118C94.982 35.7342 94.9154 35.6009 94.8487 35.5121H95.2929V35.0902H94.4268C94.3158 35.0458 94.2047 35.0236 94.0715 35.0236C93.5607 35.0236 93.0944 35.3345 93.0944 35.9118C93.0944 36.2005 93.2498 36.4448 93.4275 36.5558V36.5781C93.2943 36.6669 93.161 36.8445 93.161 37.0444C93.161 37.2443 93.2498 37.3775 93.3831 37.4441V37.4663C93.161 37.5996 93.0278 37.7772 93.0278 37.9771C93.0278 38.399 93.4719 38.6211 94.0493 38.6211C94.8487 38.6211 95.3595 38.2436 95.3595 37.755C95.3373 37.3331 95.0264 37.1554 94.449 37.1554ZM94.0715 35.4233C94.3158 35.4233 94.4934 35.6009 94.4934 35.9118C94.4934 36.2227 94.2936 36.4004 94.0715 36.4004C93.8272 36.4004 93.6496 36.2227 93.6496 35.9118C93.6274 35.6009 93.8272 35.4233 94.0715 35.4233ZM94.1159 38.2436C93.7384 38.2436 93.4941 38.1103 93.4941 37.8883C93.4941 37.7772 93.5607 37.6662 93.694 37.5552C93.7828 37.5774 93.8938 37.5996 94.0271 37.5996H94.3602C94.6489 37.5996 94.7821 37.6662 94.7821 37.8438C94.7821 38.0437 94.5156 38.2436 94.1159 38.2436Z" fill="#30485B"/>
<path d="M97.2471 36.7557C97.0694 37 96.914 37.0888 96.7141 37.0888C96.4476 37.0888 96.3366 36.9334 96.3366 36.5337V35.068H95.7592V36.6003C95.7592 37.2221 95.9813 37.5774 96.5143 37.5774C96.8474 37.5774 97.0916 37.4219 97.2915 37.1555H97.3137L97.3581 37.5108H97.8245V35.068H97.2471V36.7557Z" fill="#30485B"/>
<path d="M99.5123 35.0236C99.1125 35.0236 98.7794 35.179 98.513 35.3345L98.735 35.712C98.9571 35.5787 99.1792 35.4677 99.4234 35.4677C99.7566 35.4677 99.8676 35.6898 99.8676 35.9563C98.8683 36.0673 98.4241 36.3338 98.4241 36.8667C98.4241 37.2887 98.7128 37.5774 99.157 37.5774C99.4457 37.5774 99.6899 37.4441 99.912 37.2443H99.9342L99.9786 37.5107H100.445V36.0673C100.423 35.4011 100.112 35.0236 99.5123 35.0236ZM99.8454 36.8667C99.6677 37.0444 99.5123 37.1332 99.3124 37.1332C99.1126 37.1332 98.9571 37.0444 98.9571 36.8223C98.9571 36.5781 99.1792 36.4004 99.8454 36.3116V36.8667Z" fill="#30485B"/>
<path d="M102.377 37.1554H101.933C101.644 37.1554 101.533 37.0666 101.533 36.9334C101.533 36.8223 101.577 36.7557 101.644 36.6891C101.755 36.7335 101.866 36.7557 101.977 36.7557C102.488 36.7557 102.91 36.467 102.91 35.9118C102.91 35.7342 102.843 35.6009 102.777 35.5121H103.221V35.0902H102.355C102.266 35.0458 102.133 35.0236 101.999 35.0236C101.489 35.0236 101.022 35.3345 101.022 35.9118C101.022 36.2005 101.178 36.4448 101.355 36.5558V36.5781C101.222 36.6669 101.089 36.8445 101.089 37.0444C101.089 37.2443 101.178 37.3775 101.311 37.4441V37.4663C101.089 37.5996 100.956 37.7772 100.956 37.9771C100.956 38.399 101.4 38.6211 101.977 38.6211C102.777 38.6211 103.287 38.2436 103.287 37.755C103.265 37.3331 102.954 37.1554 102.377 37.1554ZM101.999 35.4233C102.244 35.4233 102.421 35.6009 102.421 35.9118C102.421 36.2227 102.221 36.4004 101.999 36.4004C101.755 36.4004 101.577 36.2227 101.577 35.9118C101.577 35.6009 101.755 35.4233 101.999 35.4233ZM102.044 38.2436C101.666 38.2436 101.422 38.1103 101.422 37.8883C101.422 37.7772 101.489 37.6662 101.622 37.5552C101.711 37.5774 101.822 37.5996 101.955 37.5996H102.288C102.577 37.5996 102.71 37.6662 102.71 37.8438C102.71 38.0437 102.443 38.2436 102.044 38.2436Z" fill="#30485B"/>
<path d="M104.598 35.0236C104.02 35.0236 103.465 35.5121 103.465 36.3116C103.465 37.111 103.998 37.5996 104.664 37.5996C104.975 37.5996 105.264 37.4885 105.508 37.3331L105.308 36.9778C105.131 37.0888 104.953 37.1554 104.731 37.1554C104.331 37.1554 104.065 36.9112 104.02 36.467H105.575C105.597 36.4004 105.597 36.2894 105.597 36.1783C105.597 35.4899 105.242 35.0236 104.598 35.0236ZM104.02 36.0673C104.065 35.6676 104.331 35.4677 104.598 35.4677C104.931 35.4677 105.108 35.6898 105.108 36.0673H104.02Z" fill="#30485B"/>
<path d="M5.11023 12.1061H17.5017C18.0347 11.773 18.4122 11.2622 18.6121 10.596C18.6565 10.2629 18.6565 9.90759 18.6565 9.57448V9.15255C18.6121 8.50854 18.4788 7.75351 18.2568 6.88743L18.0791 6.84302L17.1464 8.21985C17.4573 9.3302 17.635 10.1297 17.7016 10.6626H5.11023C4.31078 10.6626 3.57794 10.5738 2.86732 10.3739C1.62373 9.97421 0.979723 9.19696 0.979723 8.08661V7.75351L0.824274 7.68688C0.602204 8.08661 0.468962 8.55296 0.424548 9.10813V9.35241C0.402341 11.1734 1.97904 12.1061 5.11023 12.1061Z" fill="#30485B"/>
<path d="M10.0179 7.50929C9.97349 7.42046 9.57377 7.17619 8.77431 6.70984C8.75211 6.70984 8.70769 6.70984 8.68549 6.73205C8.33017 7.19839 8.13031 7.55371 8.13031 7.8646V7.88681C8.92976 8.39757 9.3517 8.64185 9.41832 8.64185C9.6848 8.41978 9.86246 8.04226 10.0179 7.50929Z" fill="#30485B"/>
<path d="M44.4166 10.7294C44.5721 10.3741 44.6609 9.88556 44.6831 9.21935V8.39769L44.5277 8.30886L43.5728 9.30818L43.595 10.685C42.5068 10.6406 41.885 10.5074 41.7296 10.3297L42.1959 8.44211L42.0627 8.37548L41.1966 9.19714L40.7747 10.6628H37.9988C38.1987 10.3741 38.3541 10.0854 38.443 9.79673C38.554 9.53025 38.5984 9.24156 38.5984 8.97507L38.443 8.90845C38.1987 9.30818 37.8878 9.66349 37.5547 9.9966C37.1994 10.3075 36.7108 10.5518 36.0446 10.6628H34.4679C33.9127 10.6628 33.5352 10.4629 33.3353 10.0854C33.1355 9.70791 32.98 8.95287 32.8912 7.86472C32.8024 6.75437 32.6913 5.44416 32.5359 3.93408H32.3804L31.692 5.11105C31.8475 6.59892 31.9585 7.77589 32.0029 8.61976C32.0473 9.26376 32.114 9.79673 32.1806 10.1965C31.9807 10.5296 31.4477 10.685 30.6039 10.685H30.0931C29.8933 10.6406 29.7156 10.5962 29.5379 10.5074C28.7163 10.041 28.2943 9.3748 28.2943 8.50873V8.02017C28.2943 7.97576 28.2055 7.93134 28.0057 7.90914C27.4283 7.90914 26.8065 8.08679 26.1403 8.4199C25.6517 8.61976 25.1854 9.01949 24.7412 9.66349C24.3859 10.3519 23.6975 10.7072 22.7204 10.7072H22.6538C22.6316 10.7072 22.6316 10.685 22.6316 10.685H22.4317C21.8765 10.685 21.499 10.4852 21.2991 10.1076C21.0993 9.73011 20.9438 8.97507 20.855 7.88693C20.7662 6.77658 20.6551 5.46637 20.4997 3.95629H20.322L19.6558 5.13326C19.8113 6.62113 19.9001 7.7981 19.9667 8.64197C20.0333 9.50804 20.1222 10.1298 20.211 10.5518C20.3664 11.1069 20.6551 11.4845 21.0549 11.751C21.388 11.9952 21.8099 12.1285 22.2985 12.1507L22.3207 12.1729H22.6094C22.7648 12.1729 23.0313 12.1063 23.4088 11.973C23.8307 11.8398 24.1638 11.4401 24.4081 10.796C24.4303 10.9293 24.5858 11.1292 24.9189 11.4178C25.6295 11.862 26.651 12.3061 28.0279 12.7059C28.1833 12.7059 28.3832 12.4394 28.6275 11.8842C28.9828 12.0841 29.4269 12.1729 29.9599 12.1729H30.3152C30.6483 12.1729 30.9148 12.1285 31.1368 12.0396C31.5366 11.9064 31.9363 11.5511 32.3804 10.9515C32.5581 11.3068 32.7802 11.5955 33.0911 11.7732C33.4242 12.0174 33.8683 12.1507 34.3791 12.1729H35.9336C36.3999 12.0618 36.7774 11.862 36.9995 11.5955L37.1994 12.1729H40.1307L40.7747 11.5511C41.2188 11.9508 42.0405 12.1507 43.2397 12.1729H43.5506C43.9725 11.6843 44.239 11.218 44.4166 10.7294ZM27.7614 10.9071C26.4956 10.4407 25.7628 10.0854 25.5407 9.79673V9.75232C25.9626 9.55246 26.54 9.39701 27.2728 9.28597C27.3394 9.28597 27.4061 9.33039 27.4727 9.39701V9.79673C27.4727 10.152 27.5837 10.5074 27.7836 10.8627V10.9071H27.7614Z" fill="#30485B"/>
<path d="M53.9434 9.28581L53.9878 9.30801C54.6762 8.9305 55.0093 8.41973 55.0093 7.79794C55.0093 7.42042 54.4764 7.22056 53.4104 7.22056C54.01 6.82083 54.5874 6.62097 55.1426 6.62097H55.3425C55.6756 6.62097 55.8532 6.75421 55.8532 7.02069H55.8754C56.1419 6.70979 56.2751 6.44331 56.2751 6.22124C56.2751 5.93255 56.0753 5.7771 55.6756 5.7771H55.4313C54.7651 5.7771 54.0544 6.06579 53.3438 6.64317C52.8553 7.10952 52.611 7.46483 52.611 7.77573V7.86456C52.611 7.9978 52.722 8.06442 52.9663 8.06442H53.1884C53.7658 8.06442 54.1877 8.17546 54.4764 8.37532C54.0322 8.6418 53.3882 8.77505 52.5444 8.77505C52.1002 8.75284 51.5895 8.70843 51.0565 8.6418L51.0121 8.66401V8.68622C51.8782 9.15257 52.7442 9.37464 53.6769 9.37464C53.7658 9.37464 53.8324 9.33022 53.9434 9.28581Z" fill="#30485B"/>
<path d="M53.1884 12.1061H57.4743C57.9629 11.773 58.3848 11.3511 58.7179 10.8625C58.94 11.773 59.2953 12.417 59.8283 12.8167C60.0725 13.0388 60.3834 13.1721 60.7387 13.1721C60.9164 13.1721 61.0941 13.1498 61.2939 13.1054C61.4716 12.9944 61.6492 12.7945 61.8047 12.5503C61.9601 12.306 62.0267 11.8841 62.0267 11.2845V11.0846C62.4931 11.6842 63.0483 12.0173 63.6701 12.0839C63.7811 12.1061 63.8921 12.1061 64.0254 12.1061H64.1586L64.1808 12.0839C64.4473 12.0617 64.6916 12.0395 64.9803 11.9507C65.5355 11.6842 65.9574 11.5509 66.2683 11.5287H66.3127C66.6458 11.5287 67.2676 11.773 68.1781 12.2838H68.2891C68.5556 11.7064 68.7333 11.2845 68.7777 11.0402C68.7999 10.9958 68.7999 10.9291 68.7999 10.8625C68.7999 10.8181 68.7999 10.7737 68.7777 10.7515C68.6666 10.6405 68.4668 10.5072 68.2003 10.3518C67.6229 10.1297 67.2454 9.88542 67.0455 9.61894C66.8457 9.35245 66.668 8.48638 66.557 6.9763L66.9123 7.15396H67.0011L67.6229 5.93257V5.79933L66.3793 4.97767C65.9796 4.80001 65.7797 4.51132 65.7797 4.15601V4.00056L65.6687 3.91173L65.5799 4.04498C65.2024 4.60015 65.0025 5.08871 65.0025 5.46622V5.62167C65.0025 5.88816 65.2468 6.13243 65.7353 6.39892C65.9574 8.70845 66.0906 9.97425 66.1128 10.1741C65.5799 10.485 64.9581 10.6183 64.2697 10.6183H64.0032C63.9143 10.6183 63.8033 10.6183 63.6479 10.596C63.2481 10.5294 62.9594 10.3518 62.7818 10.0409C62.5597 9.66335 62.2488 7.6203 61.8713 3.88953H61.7159L61.0274 5.0665C61.3605 8.10886 61.5382 9.88542 61.5604 10.374C61.516 10.8403 61.4494 11.1734 61.4049 11.3955C61.3383 11.6176 61.1829 11.7286 60.9164 11.7286C60.4501 11.7286 60.0947 11.4621 59.8283 10.9069C59.5618 10.3518 59.2731 8.02003 58.9622 3.88953H58.7845L58.0517 5.0665L58.3626 8.57521C58.407 9.21921 58.4736 9.75218 58.5402 10.1519C58.3626 10.485 57.8518 10.6405 56.9858 10.6405H53.1884C52.3889 10.6405 51.6561 10.5516 50.9454 10.374C49.7019 9.97425 49.0579 9.197 49.0579 8.08665V7.75355L48.9024 7.68692C48.6803 8.08665 48.5471 8.553 48.5027 9.10817V9.35245C48.4805 11.1956 50.035 12.1061 53.1884 12.1061Z" fill="#30485B"/>
<path d="M70.4877 12.1063C70.843 11.3956 71.065 10.7072 71.1761 10.0188C71.1761 9.0639 70.9318 7.04306 70.4654 3.93408H70.2434L69.4883 5.46637C69.9991 8.68638 70.2656 10.9071 70.2656 12.1285H70.4877V12.1063Z" fill="#30485B"/>
<path d="M94.3158 11.129C95.2263 10.5294 95.8703 10.2185 96.2922 10.1963C96.381 10.8625 96.5143 11.2844 96.6475 11.5065C96.8252 11.9062 97.4026 12.1061 98.3575 12.1061H99.6455C100.067 12.1061 100.445 12.0394 100.778 11.9284C100.978 11.773 101.156 11.5953 101.333 11.3954C101.489 11.1956 101.666 10.9513 101.866 10.6404C101.955 10.7292 102.244 10.8847 102.688 11.1068C103.643 11.5065 104.331 11.7285 104.731 11.7952C104.842 11.7952 105.108 11.351 105.575 10.485V9.95199C105.419 8.13101 104.931 7.22053 104.131 7.22053H104.087C103.176 7.22053 102.333 8.17543 101.577 10.063C101.289 10.4627 100.623 10.6626 99.5789 10.6626H97.6913C97.4026 10.6626 97.1361 10.4627 96.914 10.0852H98.1354L98.8682 8.7084L98.8238 8.59736H98.4907C97.7579 8.59736 96.7141 8.3975 95.3817 8.01998C95.2263 7.97556 94.9376 7.90894 94.5156 7.79791C94.0937 7.68687 93.7384 7.64246 93.4497 7.64246H93.4275C92.6725 7.64246 92.0729 7.93115 91.6509 8.50853C91.4067 8.86384 91.229 9.21916 91.1402 9.57447L91.2956 9.64109C91.5843 9.26357 92.0063 9.06371 92.5392 9.06371H92.7169C93.0278 9.06371 93.4497 9.13033 94.0049 9.26357C94.5601 9.39681 94.871 9.48564 94.9598 9.50785C93.9605 10.1296 92.6725 10.5072 91.0292 10.6182H90.2075L90.1853 10.6404H90.1631C89.941 10.596 89.7189 10.5294 89.5191 10.4627C88.6974 9.9964 88.2755 9.33019 88.2755 8.46412V8.01998C88.2755 7.97556 88.1867 7.93115 87.9868 7.90894C87.4094 7.90894 86.7876 8.0866 86.1214 8.4197C85.6328 8.61957 85.1665 9.01929 84.7224 9.6633C84.367 10.3517 83.6786 10.707 82.7015 10.707H82.5905L82.5683 10.6848H81.2803C80.1699 10.6848 79.4593 10.5516 79.1484 10.2629L79.0818 10.1963L79.5481 10.0186C80.4364 9.70771 80.9027 9.50785 80.9472 9.44123L81.5023 8.19763L81.3247 8.0866C80.0811 8.61957 78.9485 9.13033 77.8826 9.61888C77.5051 9.57447 77.0165 9.3524 76.4169 8.95267C75.7951 8.50853 75.5064 8.13101 75.5064 7.79791C75.9062 7.26494 76.6168 6.99846 77.6161 6.99846C78.0158 6.99846 78.571 7.06508 79.3038 7.22053H79.3261L79.4593 7.02066L79.3927 6.90963C78.571 6.199 77.9714 5.79928 77.5495 5.71045C76.9721 5.71045 76.4169 5.95473 75.884 6.46549C75.24 7.24273 74.9069 7.97556 74.9069 8.68619C74.9069 9.48564 75.462 10.1519 76.5724 10.6626C75.9506 11.2844 75.5509 11.884 75.351 12.4614C75.1511 13.0388 75.0623 13.5051 75.0623 13.7938V14.4156C75.0845 14.7043 75.1733 15.0152 75.351 15.3705C75.8396 16.1922 77.0387 16.6141 78.9485 16.6141C79.9478 16.6141 80.6807 16.4586 81.1692 16.17L82.4572 15.3483V15.1484H79.5259C78.1713 15.1484 77.1498 14.8819 76.4836 14.3712C76.0172 13.9937 75.7729 13.5495 75.7729 12.9943C75.7729 12.9055 75.7729 12.7945 75.7951 12.7057C76.1282 12.0839 76.4836 11.6619 76.8833 11.4177C77.3496 10.9957 77.927 10.6404 78.6376 10.3073C78.6598 10.7736 78.7265 11.0845 78.7931 11.24C79.0818 11.773 79.859 12.0394 81.1026 12.0394H82.6127C82.7681 12.0394 83.0346 11.9728 83.4566 11.8396C83.8785 11.7063 84.2116 11.3066 84.4559 10.6626C84.4781 10.7959 84.6335 10.9957 84.9666 11.2844C85.6773 11.7285 86.6988 12.1727 88.0756 12.5724C88.2311 12.5724 88.4309 12.3059 88.6752 11.7508C89.0305 11.9506 89.4747 12.0394 90.0076 12.0394H91.0958C92.3172 12.0617 93.4053 11.7285 94.3158 11.129ZM103.643 8.46412C104.087 8.50853 104.442 9.10812 104.664 10.2629C103.865 10.0408 103.176 9.72992 102.555 9.3524C102.843 8.81943 103.199 8.53074 103.643 8.46412ZM87.7425 10.9069C86.4767 10.4405 85.7439 10.0852 85.5218 9.79654V9.75213C85.9437 9.55226 86.5211 9.39681 87.254 9.28578C87.3206 9.28578 87.3872 9.33019 87.4538 9.39681V9.79654C87.4538 10.1519 87.5649 10.5072 87.7647 10.8625V10.9069H87.7425Z" fill="#30485B"/>
<path d="M94.3158 12.8612C93.9826 13.3275 93.805 13.6606 93.805 13.9049C93.8272 13.9493 93.8272 13.9715 93.8272 13.9715C94.6044 14.4379 95.0264 14.6821 95.0708 14.6821H95.1152C95.4705 14.2158 95.6482 13.8383 95.6482 13.5718C95.6482 13.557 95.6408 13.5422 95.626 13.5274C95.4705 13.4163 95.0708 13.1721 94.4046 12.7723C94.3824 12.7945 94.3602 12.8168 94.3158 12.8612Z" fill="#30485B"/>
<path d="M2.46756 18.7682C1.71252 18.3019 1.26838 18.0576 1.17956 18.0576C0.890864 18.3685 0.691001 18.746 0.602173 19.1902C0.668794 19.3012 1.09073 19.5677 1.89018 20.0118C1.9568 19.9896 2.13446 19.7676 2.42315 19.3012C3.13377 19.7453 3.5335 19.9674 3.62233 19.9674H3.66674C4.02205 19.5233 4.19971 19.168 4.19971 18.9015V18.8571C4.19971 18.7904 3.79998 18.524 2.95612 18.0576C2.82287 18.0576 2.64522 18.3019 2.46756 18.7682Z" fill="#30485B"/>
<path d="M19.5003 27.3845C19.3671 27.3845 19.1894 27.6288 18.9673 28.0951C18.1901 27.651 17.7904 27.4067 17.7904 27.3845C17.746 27.3845 17.7237 27.3845 17.6793 27.4067C17.324 27.8953 17.1464 28.2728 17.1464 28.4949V28.5171C17.1908 28.5837 17.6127 28.8502 18.39 29.2943C18.612 29.0945 18.7675 28.8724 18.8785 28.6059V28.5837C19.6558 29.0278 20.0777 29.2721 20.0777 29.2943L20.1443 29.2721C20.5218 28.8058 20.6995 28.4283 20.6995 28.1618V28.1396C20.7217 28.1396 20.322 27.8731 19.5003 27.3845Z" fill="#30485B"/>
<path d="M26.5843 24.3644C26.5843 23.676 26.2957 22.8765 25.7405 21.966H25.6294L24.9632 23.2762C25.4296 24.2311 25.6739 24.7641 25.6739 24.8974H24.0972C23.6086 24.8974 23.2533 24.8085 23.009 24.6309C22.7647 24.4754 22.6093 24.2534 22.4983 23.9869C22.6315 23.6538 22.7203 23.3873 22.8092 23.1652L22.2318 22.9209C21.61 24.2311 20.8327 24.8974 19.9 24.8974H6.5092C6.22051 24.8751 5.84299 24.6753 5.39885 24.2756C4.97692 23.8536 4.66602 22.9876 4.44395 21.6995C4.37733 20.9001 4.31071 20.5004 4.2885 20.5004L4.24409 20.5226C3.91098 20.9667 3.75553 21.3664 3.75553 21.6995V21.9216L3.77774 21.966C3.68891 22.0104 3.6667 22.0549 3.6667 22.0771C2.22325 22.6989 1.446 23.1208 1.29055 23.3651C0.824206 23.9425 0.513308 24.6309 0.380066 25.4303V25.5192C0.380066 25.83 0.690964 25.9855 1.29055 25.9855C2.44532 25.9855 3.31139 25.7856 3.86657 25.3637C4.08864 25.1194 4.22188 24.8529 4.26629 24.5865H4.2885C4.73264 25.7634 5.46547 26.3408 6.48699 26.3408H19.789C20.1443 26.2964 20.4552 26.2298 20.6995 26.1409C21.2102 25.9633 21.6544 25.5414 21.9875 24.8529H22.0097C22.0097 24.9862 22.0541 25.1638 22.1651 25.3859C22.5205 26.0077 23.0534 26.3186 23.7641 26.3408H25.9625C26.3179 25.3859 26.5399 24.7419 26.5843 24.3644ZM2.11221 24.5198H1.73469C1.53483 24.5198 1.35717 24.4976 1.15731 24.4532V24.431C1.17952 24.3866 1.31276 24.2978 1.55704 24.1645C2.48973 23.8092 3.11153 23.5205 3.42243 23.2984C3.60008 23.1208 3.77774 22.9209 3.88877 22.6767C3.88877 22.8765 3.9776 23.3207 4.13305 24.0313C3.57788 24.3644 2.91167 24.5198 2.11221 24.5198Z" fill="#30485B"/>
<path d="M24.5414 28.2951V28.3839C24.5858 28.4727 25.0077 28.7392 25.785 29.1833C25.9626 29.1833 26.1625 28.8058 26.4068 28.0286C26.2735 27.8953 25.8738 27.6511 25.1632 27.2291C24.9633 27.2291 24.7412 27.5844 24.5414 28.2951Z" fill="#30485B"/>
<path d="M40.3527 18.102L40.3971 17.8577L40.2417 17.7689C39.8197 18.3241 39.5977 18.8349 39.5977 19.279C39.5977 19.7453 39.8197 20.1007 40.2639 20.3671C40.7302 22.6767 40.9745 24.1867 40.9745 24.8752H39.1535C38.5539 24.8752 38.0876 24.7197 37.7323 24.3866C37.9765 23.9647 38.1098 23.565 38.1098 23.2318V23.1208C38.1098 23.0542 38.0876 22.9432 38.0654 22.8099C37.7323 22.2547 37.2215 21.9883 36.5109 21.9883H36.2222C35.7336 21.9883 35.2451 22.0993 34.7343 22.3436C34.5345 22.7655 34.3568 23.2096 34.2013 23.6538L34.268 23.7204C34.4456 23.676 34.6233 23.6538 34.7565 23.6538C35.2673 23.6538 35.7558 23.9203 36.2222 24.4754C35.4671 24.7419 34.5567 24.8752 33.4463 24.8752H32.9355C31.8696 24.7641 31.27 24.1423 31.1368 23.032H30.9369C30.6926 23.4761 30.515 23.8981 30.4262 24.32C30.4706 24.9196 30.7815 25.4303 31.3811 25.8523L31.2478 26.1632C30.4928 27.4734 29.3824 28.1174 27.9612 28.1174C27.517 28.0952 27.0729 28.0064 26.6288 27.8509L26.5621 28.1396C27.8279 28.8946 28.7162 29.2722 29.227 29.3166C29.4268 29.3166 29.6489 29.2944 29.8932 29.2277C30.0264 29.2055 30.3151 28.9613 30.7371 28.4727C31.4033 27.6066 31.8252 26.8294 32.0251 26.1188L32.2027 26.1854C32.4026 26.252 32.6024 26.2964 32.8245 26.2964H33.091C34.7121 26.2298 35.9779 25.8967 36.8884 25.2971C36.9106 25.2971 36.955 25.3415 37.0438 25.4525C37.377 26.0077 38.0432 26.2964 39.0647 26.2964H41.2632C41.6851 25.4525 41.885 24.6309 41.885 23.8314C41.885 23.143 41.7739 22.2547 41.5741 21.1444L41.7295 21.211L41.7961 21.1888L42.4179 19.923V19.812L41.5963 19.279C40.7524 18.9015 40.3527 18.4795 40.3527 18.102Z" fill="#30485B"/>
<path d="M44.3056 18.1909L43.5505 19.7232C44.0613 22.9432 44.3278 25.1639 44.3278 26.3853H44.5499C44.9052 25.6747 45.1272 24.9863 45.2383 24.2978C45.2383 23.3429 44.994 21.3221 44.5276 18.2131H44.3056V18.1909Z" fill="#30485B"/>
<path d="M50.9677 18.7682C50.2126 18.3019 49.7685 18.0576 49.6797 18.0576C49.391 18.3685 49.1911 18.746 49.1023 19.1902C49.1689 19.3012 49.5908 19.5677 50.3903 20.0118C50.4569 19.9896 50.6346 19.7676 50.9233 19.3012C51.6339 19.7453 52.0336 19.9674 52.1225 19.9674H52.1669C52.5222 19.5233 52.6998 19.168 52.6998 18.9015V18.8571C52.6998 18.7904 52.2779 18.524 51.4562 18.0576C51.323 18.0576 51.1453 18.3019 50.9677 18.7682Z" fill="#30485B"/>
<path d="M60.6722 19.1235C60.3835 19.4566 60.2058 19.8119 60.1392 20.1673V20.2783C60.8276 20.7224 61.2496 20.9667 61.3828 21.0111H61.4272C61.7159 20.678 61.8936 20.3227 61.9824 19.9674V19.8786C61.938 19.8341 61.5161 19.5677 60.7388 19.1013C60.7166 19.1013 60.6944 19.1235 60.6722 19.1235Z" fill="#30485B"/>
<path d="M69.8658 18.102L69.9102 17.8577L69.7548 17.7689C69.3329 18.3241 69.1108 18.8349 69.1108 19.279C69.1108 19.7453 69.3329 20.1007 69.777 20.3671C70.2433 22.6767 70.4876 24.1867 70.4876 24.8752H68.7111C68.1559 24.8752 67.7784 24.6753 67.5785 24.2978C67.3786 23.9203 67.2232 23.1652 67.1344 22.0771C67.0455 20.9667 66.9345 19.6565 66.7791 18.1464H66.6236L65.9352 19.3234C66.0906 20.8113 66.2017 21.9883 66.2461 22.8321C66.2905 23.4761 66.3571 24.0091 66.4237 24.4088C66.2239 24.7419 65.6909 24.8974 64.847 24.8974H64.4029C63.8033 24.8974 63.337 24.7419 62.9817 24.4088C63.2259 23.9869 63.3592 23.5872 63.3592 23.2541V23.143C63.3592 23.0764 63.337 22.9654 63.3148 22.8321C62.9817 22.2769 62.4709 22.0105 61.7603 22.0105H61.4716C60.983 22.0105 60.4945 22.1215 59.9837 22.3658C59.7838 22.7877 59.6062 23.2318 59.4507 23.676L59.5174 23.7426C59.695 23.6982 59.8727 23.676 60.0059 23.676C60.5167 23.676 61.0052 23.9425 61.4716 24.4976C60.7165 24.7641 59.8061 24.8974 58.6957 24.8974H55.0537C54.7651 24.8752 54.3875 24.6753 53.9434 24.2756C53.5215 23.8536 53.2106 22.9876 52.9885 21.6996C52.9219 20.9001 52.8553 20.5004 52.8108 20.5004L52.7664 20.5226C52.4333 20.9667 52.2779 21.3665 52.2779 21.6996V21.9216L52.3001 21.966C52.2113 22.0105 52.189 22.0549 52.189 22.0771C50.7456 22.6989 49.9683 23.1208 49.8129 23.3651C49.3465 23.9425 49.0356 24.6309 48.9024 25.4303V25.5192C48.9024 25.8301 49.2133 25.9855 49.8129 25.9855C50.9677 25.9855 51.8337 25.7857 52.3889 25.3637C52.611 25.1194 52.7442 24.853 52.7886 24.5865H52.8108C53.255 25.7634 53.9878 26.3408 55.0093 26.3408H58.296C59.9171 26.2742 61.1829 25.9411 62.0934 25.3415C62.1156 25.3415 62.16 25.4081 62.2488 25.497C62.5819 26.0521 63.2481 26.3408 64.2697 26.3408H64.6472C64.9581 26.3186 65.2246 26.2964 65.4466 26.2076C65.8464 26.0743 66.2461 25.719 66.6902 25.1194C66.8457 25.4748 67.0899 25.7634 67.4008 25.9411C67.734 26.1854 68.1781 26.3186 68.6889 26.3408H70.7319C71.1538 25.497 71.3537 24.6753 71.3537 23.8758C71.3537 23.1874 71.2427 22.2992 71.0428 21.1888L71.1982 21.2554L71.2649 21.2332L71.8867 19.9674V19.8564L71.065 19.3234C70.2878 18.9015 69.8658 18.4795 69.8658 18.102ZM50.6123 24.5199H50.2348C50.035 24.5199 49.8573 24.4976 49.6574 24.4532V24.431C49.6796 24.3866 49.8129 24.2978 50.0572 24.1645C50.9899 23.8092 51.6117 23.5205 51.9226 23.2985C52.1002 23.1208 52.2779 22.9209 52.3889 22.6767C52.3889 22.8765 52.4777 23.3207 52.6332 24.0313C52.078 24.3644 51.4118 24.5199 50.6123 24.5199Z" fill="#30485B"/>
<path d="M81.5245 29.2943C81.3469 29.472 81.1914 29.7162 81.0804 29.9605C81.0804 29.9753 81.073 29.9827 81.0582 29.9827C80.2809 29.5164 79.8812 29.2943 79.8368 29.2943L79.7924 29.3165C79.4371 29.7829 79.2594 30.1382 79.2594 30.4269V30.4935C80.0589 30.982 80.4808 31.2263 80.5474 31.2263C80.7473 31.0487 80.8805 30.8266 80.9915 30.5379H81.0138C81.8132 31.0042 82.2351 31.2263 82.2573 31.2263H82.3018C82.5682 30.8932 82.7681 30.5601 82.8347 30.2048V30.0049C82.0353 29.5164 81.6356 29.2721 81.5911 29.2721H81.5245V29.2943Z" fill="#30485B"/>
<path d="M89.3192 24.6087C88.7418 24.3867 88.3643 24.1424 88.1644 23.8759C87.9645 23.6316 87.7869 22.7433 87.6758 21.2333L88.0312 21.4109H88.12L88.7418 20.1895V20.0563L87.4982 19.2346C87.0985 19.057 86.8986 18.7683 86.8986 18.413V18.2575L86.7876 18.1687L86.6987 18.3019C86.3212 18.8571 86.1214 19.3457 86.1214 19.7232V19.8786C86.1214 20.1451 86.3656 20.3894 86.8542 20.6559C87.0763 22.9654 87.2095 24.2312 87.2317 24.4311C86.6987 24.742 86.0769 24.8752 85.3885 24.8752H83.1678L82.4794 26.2298L82.546 26.3187C83.079 26.3187 83.5231 26.3853 83.9007 26.4963C84.2782 26.6296 84.5447 26.9405 84.7445 27.4734H80.3031C79.5037 27.4734 78.7708 27.3846 78.0602 27.1847C76.8166 26.785 76.1726 26.0078 76.1726 24.8974V24.5865L76.0172 24.5199C75.7951 24.9196 75.6618 25.386 75.6174 25.9189V26.1632C75.6174 27.9842 77.1941 28.9169 80.3253 28.9169H84.2782C84.7667 28.4728 85.1442 28.0286 85.3885 27.5623C85.4551 27.429 85.5218 27.2958 85.5662 27.1847C85.6106 27.0737 85.6328 26.9405 85.6328 26.785C85.6328 26.6296 85.5662 26.4741 85.4329 26.2965H85.8993L86.0103 26.1854C86.0547 26.1632 86.0991 26.1632 86.1214 26.1632C86.6765 25.8967 87.0985 25.7635 87.4094 25.7413H87.4538C87.7869 25.7413 88.4087 25.9856 89.3192 26.4963H89.4302C89.6967 25.9189 89.8743 25.497 89.9188 25.2527C89.941 25.2083 89.941 25.1417 89.941 25.0751C89.941 25.0307 89.941 24.9863 89.9188 24.964C89.7855 24.8974 89.5856 24.7642 89.3192 24.6087Z" fill="#30485B"/>
<path d="M100.822 18.102L100.867 17.8577L100.711 17.7689C100.289 18.3241 100.067 18.8349 100.067 19.279C100.067 19.7453 100.289 20.1007 100.734 20.3671C101.2 22.6767 101.444 24.1867 101.444 24.8752H99.601C99.0014 24.8752 98.5351 24.7197 98.1798 24.3866C98.424 23.9647 98.5573 23.565 98.5573 23.2318V23.1208C98.5573 23.0542 98.5351 22.9432 98.5129 22.8099C98.1798 22.2547 97.669 21.9883 96.9584 21.9883H96.6697C96.1811 21.9883 95.6926 22.0993 95.1818 22.3436C94.9819 22.7655 94.8043 23.2096 94.6488 23.6538L94.7155 23.7204C94.8931 23.676 95.0708 23.6538 95.204 23.6538C95.7148 23.6538 96.2033 23.9203 96.6697 24.4754C95.9146 24.7419 94.9819 24.8752 93.8938 24.8752H93.3608C92.8057 24.8752 92.4281 24.6753 92.2283 24.2978C92.0284 23.9203 91.873 23.1652 91.7841 22.0771C91.6953 20.9667 91.5843 19.6565 91.4288 18.1464H91.2512L90.585 19.3234C90.7404 20.8113 90.8292 21.9883 90.8959 22.8321C90.9625 23.6982 91.0513 24.32 91.1401 24.7419C91.2956 25.2971 91.5843 25.6746 91.984 25.9411C92.3171 26.1854 92.739 26.3186 93.2276 26.3408L93.2498 26.363H93.5385C95.1374 26.2964 96.381 25.9633 97.2915 25.3637C97.3137 25.3637 97.3581 25.4081 97.4469 25.5192C97.78 26.0743 98.4462 26.363 99.4678 26.363H101.666C102.088 25.5192 102.288 24.6975 102.288 23.8981C102.288 23.2096 102.177 22.3214 101.977 21.211L102.133 21.2776L102.199 21.2554L102.821 19.9896V19.8786L101.999 19.3456C101.222 18.9015 100.822 18.4795 100.822 18.102Z" fill="#30485B"/>
<path d="M104.975 18.1909H104.753L103.998 19.7232C104.509 22.9432 104.775 25.1639 104.775 26.3853H104.997C105.353 25.6747 105.575 24.9863 105.686 24.2978C105.686 23.3207 105.442 21.2999 104.975 18.1909Z" fill="#30485B"/>
<path d="M129.469 38.7323C129.469 38.7323 132.156 41.6636 132.245 41.7747C133.511 40.0425 134.821 39.0432 134.821 39.0432L132.556 36.6671L134.866 34.4908C134.866 34.4908 132.467 31.4262 132.268 30.7378C132.268 30.7156 132.245 30.7378 132.245 30.7378C132.156 32.4699 129.625 34.2687 129.625 34.2687L131.735 36.6671L129.469 38.7323Z" fill="#30485B"/>
<path d="M115.457 27.5179C115.457 27.5179 114.258 31.3153 114.213 31.4485C116.345 31.6928 117.877 32.3146 117.877 32.3146L118.788 29.1612L121.83 30.0717C121.83 30.0717 123.296 26.4741 123.784 25.9412V25.919C122.23 26.6962 119.41 25.4082 119.41 25.4082L118.366 28.4284L115.457 27.5179Z" fill="#30485B"/>
<path d="M118.166 9.79663C118.166 9.79663 114.28 10.6627 114.147 10.6849C115.013 12.6613 115.235 14.2824 115.235 14.2824L118.432 13.5052L119.165 16.592C119.165 16.592 123.029 16.059 123.718 16.2145C123.733 16.2145 123.733 16.2071 123.718 16.1923C122.274 15.2373 121.963 12.1506 121.963 12.1506L118.832 12.7724L118.166 9.79663Z" fill="#30485B"/>
<path d="M134.866 3.2677C134.866 3.2677 132.179 0.336377 132.09 0.225342C130.824 1.95749 129.514 2.9568 129.514 2.9568L131.779 5.33295L129.469 7.50924C129.469 7.50924 131.868 10.5738 132.068 11.2622C132.068 11.2844 132.09 11.2622 132.09 11.2622C132.179 9.53008 134.71 7.73131 134.71 7.73131L132.601 5.33295L134.866 3.2677Z" fill="#30485B"/>
<path d="M148.878 14.4823C148.878 14.4823 150.078 10.6849 150.122 10.5516C147.99 10.3073 146.458 9.68555 146.458 9.68555L145.547 12.8389L142.505 11.9285C142.505 11.9285 141.039 15.526 140.551 16.059V16.0812C142.105 15.3039 144.926 16.5919 144.926 16.5919L145.969 13.5718L148.878 14.4823Z" fill="#30485B"/>
<path d="M146.191 32.2035C146.191 32.2035 150.078 31.3375 150.211 31.3153C149.345 29.3388 149.123 27.7177 149.123 27.7177L145.925 28.495L145.192 25.4082C145.192 25.4082 141.328 25.9412 140.64 25.7857C140.625 25.7857 140.625 25.7931 140.64 25.8079C142.083 26.7628 142.394 29.8496 142.394 29.8496L145.525 29.2278L146.191 32.2035Z" fill="#30485B"/>
<path d="M126.183 1.89094C126.338 1.93536 126.471 2.20184 126.583 2.66819C126.738 3.11233 126.738 3.37881 126.605 3.44543C126.605 3.44543 126.427 3.35661 126.072 3.20116C125.716 3.04571 125.428 3.0235 125.183 3.13454C124.695 3.37881 124.828 4.46696 125.561 6.37676C126.294 8.28656 126.56 9.26367 126.383 9.33029C126.183 9.44133 125.739 9.15264 125.095 8.50863C124.295 7.66477 123.429 7.1318 122.474 6.93194C122.474 7.02076 122.452 7.10959 122.43 7.22063C122.341 7.30945 122.008 7.35387 121.408 7.33166C120.809 7.30945 120.431 7.22063 120.298 7.04297C119.721 6.1769 119.632 5.62172 120.098 5.37744C120.92 4.9111 122.252 5.31082 124.118 6.59883C124.451 6.90973 124.873 7.22063 125.361 7.57594C125.006 6.66545 124.717 5.73276 124.428 4.80006C123.873 3.09012 123.918 2.09081 124.517 1.80212C124.939 1.55784 125.494 1.60225 126.183 1.89094Z" fill="#30485B"/>
<path d="M112.614 17.1916C112.725 17.0805 113.014 17.0805 113.48 17.236C113.947 17.3248 114.169 17.4581 114.169 17.6135C114.169 17.6135 114.013 17.7245 113.702 17.9466C113.392 18.1687 113.214 18.413 113.214 18.6795C113.192 19.2346 114.191 19.6566 116.212 19.9675C118.233 20.2784 119.21 20.5448 119.165 20.7447C119.165 20.989 118.699 21.211 117.811 21.4553C116.678 21.7218 115.79 22.2104 115.146 22.921C115.213 22.9654 115.301 23.032 115.368 23.0986C115.412 23.2097 115.257 23.5428 114.946 24.0535C114.635 24.5643 114.369 24.8308 114.124 24.8752C113.081 24.9418 112.57 24.742 112.592 24.2312C112.592 23.2985 113.614 22.3436 115.679 21.3665C116.101 21.2333 116.612 21.0334 117.145 20.7891C116.19 20.6337 115.235 20.4338 114.258 20.2117C112.503 19.8342 111.637 19.3012 111.704 18.635C111.704 18.1021 112.015 17.6357 112.614 17.1916Z" fill="#30485B"/>
<path d="M119.232 36.0897C119.188 35.9343 119.343 35.69 119.698 35.3569C120.009 35.0016 120.231 34.8683 120.365 34.9572C120.365 34.9572 120.387 35.157 120.409 35.5346C120.431 35.9121 120.564 36.1786 120.809 36.334C121.275 36.6227 122.141 35.9787 123.429 34.3798C124.717 32.7809 125.428 32.0703 125.583 32.2035C125.783 32.3367 125.761 32.8475 125.517 33.7358C125.183 34.8461 125.161 35.8677 125.45 36.7781C125.517 36.7337 125.605 36.6893 125.716 36.6671C125.827 36.6893 126.05 36.978 126.338 37.511C126.627 38.0439 126.738 38.4215 126.627 38.6213C126.161 39.5762 125.716 39.9093 125.295 39.6206C124.473 39.1543 124.162 37.7775 124.362 35.5123C124.451 35.0682 124.539 34.5352 124.584 33.9356C123.962 34.6907 123.318 35.4235 122.63 36.1341C121.408 37.4666 120.542 37.9329 119.987 37.5554C119.565 37.3555 119.321 36.8448 119.232 36.0897Z" fill="#30485B"/>
<path d="M138.708 39.7094C138.552 39.665 138.419 39.3985 138.308 38.9322C138.152 38.488 138.152 38.2216 138.286 38.1549C138.286 38.1549 138.463 38.2438 138.819 38.3992C139.174 38.5547 139.463 38.5769 139.707 38.4658C140.195 38.2216 140.062 37.1334 139.329 35.2236C138.597 33.3138 138.33 32.3367 138.508 32.2701C138.708 32.159 139.152 32.4477 139.796 33.0917C140.595 33.9356 141.461 34.4686 142.416 34.6684C142.416 34.5796 142.438 34.4908 142.461 34.3797C142.549 34.2909 142.882 34.2465 143.482 34.2687C144.082 34.2909 144.459 34.3797 144.592 34.5574C145.17 35.4235 145.259 35.9787 144.792 36.2229C143.971 36.6893 142.638 36.2895 140.773 34.9793C140.44 34.6684 140.018 34.3575 139.529 34.0022C139.885 34.9127 140.173 35.8454 140.462 36.7781C141.017 38.488 140.973 39.4874 140.373 39.7761C139.951 40.0425 139.374 39.9981 138.708 39.7094Z" fill="#30485B"/>
<path d="M151.965 24.8086C151.854 24.9196 151.565 24.9196 151.099 24.7642C150.633 24.6753 150.411 24.5421 150.411 24.3866C150.411 24.3866 150.566 24.2756 150.877 24.0535C151.188 23.8315 151.366 23.5872 151.366 23.3207C151.388 22.7655 150.388 22.3436 148.368 22.0327C146.347 21.7218 145.37 21.4553 145.414 21.2555C145.414 21.0112 145.88 20.7891 146.769 20.5448C147.901 20.2784 148.79 19.7898 149.434 19.0792C149.367 19.0348 149.278 18.9681 149.212 18.9015C149.167 18.7905 149.323 18.4574 149.633 17.9466C149.944 17.4359 150.211 17.1472 150.455 17.125C151.499 17.0583 152.01 17.2582 151.987 17.769C151.987 18.7017 150.966 19.6566 148.901 20.6337C148.479 20.7669 147.968 20.9668 147.435 21.211C148.39 21.3665 149.345 21.5664 150.322 21.7884C152.076 22.1659 152.942 22.6989 152.876 23.3651C152.876 23.8981 152.565 24.3644 151.965 24.8086Z" fill="#30485B"/>
<path d="M145.614 5.97702C145.658 6.13247 145.503 6.37675 145.148 6.70985C144.837 7.06517 144.615 7.19841 144.481 7.10958C144.481 7.10958 144.459 6.90972 144.437 6.5322C144.415 6.15468 144.282 5.88819 144.037 5.73274C143.571 5.44405 142.705 6.08806 141.417 7.68696C140.129 9.28587 139.418 9.99649 139.263 9.86325C139.063 9.73001 139.085 9.21925 139.329 8.33097C139.663 7.22061 139.685 6.19909 139.396 5.2886C139.329 5.33302 139.241 5.37743 139.13 5.39964C139.019 5.37743 138.796 5.08874 138.508 4.55577C138.219 4.02281 138.108 3.66749 138.219 3.44542C138.685 2.49052 139.13 2.15742 139.551 2.44611C140.373 2.91245 140.684 4.28929 140.506 6.5544C140.418 6.99854 140.329 7.53151 140.284 8.1311C140.906 7.37606 141.55 6.64323 142.239 5.93261C143.46 4.60019 144.326 4.13384 144.881 4.51136C145.281 4.73343 145.525 5.24419 145.614 5.97702Z" fill="#30485B"/>
<path d="M140.329 23.6316C140.151 23.5206 139.818 23.3651 139.352 23.2097C138.685 22.9876 137.753 22.8322 136.665 23.0098C136.287 23.0764 135.909 23.1653 135.488 23.3207C135.443 23.3429 135.421 23.3429 135.377 23.3651C135.177 23.4318 134.955 23.5428 134.755 23.6316C134.577 23.7205 134.399 23.8093 134.222 23.9203C133.822 24.1646 133.422 24.4311 133.045 24.7198C132.667 22.4769 132.867 19.1014 132.867 19.1014C132.934 18.9015 133.089 18.8793 133.156 18.6573C133.222 18.4796 133.111 18.3019 133.111 18.3019C133.866 18.5906 134.311 19.279 134.333 20.5448C134.888 19.5677 134.844 18.6128 133.844 17.7912C134.644 17.991 135.332 18.413 135.465 20.1007C136.043 18.524 135.332 17.1694 134 16.8807C135.177 16.9695 135.998 17.6579 136.331 19.1236C136.598 17.8578 136.198 16.3255 134.133 15.9924C134.977 15.837 135.732 15.9702 136.331 16.6142C135.865 15.7481 135.221 15.1041 133.911 15.2818C134.044 15.0153 134.488 14.8376 135.265 14.7266C134.577 14.5045 133.933 14.4379 133.333 14.9265C133.4 14.5934 133.667 14.3047 134.044 14.0382C133.533 14.0826 133.023 14.2603 132.734 14.7932C132.712 14.3491 132.667 13.9938 132.467 13.7273C132.379 13.8605 132.312 14.016 132.268 14.1936C132.223 14.3713 132.223 14.5712 132.201 14.7932C131.912 14.2603 131.401 14.0826 130.891 14.0382C131.268 14.2825 131.535 14.5712 131.601 14.9265C131.002 14.4379 130.336 14.5045 129.669 14.7266C130.447 14.8376 130.891 15.0153 131.024 15.2818C129.714 15.1041 129.07 15.7481 128.603 16.6142C129.203 15.9702 129.958 15.837 130.802 15.9924C128.714 16.3255 128.337 17.8578 128.603 19.1236C128.936 17.6579 129.736 16.9695 130.935 16.8807C129.603 17.1916 128.892 18.524 129.469 20.1007C129.603 18.3908 130.291 17.991 131.091 17.7912C130.091 18.5906 130.047 19.5677 130.602 20.5448C130.624 19.279 131.091 18.5684 131.823 18.3019C131.823 18.3019 131.712 18.4796 131.779 18.6573C131.846 18.8793 132.001 18.9015 132.068 19.1014C132.068 19.1014 132.245 22.4991 131.89 24.7198C131.135 24.1424 130.358 23.6316 129.58 23.3429C129.492 23.2985 129.381 23.2763 129.292 23.2541C128.492 22.9876 127.737 22.921 127.093 22.9432C126.05 22.9876 125.272 23.2985 124.828 23.5206C124.739 23.565 124.673 23.6094 124.606 23.6316C124.584 23.6538 124.606 23.676 124.628 23.676C124.695 23.6538 124.762 23.6316 124.828 23.6094C125.628 23.3873 126.383 23.3207 127.093 23.3873C127.871 23.454 128.603 23.676 129.292 23.9869C130.247 24.4089 131.113 25.0307 131.89 25.6747C130.78 26.6296 129.847 27.5845 129.292 27.8954C129.27 27.9176 129.225 27.9176 129.203 27.9398C129.07 27.7621 128.825 27.6511 128.581 27.6955C128.359 27.7399 128.181 27.9176 128.115 28.1396C128.07 28.3395 128.115 28.5616 128.226 28.6726C128.537 28.9835 128.87 28.9835 129.27 28.8281C130.025 28.5172 130.98 27.4956 132.157 26.4297C132.245 26.3409 132.356 26.2521 132.445 26.1632C132.556 26.2521 132.645 26.3409 132.734 26.4297C133.267 26.9183 133.755 27.3846 134.2 27.7843C134.377 27.9398 134.555 28.0952 134.733 28.2507C134.999 28.4727 135.243 28.6282 135.465 28.7614C135.909 29.0057 136.309 29.0279 136.642 28.7392C136.665 28.717 136.687 28.717 136.687 28.6948C136.753 28.6282 136.842 28.3617 136.798 28.1619C136.776 28.0508 136.709 27.9398 136.62 27.8732C136.531 27.8065 136.442 27.7399 136.331 27.7177C136.065 27.6511 135.843 27.7621 135.71 27.962C135.643 27.9176 135.554 27.8732 135.465 27.8065C135.265 27.6511 134.999 27.4512 134.733 27.207C134.577 27.0515 134.399 26.8961 134.2 26.7406C133.844 26.4075 133.445 26.0522 133.023 25.6747C133.4 25.3638 133.778 25.0529 134.2 24.7864C134.377 24.6754 134.555 24.5643 134.733 24.4533C134.977 24.32 135.221 24.1868 135.465 24.0536C135.843 23.8759 136.22 23.7205 136.642 23.6094C137.486 23.3651 138.374 23.2985 139.329 23.4318C139.64 23.4762 139.973 23.565 140.284 23.6538C140.351 23.676 140.351 23.6316 140.329 23.6316Z" fill="#30485B"/>
</g>
<defs>
<clipPath id="clip0_0_309">
<rect width="152.5" height="41.5493" fill="white" transform="translate(0.380066 0.225342)"/>
</clipPath>
</defs>
</svg>
