<svg width="52" height="62" viewBox="0 0 52 62" fill="none" xmlns="http://www.w3.org/2000/svg">
<g clip-path="url(#clip0_0_390)">
<path d="M1.65877 59.1927H1.46216C1.46216 59.1927 1.42529 59.1988 1.41301 59.2172C1.40072 59.2295 1.39457 59.248 1.39457 59.2664V60.3048C1.35156 60.3048 1.29012 60.3171 1.21639 60.3171C1.14266 60.3171 1.0505 60.3232 0.933757 60.3232C0.847738 60.3232 0.767864 60.3109 0.694133 60.2802C0.620403 60.2495 0.552816 60.2003 0.497518 60.1327C0.44222 60.0651 0.399211 59.9791 0.36849 59.8747C0.337769 59.7702 0.319336 59.6412 0.319336 59.4937V59.0083C0.319336 58.8486 0.337769 58.7134 0.374634 58.6028C0.411499 58.4922 0.454509 58.4124 0.515951 58.3448C0.577393 58.2833 0.644979 58.2342 0.71871 58.2096C0.798585 58.185 0.878459 58.1727 0.964478 58.1727C1.04435 58.1727 1.11194 58.1727 1.17338 58.1727C1.23482 58.1727 1.29012 58.1727 1.34542 58.1727C1.40072 58.1727 1.44987 58.1727 1.49902 58.1789C1.54818 58.1789 1.59733 58.185 1.65263 58.1912H1.66492C1.69564 58.1912 1.71407 58.1789 1.71407 58.1543V57.97C1.71407 57.97 1.71407 57.9393 1.69564 57.927C1.68335 57.9208 1.67106 57.9147 1.65263 57.9147C1.58504 57.9024 1.49288 57.8901 1.38228 57.8778C1.27169 57.8655 1.13037 57.8594 0.964478 57.8594C0.847738 57.8594 0.730998 57.8778 0.614258 57.9147C0.497518 57.9515 0.393067 58.013 0.300904 58.099C0.20874 58.185 0.13501 58.3018 0.0735678 58.4492C0.0121257 58.5967 -0.0124512 58.7749 -0.0124512 58.9961V59.4814C-0.0124512 59.6903 0.0182699 59.8624 0.0735678 60.0098C0.128866 60.1573 0.202596 60.2679 0.288615 60.3601C0.374634 60.4461 0.479086 60.5137 0.589681 60.5505C0.700277 60.5936 0.817017 60.612 0.927613 60.612C1.09965 60.612 1.24097 60.612 1.35156 60.5936C1.46216 60.5813 1.56047 60.569 1.65263 60.5567C1.69564 60.5505 1.72022 60.5198 1.72022 60.4768V59.2541C1.72022 59.2541 1.72022 59.2172 1.70178 59.205C1.6895 59.1927 1.67106 59.1804 1.65263 59.1804" fill="#30485B"/>
<path d="M3.5881 58.8056C3.52051 58.7319 3.44063 58.6766 3.34233 58.6336C3.24402 58.5906 3.12728 58.5721 2.99825 58.5721C2.73405 58.5721 2.53744 58.6459 2.40226 58.7995C2.26709 58.9531 2.19336 59.162 2.19336 59.42V59.7457C2.19336 59.9116 2.21794 60.0529 2.26709 60.1635C2.31624 60.2741 2.37769 60.3663 2.45142 60.4277C2.52515 60.4953 2.61731 60.5383 2.71562 60.569C2.81392 60.5997 2.91838 60.612 3.02283 60.612C3.14571 60.612 3.25631 60.612 3.36076 60.5936C3.46521 60.5813 3.56966 60.569 3.66797 60.5506C3.69869 60.5506 3.71712 60.5383 3.72327 60.526C3.73556 60.5137 3.73556 60.4953 3.73556 60.4707V60.3478C3.73556 60.3478 3.73556 60.3171 3.71712 60.3048C3.70484 60.2987 3.69255 60.2925 3.68026 60.2925H3.66183C3.57581 60.3048 3.4775 60.3171 3.35462 60.3232C3.23788 60.3294 3.12114 60.3355 3.01668 60.3355C2.85079 60.3355 2.72176 60.2925 2.64189 60.2004C2.55587 60.1082 2.51286 59.9607 2.51286 59.7457V59.6965H3.72327C3.76628 59.6965 3.79085 59.672 3.79085 59.6167V59.42C3.79085 59.291 3.77242 59.1743 3.7417 59.0698C3.70484 58.9654 3.65568 58.8732 3.59424 58.7995M3.47136 59.4569H2.50671V59.4262C2.50671 59.2296 2.54972 59.0883 2.6296 58.9961C2.71562 58.9039 2.83236 58.8609 2.99211 58.8609C3.15186 58.8609 3.2686 58.9039 3.34847 58.99C3.42835 59.076 3.46521 59.2234 3.46521 59.4323V59.4631L3.47136 59.4569Z" fill="#30485B"/>
<path d="M5.13033 58.5784C5.01974 58.5784 4.92143 58.5907 4.83541 58.6214C4.74939 58.6521 4.65723 58.6951 4.55278 58.7504V58.6828C4.55278 58.6828 4.54663 58.646 4.53434 58.6337C4.52205 58.6214 4.50362 58.6091 4.48519 58.6091H4.30086C4.30086 58.6091 4.264 58.6152 4.25171 58.6337C4.23942 58.646 4.23328 58.6644 4.23328 58.6828V60.5322C4.23328 60.5322 4.23942 60.5691 4.25171 60.5814C4.264 60.5937 4.28243 60.606 4.30086 60.606H4.47904C4.47904 60.606 4.51591 60.5998 4.5282 60.5814C4.54049 60.5691 4.55278 60.5507 4.55278 60.5322V59.0023C4.63879 58.9593 4.71867 58.9286 4.80469 58.8979C4.88456 58.8733 4.96444 58.861 5.04431 58.861C5.1119 58.861 5.17334 58.8671 5.22249 58.8856C5.27165 58.904 5.31466 58.9286 5.34538 58.9655C5.3761 59.0023 5.40068 59.0515 5.41911 59.1129C5.43754 59.1744 5.44369 59.2542 5.44369 59.3403V60.5322C5.44369 60.5322 5.44983 60.5691 5.46826 60.5814C5.48055 60.5937 5.49898 60.606 5.51742 60.606H5.68945C5.68945 60.606 5.72632 60.5998 5.73861 60.5814C5.7509 60.5691 5.76319 60.5507 5.76319 60.5322V59.3403C5.76319 59.1006 5.71403 58.9102 5.60958 58.7811C5.51127 58.6521 5.35152 58.5845 5.13033 58.5845" fill="#30485B"/>
<path d="M7.58801 58.8056C7.52043 58.7319 7.44055 58.6766 7.34225 58.6336C7.24394 58.5906 7.1272 58.5721 6.99203 58.5721C6.72782 58.5721 6.53121 58.6459 6.39604 58.7995C6.26086 58.9531 6.18713 59.162 6.18713 59.42V59.7457C6.18713 59.9116 6.21171 60.0529 6.26086 60.1635C6.31002 60.2741 6.37146 60.3663 6.44519 60.4277C6.51892 60.4891 6.61108 60.5383 6.70939 60.569C6.8077 60.5997 6.91215 60.612 7.0166 60.612C7.13949 60.612 7.25008 60.612 7.35453 60.5936C7.45899 60.5813 7.56344 60.569 7.66174 60.5506C7.69247 60.5506 7.7109 60.5383 7.71704 60.526C7.72933 60.5137 7.72933 60.4953 7.72933 60.4707V60.3478C7.72933 60.3478 7.72319 60.3171 7.7109 60.3048C7.69861 60.2987 7.68632 60.2925 7.67403 60.2925H7.6556C7.56958 60.3048 7.47127 60.3171 7.34839 60.3232C7.22551 60.3294 7.11491 60.3355 7.01046 60.3355C6.84456 60.3355 6.71554 60.2925 6.63566 60.2004C6.55579 60.1082 6.50663 59.9607 6.50663 59.7457V59.6965H7.71704C7.76005 59.6965 7.78463 59.672 7.78463 59.6167V59.42C7.78463 59.291 7.7662 59.1743 7.73548 59.0698C7.69861 58.9654 7.64946 58.8732 7.58187 58.7995M7.47127 59.4569H6.50663V59.4262C6.50663 59.2296 6.54964 59.0883 6.62952 58.9961C6.71554 58.9039 6.83228 58.8609 6.99203 58.8609C7.15178 58.8609 7.26852 58.9039 7.34839 58.99C7.42826 59.076 7.46513 59.2234 7.46513 59.4323V59.4631L7.47127 59.4569Z" fill="#30485B"/>
<path d="M9.04427 58.5783C8.9644 58.5783 8.87838 58.5906 8.79236 58.6152C8.70634 58.6398 8.62032 58.6889 8.52816 58.7504V58.6705C8.52816 58.6705 8.52201 58.6336 8.50973 58.6213C8.49744 58.6091 8.479 58.5968 8.46057 58.5968H8.28853C8.28853 58.5968 8.25167 58.6029 8.23938 58.6213C8.22709 58.6336 8.22095 58.6521 8.22095 58.6705V60.5199C8.22095 60.5199 8.22709 60.5568 8.23938 60.5691C8.25167 60.5813 8.2701 60.5936 8.28853 60.5936H8.46672C8.46672 60.5936 8.50358 60.5875 8.51587 60.5691C8.52816 60.5568 8.54045 60.5383 8.54045 60.5199V59.0023C8.63261 58.947 8.71863 58.9101 8.7985 58.8855C8.87838 58.861 8.95825 58.8487 9.04427 58.8487C9.09343 58.8487 9.118 58.8302 9.118 58.7872V58.6336C9.118 58.5906 9.09343 58.566 9.04427 58.566" fill="#30485B"/>
<path d="M10.0519 58.5784C9.929 58.5784 9.82454 58.5784 9.73238 58.5907C9.64636 58.6029 9.56034 58.6091 9.48661 58.6214C9.43746 58.6275 9.41288 58.6521 9.41288 58.689V58.818C9.41288 58.818 9.41903 58.8549 9.43132 58.8671C9.4436 58.8733 9.46204 58.8794 9.47432 58.8794H9.49276C9.56649 58.8794 9.64636 58.8671 9.73853 58.861C9.83069 58.8549 9.929 58.8487 10.0519 58.8487C10.1932 58.8487 10.2976 58.8794 10.3529 58.9409C10.4144 59.0023 10.439 59.1068 10.439 59.2604V59.4078H10.1686C10.0089 59.4078 9.86755 59.4201 9.75696 59.4447C9.64636 59.4693 9.5542 59.5061 9.48661 59.5553C9.41903 59.6045 9.36987 59.6659 9.33915 59.7396C9.30843 59.8134 9.29614 59.8994 9.29614 59.9977V60.0407C9.29614 60.1574 9.31458 60.2496 9.3453 60.3233C9.37602 60.3971 9.41903 60.4585 9.47432 60.5077C9.52962 60.5568 9.59106 60.5875 9.66479 60.606C9.73853 60.6244 9.81226 60.6305 9.88599 60.6305C9.99044 60.6305 10.0826 60.6121 10.1748 60.5814C10.2669 60.5445 10.3529 60.5076 10.4451 60.4524V60.5322C10.4451 60.5322 10.4513 60.5691 10.4697 60.5814C10.482 60.5937 10.5004 60.606 10.5188 60.606H10.6847C10.6847 60.606 10.7216 60.5998 10.7339 60.5814C10.7462 60.5691 10.7585 60.5507 10.7585 60.5322V59.2665C10.7585 59.0515 10.7032 58.8856 10.5926 58.7688C10.482 58.646 10.3038 58.5907 10.0519 58.5907M10.439 60.2189C10.3529 60.268 10.2669 60.3049 10.1932 60.3295C10.1133 60.354 10.0334 60.3663 9.94743 60.3663C9.84298 60.3663 9.75696 60.3418 9.70166 60.2987C9.64636 60.2557 9.61564 60.1636 9.61564 60.0345V59.9915C9.61564 59.9239 9.62179 59.8687 9.64022 59.8256C9.65865 59.7826 9.68323 59.7458 9.72624 59.715C9.76925 59.6843 9.82455 59.6659 9.89828 59.6536C9.97201 59.6413 10.0642 59.6352 10.1686 59.6352H10.439V60.2189Z" fill="#30485B"/>
<path d="M11.5449 57.8717H11.3545C11.3545 57.8717 11.3176 57.8778 11.3053 57.8901C11.293 57.9024 11.2869 57.9209 11.2869 57.9393V60.526C11.2869 60.526 11.2869 60.5629 11.3053 60.5752C11.3176 60.5874 11.336 60.5997 11.3545 60.5997H11.5449C11.5449 60.5997 11.5818 60.5936 11.5941 60.5752C11.6064 60.5629 11.6125 60.5444 11.6125 60.526V57.9393C11.6125 57.9393 11.6125 57.9024 11.5941 57.8901C11.5818 57.8778 11.5695 57.8717 11.5449 57.8717Z" fill="#30485B"/>
<path d="M14.5494 57.8962C14.5125 57.8962 14.4633 57.8962 14.4019 57.884C14.3466 57.884 14.2852 57.884 14.2176 57.8778C14.15 57.8778 14.0885 57.8778 14.021 57.8778C13.9534 57.8778 13.8919 57.8778 13.8428 57.8778C13.5847 57.8778 13.3942 57.927 13.2652 58.0314C13.1362 58.1359 13.0686 58.3079 13.0686 58.5475V59.9484C13.0686 60.188 13.1362 60.3601 13.2652 60.4707C13.3942 60.5751 13.5847 60.6243 13.8428 60.6243H14.0271C14.0947 60.6243 14.1623 60.6243 14.2299 60.6243C14.2974 60.6243 14.3589 60.6243 14.4142 60.6243C14.4695 60.6243 14.5186 60.6243 14.5494 60.612C14.5616 60.612 14.5678 60.6058 14.5739 60.5936C14.5739 60.5813 14.5862 60.5751 14.5862 60.5628V60.3785C14.5862 60.3785 14.5739 60.3355 14.5494 60.3355H13.8489C13.7506 60.3355 13.6769 60.3293 13.6154 60.3171C13.5601 60.3048 13.511 60.2802 13.4803 60.2495C13.4495 60.2188 13.425 60.1819 13.4188 60.1327C13.4065 60.0836 13.4004 60.0283 13.4004 59.9546V59.3401H14.5125C14.5125 59.3401 14.5494 59.334 14.5616 59.3156C14.5739 59.3033 14.5862 59.2848 14.5862 59.2664V59.1312C14.5862 59.1312 14.5801 59.0944 14.5616 59.0821C14.5494 59.0698 14.5309 59.0636 14.5125 59.0636H13.4004V58.5598C13.4004 58.4922 13.4004 58.4369 13.4188 58.3878C13.4373 58.3386 13.4495 58.3018 13.4803 58.271C13.511 58.2403 13.554 58.2219 13.6154 58.2035C13.6769 58.1912 13.7506 58.185 13.8489 58.185H14.5494C14.5494 58.185 14.5862 58.1727 14.5862 58.142V57.9638C14.5862 57.9638 14.5862 57.9393 14.5739 57.9331C14.5678 57.9208 14.5616 57.9147 14.5494 57.9147" fill="#30485B"/>
<path d="M15.9318 58.5784C15.8212 58.5784 15.7229 58.5907 15.6369 58.6214C15.5509 58.6521 15.4526 58.6951 15.3543 58.7504V58.6828C15.3543 58.6828 15.3481 58.646 15.3359 58.6337C15.3236 58.6214 15.3051 58.6091 15.2867 58.6091H15.1024C15.1024 58.6091 15.0655 58.6152 15.0532 58.6337C15.0409 58.646 15.0348 58.6644 15.0348 58.6828V60.5322C15.0348 60.5322 15.0348 60.5691 15.0532 60.5814C15.0655 60.5937 15.0839 60.606 15.1024 60.606H15.2806C15.2806 60.606 15.3174 60.5998 15.3297 60.5814C15.342 60.5691 15.3543 60.5507 15.3543 60.5322V59.0023C15.4403 58.9593 15.5202 58.9286 15.6062 58.8979C15.6861 58.8733 15.766 58.861 15.8458 58.861C15.9134 58.861 15.9749 58.8671 16.024 58.8856C16.0732 58.904 16.1162 58.9286 16.1469 58.9655C16.1776 59.0023 16.2022 59.0515 16.2206 59.1129C16.2391 59.1744 16.2452 59.2542 16.2452 59.3403V60.5322C16.2452 60.5322 16.2513 60.5691 16.2698 60.5814C16.2821 60.5937 16.3005 60.606 16.3189 60.606H16.491C16.491 60.606 16.5278 60.5998 16.5401 60.5814C16.5524 60.5691 16.5586 60.5507 16.5586 60.5322V59.3403C16.5586 59.1006 16.5094 58.9102 16.4049 58.7811C16.3066 58.6521 16.1469 58.5845 15.9257 58.5845" fill="#30485B"/>
<path d="M17.9655 60.3602H17.7628C17.689 60.3602 17.6399 60.3479 17.6092 60.3233C17.5785 60.2987 17.5662 60.2311 17.5662 60.1328V58.8671H17.9594C17.9594 58.8671 17.9963 58.861 18.0085 58.8425C18.0208 58.8302 18.0331 58.8118 18.0331 58.7934V58.6705C18.0331 58.6705 18.027 58.6336 18.0147 58.6213C18.0024 58.6091 17.984 58.5968 17.9655 58.5968H17.5723V58.2035C17.5723 58.2035 17.5723 58.1667 17.5539 58.1605C17.5416 58.1482 17.5293 58.1421 17.517 58.1421H17.5047L17.3143 58.1728C17.2712 58.179 17.2467 58.2035 17.2467 58.2465V58.6029H16.8964C16.8473 58.6029 16.8289 58.6275 16.8289 58.6705V58.7688C16.8289 58.8057 16.8534 58.8302 16.8964 58.8364L17.2467 58.8733V60.139C17.2467 60.2373 17.259 60.3171 17.2774 60.3786C17.2958 60.44 17.3265 60.4892 17.3695 60.526C17.4064 60.5629 17.4617 60.5875 17.5232 60.5998C17.5846 60.6121 17.6583 60.6182 17.7443 60.6182C17.7812 60.6182 17.8181 60.6182 17.8611 60.6182C17.9041 60.6182 17.9471 60.6121 17.9778 60.6059C18.0208 60.5998 18.0454 60.5752 18.0454 60.5445V60.4155C18.0454 60.3786 18.0208 60.3663 17.9717 60.3663" fill="#30485B"/>
<path d="M19.7167 58.8056C19.6491 58.7319 19.5692 58.6766 19.4709 58.6336C19.3726 58.5906 19.2559 58.5721 19.1207 58.5721C18.8626 58.5721 18.6599 58.6459 18.5247 58.7995C18.3895 58.9531 18.3158 59.162 18.3158 59.42V59.7457C18.3158 59.9116 18.3404 60.0529 18.3895 60.1635C18.4387 60.2741 18.5001 60.3663 18.5739 60.4277C18.6476 60.4953 18.7397 60.5383 18.8381 60.569C18.9364 60.5997 19.0408 60.612 19.1453 60.612C19.2681 60.612 19.3787 60.612 19.4832 60.5936C19.5876 60.5813 19.6921 60.569 19.7904 60.5506C19.8211 60.5506 19.8396 60.5383 19.8457 60.526C19.858 60.5137 19.858 60.4953 19.858 60.4707V60.3478C19.858 60.3478 19.858 60.3171 19.8396 60.3048C19.8273 60.2987 19.815 60.2925 19.8027 60.2925H19.7843C19.6982 60.3048 19.5999 60.3171 19.4771 60.3232C19.3603 60.3294 19.2436 60.3355 19.1391 60.3355C18.9732 60.3355 18.8442 60.2925 18.7643 60.2004C18.6783 60.1082 18.6353 59.9607 18.6353 59.7457V59.6965H19.8457C19.8887 59.6965 19.9133 59.672 19.9133 59.6167V59.42C19.9133 59.291 19.8949 59.1743 19.8641 59.0698C19.8273 58.9654 19.7781 58.8732 19.7167 58.7995M19.5938 59.4569H18.6292V59.4262C18.6292 59.2296 18.6722 59.0883 18.752 58.9961C18.8381 58.9039 18.9548 58.8609 19.1145 58.8609C19.2743 58.8609 19.391 58.9039 19.4709 58.99C19.5508 59.076 19.5876 59.2234 19.5876 59.4323V59.4631L19.5938 59.4569Z" fill="#30485B"/>
<path d="M21.1729 58.5783C21.093 58.5783 21.007 58.5906 20.9271 58.6152C20.8411 58.6398 20.7551 58.6889 20.6629 58.7504V58.6705C20.6629 58.6705 20.6568 58.6336 20.6445 58.6213C20.6322 58.6091 20.6138 58.5968 20.5953 58.5968H20.4233C20.4233 58.5968 20.3864 58.6029 20.3741 58.6213C20.3619 58.6336 20.3557 58.6521 20.3557 58.6705V60.5199C20.3557 60.5199 20.3619 60.5568 20.3741 60.5691C20.3864 60.5813 20.4049 60.5936 20.4233 60.5936H20.6015C20.6015 60.5936 20.6383 60.5875 20.6506 60.5691C20.6629 60.5568 20.6752 60.5383 20.6752 60.5199V59.0023C20.7674 58.947 20.8534 58.9101 20.9333 58.8855C21.0131 58.861 21.093 58.8487 21.179 58.8487C21.2282 58.8487 21.2528 58.8302 21.2528 58.7872V58.6336C21.2528 58.5906 21.2282 58.566 21.179 58.566" fill="#30485B"/>
<path d="M22.5799 60.3602H22.3772C22.3034 60.3602 22.2543 60.3479 22.2236 60.3233C22.1928 60.2987 22.1805 60.2311 22.1805 60.1328V58.8671H22.5738C22.5738 58.8671 22.6106 58.861 22.6229 58.8425C22.6352 58.8302 22.6475 58.8118 22.6475 58.7934V58.6705C22.6475 58.6705 22.6414 58.6336 22.6291 58.6213C22.6168 58.6091 22.5983 58.5968 22.5799 58.5968H22.1867V58.2035C22.1867 58.2035 22.1867 58.1667 22.1683 58.1605C22.156 58.1482 22.1437 58.1421 22.1314 58.1421H22.1191L21.9286 58.1728C21.8856 58.179 21.861 58.2035 21.861 58.2465V58.6029H21.5108C21.4617 58.6029 21.4432 58.6275 21.4432 58.6705V58.7688C21.4432 58.8057 21.4678 58.8302 21.5108 58.8364L21.861 58.8733V60.139C21.861 60.2373 21.8733 60.3171 21.8918 60.3786C21.9102 60.44 21.9409 60.4892 21.9839 60.526C22.0208 60.5629 22.0761 60.5875 22.1375 60.5998C22.199 60.6121 22.2727 60.6182 22.3587 60.6182C22.3956 60.6182 22.4325 60.6182 22.4755 60.6182C22.5185 60.6182 22.5615 60.6121 22.5922 60.6059C22.6352 60.5998 22.6598 60.5752 22.6598 60.5445V60.4155C22.6598 60.3786 22.6352 60.3663 22.5861 60.3663" fill="#30485B"/>
<path d="M23.6736 58.5784C23.5507 58.5784 23.4462 58.5784 23.3541 58.5907C23.2681 58.6029 23.182 58.6091 23.1083 58.6214C23.0592 58.6275 23.0346 58.6521 23.0346 58.689V58.818C23.0346 58.818 23.0407 58.8549 23.053 58.8671C23.0653 58.8733 23.0837 58.8794 23.096 58.8794H23.1145C23.1882 58.8794 23.2681 58.8671 23.3602 58.861C23.4524 58.8549 23.5507 58.8487 23.6736 58.8487C23.8149 58.8487 23.9194 58.8794 23.9747 58.9409C24.0299 59.0023 24.0607 59.1068 24.0607 59.2604V59.4078H23.7903C23.6306 59.4078 23.4893 59.4201 23.3787 59.4447C23.2681 59.4693 23.1759 59.5061 23.1083 59.5553C23.0407 59.6045 22.9916 59.6659 22.9609 59.7396C22.9301 59.8134 22.9178 59.8994 22.9178 59.9977V60.0407C22.9178 60.1574 22.9363 60.2496 22.967 60.3233C22.9977 60.3971 23.0407 60.4585 23.096 60.5077C23.1513 60.5568 23.2128 60.5875 23.2865 60.606C23.3602 60.6244 23.434 60.6305 23.5077 60.6305C23.6121 60.6305 23.7043 60.6121 23.7965 60.5814C23.8886 60.5445 23.9747 60.5076 24.0668 60.4524V60.5322C24.0668 60.5322 24.073 60.5691 24.0914 60.5814C24.1037 60.5937 24.1221 60.606 24.1405 60.606H24.3064C24.3064 60.606 24.3433 60.5998 24.3556 60.5814C24.3679 60.5691 24.3802 60.5507 24.3802 60.5322V59.2665C24.3802 59.0515 24.3249 58.8856 24.2143 58.7688C24.1037 58.646 23.9255 58.5907 23.6736 58.5907M24.0607 60.2189C23.9747 60.268 23.8886 60.3049 23.8149 60.3295C23.735 60.354 23.6552 60.3663 23.5691 60.3663C23.4647 60.3663 23.3787 60.3418 23.3234 60.2987C23.2681 60.2557 23.2373 60.1636 23.2373 60.0345V59.9915C23.2373 59.9239 23.2435 59.8687 23.2619 59.8256C23.2804 59.7826 23.3049 59.7458 23.3479 59.715C23.391 59.6843 23.4462 59.6659 23.52 59.6536C23.5937 59.6413 23.6859 59.6352 23.7903 59.6352H24.0607V60.2189Z" fill="#30485B"/>
<path d="M25.1605 58.6029H24.9885C24.9885 58.6029 24.9516 58.6091 24.9393 58.6275C24.927 58.6398 24.9209 58.6582 24.9209 58.6766V60.526C24.9209 60.526 24.927 60.5629 24.9393 60.5752C24.9516 60.5875 24.9701 60.5998 24.9885 60.5998H25.1605C25.1605 60.5998 25.1974 60.5936 25.2097 60.5752C25.222 60.5568 25.2343 60.5445 25.2343 60.526V58.6766C25.2343 58.6766 25.2281 58.6398 25.2158 58.6275C25.2035 58.6152 25.1851 58.6029 25.1667 58.6029" fill="#30485B"/>
<path d="M25.1728 57.8472H24.9885C24.9885 57.8472 24.9516 57.8533 24.9393 57.8717C24.927 57.884 24.9209 57.9025 24.9209 57.9209V58.2097C24.9209 58.2097 24.927 58.2465 24.9393 58.2588C24.9516 58.2711 24.9701 58.2834 24.9885 58.2834H25.1728C25.1728 58.2834 25.2097 58.2773 25.222 58.2588C25.2343 58.2465 25.2465 58.2281 25.2465 58.2097V57.9209C25.2465 57.9209 25.2404 57.884 25.2281 57.8717C25.2158 57.8595 25.1974 57.8533 25.179 57.8533" fill="#30485B"/>
<path d="M26.6659 58.5784C26.5553 58.5784 26.457 58.5907 26.3709 58.6214C26.2849 58.6521 26.1927 58.6951 26.0883 58.7504V58.6828C26.0883 58.6828 26.0822 58.646 26.0699 58.6337C26.0576 58.6214 26.0391 58.6091 26.0207 58.6091H25.8364C25.8364 58.6091 25.7995 58.6152 25.7872 58.6337C25.7749 58.646 25.7688 58.6644 25.7688 58.6828V60.5322C25.7688 60.5322 25.7749 60.5691 25.7872 60.5814C25.7995 60.5937 25.818 60.606 25.8364 60.606H26.0146C26.0146 60.606 26.0514 60.5998 26.0637 60.5814C26.076 60.5691 26.0883 60.5507 26.0883 60.5322V59.0023C26.1743 58.9593 26.2542 58.9286 26.3402 58.8979C26.4201 58.8733 26.5 58.861 26.5798 58.861C26.6474 58.861 26.7089 58.8671 26.758 58.8856C26.8072 58.904 26.8502 58.9286 26.887 58.9655C26.9178 59.0023 26.9423 59.0515 26.9608 59.1129C26.9792 59.1744 26.9854 59.2481 26.9854 59.3403V60.5322C26.9854 60.5322 26.9915 60.5691 27.0038 60.5814C27.0161 60.5937 27.0345 60.606 27.0529 60.606H27.225C27.225 60.606 27.2618 60.5998 27.2741 60.5814C27.2864 60.5691 27.2987 60.5507 27.2987 60.5322V59.3403C27.2987 59.1006 27.2496 58.9102 27.1451 58.7811C27.0468 58.6521 26.887 58.5845 26.6659 58.5845" fill="#30485B"/>
<path d="M30.0267 58.7197C29.9714 58.6644 29.91 58.6337 29.8424 58.6091C29.7687 58.5845 29.6949 58.5784 29.6089 58.5784C29.5168 58.5784 29.4185 58.5907 29.314 58.6152C29.2096 58.6398 29.1112 58.6767 29.0068 58.7258C28.9638 58.6705 28.9085 58.6337 28.847 58.6091C28.7856 58.5845 28.718 58.5784 28.6443 58.5784C28.5398 58.5784 28.4477 58.5968 28.3555 58.6275C28.2633 58.6644 28.1835 58.7013 28.1159 58.7504V58.6828C28.1159 58.6828 28.1097 58.646 28.0975 58.6337C28.0852 58.6214 28.0667 58.6091 28.0483 58.6091H27.864C27.864 58.6091 27.8271 58.6152 27.8148 58.6337C27.8025 58.646 27.7964 58.6644 27.7964 58.6828V60.5322C27.7964 60.5322 27.7964 60.5691 27.8148 60.5814C27.8271 60.5998 27.8394 60.606 27.8578 60.606H28.0483C28.0483 60.606 28.0852 60.5998 28.0975 60.5814C28.1097 60.5691 28.1159 60.5507 28.1159 60.5322V59.0023C28.1896 58.9655 28.2695 58.9286 28.3432 58.904C28.417 58.8733 28.4907 58.861 28.5583 58.861C28.6074 58.861 28.6443 58.861 28.6812 58.8733C28.718 58.8856 28.7487 58.904 28.7672 58.9286C28.7917 58.9532 28.8102 58.9962 28.8225 59.0453C28.8348 59.0945 28.8409 59.1621 28.8409 59.2419V60.5322C28.8409 60.5322 28.8409 60.5691 28.8593 60.5814C28.8716 60.5998 28.8839 60.606 28.9023 60.606H29.0928C29.0928 60.606 29.1297 60.5998 29.142 60.5814C29.1543 60.5691 29.1604 60.5507 29.1604 60.5322V59.2419C29.1604 59.1313 29.1481 59.0392 29.1297 58.9593C29.2034 58.9347 29.271 58.9102 29.3447 58.8917C29.4185 58.8733 29.486 58.861 29.5536 58.861C29.5966 58.861 29.6458 58.861 29.6827 58.8794C29.7257 58.8917 29.7564 58.9102 29.7871 58.9409C29.8178 58.9716 29.8424 59.0085 29.8547 59.0576C29.8731 59.1068 29.8793 59.1682 29.8793 59.2481V60.5322C29.8793 60.5322 29.8854 60.5691 29.8977 60.5814C29.91 60.5998 29.9284 60.606 29.9469 60.606H30.1189C30.1189 60.606 30.1558 60.5998 30.1681 60.5814C30.1803 60.5691 30.1926 60.5507 30.1926 60.5322V59.2481C30.1926 59.1252 30.1803 59.0146 30.1496 58.9286C30.1189 58.8426 30.0759 58.775 30.0267 58.7197Z" fill="#30485B"/>
<path d="M32.0236 58.8056C31.9561 58.7319 31.8762 58.6766 31.7779 58.6336C31.6796 58.5906 31.5628 58.5721 31.4338 58.5721C31.1696 58.5721 30.973 58.6459 30.8378 58.7995C30.7026 58.9531 30.6289 59.162 30.6289 59.42V59.7457C30.6289 59.9116 30.6535 60.0529 30.7026 60.1635C30.7518 60.2741 30.8132 60.3663 30.887 60.4277C30.9607 60.4891 31.0529 60.5383 31.1512 60.569C31.2495 60.5997 31.3539 60.612 31.4584 60.612C31.5813 60.612 31.6919 60.612 31.7963 60.5936C31.9008 60.5813 32.0052 60.569 32.1035 60.5506C32.1342 60.5506 32.1527 60.5383 32.1588 60.526C32.1711 60.5137 32.1711 60.4953 32.1711 60.4707V60.3478C32.1711 60.3478 32.1711 60.3171 32.1527 60.3048C32.1404 60.2987 32.1281 60.2925 32.1158 60.2925H32.0974C32.0114 60.3048 31.913 60.3171 31.7902 60.3232C31.6734 60.3294 31.5567 60.3355 31.4522 60.3355C31.2863 60.3355 31.1573 60.2925 31.0774 60.2004C30.9914 60.1082 30.9484 59.9607 30.9484 59.7457V59.6965H32.1588C32.2018 59.6965 32.2264 59.672 32.2264 59.6167V59.42C32.2264 59.291 32.208 59.1743 32.1772 59.0698C32.1404 58.9654 32.0912 58.8732 32.0236 58.7995M31.9069 59.4569H30.9423V59.4262C30.9423 59.2296 30.9853 59.0883 31.0651 58.9961C31.1512 58.9039 31.2679 58.8609 31.4277 58.8609C31.5874 58.8609 31.7041 58.9039 31.784 58.99C31.8639 59.076 31.9008 59.2234 31.9008 59.4323V59.4631L31.9069 59.4569Z" fill="#30485B"/>
<path d="M33.5597 58.5784C33.4491 58.5784 33.3507 58.5907 33.2647 58.6214C33.1787 58.6521 33.0865 58.6951 32.9821 58.7504V58.6828C32.9821 58.6828 32.976 58.646 32.9637 58.6337C32.9514 58.6214 32.9329 58.6091 32.9145 58.6091H32.7302C32.7302 58.6091 32.6933 58.6152 32.681 58.6337C32.6687 58.646 32.6626 58.6644 32.6626 58.6828V60.5322C32.6626 60.5322 32.6626 60.5691 32.681 60.5814C32.6933 60.5937 32.7118 60.606 32.7302 60.606H32.9084C32.9084 60.606 32.9452 60.5998 32.9575 60.5814C32.9698 60.5691 32.9821 60.5507 32.9821 60.5322V59.0023C33.0681 58.9593 33.148 58.9286 33.234 58.8979C33.3139 58.8733 33.3938 58.861 33.4736 58.861C33.5412 58.861 33.6027 58.8671 33.6518 58.8856C33.701 58.904 33.744 58.9286 33.7747 58.9655C33.8054 59.0023 33.83 59.0515 33.8484 59.1129C33.8669 59.1744 33.873 59.2542 33.873 59.3403V60.5322C33.873 60.5322 33.8792 60.5691 33.8976 60.5814C33.9099 60.5937 33.9283 60.606 33.9467 60.606H34.1188C34.1188 60.606 34.1556 60.5998 34.1679 60.5814C34.1802 60.5691 34.1925 60.5507 34.1925 60.5322V59.3403C34.1925 59.1006 34.1434 58.9102 34.0389 58.7811C33.9406 58.6521 33.7808 58.5845 33.5597 58.5845" fill="#30485B"/>
<path d="M35.5933 60.3602H35.3906C35.3169 60.3602 35.2677 60.3479 35.237 60.3233C35.2063 60.2987 35.194 60.2311 35.194 60.1328V58.8671H35.5872C35.5872 58.8671 35.6241 58.861 35.6364 58.8425C35.6486 58.8302 35.6609 58.8118 35.6609 58.7934V58.6705C35.6609 58.6705 35.6548 58.6336 35.6425 58.6213C35.6302 58.6091 35.6118 58.5968 35.5933 58.5968H35.2001V58.2035C35.2001 58.2035 35.2001 58.1667 35.1817 58.1605C35.1694 58.1482 35.1571 58.1421 35.1448 58.1421H35.1325L34.9421 58.1728C34.899 58.179 34.8745 58.2035 34.8745 58.2465V58.6029H34.5242C34.4751 58.6029 34.4567 58.6275 34.4567 58.6705V58.7688C34.4567 58.8057 34.4812 58.8302 34.5242 58.8364L34.8745 58.8733V60.139C34.8745 60.2373 34.8868 60.3171 34.9052 60.3786C34.9236 60.44 34.9543 60.4892 34.9974 60.526C35.0404 60.5629 35.0895 60.5875 35.151 60.5998C35.2124 60.6121 35.2861 60.6182 35.3722 60.6182C35.409 60.6182 35.4459 60.6182 35.4889 60.6182C35.5319 60.6182 35.5749 60.6121 35.6056 60.6059C35.6486 60.5998 35.6732 60.5752 35.6732 60.5445V60.4155C35.6732 60.3786 35.6486 60.3663 35.5995 60.3663" fill="#30485B"/>
<path d="M38.1739 58.1482C38.1616 58.0929 38.137 58.0499 38.1125 58.013C38.0879 57.9762 38.0572 57.9516 38.0203 57.927C37.9834 57.9086 37.9527 57.8901 37.9159 57.884C37.879 57.8778 37.8421 57.8717 37.8114 57.8717C37.7807 57.8717 37.7438 57.8717 37.7069 57.884C37.6701 57.8901 37.6332 57.9086 37.6025 57.927C37.5656 57.9454 37.5411 57.9762 37.5103 58.013C37.4796 58.0499 37.4612 58.0929 37.4489 58.1482L36.7792 60.5137C36.7792 60.5137 36.7792 60.526 36.7792 60.5383C36.7792 60.5752 36.7976 60.5997 36.8406 60.5997H37.0557C37.0557 60.5997 37.0864 60.5997 37.0987 60.5813C37.111 60.569 37.1171 60.5567 37.1232 60.5444L37.3567 59.7088H38.2968L38.5303 60.5444C38.5303 60.5444 38.5426 60.5752 38.5549 60.5813C38.5671 60.5936 38.5794 60.5997 38.5917 60.5997H38.8068C38.8498 60.5997 38.8682 60.5813 38.8682 60.5383C38.8682 60.526 38.8682 60.5199 38.8682 60.5137L38.1985 58.1482H38.1739ZM37.4059 59.42L37.7377 58.2281C37.75 58.1851 37.7745 58.1605 37.8114 58.1605C37.8483 58.1605 37.8667 58.1851 37.879 58.2281L38.2108 59.42H37.412H37.4059Z" fill="#30485B"/>
<path d="M40.6254 58.6029H40.4472C40.4472 58.6029 40.4104 58.6091 40.3981 58.6275C40.3858 58.6398 40.3735 58.6582 40.3735 58.6766V60.2065C40.2875 60.2496 40.2076 60.2803 40.1216 60.311C40.0356 60.3417 39.9618 60.354 39.882 60.354C39.8144 60.354 39.7529 60.3479 39.7038 60.3294C39.6546 60.311 39.6116 60.2864 39.5809 60.2496C39.5502 60.2127 39.5256 60.1635 39.5072 60.1021C39.4887 60.0407 39.4826 59.9669 39.4826 59.8748V58.6828C39.4826 58.6828 39.4764 58.6459 39.458 58.6336C39.4457 58.6213 39.4273 58.6152 39.4089 58.6152H39.2368C39.2368 58.6152 39.1999 58.6213 39.1877 58.6398C39.1754 58.6521 39.1631 58.6705 39.1631 58.6889V59.8809C39.1631 60.1205 39.2122 60.311 39.3105 60.44C39.4089 60.5691 39.5686 60.6366 39.7898 60.6366C39.9004 60.6366 39.9987 60.6244 40.0847 60.5936C40.1707 60.5629 40.2629 60.5199 40.3673 60.4646V60.5322C40.3673 60.5322 40.3735 60.5691 40.3858 60.5813C40.3981 60.5936 40.4165 60.6059 40.4349 60.6059H40.6193C40.6193 60.6059 40.6561 60.5998 40.6684 60.5813C40.6807 60.5629 40.6868 60.5506 40.6868 60.5322V58.6828C40.6868 58.6828 40.6869 58.6459 40.6684 58.6336C40.6561 58.6213 40.6377 58.6091 40.6193 58.6091" fill="#30485B"/>
<path d="M42.1738 60.3602H41.971C41.8973 60.3602 41.8481 60.3479 41.8174 60.3233C41.7867 60.2987 41.7744 60.2311 41.7744 60.1328V58.8671H42.1676C42.1676 58.8671 42.2045 58.861 42.2168 58.8425C42.2291 58.8302 42.2414 58.8118 42.2414 58.7934V58.6705C42.2414 58.6705 42.2352 58.6336 42.2229 58.6213C42.2107 58.6091 42.1922 58.5968 42.1738 58.5968H41.7806V58.2035C41.7806 58.2035 41.7806 58.1667 41.7621 58.1605C41.7498 58.1482 41.7376 58.1421 41.7253 58.1421H41.713L41.5225 58.1728C41.4795 58.179 41.4549 58.2035 41.4549 58.2465V58.6029H41.1047C41.0555 58.6029 41.0371 58.6275 41.0371 58.6705V58.7688C41.0371 58.8057 41.0617 58.8302 41.1047 58.8364L41.4549 58.8733V60.139C41.4549 60.2373 41.4672 60.3171 41.4856 60.3786C41.5041 60.44 41.5348 60.4892 41.5778 60.526C41.6208 60.5629 41.67 60.5875 41.7314 60.5998C41.7928 60.6121 41.8666 60.6182 41.9526 60.6182C41.9895 60.6182 42.0263 60.6182 42.0693 60.6182C42.1123 60.6182 42.1554 60.6121 42.1861 60.6059C42.2291 60.5998 42.2537 60.5752 42.2537 60.5445V60.4155C42.2537 60.3786 42.2291 60.3663 42.1799 60.3663" fill="#30485B"/>
<path d="M43.931 58.7565C43.8757 58.695 43.802 58.652 43.7221 58.6213C43.6423 58.5906 43.5562 58.5783 43.4579 58.5783C43.3781 58.5783 43.292 58.5844 43.1876 58.6029C43.0831 58.6213 42.991 58.652 42.905 58.6889V57.9393C42.905 57.9393 42.8988 57.9024 42.8865 57.8901C42.8742 57.8778 42.8558 57.8717 42.8374 57.8717H42.653C42.653 57.8717 42.6162 57.8778 42.6039 57.8901C42.5916 57.9024 42.5854 57.9209 42.5854 57.9393V60.526C42.5854 60.526 42.5916 60.5629 42.6039 60.5752C42.6162 60.5874 42.6346 60.5997 42.653 60.5997H42.8312C42.8312 60.5997 42.8681 60.5936 42.8804 60.5752C42.8927 60.5629 42.905 60.5444 42.905 60.526V58.9592C42.9418 58.9408 42.9848 58.9285 43.034 58.9162C43.0831 58.9039 43.1261 58.8916 43.1753 58.8855C43.2183 58.8794 43.2613 58.8732 43.3043 58.8671C43.3412 58.8671 43.3781 58.8671 43.4088 58.8671C43.5255 58.8671 43.6238 58.8978 43.6914 58.9715C43.7651 59.0391 43.7959 59.162 43.7959 59.3463V60.5383C43.7959 60.5383 43.802 60.5752 43.8143 60.5874C43.8266 60.5997 43.845 60.612 43.8634 60.612H44.0355C44.0355 60.612 44.0723 60.6059 44.0846 60.5874C44.0969 60.5752 44.1031 60.5567 44.1031 60.5383V59.3463C44.1031 59.2111 44.0846 59.1005 44.0539 59.0022C44.0232 58.9101 43.9802 58.8302 43.9187 58.7688" fill="#30485B"/>
<path d="M45.9526 58.818C45.885 58.7381 45.7989 58.6828 45.7006 58.6398C45.6023 58.5968 45.4795 58.5784 45.3504 58.5784C45.2214 58.5784 45.0985 58.5968 45.0002 58.6398C44.9019 58.6828 44.8159 58.7443 44.7483 58.818C44.6807 58.8979 44.6316 58.99 44.5947 59.1006C44.5578 59.2112 44.5455 59.328 44.5455 59.4631V59.7396C44.5455 59.8748 44.564 59.9915 44.5947 60.1021C44.6254 60.2127 44.6807 60.3049 44.7483 60.3786C44.8159 60.4585 44.9019 60.5138 45.0002 60.5568C45.0985 60.5998 45.2152 60.6182 45.3504 60.6182C45.4856 60.6182 45.6023 60.5937 45.7006 60.5568C45.8051 60.5138 45.885 60.4524 45.9526 60.3786C46.0201 60.2987 46.0693 60.2066 46.1062 60.1021C46.143 59.9915 46.1553 59.8748 46.1553 59.7396V59.4631C46.1553 59.328 46.1369 59.2112 46.1062 59.1006C46.0693 58.99 46.0201 58.8979 45.9526 58.8241M45.8358 59.7396C45.8358 59.9301 45.799 60.0776 45.7191 60.182C45.6392 60.2865 45.5163 60.3418 45.3443 60.3418C45.1722 60.3418 45.0494 60.2865 44.9695 60.182C44.8958 60.0714 44.8527 59.924 44.8527 59.7396V59.4631C44.8527 59.2727 44.8896 59.1252 44.9695 59.0207C45.0494 58.9102 45.1722 58.861 45.3381 58.861C45.504 58.861 45.6331 58.9163 45.7129 59.0269C45.7928 59.1375 45.8297 59.285 45.8297 59.4693V59.7458L45.8358 59.7396Z" fill="#30485B"/>
<path d="M47.4026 58.5783C47.3228 58.5783 47.2367 58.5906 47.1569 58.6152C47.0708 58.6398 46.9848 58.6889 46.8927 58.7504V58.6705C46.8927 58.6705 46.8865 58.6336 46.8742 58.6213C46.8619 58.6091 46.8435 58.5968 46.8251 58.5968H46.653C46.653 58.5968 46.6162 58.6029 46.6039 58.6213C46.5916 58.6336 46.5854 58.6521 46.5854 58.6705V60.5199C46.5854 60.5199 46.5854 60.5568 46.6039 60.5691C46.6162 60.5813 46.6346 60.5936 46.653 60.5936H46.8312C46.8312 60.5936 46.8681 60.5875 46.8804 60.5691C46.8927 60.5568 46.9049 60.5383 46.9049 60.5199V59.0023C46.9971 58.947 47.0831 58.9101 47.163 58.8855C47.2429 58.861 47.3228 58.8487 47.4088 58.8487C47.4579 58.8487 47.4825 58.8302 47.4825 58.7872V58.6336C47.4825 58.5906 47.4579 58.566 47.4088 58.566" fill="#30485B"/>
<path d="M48.1091 58.6029H47.9371C47.9371 58.6029 47.9002 58.6091 47.8879 58.6275C47.8757 58.6398 47.8695 58.6582 47.8695 58.6766V60.526C47.8695 60.526 47.8757 60.5629 47.8879 60.5752C47.9002 60.5875 47.9187 60.5998 47.9371 60.5998H48.1091C48.1091 60.5998 48.146 60.5936 48.1583 60.5752C48.1706 60.5568 48.1829 60.5445 48.1829 60.526V58.6766C48.1829 58.6766 48.1767 58.6398 48.1644 58.6275C48.1521 58.6152 48.1337 58.6029 48.1153 58.6029" fill="#30485B"/>
<path d="M48.1214 57.8472H47.9371C47.9371 57.8472 47.9002 57.8533 47.8879 57.8717C47.8757 57.884 47.8695 57.9025 47.8695 57.9209V58.2097C47.8695 58.2097 47.8757 58.2465 47.8879 58.2588C47.9002 58.2711 47.9187 58.2834 47.9371 58.2834H48.1214C48.1214 58.2834 48.1583 58.2773 48.1706 58.2588C48.1829 58.2465 48.1951 58.2281 48.1951 58.2097V57.9209C48.1951 57.9209 48.189 57.884 48.1767 57.8717C48.1644 57.8595 48.146 57.8533 48.1276 57.8533" fill="#30485B"/>
<path d="M49.7066 60.3602H49.5039C49.4301 60.3602 49.381 60.3479 49.3503 60.3233C49.3195 60.2987 49.3072 60.2311 49.3072 60.1328V58.8671H49.7005C49.7005 58.8671 49.7373 58.861 49.7496 58.8425C49.7619 58.8302 49.7742 58.8118 49.7742 58.7934V58.6705C49.7742 58.6705 49.7681 58.6336 49.7558 58.6213C49.7435 58.6091 49.7251 58.5968 49.7066 58.5968H49.3134V58.2035C49.3134 58.2035 49.3134 58.1667 49.295 58.1605C49.2827 58.1482 49.2704 58.1421 49.2581 58.1421H49.2458L49.0553 58.1728C49.0123 58.179 48.9878 58.2035 48.9878 58.2465V58.6029H48.6375C48.5884 58.6029 48.5699 58.6275 48.5699 58.6705V58.7688C48.5699 58.8057 48.5945 58.8302 48.6375 58.8364L48.9878 58.8733V60.139C48.9878 60.2373 49 60.3171 49.0185 60.3786C49.0369 60.44 49.0676 60.4892 49.1106 60.526C49.1475 60.5629 49.2028 60.5875 49.2642 60.5998C49.3257 60.6121 49.3994 60.6182 49.4854 60.6182C49.5223 60.6182 49.5592 60.6182 49.6022 60.6182C49.6452 60.6182 49.6882 60.6121 49.7189 60.6059C49.7619 60.5998 49.7865 60.5752 49.7865 60.5445V60.4155C49.7865 60.3786 49.7619 60.3663 49.7128 60.3663" fill="#30485B"/>
<path d="M51.6113 58.6029H51.4085C51.4085 58.6029 51.3778 58.6029 51.3655 58.6213C51.3532 58.6336 51.3471 58.6459 51.3409 58.6582L50.8986 60.3171H50.8433C50.8433 60.3171 50.8187 60.3171 50.8064 60.3049C50.7941 60.2987 50.7818 60.2741 50.7757 60.2373L50.3456 58.6644C50.3456 58.6644 50.3333 58.6336 50.321 58.6275C50.3087 58.6152 50.2964 58.6091 50.2841 58.6091H50.0814C50.0384 58.6091 50.0138 58.6275 50.0138 58.6705C50.0138 58.6828 50.0138 58.6889 50.0138 58.6951L50.4992 60.354C50.5176 60.4093 50.5361 60.4523 50.5545 60.4892C50.5729 60.526 50.5975 60.5506 50.6159 60.5629C50.6405 60.5813 50.6651 60.5936 50.6897 60.5936C50.7142 60.5936 50.7388 60.5998 50.7695 60.5998H50.8187L50.7818 60.7472C50.7695 60.8087 50.7511 60.864 50.7265 60.9008C50.7081 60.9439 50.6835 60.9746 50.6528 60.993C50.6282 61.0176 50.5913 61.0299 50.5545 61.0422C50.5176 61.0544 50.4685 61.0544 50.4193 61.0544C50.3763 61.0544 50.3271 61.0544 50.2596 61.0483C50.192 61.0483 50.1367 61.036 50.0998 61.036H50.0875C50.0384 61.036 50.0199 61.0544 50.0199 61.0913V61.2265C50.0199 61.2265 50.0261 61.2572 50.0445 61.2695C50.0568 61.2756 50.0752 61.2818 50.0998 61.2879C50.1367 61.2941 50.1858 61.3064 50.2411 61.3125C50.2964 61.3186 50.3517 61.3187 50.4009 61.3187C50.5053 61.3187 50.5913 61.3064 50.6651 61.2879C50.7388 61.2695 50.8003 61.2388 50.8494 61.1958C50.8986 61.1528 50.9416 61.0975 50.9723 61.0299C51.003 60.9623 51.0337 60.8763 51.0645 60.778L51.6604 58.6889C51.6604 58.6889 51.6604 58.6766 51.6604 58.6644C51.6604 58.6213 51.642 58.6029 51.6051 58.6029" fill="#30485B"/>
<path d="M6.01506 55.9486H5.81844C5.78772 55.9486 5.757 55.9609 5.73242 55.9793C5.70784 55.9978 5.69556 56.0285 5.69556 56.0592V56.3357C5.69556 56.3357 5.70784 56.3848 5.73242 56.4094C5.757 56.434 5.78772 56.4401 5.81844 56.4401H6.01506C6.04578 56.4401 6.07035 56.4279 6.09493 56.4094C6.11951 56.3848 6.1318 56.3603 6.1318 56.3357V56.0592C6.1318 56.0223 6.11951 55.9978 6.09493 55.9793C6.07035 55.9609 6.04578 55.9486 6.01506 55.9486Z" fill="#30485B"/>
<path d="M5.17948 56.4463C5.21021 56.4463 5.23478 56.434 5.25936 56.4155C5.28394 56.3971 5.29622 56.3664 5.29622 56.3418V56.0653C5.29622 56.0284 5.28394 56.0039 5.2655 55.9854C5.24093 55.967 5.21635 55.9547 5.17948 55.9547H4.98287C4.946 55.9547 4.92143 55.967 4.89685 55.9854C4.87227 56.0039 4.85999 56.0346 4.85999 56.0653V56.3418C4.85999 56.3418 4.87227 56.3971 4.89685 56.4155C4.92143 56.4401 4.946 56.4463 4.98287 56.4463H5.17948Z" fill="#30485B"/>
<path d="M7.61271 52.5323H7.82776C7.86462 52.5323 7.8892 52.52 7.91378 52.5016C7.93836 52.4832 7.9445 52.4586 7.9445 52.4279V52.1514C7.9445 52.1145 7.93221 52.0899 7.91378 52.0715C7.89535 52.0531 7.86462 52.0408 7.8339 52.0408H7.61271C7.58199 52.0408 7.55741 52.0531 7.53284 52.0715C7.50826 52.0899 7.49597 52.1206 7.49597 52.1514V52.4279C7.49597 52.4279 7.50826 52.4832 7.52669 52.5016C7.54513 52.52 7.57585 52.5323 7.61271 52.5323Z" fill="#30485B"/>
<path d="M8.63262 55.3526C8.63262 55.3034 8.63876 55.2481 8.6449 55.1867C8.6449 55.1252 8.6449 55.0638 8.65105 54.9962C8.65105 54.9286 8.65105 54.861 8.65105 54.7996V53.2697C8.65105 53.2697 8.65105 53.2205 8.63262 53.2083C8.62033 53.196 8.6019 53.1837 8.56503 53.1775C8.47287 53.1468 8.35613 53.1284 8.22095 53.1161C8.08578 53.1038 7.94446 53.0977 7.80315 53.0977C7.43449 53.0977 7.14572 53.196 6.93681 53.3926C6.72791 53.5892 6.62346 53.8534 6.62346 54.1975V54.3204C6.62346 54.4924 6.64804 54.6399 6.6849 54.7566C6.72791 54.8733 6.78321 54.9655 6.84465 55.0392H6.18108C6.15036 55.0392 6.11349 55.0392 6.07048 55.0392C6.02747 55.0392 5.99061 55.0269 5.9476 55.0208C5.91073 55.0147 5.87387 55.0024 5.84314 54.9839C5.81242 54.9655 5.78785 54.9471 5.77556 54.9163V53.5093C5.77556 53.5093 5.76941 53.4602 5.74484 53.4417C5.7264 53.4233 5.70183 53.411 5.67725 53.411H5.44377C5.44377 53.411 5.39462 53.4233 5.37618 53.4417C5.35775 53.4602 5.34546 53.4847 5.34546 53.5093V54.8488C5.34546 54.8918 5.33318 54.9286 5.3086 54.9532C5.28402 54.9778 5.2533 54.9962 5.21643 55.0085C5.17957 55.0208 5.1427 55.0269 5.0997 55.0331C5.05669 55.0331 5.01982 55.0331 4.9891 55.0331H2.46997C2.35938 55.0331 2.27336 55.0147 2.20577 54.9778C2.13819 54.9409 2.10746 54.8488 2.10746 54.7136V53.2758C2.10746 53.2758 2.10746 53.2267 2.09518 53.2144C2.08289 53.196 2.06445 53.1898 2.03373 53.1775C1.99687 53.1652 1.95386 53.1591 1.89856 53.1468C1.84941 53.1407 1.79411 53.1284 1.73881 53.1222C1.68351 53.1161 1.62207 53.1099 1.56677 53.1099C1.51148 53.1099 1.45618 53.1099 1.41317 53.1099C1.21655 53.1099 1.03837 53.1284 0.878622 53.1714C0.712728 53.2144 0.577556 53.282 0.460816 53.368C0.344076 53.4602 0.251913 53.5769 0.19047 53.7182C0.122884 53.8595 0.0921631 54.0316 0.0921631 54.2343V54.3634C0.0921631 54.6952 0.178182 54.9471 0.35022 55.1252C0.522258 55.2973 0.768026 55.3894 1.08138 55.3894H1.12439C1.26571 55.3894 1.40088 55.371 1.52376 55.3403C1.64665 55.3096 1.73267 55.2543 1.79411 55.1805C1.84941 55.2911 1.92928 55.3649 2.03373 55.414C2.13819 55.457 2.26721 55.4816 2.42082 55.4816H4.9338C5.03211 55.4816 5.13656 55.4693 5.2533 55.4509C5.37004 55.4263 5.47449 55.3833 5.56051 55.3157C5.64039 55.3833 5.73869 55.4263 5.86158 55.4509C5.98446 55.4755 6.09506 55.4816 6.19951 55.4816H7.71098C7.84616 55.4816 7.98133 55.4816 8.11036 55.4816C8.23939 55.4816 8.3807 55.4755 8.52202 55.457C8.59575 55.4509 8.63262 55.4202 8.63262 55.3587M1.68966 54.6952C1.68966 54.7505 1.67737 54.7935 1.64665 54.8303C1.61593 54.8672 1.58521 54.8979 1.53605 54.9163C1.49304 54.9348 1.44389 54.9532 1.38859 54.9594C1.33329 54.9655 1.278 54.9716 1.22884 54.9716H1.13053C0.909343 54.9716 0.749594 54.9163 0.657431 54.7996C0.565267 54.6829 0.516114 54.5231 0.516114 54.3204V54.2159C0.516114 54.0807 0.534546 53.964 0.577556 53.8718C0.620565 53.7797 0.675863 53.7059 0.749594 53.6568C0.823324 53.6015 0.909343 53.5646 1.01379 53.5462C1.11825 53.5278 1.22884 53.5155 1.35173 53.5155C1.39474 53.5155 1.44389 53.5155 1.49304 53.5155C1.5422 53.5155 1.60364 53.5216 1.67123 53.5278V54.6952H1.68966ZM8.2271 55.0269C8.15337 55.0331 8.07349 55.0392 7.98133 55.0392C7.88917 55.0392 7.80315 55.0392 7.72327 55.0392C7.49594 55.0392 7.3239 54.9778 7.21945 54.8549C7.10885 54.732 7.0597 54.5477 7.0597 54.3142V54.2036C7.0597 53.9701 7.12114 53.7981 7.24402 53.6752C7.36691 53.5585 7.54509 53.497 7.77857 53.497C7.86459 53.497 7.94446 53.497 8.0182 53.497C8.09193 53.497 8.15951 53.5093 8.2271 53.5155V55.0208V55.0269Z" fill="#30485B"/>
<path d="M11.889 52.7413H12.0856C12.1163 52.7413 12.1409 52.729 12.1655 52.7106C12.1901 52.6921 12.2024 52.6676 12.2024 52.6368V52.3604C12.2024 52.3235 12.1901 52.2989 12.1655 52.2805C12.1409 52.262 12.1163 52.2498 12.0795 52.2498H11.8829C11.846 52.2498 11.8214 52.262 11.7968 52.2805C11.7723 52.2989 11.7661 52.3296 11.7661 52.3604V52.6368C11.7661 52.6368 11.7784 52.6921 11.7968 52.7106C11.8214 52.729 11.846 52.7413 11.8829 52.7413" fill="#30485B"/>
<path d="M12.7307 52.7413H12.9273C12.958 52.7413 12.9826 52.729 13.0072 52.7106C13.0318 52.6921 13.0441 52.6676 13.0441 52.6368V52.3604C13.0441 52.3235 13.0318 52.2989 13.0072 52.2805C12.9826 52.262 12.958 52.2498 12.9273 52.2498H12.7246C12.6938 52.2498 12.6631 52.262 12.6385 52.2805C12.614 52.2989 12.6017 52.3296 12.6017 52.3604V52.6368C12.6017 52.6368 12.614 52.6921 12.6385 52.7106C12.6631 52.729 12.6938 52.7413 12.7246 52.7413" fill="#30485B"/>
<path d="M15.2437 55.4631C15.3051 55.4631 15.3604 55.4508 15.4157 55.4447C15.4648 55.4447 15.5079 55.4324 15.5324 55.4201C15.5754 55.4017 15.6 55.3833 15.6123 55.3587C15.6246 55.3341 15.6369 55.3034 15.643 55.2727C15.6492 55.2297 15.6553 55.1866 15.6615 55.1375C15.6615 55.0883 15.6615 55.033 15.6676 54.9777C15.6676 54.9224 15.6676 54.8672 15.6676 54.818V51.7275C15.6676 51.7275 15.6615 51.6783 15.643 51.6599C15.6246 51.6414 15.6062 51.6292 15.5754 51.6292H15.3235C15.3235 51.6292 15.2744 51.6353 15.2559 51.6599C15.2375 51.6783 15.2252 51.7029 15.2252 51.7275V54.8487C15.2252 54.9347 15.2129 54.99 15.1884 55.0085C15.1638 55.0269 15.1023 55.033 15.004 55.033H14.5555C14.5555 55.033 14.4879 55.033 14.4511 55.033C14.408 55.033 14.3712 55.0269 14.3282 55.0146C14.2852 55.0023 14.2544 54.99 14.2237 54.9777C14.193 54.9655 14.1684 54.9409 14.1623 54.9163V51.7336C14.1623 51.7336 14.1561 51.6845 14.1377 51.666C14.1193 51.6476 14.1008 51.6353 14.0701 51.6353H13.8182C13.8182 51.6353 13.769 51.6414 13.7506 51.666C13.7322 51.6845 13.7199 51.709 13.7199 51.7336V54.8487C13.7199 54.8917 13.7076 54.9286 13.683 54.9532C13.6585 54.9777 13.6277 54.9962 13.5909 55.0085C13.554 55.0208 13.5171 55.0269 13.4741 55.033C13.4311 55.033 13.3942 55.033 13.3635 55.033H13.0502C13.0502 55.033 12.9826 55.033 12.9457 55.033C12.9027 55.033 12.8658 55.0269 12.8228 55.0146C12.7798 55.0023 12.7491 54.99 12.7122 54.9777C12.6754 54.9655 12.6569 54.9409 12.6508 54.9163V53.5093C12.6508 53.5093 12.6447 53.4601 12.6201 53.4417C12.6016 53.4233 12.5771 53.411 12.5525 53.411H12.319C12.319 53.411 12.2699 53.4233 12.2514 53.4417C12.233 53.4601 12.2207 53.4847 12.2207 53.5093V54.8487C12.2207 54.8917 12.2084 54.9286 12.1838 54.9532C12.1593 54.9777 12.1285 54.9962 12.0917 55.0085C12.0548 55.0208 12.0118 55.0269 11.9749 55.033C11.9319 55.033 11.8951 55.033 11.8643 55.033H10.0948V53.5031C10.0948 53.5031 10.0887 53.454 10.0702 53.4355C10.0518 53.4171 10.0334 53.4048 10.0088 53.4048H9.75688C9.75688 53.4048 9.70772 53.4171 9.68929 53.4355C9.67086 53.454 9.66471 53.4786 9.66471 53.5031V55.7704C9.66471 55.8809 9.65857 55.9731 9.64014 56.0407C9.6217 56.1083 9.59098 56.1574 9.54797 56.1943C9.50496 56.2312 9.44352 56.2496 9.37594 56.2619C9.30221 56.2742 9.21004 56.2742 9.09945 56.2742H8.98885C8.92741 56.2742 8.90283 56.2988 8.90283 56.3479V56.5691C8.90283 56.5691 8.90283 56.6121 8.91512 56.6244C8.92741 56.6367 8.94584 56.6428 8.98271 56.6551C9.01957 56.6551 9.06258 56.6674 9.11788 56.6674C9.17318 56.6674 9.21004 56.6674 9.22848 56.6674C9.42509 56.6674 9.58484 56.6428 9.70772 56.5937C9.83061 56.5445 9.92277 56.4646 9.99036 56.3418C10.0272 56.2742 10.0518 56.1943 10.0641 56.1021C10.0764 56.01 10.0825 55.9117 10.0825 55.8011V55.4754H11.7968C11.8951 55.4754 11.9995 55.4631 12.1163 55.4447C12.233 55.4201 12.3374 55.3771 12.4235 55.3095C12.5033 55.3771 12.6016 55.4263 12.7245 55.4447C12.8474 55.4693 12.958 55.4754 13.0625 55.4754H13.3205C13.4188 55.4754 13.5233 55.4631 13.64 55.4447C13.7568 55.4201 13.8612 55.3771 13.9472 55.3095C13.9841 55.3464 14.0271 55.371 14.0824 55.3956C14.1377 55.4201 14.1869 55.4324 14.2483 55.4447C14.3036 55.457 14.3589 55.4631 14.4203 55.4693C14.4818 55.4693 14.5309 55.4754 14.5862 55.4754H14.8873C14.9487 55.4754 15.0102 55.4754 15.0778 55.4754C15.1453 55.4754 15.2068 55.4754 15.2682 55.4631" fill="#30485B"/>
<path d="M19.0593 52.5385H19.2559C19.2866 52.5385 19.3112 52.5262 19.3358 52.5078C19.3604 52.4894 19.3726 52.4648 19.3726 52.4341V52.1576C19.3726 52.1207 19.3604 52.0962 19.3358 52.0777C19.3112 52.0593 19.2866 52.047 19.2559 52.047H19.0593C19.0286 52.047 18.9978 52.0593 18.9733 52.0777C18.9487 52.0962 18.9364 52.1269 18.9364 52.1576V52.4341C18.9364 52.4341 18.9487 52.4894 18.9733 52.5078C18.9978 52.5262 19.0286 52.5385 19.0593 52.5385Z" fill="#30485B"/>
<path d="M18.2237 52.5385H18.4203C18.4511 52.5385 18.4756 52.5262 18.5002 52.5078C18.5248 52.4894 18.5371 52.4648 18.5371 52.4341V52.1576C18.5371 52.1207 18.5248 52.0962 18.5002 52.0777C18.4756 52.0593 18.4511 52.047 18.4142 52.047H18.2176C18.1807 52.047 18.1561 52.0593 18.1316 52.0777C18.107 52.0962 18.1008 52.1269 18.1008 52.1576V52.4341C18.1008 52.4341 18.1131 52.4894 18.1316 52.5078C18.1561 52.5262 18.1807 52.5385 18.2176 52.5385" fill="#30485B"/>
<path d="M25.8241 55.2789C25.99 55.0946 26.0699 54.8243 26.0699 54.474V54.216C26.0699 53.8596 25.9839 53.5893 25.8057 53.4049C25.6337 53.2206 25.3756 53.1285 25.0315 53.1285C24.6875 53.1285 24.4294 53.2206 24.2451 53.4111C24.0608 53.6016 23.9686 53.8658 23.9686 54.2221V54.7137C23.9686 54.769 23.9686 54.8181 23.9502 54.8611C23.9379 54.9041 23.9194 54.9349 23.8887 54.9533C23.858 54.9779 23.8273 54.9902 23.7904 55.0086C23.7535 55.0209 23.7167 55.0332 23.6798 55.0332C23.643 55.0332 23.6122 55.0332 23.5877 55.0332H20.0363C19.9257 55.0332 19.8397 55.0147 19.7721 54.9717C19.7045 54.9349 19.6738 54.8427 19.6738 54.7075V53.2698C19.6738 53.2698 19.6738 53.2206 19.6615 53.2083C19.6492 53.196 19.6308 53.1838 19.6001 53.1776C19.5632 53.1653 19.5202 53.1592 19.4649 53.1469C19.4096 53.1346 19.3604 53.1285 19.3051 53.1223C19.2498 53.1162 19.1884 53.11 19.1331 53.1039C19.0778 53.1039 19.0225 53.1039 18.9795 53.1039C18.7829 53.1039 18.6047 53.1285 18.4449 53.1653C18.2852 53.2083 18.1439 53.2759 18.0271 53.3681C17.9104 53.4602 17.8182 53.577 17.7507 53.7183C17.6831 53.8596 17.6523 54.0317 17.6523 54.2344V54.3696C17.6523 54.7014 17.7384 54.9533 17.9104 55.1253C18.0824 55.2974 18.3282 55.3895 18.6416 55.3895H18.6846C18.8259 55.3895 18.9611 55.3711 19.0839 55.3404C19.2068 55.3097 19.2928 55.2544 19.3543 55.1806C19.4096 55.2912 19.4895 55.365 19.5939 55.4141C19.6984 55.4571 19.8274 55.4817 19.981 55.4817H23.5078C23.6491 55.4817 23.7843 55.4633 23.901 55.4264C24.0177 55.3895 24.1099 55.3281 24.1652 55.2359C24.2512 55.3465 24.368 55.4264 24.5093 55.4755C24.6567 55.5308 24.8226 55.5554 25.0131 55.5554C25.3818 55.5554 25.646 55.4633 25.8119 55.2789M19.256 54.6952C19.256 54.7505 19.2437 54.7935 19.213 54.8304C19.1884 54.8673 19.1515 54.898 19.1024 54.9164C19.0594 54.9349 19.0102 54.9533 18.9549 54.9594C18.8996 54.9656 18.8443 54.9717 18.7952 54.9717H18.6969C18.4757 54.9717 18.3159 54.9164 18.2238 54.7997C18.1316 54.6829 18.0824 54.5232 18.0824 54.3204V54.216C18.0824 54.0808 18.1009 53.9641 18.1439 53.8719C18.1869 53.7797 18.2422 53.7122 18.3159 53.6569C18.3896 53.6016 18.4757 53.5647 18.5801 53.5463C18.6846 53.5278 18.7952 53.5155 18.9181 53.5155C18.9611 53.5155 19.0102 53.5155 19.0594 53.5155C19.1085 53.5155 19.17 53.5217 19.2376 53.534V54.7014L19.256 54.6952ZM24.4294 54.7628C24.4171 54.6829 24.411 54.5908 24.411 54.4802V54.2529C24.411 54.0194 24.4601 53.835 24.5584 53.7122C24.6567 53.5893 24.8165 53.5278 25.0438 53.5278C25.2712 53.5278 25.4248 53.5893 25.5108 53.7183C25.603 53.8412 25.646 54.0255 25.646 54.2529V54.4433C25.646 54.6952 25.603 54.8734 25.5108 54.984C25.4186 55.0885 25.2589 55.1438 25.0377 55.1438C24.8779 55.1438 24.7428 55.1192 24.6445 55.0639C24.54 55.0086 24.4724 54.9103 24.4417 54.7567" fill="#30485B"/>
<path d="M32.7732 55.3649C32.7732 55.3649 32.7977 55.3096 32.8039 55.2789C32.81 55.242 32.8162 55.1928 32.8223 55.1437C32.8223 55.0945 32.8223 55.0392 32.8285 54.9839C32.8285 54.9286 32.8285 54.8733 32.8285 54.8242V51.7336C32.8285 51.7336 32.8223 51.6845 32.8039 51.6661C32.7854 51.6476 32.767 51.6353 32.7363 51.6353H32.4844C32.4844 51.6353 32.4352 51.6415 32.4168 51.6661C32.3984 51.6845 32.3861 51.7091 32.3861 51.7336V54.8549C32.3861 54.9409 32.3738 54.9962 32.3492 55.0146C32.3246 55.0331 32.2632 55.0392 32.1587 55.0392H31.1327C31.1818 55.0024 31.231 54.9594 31.274 54.8918C31.317 54.8303 31.3538 54.7566 31.3846 54.6829C31.4153 54.6091 31.4399 54.5231 31.4583 54.4432C31.4767 54.3572 31.4829 54.2773 31.4829 54.1913V54.093C31.4829 53.921 31.4522 53.7674 31.3969 53.6445C31.3416 53.5216 31.2617 53.4172 31.1572 53.3373C31.0528 53.2574 30.9299 53.2021 30.7886 53.1591C30.6473 53.1222 30.4937 53.1038 30.3278 53.1038C30.2233 53.1038 30.125 53.1099 30.0206 53.1284C29.9161 53.1468 29.8178 53.1652 29.7256 53.196C29.6273 53.2267 29.5413 53.2635 29.4614 53.3004C29.3816 53.3434 29.314 53.3926 29.2525 53.4417C29.1972 53.4847 29.1665 53.5277 29.1665 53.5769V53.7244C29.1665 53.7244 29.1665 53.7551 29.1665 53.7674C29.1665 53.7858 29.1665 53.7981 29.1788 53.8104L29.658 55.0392H27.6366C27.5813 55.0392 27.5321 55.0392 27.4891 55.0269C27.4461 55.0208 27.4093 55.0085 27.3785 54.9839C27.3478 54.9655 27.3294 54.9348 27.311 54.8918C27.2925 54.8549 27.2864 54.7996 27.2864 54.732V51.7275C27.2864 51.7275 27.2802 51.6783 27.2618 51.6538C27.2434 51.6353 27.2249 51.623 27.1942 51.623H26.9423C26.9423 51.623 26.8931 51.6353 26.8747 51.6538C26.8563 51.6722 26.844 51.6968 26.844 51.7275V54.8303C26.844 54.9593 26.8563 55.0638 26.887 55.1498C26.9177 55.2297 26.9607 55.2973 27.016 55.3464C27.0713 55.3956 27.1451 55.4325 27.2249 55.4509C27.3048 55.4693 27.4031 55.4816 27.5137 55.4816H32.0113C32.0666 55.4816 32.128 55.4816 32.1956 55.4816C32.2632 55.4816 32.3246 55.4816 32.3861 55.4693C32.4475 55.4693 32.5028 55.457 32.5581 55.4509C32.6073 55.4509 32.6503 55.4386 32.6749 55.4263C32.7179 55.4079 32.7424 55.3894 32.7547 55.3649M31.0651 54.1975C31.0651 54.4064 31.0159 54.5846 30.9115 54.7443C30.8132 54.8979 30.6718 55.0024 30.4937 55.0392H30.1127L29.5905 53.6998C29.7133 53.6138 29.8485 53.5585 29.9898 53.5339C30.1311 53.5093 30.2417 53.497 30.3339 53.497C30.5612 53.497 30.7333 53.5462 30.8685 53.6506C30.9975 53.7489 31.0651 53.9148 31.0651 54.1422V54.1975Z" fill="#30485B"/>
<path d="M33.7992 55.4755H34.0511C34.0511 55.4755 34.1003 55.4632 34.1187 55.4447C34.1372 55.4263 34.1433 55.4017 34.1433 55.371V51.7275C34.1433 51.7275 34.1372 51.6783 34.1187 51.6538C34.1003 51.6353 34.0819 51.623 34.0511 51.623H33.7992C33.7992 51.623 33.7501 51.6353 33.7317 51.6538C33.7132 51.6722 33.7009 51.6968 33.7009 51.7275V55.371C33.7009 55.371 33.7071 55.4202 33.7317 55.4447C33.7501 55.4632 33.7747 55.4755 33.7992 55.4755Z" fill="#30485B"/>
<path d="M37.5902 52.5385H37.7868C37.8175 52.5385 37.8421 52.5262 37.8667 52.5078C37.8912 52.4894 37.9035 52.4648 37.9035 52.4341V52.1576C37.9035 52.1207 37.8912 52.0962 37.8667 52.0777C37.8421 52.0593 37.8175 52.047 37.7868 52.047H37.5902C37.5594 52.047 37.5287 52.0593 37.5042 52.0777C37.4796 52.0962 37.4673 52.1269 37.4673 52.1576V52.4341C37.4673 52.4341 37.4796 52.4894 37.5042 52.5078C37.5287 52.5262 37.5594 52.5385 37.5902 52.5385Z" fill="#30485B"/>
<path d="M36.7485 52.5385H36.9451C36.9758 52.5385 37.0004 52.5262 37.025 52.5078C37.0496 52.4894 37.0618 52.4648 37.0618 52.4341V52.1576C37.0618 52.1207 37.0496 52.0962 37.025 52.0777C37.0004 52.0593 36.9758 52.047 36.939 52.047H36.7423C36.7116 52.047 36.6809 52.0593 36.6563 52.0777C36.6318 52.0962 36.6256 52.1269 36.6256 52.1576V52.4341C36.6256 52.4341 36.6379 52.4894 36.6563 52.5078C36.6748 52.5262 36.7055 52.5385 36.7423 52.5385" fill="#30485B"/>
<path d="M41.2767 52.772H41.9649C41.9649 52.772 42.014 52.772 42.0263 52.7597C42.0386 52.7597 42.0509 52.7351 42.0509 52.7106V52.6307C42.0509 52.5877 42.0202 52.5693 41.9649 52.5693H41.6208C41.6208 52.5693 41.5655 52.5262 41.5471 52.4771C41.5225 52.4279 41.5102 52.3726 41.5102 52.2989C41.5102 52.1453 41.6024 52.0716 41.7806 52.0716C41.799 52.0716 41.8236 52.0716 41.8666 52.0716C41.9096 52.0716 41.9342 52.0716 41.9403 52.0716C41.9833 52.0716 42.0079 52.0531 42.0079 52.0163V51.9425C42.0079 51.9425 41.9895 51.8934 41.9526 51.8811C41.9157 51.875 41.885 51.8688 41.8481 51.8627C41.8113 51.8627 41.7806 51.8627 41.756 51.8627C41.6024 51.8627 41.4856 51.8934 41.3996 51.961C41.3136 52.0286 41.2767 52.133 41.2767 52.2743C41.2767 52.3235 41.2829 52.3788 41.2952 52.4279C41.3075 52.4832 41.332 52.5262 41.3628 52.5631H41.2767C41.2153 52.5631 41.1846 52.5815 41.1846 52.6123V52.6983C41.1846 52.7413 41.2153 52.7597 41.2767 52.7597" fill="#30485B"/>
<path d="M43.8389 56.4463C43.8696 56.4463 43.8942 56.434 43.9188 56.4155C43.9434 56.3971 43.9556 56.3664 43.9556 56.3418V56.0653C43.9556 56.0284 43.9434 56.0039 43.9249 55.9854C43.9003 55.967 43.8758 55.9547 43.8389 55.9547H43.6423C43.6054 55.9547 43.5808 55.967 43.5563 55.9854C43.5317 56.0039 43.5194 56.0346 43.5194 56.0653V56.3418C43.5194 56.3418 43.5317 56.3971 43.5563 56.4155C43.5808 56.4401 43.6054 56.4463 43.6423 56.4463H43.8389Z" fill="#30485B"/>
<path d="M44.7605 56.4155C44.7605 56.4155 44.7974 56.3664 44.7974 56.3418V56.0653C44.7974 56.0284 44.7851 56.0039 44.7605 55.9854C44.7359 55.967 44.7113 55.9547 44.6806 55.9547H44.4779C44.4471 55.9547 44.4164 55.967 44.3918 55.9854C44.3673 56.0039 44.355 56.0346 44.355 56.0653V56.3418C44.355 56.3418 44.3673 56.3971 44.3918 56.4155C44.4164 56.4401 44.4471 56.4463 44.4779 56.4463H44.6745C44.6745 56.4463 44.7298 56.434 44.7544 56.4155" fill="#30485B"/>
<path d="M50.0384 54.9777C50.0384 54.9225 50.0384 54.8733 50.0384 54.818V51.7275C50.0384 51.7275 50.0322 51.6783 50.0138 51.6599C49.9954 51.6414 49.9769 51.6292 49.9462 51.6292H49.6943C49.6943 51.6292 49.6451 51.6353 49.6267 51.6599C49.6083 51.6783 49.596 51.7029 49.596 51.7275V54.8487C49.596 54.9347 49.5837 54.99 49.5591 55.0085C49.5346 55.0269 49.4731 55.033 49.3748 55.033H48.7788C48.6989 55.033 48.6252 55.033 48.5638 55.0453C48.4962 55.0515 48.4409 55.0699 48.3979 55.0945C48.2996 55.1375 48.232 55.2235 48.1951 55.3525C48.1951 55.3648 48.189 55.3833 48.1828 55.4078C48.1828 55.4324 48.1828 55.4631 48.1767 55.4939C48.1767 55.5246 48.1767 55.5492 48.1767 55.5799C48.1767 55.6045 48.1767 55.629 48.1767 55.6413C48.1705 55.8932 48.1275 56.0776 48.0477 56.1943C47.9678 56.311 47.8203 56.3663 47.5991 56.3663C47.3779 56.3663 47.212 56.3049 47.1322 56.1759C47.0523 56.053 47.0093 55.8625 47.0093 55.6045V55.4754C47.0769 55.4754 47.1445 55.4754 47.2243 55.4754C47.3042 55.4754 47.3779 55.4754 47.4578 55.4631C47.5377 55.4509 47.6114 55.4508 47.679 55.4447C47.7527 55.4386 47.8142 55.4201 47.8633 55.4078C48.1152 55.3341 48.3057 55.1928 48.4225 54.9839C48.5453 54.775 48.6068 54.5169 48.6068 54.2159V54.1421C48.6068 53.7858 48.5023 53.5216 48.2934 53.3618C48.0845 53.2021 47.7957 53.1222 47.4394 53.1222C47.3042 53.1222 47.1752 53.1222 47.0584 53.1406C46.9356 53.1529 46.8188 53.1714 46.7082 53.2021C46.6283 53.2205 46.5915 53.2697 46.5915 53.3372V55.0453H44.865C44.8342 55.0453 44.7974 55.0453 44.7544 55.0453C44.7113 55.0453 44.6745 55.033 44.6315 55.0269C44.5946 55.0208 44.5577 55.0085 44.5209 54.99C44.4902 54.9716 44.4656 54.9532 44.4594 54.9286V53.5216C44.4594 53.5216 44.4471 53.4724 44.4287 53.454C44.4103 53.4355 44.3857 53.4233 44.3611 53.4233H44.1277C44.1277 53.4233 44.0785 53.4355 44.0601 53.454C44.0416 53.4724 44.0293 53.497 44.0293 53.5216V54.861C44.0293 54.904 44.0171 54.9409 43.9925 54.9655C43.9679 54.99 43.9372 55.0085 43.9003 55.0208C43.8634 55.033 43.8266 55.0392 43.7836 55.0453C43.7406 55.0453 43.7037 55.0453 43.673 55.0453H42.3028C42.3028 55.0453 42.2352 55.0453 42.1984 55.0453C42.1554 55.0453 42.1185 55.033 42.0755 55.0269C42.0386 55.0208 42.0018 55.0085 41.9649 54.99C41.9342 54.9716 41.9096 54.9532 41.9034 54.9286V53.5216C41.9034 53.5216 41.8912 53.4724 41.8727 53.454C41.8543 53.4355 41.8297 53.4233 41.8051 53.4233H41.5717C41.5717 53.4233 41.5225 53.4355 41.5041 53.454C41.4856 53.4724 41.4734 53.497 41.4734 53.5216V54.861C41.4734 54.904 41.4611 54.9409 41.4365 54.9655C41.4119 54.99 41.3812 55.0085 41.3443 55.0208C41.3075 55.033 41.2706 55.0392 41.2276 55.0453C41.1846 55.0453 41.1477 55.0453 41.117 55.0453H38.5979C38.4873 55.0453 38.4012 55.0269 38.3398 54.9839C38.2784 54.947 38.2415 54.8549 38.2415 54.7197V53.2819C38.2415 53.2819 38.2415 53.2328 38.2292 53.2205C38.2231 53.2021 38.1985 53.1959 38.1678 53.1836C38.1309 53.1713 38.0879 53.1652 38.0326 53.1529C37.9834 53.1468 37.9281 53.1345 37.8728 53.1283C37.8175 53.1283 37.7622 53.116 37.7008 53.116C37.6455 53.116 37.5902 53.116 37.5472 53.116C37.3506 53.116 37.1724 53.1345 37.0127 53.1775C36.8529 53.2205 36.7116 53.2881 36.5949 53.3802C36.4781 53.4724 36.3859 53.5892 36.3245 53.7305C36.2569 53.8718 36.2262 54.0438 36.2262 54.2466V54.3818C36.2262 54.7135 36.3122 54.9655 36.4843 55.1375C36.6563 55.3095 36.8959 55.4017 37.2154 55.4017H37.2646C37.4059 55.4017 37.5411 55.3833 37.6639 55.3525C37.7868 55.3218 37.8728 55.2665 37.9343 55.1928C37.9896 55.3034 38.0695 55.3771 38.1739 55.4201C38.2784 55.4631 38.4074 55.4877 38.561 55.4877H41.074C41.1723 55.4877 41.2767 55.4754 41.3935 55.457C41.5102 55.4324 41.6147 55.3894 41.6945 55.3218C41.7744 55.3894 41.8727 55.4386 41.9956 55.457C42.1185 55.4816 42.2291 55.4877 42.3335 55.4877H43.6361C43.7344 55.4877 43.8389 55.4754 43.9556 55.457C44.0724 55.4324 44.1768 55.3894 44.2628 55.3218C44.3427 55.3894 44.441 55.4386 44.5639 55.457C44.6868 55.4754 44.7974 55.4877 44.9018 55.4877H46.6161V55.6598C46.6161 55.8318 46.6345 55.9915 46.6652 56.1267C46.6959 56.2619 46.7512 56.3848 46.8311 56.4769C46.911 56.5752 47.0154 56.649 47.1445 56.6981C47.2735 56.7473 47.4394 56.7719 47.636 56.7719C47.9801 56.7719 48.2258 56.6797 48.3794 56.4954C48.5269 56.311 48.6129 56.0407 48.6191 55.6843V55.4939C48.6191 55.4939 48.6867 55.4877 48.7481 55.4877C48.8095 55.4877 48.871 55.4877 48.9263 55.4877H49.2765C49.3379 55.4877 49.3994 55.4877 49.4608 55.4877C49.5284 55.4877 49.5899 55.4877 49.6513 55.4754C49.7127 55.4754 49.768 55.4631 49.8172 55.4631C49.8663 55.4631 49.9094 55.4509 49.9339 55.4386C49.9769 55.4201 50.0015 55.4017 50.0138 55.3771C50.0261 55.3525 50.0384 55.3218 50.0445 55.2911C50.0507 55.2542 50.0568 55.2051 50.063 55.1559C50.063 55.1068 50.063 55.0515 50.0691 54.9962M47.0031 53.5461C47.0707 53.5339 47.1383 53.5277 47.1998 53.5277C47.2612 53.5277 47.3349 53.5277 47.4332 53.5277C47.5438 53.5277 47.6483 53.54 47.7343 53.5584C47.8265 53.5769 47.9002 53.6137 47.9678 53.6629C48.0292 53.712 48.0784 53.7796 48.1152 53.8595C48.1521 53.9394 48.1705 54.0438 48.1705 54.1667V54.2589C48.1705 54.5108 48.1091 54.7074 47.9985 54.8426C47.8818 54.9777 47.6913 55.0453 47.4209 55.0453H47.0093V53.5584L47.0031 53.5461ZM37.7807 54.6951C37.7807 54.7504 37.7684 54.7934 37.7377 54.8303C37.7131 54.8671 37.6762 54.8917 37.6332 54.9163C37.5902 54.9347 37.5411 54.9532 37.4858 54.9593C37.4305 54.9655 37.3813 54.9716 37.326 54.9716H37.2277C37.0065 54.9716 36.8468 54.9163 36.7546 54.7996C36.6624 54.6828 36.6194 54.5231 36.6194 54.3203V54.2159C36.6194 54.0807 36.6379 53.964 36.6809 53.8718C36.7239 53.7796 36.7792 53.712 36.8529 53.6567C36.9266 53.6014 37.0127 53.5646 37.1171 53.5461C37.2216 53.5277 37.3322 53.5154 37.455 53.5154C37.498 53.5154 37.5472 53.5154 37.5964 53.5154C37.6455 53.5154 37.707 53.5216 37.7745 53.5339V54.7013L37.7807 54.6951Z" fill="#30485B"/>
<path d="M51.0031 55.4755H51.255C51.255 55.4755 51.3042 55.4632 51.3226 55.4447C51.341 55.4263 51.3472 55.4017 51.3472 55.371V51.7275C51.3472 51.7275 51.341 51.6783 51.3226 51.6538C51.3042 51.6353 51.2857 51.623 51.255 51.623H51.0031C51.0031 51.623 50.9539 51.6353 50.9355 51.6538C50.9171 51.6722 50.9048 51.6968 50.9048 51.7275V55.371C50.9048 55.371 50.9171 55.4202 50.9355 55.4447C50.9539 55.4632 50.9785 55.4755 51.0031 55.4755Z" fill="#30485B"/>
<path d="M29.4983 31.4024L27.8823 30.6405L27.9806 30.4439L27.784 30.3456L27.6611 30.5361L26.5736 30.0261L26.0145 29.7681L25.8425 29.6882L25.6704 29.6083H25.6581L25.0744 29.3318L25.0253 29.3073L24.9024 29.2458L24.7304 29.1659L24.5952 29.1045L24.3863 29.0062L23.225 28.4594L22.924 28.318L22.7581 28.2382L21.351 27.5746L20.9578 27.3903L20.3495 27.1015L19.8088 26.8496L19.7044 26.8004L19.09 26.8496L18.8872 26.868L19.8457 27.335L20.6137 27.7098L21.1421 27.9678L22.2051 28.4901L22.5492 28.6621L23.225 28.9939L24.1405 29.4424H24.1467L24.3125 29.5223L24.4846 29.6083L25.0806 29.8971L25.2465 29.977L25.4124 30.0568L26.6658 30.6713L26.6842 30.6836L26.9238 30.7327L27.2495 30.7942L27.3969 30.9416L27.231 31.1997L27.526 31.3471L27.6181 31.1628L29.2341 31.9554L29.4983 31.4024Z" fill="#30485B"/>
<path d="M25.646 20.1216L26.3157 19.5072L26.5799 18.8927L26.6597 18.7084L26.5799 18.6961L26.4263 18.6716L26.1375 18.6285L25.4678 20.1216L25.4924 20.2629L25.646 20.1216Z" fill="#30485B"/>
<path d="M25.2649 28.9079L25.566 28.7666V23.2798L25.1298 22.8927H25.0499L24.5952 23.3228V28.7666L25.0806 28.9939L25.2649 28.9079Z" fill="#30485B"/>
<path d="M22.5861 24.8097L22.666 24.7359L23.2312 24.2014L23.6859 23.7713L24.1775 23.3043L24.5953 22.9111V22.8988H24.1467L23.3848 22.9172H23.2251H23.0346L22.027 23.845L21.5846 24.2505L21.474 24.7236L21.1545 26.0938L21.1422 26.1552L21.1914 26.1122L22.58 24.8035L22.5861 24.8097Z" fill="#30485B"/>
<path d="M26.5614 19.6793L26.2972 19.925L26.033 20.1647L25.5476 20.6132L25.5722 20.773L25.818 20.6685L26.0146 20.5886L26.2112 20.5088L26.5737 20.3551L27.8947 19.8022L29.1297 18.6409L27.9869 18.3583L26.5737 19.6608L26.5614 19.6731V19.6793Z" fill="#30485B"/>
<path d="M27.6735 20.2201L27.2865 20.3798L26.5737 20.6747L26.0453 20.8959L25.8487 20.9758L25.6521 21.0557L25.5415 21.0987L25.6091 21.154L25.6705 21.2093H25.7443H25.904H26.4078L26.5676 21.197H26.629H26.8502L28.1835 21.1785H28.374L29.0007 20.9328L30.5859 20.3184L29.6888 19.7777L29.6397 19.7469L29.3018 19.5442L28.0545 20.0603L27.6674 20.2201H27.6735Z" fill="#30485B"/>
<path d="M24.6444 20.3305L24.6751 20.1155L24.073 18.7699L23.5569 18.8436L23.9255 19.7161L24.6383 20.3305H24.6444Z" fill="#30485B"/>
<path d="M30.039 21.4489L28.718 21.4673H28.4353L28.0114 21.4796H27.8701H27.5936L26.5798 21.4919H26.5368H26.3156H26.0944H26.0145L26.0575 21.5287L26.1681 21.627L26.2787 21.7253L26.4876 21.8974L26.5736 21.9711L26.6167 22.008L26.7457 22.1186L26.9669 22.309L27.2557 22.5548L28.1343 22.5425L29.6888 22.5179L31.1449 22.4934L30.4384 21.8175L30.039 21.4304V21.4489Z" fill="#30485B"/>
<path d="M22.8012 22.6347H22.9179H23.1391H23.2251H23.3603L24.3003 22.6224L23.6429 22.3766L23.4893 22.3213L23.3357 22.2599L23.2251 22.2169L21.5293 21.5779L20.7183 21.5902H20.6507H20.3496L19.0962 22.6961L21.3388 22.6593L22.8012 22.6347Z" fill="#30485B"/>
<path d="M21.5784 21.2706L21.9593 21.4119L22.3341 21.5533L23.225 21.8912L23.5752 22.0264L23.7288 22.0817L23.8825 22.1431L24.4416 22.352L24.546 22.3889L24.46 22.3151L24.0668 21.9711L23.9562 21.8728L23.8456 21.7745L23.5752 21.5348L23.4093 21.3874L23.2435 21.2399L23.225 21.2276L22.1682 20.306L20.3188 19.538L19.7413 19.8882L19.0347 20.3121L20.2512 20.773L21.5784 21.2706Z" fill="#30485B"/>
<path d="M25.0192 19.8575L24.9823 20.0726L24.9393 20.3429L24.9025 20.558L24.9332 20.5826L25.0376 20.6747H25.0499L25.1175 20.7423L25.1544 20.773H25.1605L25.1667 20.7792H25.2711L25.2588 20.6932V20.6809L25.2465 20.6133L25.2281 20.5027L25.2035 20.3491L25.1605 20.0849L25.1237 19.8637H25.0192V19.8575Z" fill="#30485B"/>
<path d="M22.6782 20.3612L23.0284 20.6685L23.2312 20.8466L23.692 21.246L23.8579 21.3935L24.0238 21.5409L24.073 21.5839L24.1836 21.6823L24.2942 21.7806L24.5952 22.0448L24.6075 22.0571L24.798 22.2291C24.798 22.2291 24.798 22.2291 24.8041 22.2291L24.8779 22.2967L24.9331 22.3397L25.056 22.4503L25.0806 22.4749L25.1359 22.524L25.1482 22.5363L25.1912 22.5732L25.2035 22.5855L25.2404 22.6162L25.3079 22.6715L25.3325 22.6899L25.4063 22.7575L25.5721 22.8988L25.9777 23.2552L26.5798 23.7836L27.2004 24.3243L27.3294 24.4349L27.5076 24.5885L27.6858 24.7421L28.4476 25.4118L29.0068 25.9033L29.1604 26.0385L29.1112 25.8542L29.0743 25.719L28.8101 24.7421L28.6504 24.1522L28.3985 23.9372L28.294 23.8512L27.7165 23.3535L27.1512 22.8681L26.9792 22.7206L26.8071 22.5732L26.7457 22.524L26.5737 22.3766L26.4262 22.2537L26.2972 22.1431L26.1681 22.0325L26.0575 21.9403L25.9469 21.842L25.8363 21.7437L25.7258 21.6454L25.609 21.5471L25.566 21.5102L25.4923 21.4488L25.4001 21.3689L25.3387 21.3197L25.2465 21.2399L25.2342 21.2276L25.1236 21.1293L25.0745 21.0863L25.013 21.031L24.9639 20.988L24.9086 20.9449L24.8533 20.8958L24.841 20.8835L24.755 20.8098L24.6259 20.6992L24.2204 20.3551L23.9685 20.1401L23.7166 19.925L23.606 19.8328L23.2558 19.5318L22.0638 18.5118L20.9271 18.8375L22.3526 20.0848L22.7028 20.392L22.6782 20.3612Z" fill="#30485B"/>
<path d="M24.1405 29.762L23.9193 29.8664L23.225 30.1921L22.4939 30.5361L22.371 30.3457L22.1744 30.444L22.2727 30.6406L20.6567 31.4025L20.9209 31.9554L22.5369 31.1628L22.629 31.3472L22.924 31.1997L22.7581 30.9417L22.9055 30.7942L23.2312 30.7327L23.4708 30.6836L23.4892 30.6713L24.7426 30.0569L24.1405 29.762Z" fill="#30485B"/>
<path d="M26.0145 29.4363L26.5736 29.1659L27.5321 28.6928L28.6934 28.1276L31.2678 26.868L31.065 26.8496L30.4568 26.8004L30.3523 26.8496L28.4722 27.7343L26.9976 28.4286L26.5798 28.6252L25.5721 29.0984L25.4308 29.1659L25.5721 29.2274L26.0206 29.4363H26.0145Z" fill="#30485B"/>
<path d="M15.4404 24.269H12.2577C12.2392 24.5701 12.2269 24.8712 12.2269 25.1784C12.2269 25.8973 12.2884 26.6038 12.399 27.2981H15.6308C15.4772 26.6161 15.3973 25.9034 15.3973 25.1784C15.3973 24.8712 15.4158 24.5701 15.4404 24.2752" fill="#30485B"/>
<path d="M38.4995 25.1722C38.4995 25.8911 38.4442 26.5977 38.3336 27.292H42.5916C42.6899 26.5301 42.739 25.7559 42.739 24.9756C42.739 24.736 42.739 24.5025 42.7206 24.269H38.4626C38.4811 24.5701 38.4934 24.8712 38.4934 25.1722" fill="#30485B"/>
<path d="M7.07186 24.269C7.06571 24.5024 7.05957 24.7421 7.05957 24.9755C7.05957 25.7559 7.10872 26.53 7.20703 27.2919H11.7476C11.637 26.5976 11.5817 25.891 11.5817 25.1722C11.5817 24.8649 11.594 24.5639 11.6124 24.2628H7.07186V24.269Z" fill="#30485B"/>
<path d="M34.5549 27.292H37.6762C37.7929 26.5977 37.8482 25.8911 37.8482 25.1722C37.8482 24.8712 37.8359 24.564 37.8175 24.269H34.7454C34.7761 24.5701 34.7884 24.8712 34.7884 25.1722C34.7884 25.8973 34.7024 26.61 34.5549 27.292Z" fill="#30485B"/>
<path d="M49.4731 27.292V24.269H44.5086C44.5148 24.5025 44.5209 24.7421 44.5209 24.9756C44.5209 25.7559 44.4779 26.5301 44.3857 27.292H49.467H49.4731Z" fill="#30485B"/>
<path d="M5.27173 24.9756C5.27173 24.736 5.27173 24.5025 5.28402 24.269H0.0921631V27.292H5.40691C5.31474 26.5301 5.27173 25.7559 5.27173 24.9756Z" fill="#30485B"/>
<path d="M12.0426 21.6577C12.4235 20.2384 13.0318 18.899 13.8551 17.6763L9.69552 15.6302C8.92749 16.8775 8.31307 18.2108 7.87683 19.6117L12.0426 21.6577Z" fill="#30485B"/>
<path d="M14.4449 17.9712C13.6155 19.1877 13.0011 20.5333 12.6385 21.9526L15.5693 23.3904C15.8458 21.9096 16.4602 20.5456 17.3266 19.3844L14.4511 17.9712H14.4449Z" fill="#30485B"/>
<path d="M37.8114 29.4486C37.3506 30.8372 36.6624 32.1398 35.7654 33.3133L39.5502 35.175C40.392 33.9707 41.0801 32.6743 41.5962 31.3103L37.8175 29.4548L37.8114 29.4486Z" fill="#30485B"/>
<path d="M42.9848 32.619C42.4871 33.7987 41.8789 34.9169 41.1661 35.9676L49.7435 40.1825L51.6727 36.2564L43.1999 32.0906C43.1323 32.2688 43.0586 32.4408 42.991 32.6128" fill="#30485B"/>
<path d="M6.81381 17.3384C7.18246 16.4721 7.60641 15.6426 8.08566 14.8439L2.72176 12.208L0.79248 16.1342L6.26083 18.8192C6.42672 18.3215 6.61105 17.8238 6.81995 17.3384" fill="#30485B"/>
<path d="M35.1694 33.0184C36.0787 31.851 36.7668 30.5423 37.2215 29.1537L34.432 27.7836C34.0265 29.2275 33.2954 30.5362 32.3246 31.6237L35.1632 33.0184H35.1694Z" fill="#30485B"/>
<path d="M30.2172 37.602L32.2325 40.883L35.5012 38.88L33.5105 35.6359C32.509 36.453 31.3969 37.1105 30.2172 37.602Z" fill="#30485B"/>
<path d="M29.8731 37.0367C31.059 36.5575 32.1649 35.9 33.1664 35.0767L31.5321 32.4163C30.5797 33.2642 29.4553 33.9277 28.2203 34.3517L29.8731 37.0429V37.0367Z" fill="#30485B"/>
<path d="M19.5325 12.8776L17.3083 9.25867L14.0396 11.2678L16.2945 14.9359C17.2775 14.0942 18.3651 13.3999 19.5325 12.8776Z" fill="#30485B"/>
<path d="M19.8764 13.4368C18.709 13.9529 17.6215 14.641 16.6384 15.4951L18.3219 18.2415C19.2374 17.3506 20.3311 16.6318 21.5415 16.1587L19.8764 13.4429V13.4368Z" fill="#30485B"/>
<path d="M22.8749 44.5018V49.3066H26.6904V44.5264C26.0944 44.5817 25.4985 44.6063 24.8963 44.6063C24.2143 44.6063 23.5446 44.5694 22.8749 44.5018Z" fill="#30485B"/>
<path d="M26.6904 15.6118V12.4721C26.1497 12.4045 25.5968 12.3677 25.0376 12.3677C24.3065 12.3677 23.5815 12.4291 22.8749 12.552V15.7408C23.5876 15.575 24.3311 15.4828 25.0929 15.4828C25.6398 15.4828 26.1682 15.5319 26.6904 15.618" fill="#30485B"/>
<path d="M22.8749 38.4622V42.7078C23.5446 42.7815 24.2143 42.8245 24.8963 42.8245C25.4985 42.8245 26.0944 42.7938 26.6904 42.7385V38.542C26.1436 38.6096 25.5968 38.6403 25.0376 38.6403C24.3065 38.6403 23.5815 38.585 22.8749 38.4683" fill="#30485B"/>
<path d="M22.8749 34.6097V37.8047C23.5815 37.9215 24.3065 37.9829 25.0376 37.9829C25.5968 37.9829 26.1436 37.946 26.6904 37.8785V34.7388C26.1682 34.8248 25.6398 34.8739 25.0929 34.8739C24.3311 34.8739 23.5876 34.7818 22.8749 34.6159" fill="#30485B"/>
<path d="M26.6904 11.8147V7.22493C26.1006 7.16964 25.4985 7.13892 24.8963 7.13892C24.2143 7.13892 23.5385 7.17578 22.8749 7.25566V11.8945C23.5815 11.7839 24.3065 11.7225 25.0376 11.7225C25.5968 11.7225 26.1436 11.7594 26.6904 11.8208" fill="#30485B"/>
<path d="M26.6904 5.43087V0.681396H22.8749V5.45545C23.5446 5.38786 24.2143 5.351 24.8963 5.351C25.4985 5.351 26.0944 5.38172 26.6904 5.43087Z" fill="#30485B"/>
<path d="M32.7487 14.9667C31.7226 14.1925 30.5982 13.5781 29.394 13.1418L27.7842 15.8576C29.0376 16.2201 30.1804 16.8284 31.1696 17.621L32.7487 14.9667Z" fill="#30485B"/>
<path d="M18.2115 31.9923L16.5464 34.7941C17.511 35.6481 18.5924 36.3486 19.7475 36.8708L21.3757 34.1305C20.1776 33.6328 19.1024 32.9017 18.2053 31.9923" fill="#30485B"/>
<path d="M13.9841 39.1073C14.9979 39.8938 16.0855 40.5635 17.2344 41.1104L19.4156 37.43C18.2605 36.9016 17.1853 36.2073 16.2083 35.3594L13.9841 39.1073Z" fill="#30485B"/>
<path d="M36.2876 9.0068L38.6409 5.04378L35.3599 3.09607L32.9821 7.10209C33.0927 7.15125 33.2032 7.2004 33.3077 7.2557C34.3584 7.75338 35.3537 8.34323 36.2876 9.0068Z" fill="#30485B"/>
<path d="M10.5435 44.9074L13.8245 46.8551L16.3252 42.6463C15.17 42.0872 14.0887 41.4174 13.0749 40.6494L10.5496 44.9074H10.5435Z" fill="#30485B"/>
<path d="M35.3783 10.5428C34.3461 9.78711 33.234 9.15426 32.0727 8.64429L29.7379 12.5766C30.936 13.019 32.0604 13.6334 33.0865 14.4076L35.3783 10.549V10.5428Z" fill="#30485B"/>
<path d="M33.2955 19.9989L35.661 18.0143C35.3722 17.6088 35.065 17.2217 34.7271 16.8469C34.5428 16.6441 34.3584 16.4537 34.168 16.2632L31.8455 18.217C32.3984 18.7516 32.8838 19.3476 33.2955 19.9989Z" fill="#30485B"/>
<path d="M34.6656 15.8392C34.8499 16.0235 35.0342 16.214 35.2063 16.4044C35.5442 16.7854 35.8637 17.1786 36.1525 17.5841L39.1078 15.1018L37.6271 13.3446L34.6594 15.8392H34.6656Z" fill="#30485B"/>
<path d="M38.0634 21.6209L42.051 19.8759C41.7745 19.0587 41.5164 18.3276 41.0556 17.3445L37.0803 19.0833C37.5473 20.0541 37.8053 20.7914 38.0634 21.6209Z" fill="#30485B"/>
<path d="M13.038 29.6022C13.4681 30.616 13.8429 31.3042 14.273 32.0415L17.1608 30.7758C16.6385 30.0323 16.2146 29.2151 15.9135 28.3427L13.0319 29.6022H13.038Z" fill="#30485B"/>
<path d="M37.4611 21.8912C37.2092 21.0617 36.9573 20.3244 36.4904 19.3536L33.6333 20.6071C34.0634 21.3997 34.3829 22.2537 34.5734 23.1569L37.4611 21.8912Z" fill="#30485B"/>
<path d="M0.491577 35.0951L1.54838 37.6142L7.95679 34.8063C7.56356 34.0506 7.20106 33.3624 6.75867 32.3486L0.491577 35.0951Z" fill="#30485B"/>
<path d="M43.6853 19.1694L51.5684 15.7347L50.4133 13.2463L42.6838 16.6318C42.7207 16.6748 42.7883 16.8284 42.8497 16.982C43.0894 17.5411 43.3474 18.2231 43.6853 19.1694Z" fill="#30485B"/>
<path d="M12.442 29.8604L8.38684 31.636C8.82922 32.6437 9.19788 33.3318 9.60339 34.0876L13.6709 32.3057C13.2408 31.5623 12.8721 30.8741 12.442 29.8604Z" fill="#30485B"/>
</g>
<defs>
<clipPath id="clip0_0_390">
<rect width="51.6667" height="60.6372" fill="white" transform="translate(0 0.681396)"/>
</clipPath>
</defs>
</svg>
