<svg width="32" height="33" viewBox="0 0 32 33" fill="none" xmlns="http://www.w3.org/2000/svg">
<g id="LinkedIn">
<path id="Vector" d="M25.6 4.86621H6.4C5.22134 4.86621 4.26667 5.82088 4.26667 6.99954V26.1995C4.26667 27.3782 5.22134 28.3329 6.4 28.3329H25.6C26.7787 28.3329 27.7333 27.3782 27.7333 26.1995V6.99954C27.7333 5.82088 26.7787 4.86621 25.6 4.86621ZM11.6843 24.0662H8.5376V13.9414H11.6843V24.0662ZM10.0789 12.4939C9.06454 12.4939 8.24427 11.6715 8.24427 10.6593C8.24427 9.64701 9.0656 8.82568 10.0789 8.82568C11.0901 8.82568 11.9125 9.64808 11.9125 10.6593C11.9125 11.6715 11.0901 12.4939 10.0789 12.4939ZM23.4709 24.0662H20.3264V19.1425C20.3264 17.9681 20.3051 16.4577 18.6912 16.4577C17.0539 16.4577 16.8021 17.7366 16.8021 19.0571V24.0662H13.6576V13.9414H16.6763V15.3249H16.7189C17.1392 14.5291 18.1653 13.6897 19.696 13.6897C22.8821 13.6897 23.4709 15.7867 23.4709 18.5131V24.0662Z" fill="#8A8585"/>
</g>
</svg>
