<svg width="48" height="48" viewBox="0 0 48 48" fill="none" xmlns="http://www.w3.org/2000/svg">
<g id="LinkedIn">
<path id="Vector" d="M38.4004 6.3999H9.60039C7.83239 6.3999 6.40039 7.8319 6.40039 9.5999V38.3999C6.40039 40.1679 7.83239 41.5999 9.60039 41.5999H38.4004C40.1684 41.5999 41.6004 40.1679 41.6004 38.3999V9.5999C41.6004 7.8319 40.1684 6.3999 38.4004 6.3999ZM17.5268 35.1999H12.8068V20.0127H17.5268V35.1999ZM15.1188 17.8415C13.5972 17.8415 12.3668 16.6079 12.3668 15.0895C12.3668 13.5711 13.5988 12.3391 15.1188 12.3391C16.6356 12.3391 17.8692 13.5727 17.8692 15.0895C17.8692 16.6079 16.6356 17.8415 15.1188 17.8415ZM35.2068 35.1999H30.49V27.8143C30.49 26.0527 30.458 23.7871 28.0372 23.7871C25.5812 23.7871 25.2036 25.7055 25.2036 27.6863V35.1999H20.4868V20.0127H25.0148V22.0879H25.0788C25.7092 20.8943 27.2484 19.6351 29.5444 19.6351C34.3236 19.6351 35.2068 22.7807 35.2068 26.8703V35.1999Z" fill="#E15247"/>
</g>
</svg>
