<svg width="48" height="48" viewBox="0 0 48 48" fill="none" xmlns="http://www.w3.org/2000/svg">
<path d="M38.4004 6.3999H9.60039C7.83239 6.3999 6.40039 7.8319 6.40039 9.5999V38.3999C6.40039 40.1679 7.83239 41.5999 9.60039 41.5999H38.4004C40.1684 41.5999 41.6004 40.1679 41.6004 38.3999V9.5999C41.6004 7.8319 40.1684 6.3999 38.4004 6.3999Z" fill="#E15247"/>
<g clip-path="url(#clip0_0_1556)">
<path d="M14.3398 33.254C13.6215 33.254 13.0096 33.0012 12.5042 32.4955C11.9988 31.9899 11.7461 31.3777 11.7461 30.659V17.3309C11.7461 16.6121 11.9988 16.0016 12.5042 15.4993C13.0096 14.997 13.6215 14.7458 14.3398 14.7458H33.6605C34.3788 14.7458 34.9907 14.9987 35.4961 15.5043C36.0015 16.0099 36.2542 16.6221 36.2542 17.3408V30.669C36.2542 31.3877 36.0015 31.9982 35.4961 32.5005C34.9907 33.0028 34.3788 33.254 33.6605 33.254H14.3398ZM24.0002 25.8212L14.3398 20.2274V30.6602H33.6605V20.2274L24.0002 25.8212ZM24.0002 22.9333L33.6605 17.3396H14.3398L24.0002 22.9333ZM14.3398 20.2274V17.3396V30.6602V20.2274Z" fill="white"/>
</g>
<defs>
<clipPath id="clip0_0_1556">
<rect width="30" height="30" fill="white" transform="translate(9 9)"/>
</clipPath>
</defs>
</svg>
