<svg width="56" height="56" viewBox="0 0 56 56" fill="none" xmlns="http://www.w3.org/2000/svg">
<circle cx="28" cy="28" r="28" fill="#E15247"/>
<path d="M28 26.4167C28.9908 26.4167 29.8311 26.0718 30.5208 25.3821C31.2106 24.6921 31.5554 23.8518 31.5554 22.8612C31.5554 21.8704 31.2106 21.0301 30.5208 20.3404C29.8311 19.6504 28.9908 19.3054 28 19.3054C27.0092 19.3054 26.1689 19.6504 25.4792 20.3404C24.7894 21.0301 24.4446 21.8704 24.4446 22.8612C24.4446 23.8518 24.7894 24.6921 25.4792 25.3821C26.1689 26.0718 27.0092 26.4167 28 26.4167ZM20.1667 43V40.2221H26.6113V34.3887C25.1574 34.0832 23.8633 33.4606 22.7292 32.5208C21.595 31.5811 20.7964 30.4075 20.3333 29C18.2686 28.7686 16.5301 27.9099 15.1179 26.4237C13.706 24.9376 13 23.1668 13 21.1112V19.3333C13 18.5647 13.2708 17.9096 13.8125 17.3679C14.3542 16.8263 15.0093 16.5554 15.7779 16.5554H19.7779V13H36.2221V16.5554H40.2221C40.9907 16.5554 41.6458 16.8263 42.1875 17.3679C42.7292 17.9096 43 18.5647 43 19.3333V21.1112C43 23.1668 42.294 24.9376 40.8821 26.4237C39.4699 27.9099 37.7314 28.7686 35.6667 29C35.2036 30.4075 34.405 31.5811 33.2708 32.5208C32.1367 33.4606 30.8426 34.0832 29.3888 34.3887V40.2221H35.8333V43H20.1667ZM19.7779 26.0554V19.3333H15.7779V21.1112C15.7779 22.2962 16.1529 23.3401 16.9029 24.2429C17.6529 25.1457 18.6113 25.7499 19.7779 26.0554ZM28 31.75C29.5186 31.75 30.8057 31.2176 31.8612 30.1529C32.9168 29.0879 33.4446 27.7962 33.4446 26.2779V15.7779H22.5554V26.2779C22.5554 27.7962 23.0832 29.0879 24.1388 30.1529C25.1943 31.2176 26.4814 31.75 28 31.75ZM36.2221 26.0554C37.3888 25.7499 38.3471 25.1457 39.0971 24.2429C39.8471 23.3401 40.2221 22.2962 40.2221 21.1112V19.3333H36.2221V26.0554Z" fill="white"/>
</svg>
