<svg width="91" height="96" viewBox="0 0 91 96" fill="none" xmlns="http://www.w3.org/2000/svg">
<g clip-path="url(#clip0_6376_1490)">
<g clip-path="url(#clip1_6376_1490)">
<circle cx="48" cy="48" r="36" fill="#E15247" fill-opacity="0.2"/>
<circle cx="48" cy="48" r="48" fill="#E15247" fill-opacity="0.1"/>
<circle cx="48" cy="48" r="28" fill="#E15247"/>
<path d="M48.0028 47.7218C48.8437 47.7218 49.5627 47.4223 50.1599 46.8234C50.7571 46.2248 51.0557 45.505 51.0557 44.6638C51.0557 43.823 50.7563 43.104 50.1574 42.5068C49.5588 41.9095 48.8389 41.6109 47.9978 41.6109C47.157 41.6109 46.438 41.9104 45.8407 42.5093C45.2435 43.1079 44.9449 43.8277 44.9449 44.6688C44.9449 45.5097 45.2444 46.2287 45.8432 46.8259C46.4419 47.4231 47.1617 47.7218 48.0028 47.7218ZM48.0003 60.9997C51.5928 57.7219 54.2502 54.7473 55.9724 52.0759C57.6946 49.4048 58.5557 47.0461 58.5557 44.9997C58.5557 41.8091 57.5369 39.1966 55.4991 37.1622C53.4613 35.128 50.9617 34.1109 48.0003 34.1109C45.0389 34.1109 42.5394 35.128 40.5016 37.1622C38.4638 39.1966 37.4449 41.8091 37.4449 44.9997C37.4449 47.0461 38.3199 49.4048 40.0699 52.0759C41.8199 54.7473 44.4634 57.7219 48.0003 60.9997ZM48.0003 64.6663C43.5281 60.8608 40.1878 57.3261 37.9795 54.0622C35.7712 50.7983 34.667 47.7775 34.667 44.9997C34.667 40.833 36.0073 37.5136 38.6878 35.0413C41.3684 32.5691 44.4725 31.333 48.0003 31.333C51.5281 31.333 54.6323 32.5691 57.3128 35.0413C59.9934 37.5136 61.3337 40.833 61.3337 44.9997C61.3337 47.7775 60.2295 50.7983 58.0212 54.0622C55.8128 57.3261 52.4725 60.8608 48.0003 64.6663Z" fill="white"/>
</g>
<path d="M92.4854 54.0711C92.4854 54.962 91.4083 55.4081 90.7783 54.7782L84.7072 48.7071C84.3167 48.3166 84.3167 47.6834 84.7072 47.2929L90.7783 41.2218C91.4083 40.5919 92.4854 41.038 92.4854 41.9289L92.4854 54.0711Z" fill="white"/>
</g>
<defs>
<clipPath id="clip0_6376_1490">
<rect width="91" height="96" fill="white"/>
</clipPath>
<clipPath id="clip1_6376_1490">
<rect width="91" height="96" fill="white"/>
</clipPath>
</defs>
</svg>
