<svg width="91" height="96" viewBox="0 0 91 96" fill="none" xmlns="http://www.w3.org/2000/svg">
<g clip-path="url(#clip0_6376_1510)">
<g clip-path="url(#clip1_6376_1510)">
<circle cx="48" cy="48" r="28" fill="#E15247"/>
<circle cx="48" cy="48" r="36" fill="#E15247" fill-opacity="0.2"/>
<circle cx="48" cy="48" r="48" fill="#E15247" fill-opacity="0.1"/>
<path d="M47.9997 64.6663C45.6941 64.6663 43.5275 64.2288 41.4997 63.3538C39.4719 62.4788 37.708 61.2913 36.208 59.7913C34.708 58.2913 33.5205 56.5275 32.6455 54.4997C31.7705 52.4719 31.333 50.3052 31.333 47.9997C31.333 45.6941 31.7705 43.5275 32.6455 41.4997C33.5205 39.4719 34.708 37.708 36.208 36.208C37.708 34.708 39.4719 33.5205 41.4997 32.6455C43.5275 31.7705 45.6941 31.333 47.9997 31.333C50.3052 31.333 52.4719 31.7705 54.4997 32.6455C56.5275 33.5205 58.2913 34.708 59.7913 36.208C61.2913 37.708 62.4788 39.4719 63.3538 41.4997C64.2288 43.5275 64.6663 45.6941 64.6663 47.9997C64.6663 50.3052 64.2288 52.4719 63.3538 54.4997C62.4788 56.5275 61.2913 58.2913 59.7913 59.7913C58.2913 61.2913 56.5275 62.4788 54.4997 63.3538C52.4719 64.2288 50.3052 64.6663 47.9997 64.6663ZM46.2497 61.833V58.4718C45.2961 58.4718 44.4881 58.1223 43.8259 57.4234C43.164 56.7243 42.833 55.8979 42.833 54.9443V53.1663L34.4718 44.8051C34.3515 45.3423 34.2612 45.8748 34.2009 46.4026C34.1409 46.9304 34.1109 47.4627 34.1109 47.9997C34.1109 51.5275 35.2613 54.6108 37.5622 57.2497C39.863 59.8886 42.7588 61.4163 46.2497 61.833ZM58.2497 57.4163C59.4441 56.1108 60.3493 54.6501 60.9651 53.0343C61.5806 51.4187 61.8884 49.7405 61.8884 47.9997C61.8884 45.1294 61.0991 42.5183 59.5205 40.1663C57.9419 37.8144 55.8331 36.1015 53.1943 35.0276V35.7497C53.1943 36.7033 52.8631 37.5297 52.2009 38.2288C51.539 38.928 50.7312 39.2776 49.7776 39.2776H46.2497V42.8051C46.2497 43.2773 46.0715 43.6686 45.7151 43.9788C45.3584 44.2891 44.944 44.4443 44.4718 44.4443H41.0551V47.9997H51.5551C52.0273 47.9997 52.4186 48.1733 52.7288 48.5205C53.0391 48.8677 53.1943 49.2775 53.1943 49.7497V54.9443H54.9443C55.722 54.9443 56.4118 55.1734 57.0134 55.6318C57.6154 56.0901 58.0275 56.685 58.2497 57.4163Z" fill="white"/>
</g>
<path d="M92.4854 54.0711C92.4854 54.962 91.4083 55.4081 90.7783 54.7782L84.7072 48.7071C84.3167 48.3166 84.3167 47.6834 84.7072 47.2929L90.7783 41.2218C91.4083 40.5919 92.4854 41.038 92.4854 41.9289L92.4854 54.0711Z" fill="white"/>
</g>
<defs>
<clipPath id="clip0_6376_1510">
<rect width="91" height="96" fill="white"/>
</clipPath>
<clipPath id="clip1_6376_1510">
<rect width="96" height="96" fill="white"/>
</clipPath>
</defs>
</svg>
