<svg width="91" height="96" viewBox="0 0 91 96" fill="none" xmlns="http://www.w3.org/2000/svg">
<g clip-path="url(#clip0_6376_1494)">
<g clip-path="url(#clip1_6376_1494)">
<circle cx="43" cy="48" r="48" fill="#E15247" fill-opacity="0.1"/>
<circle cx="43" cy="48" r="36" fill="#E15247" fill-opacity="0.2"/>
<circle cx="43" cy="48" r="28" fill="#E15247"/>
<path d="M43 46.4167C43.9908 46.4167 44.8311 46.0718 45.5208 45.3821C46.2106 44.6921 46.5554 43.8518 46.5554 42.8612C46.5554 41.8704 46.2106 41.0301 45.5208 40.3404C44.8311 39.6504 43.9908 39.3054 43 39.3054C42.0092 39.3054 41.1689 39.6504 40.4792 40.3404C39.7894 41.0301 39.4446 41.8704 39.4446 42.8612C39.4446 43.8518 39.7894 44.6921 40.4792 45.3821C41.1689 46.0718 42.0092 46.4167 43 46.4167ZM35.1667 63V60.2221H41.6113V54.3887C40.1574 54.0832 38.8633 53.4606 37.7292 52.5208C36.595 51.5811 35.7964 50.4075 35.3333 49C33.2686 48.7686 31.5301 47.9099 30.1179 46.4237C28.706 44.9376 28 43.1668 28 41.1112V39.3333C28 38.5647 28.2708 37.9096 28.8125 37.3679C29.3542 36.8263 30.0093 36.5554 30.7779 36.5554H34.7779V33H51.2221V36.5554H55.2221C55.9907 36.5554 56.6458 36.8263 57.1875 37.3679C57.7292 37.9096 58 38.5647 58 39.3333V41.1112C58 43.1668 57.294 44.9376 55.8821 46.4237C54.4699 47.9099 52.7314 48.7686 50.6667 49C50.2036 50.4075 49.405 51.5811 48.2708 52.5208C47.1367 53.4606 45.8426 54.0832 44.3888 54.3887V60.2221H50.8333V63H35.1667ZM34.7779 46.0554V39.3333H30.7779V41.1112C30.7779 42.2962 31.1529 43.3401 31.9029 44.2429C32.6529 45.1457 33.6113 45.7499 34.7779 46.0554ZM43 51.75C44.5186 51.75 45.8057 51.2176 46.8612 50.1529C47.9168 49.0879 48.4446 47.7962 48.4446 46.2779V35.7779H37.5554V46.2779C37.5554 47.7962 38.0832 49.0879 39.1388 50.1529C40.1943 51.2176 41.4814 51.75 43 51.75ZM51.2221 46.0554C52.3888 45.7499 53.3471 45.1457 54.0971 44.2429C54.8471 43.3401 55.2221 42.2962 55.2221 41.1112V39.3333H51.2221V46.0554Z" fill="white"/>
</g>
<path d="M-1.51472 41.9289C-1.51472 41.038 -0.437576 40.5919 0.19239 41.2218L6.26347 47.2929C6.654 47.6834 6.654 48.3166 6.26347 48.7071L0.192405 54.7782C-0.43756 55.4081 -1.5147 54.962 -1.5147 54.0711L-1.51472 41.9289Z" fill="white"/>
</g>
<defs>
<clipPath id="clip0_6376_1494">
<rect width="91" height="96" fill="white"/>
</clipPath>
<clipPath id="clip1_6376_1494">
<rect width="96" height="96" fill="white" transform="translate(-5)"/>
</clipPath>
</defs>
</svg>
