<svg width="91" height="96" viewBox="0 0 91 96" fill="none" xmlns="http://www.w3.org/2000/svg">
<g clip-path="url(#clip0_6376_1491)">
<g clip-path="url(#clip1_6376_1491)">
<circle cx="42.5576" cy="48" r="36" fill="#E15247" fill-opacity="0.2"/>
<circle cx="42.5576" cy="48" r="48" fill="#E15247" fill-opacity="0.1"/>
<circle cx="42.0576" cy="48" r="28" fill="#E15247"/>
<path d="M22.0576 58V55.6529C22.0576 54.5404 22.6455 53.635 23.8214 52.9367C24.9975 52.2381 26.5426 51.8887 28.4568 51.8887C28.8026 51.8887 29.135 51.8957 29.4539 51.9096C29.773 51.9235 30.0854 51.955 30.391 52.0042C30.1132 52.52 29.9048 53.0493 29.766 53.5921C29.6271 54.1351 29.5576 54.7017 29.5576 55.2917V58H22.0576ZM32.0576 58V55.2917C32.0576 54.4028 32.3007 53.5903 32.7868 52.8542C33.2729 52.1181 33.9604 51.4722 34.8493 50.9167C35.7382 50.3611 36.8007 49.9444 38.0368 49.6667C39.2729 49.3889 40.6132 49.25 42.0576 49.25C43.5298 49.25 44.884 49.3889 46.1201 49.6667C47.3562 49.9444 48.4187 50.3611 49.3076 50.9167C50.1965 51.4722 50.8771 52.1181 51.3493 52.8542C51.8215 53.5903 52.0576 54.4028 52.0576 55.2917V58H32.0576ZM54.5576 58V55.2917C54.5576 54.6831 54.4951 54.1096 54.3701 53.5713C54.2451 53.0329 54.0483 52.5113 53.7797 52.0063C54.0853 51.9557 54.3947 51.9235 54.708 51.9096C55.0216 51.8957 55.3419 51.8887 55.6689 51.8887C57.5855 51.8887 59.1294 52.2315 60.3005 52.9171C61.4719 53.6026 62.0576 54.5146 62.0576 55.6529V58H54.5576ZM34.9047 55.2221H49.2243V55.0554C49.1318 54.1851 48.4072 53.4629 47.0505 52.8887C45.6941 52.3149 44.0298 52.0279 42.0576 52.0279C40.0854 52.0279 38.4211 52.3149 37.0647 52.8887C35.708 53.4629 34.988 54.1944 34.9047 55.0833V55.2221ZM28.4343 50.5C27.5998 50.5 26.884 50.2008 26.2868 49.6025C25.6896 49.0042 25.391 48.2849 25.391 47.4446C25.391 46.5926 25.6901 45.8704 26.2885 45.2779C26.8868 44.6851 27.6061 44.3888 28.4464 44.3888C29.2983 44.3888 30.0205 44.6851 30.613 45.2779C31.2058 45.8704 31.5022 46.5967 31.5022 47.4567C31.5022 48.2911 31.2058 49.0069 30.613 49.6042C30.0205 50.2014 29.2943 50.5 28.4343 50.5ZM55.6568 50.5C54.8221 50.5 54.1061 50.2008 53.5089 49.6025C52.9116 49.0042 52.613 48.2849 52.613 47.4446C52.613 46.5926 52.9123 45.8704 53.511 45.2779C54.1093 44.6851 54.8286 44.3888 55.6689 44.3888C56.5205 44.3888 57.2428 44.6851 57.8355 45.2779C58.428 45.8704 58.7243 46.5967 58.7243 47.4567C58.7243 48.2911 58.428 49.0069 57.8355 49.6042C57.2428 50.2014 56.5165 50.5 55.6568 50.5ZM42.0576 48C40.6687 48 39.4882 47.5139 38.516 46.5417C37.5437 45.5694 37.0576 44.3889 37.0576 43C37.0576 41.5833 37.5437 40.3958 38.516 39.4375C39.4882 38.4792 40.6687 38 42.0576 38C43.4743 38 44.6618 38.4792 45.6201 39.4375C46.5785 40.3958 47.0576 41.5833 47.0576 43C47.0576 44.3889 46.5785 45.5694 45.6201 46.5417C44.6618 47.5139 43.4743 48 42.0576 48ZM42.0672 45.2221C42.6997 45.2221 43.2266 45.0082 43.648 44.5804C44.0691 44.1526 44.2797 43.6226 44.2797 42.9904C44.2797 42.3579 44.0678 41.831 43.6439 41.4096C43.2197 40.9885 42.6941 40.7779 42.0672 40.7779C41.4405 40.7779 40.9119 40.9899 40.4814 41.4137C40.0508 41.8379 39.8355 42.3635 39.8355 42.9904C39.8355 43.6171 40.0494 44.1457 40.4772 44.5763C40.905 45.0068 41.435 45.2221 42.0672 45.2221Z" fill="white"/>
</g>
<path d="M-1.88961 42.4643C-1.91377 41.5608 -0.821981 41.0913 -0.18286 41.7305L5.82153 47.7348C6.21205 48.1253 6.21205 48.7585 5.82153 49.149L0.129883 54.8407C-0.491008 55.4616 -1.5534 55.0381 -1.57687 54.1603L-1.88961 42.4643Z" fill="white"/>
</g>
<defs>
<clipPath id="clip0_6376_1491">
<rect width="91" height="96" fill="white"/>
</clipPath>
<clipPath id="clip1_6376_1491">
<rect width="91" height="96" fill="white" transform="translate(-0.442383)"/>
</clipPath>
</defs>
</svg>
