<svg width="164" height="38" viewBox="0 0 164 38" fill="none" xmlns="http://www.w3.org/2000/svg">
<g id="Layer_1" clip-path="url(#clip0_6320_314)">
<g id="Group">
<path id="Vector" d="M1.23325 22.6198C1.18919 22.3947 1.16472 22.2136 1.16472 22.0765C1.16472 21.7583 1.28709 21.5772 1.53674 21.5331C2.23673 21.3961 2.83881 20.794 2.83881 20.0744V2.60412C2.83881 2.28595 2.7556 1.94819 2.54511 1.70344C2.30036 1.42443 1.95771 1.36568 1.61016 1.31673C1.36052 1.27268 1.23814 1.07688 1.23814 0.739123C1.23814 0.626538 1.24793 0.440527 1.27241 0.347522H2.98077C3.38706 0.357312 3.74929 0.362207 4.06746 0.362207C4.72339 0.362207 5.15905 0.386682 5.37443 0.430737C5.58981 0.474792 5.76603 0.592273 5.90309 0.768493L18.1015 17.0444V4.38101C18.1015 4.13626 18.1064 3.89151 18.1015 3.65166C18.0868 2.99572 18.1994 2.39364 17.6952 1.87966C17.4015 1.57617 16.9903 1.39995 16.5742 1.33142C16.4714 1.31673 16.3637 1.30205 16.2854 1.23841C16.1924 1.16499 16.1581 1.04261 16.1386 0.925134C16.1043 0.685278 16.1239 0.435632 16.1973 0.205566C16.1973 0.205566 18.9679 0.445422 21.2 0.215356C21.2636 0.435632 21.2832 0.670593 21.2636 0.900659C21.2539 1.00345 21.2343 1.10625 21.1706 1.18457C21.0532 1.32652 20.8916 1.30694 20.7301 1.3461C20.5245 1.39995 20.3385 1.52722 20.1916 1.67897C19.8881 1.99225 19.7021 2.3349 19.7021 2.77545V22.7912C19.6581 22.8156 19.5798 22.8303 19.4623 22.8401C19.3497 22.8499 19.2567 22.8548 19.1882 22.8548C19.0315 22.8548 18.8847 22.8156 18.7476 22.7373C18.6106 22.659 18.4539 22.4926 18.2728 22.2429L4.46885 4.06773V20.0744C4.46885 20.9164 5.26185 21.4059 6.00589 21.5331C6.23106 21.5772 6.34364 21.7583 6.34364 22.0765C6.34364 22.2136 6.50518 22.6394 6.27511 22.6198C3.69055 22.4191 1.22835 22.6198 1.22835 22.6198H1.23325Z" fill="white"/>
<path id="Vector_2" d="M49.1603 19.9227C48.8764 20.2066 48.5485 20.4367 48.196 20.6276C47.8142 20.8332 47.3981 21.0143 46.9772 21.1122C46.5268 21.2443 45.9737 21.308 45.3129 21.308H40.4423V12.1347H45.5772C45.8317 12.1347 46.0716 12.213 46.2576 12.3893C46.5366 12.6585 46.7275 13.0697 46.8842 13.4172C47.0212 13.7305 47.1681 14.0144 47.5548 14.0144C47.6184 14.0144 47.7065 14.0046 47.8191 13.9801C47.9268 13.9606 48.0149 13.9361 48.0834 13.9165C48.0394 13.4319 48.0002 13.6326 47.966 13.0207C47.9366 12.4431 47.9219 11.9438 47.917 11.5033C47.917 11.0627 47.9317 10.5634 47.966 9.98581C48.0002 9.37393 48.0394 9.56973 48.0834 9.09002C48.0198 9.07044 47.9317 9.04596 47.8191 9.02638C47.7114 9.0068 47.6233 8.99212 47.5548 8.99212C47.1681 8.99212 47.0212 9.28092 46.8842 9.58931C46.7324 9.94175 46.5415 10.3529 46.2576 10.6173C46.0716 10.7935 45.8317 10.8718 45.5772 10.8718H40.4423V1.70834H45.3129C45.9737 1.70834 46.5268 1.77197 46.9772 1.90414C47.3981 2.00204 47.8142 2.18315 48.196 2.38874C48.5485 2.57965 48.8764 2.80971 49.1603 3.09363C49.5862 3.52439 49.8212 4.00899 50.5261 3.72998L49.9044 0.699963C49.8065 0.337732 49.6156 0.156616 49.3268 0.156616C49.0869 0.156616 48.6023 0.190881 47.8778 0.254517C47.1534 0.318152 46.2968 0.352417 45.3129 0.352417H38.827C38.3228 0.352417 37.7501 0.342627 37.1137 0.318152C36.4774 0.298572 36.4333 0.254517 35.4935 0.185986C35.4739 0.274097 35.4543 0.357312 35.4445 0.430737C35.4347 0.509057 35.4298 0.602063 35.4298 0.709753C35.4298 1.03772 35.5375 1.22373 35.7578 1.26778C36.4137 1.39506 37.2361 1.78176 37.334 2.52091C37.4123 3.11321 37.3487 3.75445 37.3487 4.35654V18.6402C37.3487 19.2423 37.4172 19.8786 37.334 20.4758C37.2361 21.215 36.4137 21.6066 35.7578 21.7289C35.5375 21.773 35.4298 21.959 35.4298 22.287C35.4298 22.3947 35.4347 22.4877 35.4445 22.566C35.4543 22.6443 35.4739 22.7275 35.4935 22.8107C36.4382 22.7471 36.4774 22.6982 37.1137 22.6786C37.7501 22.6541 38.3228 22.6443 38.827 22.6443H45.3129C46.3017 22.6443 47.1583 22.6786 47.8778 22.7422C48.6023 22.8059 49.082 22.8401 49.3268 22.8401C49.6107 22.8401 49.8065 22.659 49.9044 22.2968L50.5261 19.2668C49.8212 18.9828 49.5862 19.4675 49.1603 19.9031V19.9227Z" fill="white"/>
<path id="Vector_3" d="M118.645 14.1956C118.645 15.4878 118.498 16.6577 118.205 17.7102C117.911 18.7626 117.416 19.678 116.726 20.4465C116.036 21.215 115.121 21.8122 113.99 22.2332C112.854 22.6541 111.44 22.8597 109.741 22.8597C107.793 22.8597 106.217 22.615 105.017 22.1304C103.818 21.6409 102.893 21.0045 102.247 20.2115C101.601 19.4185 101.17 18.5081 100.954 17.4752C100.739 16.4473 100.631 15.3997 100.631 14.3326V4.12161C100.631 3.50974 100.773 2.7657 100.494 2.20277C100.23 1.66921 99.6965 1.37062 99.1287 1.31188C98.9035 1.2874 98.7909 1.0965 98.7909 0.734265C98.7909 0.597204 98.8154 0.416089 98.8594 0.190918C99.5398 0.234973 99.4615 0.274133 100.176 0.308398C100.891 0.342663 101.576 0.357348 102.232 0.357348C102.819 0.357348 103.51 0.342663 104.308 0.308398C105.101 0.274133 105.066 0.234973 105.742 0.190918C105.786 0.416089 105.81 0.597204 105.81 0.734265C105.81 1.0965 105.698 1.2874 105.473 1.31188C104.929 1.3853 104.371 1.64474 104.048 2.10976C103.652 2.67759 103.833 3.53421 103.833 4.19015V9.84878C103.833 11.0921 103.833 12.3354 103.833 13.5788C103.833 15.9333 104.303 17.7395 105.243 18.9976C106.182 20.2556 107.773 20.8821 110.015 20.8821C111.283 20.8821 112.36 20.7402 113.241 20.4563C114.127 20.1724 114.851 19.7367 115.414 19.1493C115.982 18.5619 116.388 17.7983 116.638 16.8535C116.888 15.9137 117.01 14.7879 117.01 13.4711V3.8377C117.01 3.30904 117.123 2.67759 116.873 2.19787C116.604 1.6839 115.997 1.36572 115.439 1.31677C115.189 1.2923 115.067 1.10139 115.067 0.73916C115.067 0.602099 115.091 0.420984 115.135 0.195813C115.791 0.239868 115.659 0.279028 116.286 0.313293C116.907 0.347558 117.446 0.362243 117.901 0.362243C118.444 0.362243 118.993 0.347558 119.551 0.313293C120.109 0.279028 119.884 0.239868 120.427 0.195813C120.471 0.420984 120.495 0.602099 120.495 0.73916C120.495 0.851745 120.461 0.969225 120.393 1.0965C120.324 1.21887 120.236 1.29719 120.123 1.31677C119.365 1.46852 118.655 1.92375 118.655 2.77549V14.1956H118.645Z" fill="white"/>
<path id="Vector_4" d="M148.172 4.9097C147.839 5.12508 147.374 4.99781 147.07 4.73837C146.767 4.47894 146.576 4.1216 146.341 3.79363C145.343 2.38877 143.585 1.67409 141.867 1.55172C140.413 1.44892 138.803 1.80136 137.912 2.95659C137.256 3.80342 137.109 5.01249 137.535 5.99639C137.956 6.96071 138.847 7.63622 139.762 8.15509C141.348 9.05088 143.105 9.60402 144.726 10.4362C146.346 11.2683 147.893 12.4578 148.573 14.1515C149.024 15.2675 149.053 16.5256 148.823 17.7102C148.593 18.8948 148.089 20.05 147.242 20.9115C145.861 22.3213 143.776 22.7912 141.803 22.8499C139.527 22.9185 137.217 22.5318 135.171 21.5283C134.598 21.2493 134.681 20.422 134.598 19.864C134.49 19.1346 134.383 18.4053 134.28 17.6759C134.197 17.0885 135.176 17.4311 135.386 17.6367C135.778 18.0185 135.934 18.5668 136.267 18.9927C137.677 20.8038 140.638 21.7534 142.841 21.1563C144.491 20.7059 145.905 19.1982 145.881 17.4899C145.861 16.1682 145.015 14.969 143.952 14.1809C142.89 13.3928 141.617 12.9473 140.374 12.4921C139.131 12.0368 137.868 11.5522 136.85 10.7054C135.244 9.36906 134.417 7.14672 134.764 5.08592C135.117 3.00064 136.693 1.0769 138.705 0.37202C139.885 -0.0440566 141.387 -0.0244765 142.616 0.0538438C143.928 0.137059 145.225 0.416075 146.459 0.876206C146.777 0.993687 147.095 1.12585 147.403 1.2727C147.491 1.31676 147.584 1.36081 147.643 1.43913C147.707 1.52235 147.721 1.63493 147.736 1.73773C147.878 2.79505 148.02 3.85727 148.157 4.91459L148.172 4.9097Z" fill="white"/>
<g id="Group_2">
<path id="Vector_5" d="M73.283 11.425L75.3487 11.4348L75.3585 9.34949L73.283 11.425Z" fill="#F2DA77"/>
<path id="Vector_6" d="M75.3683 9.35437L75.3536 11.425L77.4438 11.4299L75.3683 9.35437Z" fill="#7FC1D3"/>
<path id="Vector_7" d="M77.4438 11.4494L75.3732 11.4348L75.3683 13.5249L77.4438 11.4494Z" fill="#B6D27C"/>
<path id="Vector_8" d="M75.3585 13.52L75.3683 11.4494L73.283 11.4396L75.3585 13.52Z" fill="#E98B62"/>
<path id="Vector_9" d="M84.3115 19.6045C85.0947 20.3682 86.0149 21.3814 87.1212 21.5821C87.3708 21.6262 87.4932 21.822 87.4932 22.1597C87.4932 22.2723 87.4834 22.4583 87.4589 22.5513C85.5744 22.5513 83.6947 22.4877 81.8199 22.6835C81.7367 22.6933 81.6486 22.6982 81.5751 22.659C81.4283 22.5807 81.4723 22.1451 81.487 21.9982C81.5115 21.7535 81.5996 21.7339 81.7905 21.6458C82.4024 21.3619 81.8933 20.8821 81.5654 20.5542L76.2983 14.3032L78.1927 12.4089L84.3066 19.6045H84.3115Z" fill="white"/>
<path id="Vector_10" d="M66.4055 3.28948C65.6223 2.52585 64.702 1.51259 63.5958 1.31189C63.3461 1.26783 63.2237 1.07203 63.2237 0.734278C63.2237 0.621692 63.2335 0.435682 63.258 0.342676C65.1426 0.342676 67.0223 0.406312 68.8971 0.210511C68.9803 0.200721 69.0684 0.195826 69.1418 0.234986C69.2887 0.313306 69.2446 0.748963 69.2299 0.895813C69.2054 1.14056 69.1173 1.16014 68.9264 1.24825C68.3145 1.53217 68.8236 2.01188 69.1516 2.33984L74.4186 8.59078L72.5243 10.4851L66.4104 3.28948H66.4055Z" fill="white"/>
<path id="Vector_11" d="M81.5702 2.18318C81.8982 1.85522 82.4073 1.37551 81.7954 1.09159C81.6045 1.00348 81.5164 0.979009 81.4919 0.739154C81.4772 0.592303 81.4283 0.156647 81.58 0.0783266C81.6535 0.0391665 81.7416 0.0489565 81.8248 0.0538515C83.6996 0.244757 85.5793 0.186017 87.4638 0.186017C87.4883 0.279022 87.4981 0.465033 87.4981 0.577618C87.4981 0.915374 87.3757 1.11117 87.1261 1.15523C86.0198 1.35593 85.0996 2.36919 84.3164 3.13282L78.2025 10.3285L76.3081 8.43412L81.5751 2.18318H81.5702Z" fill="white"/>
<path id="Vector_12" d="M72.2599 12.5851L74.1543 14.4795L68.8873 20.7304C68.5593 21.0584 68.0502 21.5381 68.6621 21.822C68.853 21.9101 68.9411 21.9346 68.9656 22.1744C68.9803 22.3213 69.0292 22.7569 68.8775 22.8352C68.8041 22.8744 68.7159 22.8646 68.6327 22.8597C66.7579 22.6688 64.8782 22.7276 62.9937 22.7276C62.9692 22.6346 62.9594 22.4485 62.9594 22.336C62.9594 21.9982 63.0818 21.8024 63.3314 21.7583C64.4377 21.5576 65.358 20.5444 66.1412 19.7808L72.255 12.5851H72.2599Z" fill="white"/>
</g>
</g>
<g id="Group_3">
<path id="Vector_13" d="M41.6465 35.2979H39.2333L38.5431 37.0406C38.5088 37.1287 38.4892 37.1972 38.4892 37.2559C38.4892 37.4077 38.7095 37.5154 39.15 37.579C39.199 37.5839 39.2333 37.6084 39.2528 37.6377C39.2724 37.672 39.2822 37.7063 39.2822 37.7503C39.2822 37.7944 39.2724 37.8531 39.2626 37.9217C39.0668 37.907 38.8612 37.8923 38.6459 37.8825C38.4305 37.8727 38.2151 37.8678 38.0095 37.8678C37.8675 37.8678 37.7158 37.8678 37.5641 37.8776C37.4123 37.8874 37.2557 37.8972 37.0892 37.9217C37.0746 37.8629 37.0697 37.8042 37.0697 37.7503C37.0697 37.7014 37.0794 37.6573 37.099 37.6231C37.1186 37.5888 37.1529 37.5643 37.2116 37.5594C37.4368 37.5252 37.6032 37.4762 37.7158 37.4224C37.8284 37.3685 37.9067 37.2853 37.9605 37.1678L40.5647 30.8973C40.6136 30.7749 40.6822 30.7113 40.7703 30.7113C40.7997 30.7113 40.8437 30.7162 40.9025 30.7309L43.5213 37.1972C43.5653 37.3 43.6632 37.3783 43.815 37.4371C43.9667 37.4958 44.1136 37.535 44.2604 37.5545C44.3045 37.5692 44.3388 37.5888 44.3632 37.6133C44.3877 37.6377 44.4024 37.6818 44.4024 37.7503C44.4024 37.7944 44.3975 37.8531 44.3828 37.9217C44.1527 37.907 43.9227 37.8923 43.7024 37.8825C43.4772 37.8727 43.2716 37.8678 43.0758 37.8678C42.88 37.8678 42.6451 37.8727 42.3856 37.8825C42.1262 37.8923 41.8912 37.907 41.6808 37.9217C41.6661 37.8482 41.6612 37.7895 41.6612 37.7503C41.6612 37.6867 41.6759 37.6426 41.7003 37.6133C41.7248 37.5888 41.7493 37.5741 41.7689 37.5741C41.9549 37.5399 42.1066 37.4958 42.2241 37.4517C42.3416 37.4028 42.3954 37.3343 42.3954 37.2413C42.3954 37.1972 42.3807 37.1434 42.3514 37.0797L41.671 35.2979H41.6465ZM41.4752 34.8525L40.4717 32.2043L39.4242 34.8525H41.4801H41.4752Z" fill="#99A0A0"/>
<path id="Vector_14" d="M55.377 34.3581C55.377 34.784 55.3036 35.205 55.1567 35.621C55.0099 36.0371 54.7847 36.414 54.4861 36.7518C54.1875 37.0846 53.8106 37.3588 53.3505 37.5644C52.8903 37.7699 52.3568 37.8727 51.7449 37.8727H49.5275C49.3415 37.8727 49.1261 37.8776 48.8911 37.8874C48.6513 37.8972 48.4212 37.9119 48.2009 37.9266C48.1862 37.8532 48.1813 37.7944 48.1813 37.7553C48.1813 37.6525 48.2205 37.5986 48.2988 37.5839C48.5632 37.5203 48.759 37.4567 48.8715 37.3979C48.989 37.3392 49.0429 37.2462 49.0429 37.1189V31.6169C49.0429 31.4749 48.989 31.3722 48.8813 31.3134C48.7736 31.2547 48.5778 31.2008 48.2988 31.1519C48.2548 31.147 48.2254 31.1225 48.2058 31.0882C48.1862 31.054 48.1764 31.0148 48.1764 30.9708C48.1764 30.9267 48.1813 30.868 48.196 30.7994C48.3478 30.8141 48.4799 30.8239 48.5925 30.8288C48.7051 30.8288 48.8128 30.8386 48.9107 30.8435C49.0135 30.8533 49.1114 30.8533 49.2093 30.8533H51.7351C52.3421 30.8533 52.8708 30.9463 53.3309 31.1323C53.791 31.3183 54.1679 31.5729 54.4714 31.891C54.7749 32.2092 55.0001 32.5812 55.1518 33.0022C55.3036 33.4281 55.377 33.8833 55.377 34.363V34.3581ZM54.2414 34.5637C54.2414 33.4525 53.9672 32.6302 53.4141 32.0917C52.861 31.5533 52.0582 31.284 50.996 31.284H50.0561V37.0357C50.0561 37.1091 50.0757 37.1679 50.11 37.2217C50.1442 37.2755 50.2079 37.3098 50.296 37.3392C50.3841 37.3686 50.5016 37.3881 50.6533 37.4028C50.8051 37.4175 50.996 37.4224 51.226 37.4224C51.7792 37.4224 52.2491 37.3539 52.6309 37.2217C53.0127 37.0895 53.3211 36.8986 53.561 36.649C53.8008 36.3993 53.9721 36.1007 54.0798 35.7483C54.1875 35.3959 54.2414 34.9994 54.2414 34.5588V34.5637Z" fill="#99A0A0"/>
<path id="Vector_15" d="M64.5013 31.7099C64.5307 31.6316 64.5454 31.5581 64.5454 31.4945C64.5454 31.3917 64.4964 31.3183 64.3936 31.2693C64.2908 31.2204 64.1293 31.1812 63.909 31.1519C63.8209 31.147 63.7818 31.0833 63.7818 30.9658C63.7818 30.9316 63.7818 30.8973 63.7915 30.8679C63.7915 30.8484 63.7915 30.819 63.8013 30.7945C63.816 30.7945 63.8601 30.7945 63.9433 30.8043C64.0216 30.8141 64.1195 30.819 64.2321 30.8239C64.3447 30.8288 64.4622 30.8386 64.5943 30.8386C64.7265 30.8386 64.8489 30.8435 64.9615 30.8435C65.2013 30.8435 65.4167 30.8386 65.6174 30.8239C65.8132 30.8092 65.9307 30.7994 65.9698 30.7896C65.9698 30.8092 65.9698 30.8386 65.9796 30.863C65.9796 30.8826 65.9796 30.9022 65.9845 30.9218C65.9894 30.9414 65.9894 30.9561 65.9894 30.9707C65.9894 31.0882 65.9502 31.1519 65.8719 31.1665C65.6419 31.1812 65.4705 31.2155 65.3628 31.2742C65.2552 31.333 65.1719 31.4309 65.1132 31.5679L62.4405 37.9902C62.4405 37.9902 62.4112 37.9902 62.3916 37.9951C62.372 37.9951 62.3573 38 62.3426 38C62.2643 38 62.2007 37.9363 62.1468 37.814L59.6063 31.5092C59.5623 31.4064 59.4888 31.333 59.3909 31.284C59.2881 31.2351 59.1119 31.191 58.8525 31.1519C58.7742 31.147 58.735 31.0784 58.735 30.9561C58.735 30.8973 58.7399 30.8386 58.7546 30.7847C58.97 30.7994 59.2049 30.8141 59.4595 30.8239C59.714 30.8337 59.9294 30.8386 60.1203 30.8386C60.3112 30.8386 60.5217 30.8337 60.7811 30.8239C61.0405 30.8141 61.2804 30.7994 61.5056 30.7847C61.5203 30.8582 61.5252 30.9169 61.5252 30.9561C61.5252 31.0637 61.4811 31.1274 61.393 31.1421C60.9671 31.1861 60.7566 31.2987 60.7566 31.4896C60.7566 31.5386 60.7615 31.5875 60.7762 31.6316L62.6118 36.3357L64.5062 31.7099H64.5013Z" fill="#99A0A0"/>
<path id="Vector_16" d="M71.6187 37.114C71.6187 37.2559 71.6676 37.3587 71.7704 37.4126C71.8732 37.4664 72.0592 37.5251 72.3333 37.579C72.4068 37.5937 72.441 37.6524 72.441 37.7503C72.441 37.7944 72.4361 37.8531 72.4215 37.9216C72.1963 37.907 71.976 37.8923 71.7508 37.8825C71.5257 37.8727 71.3152 37.8678 71.1145 37.8678C70.9138 37.8678 70.7033 37.8727 70.4732 37.8825C70.2432 37.8923 70.018 37.907 69.8075 37.9216C69.7928 37.8482 69.7879 37.7895 69.7879 37.7503C69.7879 37.6475 69.8222 37.5937 69.8956 37.579C70.1698 37.53 70.3558 37.4762 70.4586 37.4175C70.5614 37.3587 70.6103 37.2608 70.6103 37.114V31.612C70.6103 31.47 70.5614 31.3672 70.4586 31.3036C70.3558 31.2448 70.1698 31.191 69.8956 31.1469C69.8516 31.142 69.8222 31.1176 69.8075 31.0833C69.7928 31.049 69.7879 31.0099 69.7879 30.9658C69.7879 30.9218 69.7928 30.863 69.8075 30.7945C70.0229 30.8092 70.2481 30.8239 70.483 30.8337C70.718 30.8434 70.9285 30.8483 71.1145 30.8483C71.3005 30.8483 71.5012 30.8434 71.7362 30.8337C71.9711 30.8239 72.2012 30.8092 72.4215 30.7945C72.4361 30.8679 72.441 30.9267 72.441 30.9658C72.441 31.0735 72.4068 31.1371 72.3333 31.1518C72.0592 31.1959 71.8732 31.2497 71.7704 31.3085C71.6676 31.3721 71.6187 31.47 71.6187 31.6169V37.1189V37.114Z" fill="#99A0A0"/>
<path id="Vector_17" d="M81.3059 32.5421C81.2325 32.5568 81.1787 32.5616 81.1444 32.5616C81.0514 32.5616 80.9829 32.5421 80.9388 32.5078C80.8947 32.4735 80.8605 32.4344 80.8409 32.3903C80.6549 31.9791 80.4297 31.6805 80.1703 31.4945C79.9108 31.3085 79.5584 31.2155 79.1081 31.2155C78.9367 31.2155 78.7703 31.24 78.6186 31.284C78.4668 31.3281 78.3297 31.4015 78.2123 31.4896C78.0948 31.5777 78.0067 31.6903 77.9381 31.8176C77.8696 31.9449 77.8354 32.0917 77.8354 32.2484C77.8354 32.5861 77.9773 32.8651 78.2612 33.0805C78.5451 33.2959 78.9661 33.5162 79.5192 33.7413C80.2094 34.0155 80.7234 34.319 81.0465 34.6567C81.3745 34.9945 81.536 35.4056 81.536 35.8951C81.536 36.1889 81.4919 36.4679 81.3989 36.7224C81.3108 36.9769 81.1689 37.2021 80.978 37.393C80.7871 37.5839 80.5423 37.7357 80.2388 37.8434C79.9353 37.9511 79.5731 38.0049 79.1472 38.0049C78.7018 38.0049 78.2955 37.9559 77.9284 37.8629C77.5661 37.7699 77.2577 37.6476 77.0032 37.4958C76.9836 37.1923 76.9494 36.9035 76.9053 36.6196C76.8612 36.3406 76.8123 36.0567 76.7536 35.7777C76.8025 35.7581 76.8661 35.7434 76.9396 35.7434C77.0277 35.7434 77.0913 35.763 77.1403 35.8021C77.1892 35.8413 77.2284 35.9049 77.2626 35.993C77.4437 36.5119 77.6738 36.8937 77.9577 37.1385C78.2416 37.3832 78.6381 37.5056 79.1521 37.5056C79.3822 37.5056 79.5829 37.4713 79.7591 37.4077C79.9304 37.3441 80.0773 37.2511 80.1899 37.1385C80.3073 37.021 80.3906 36.8937 80.4493 36.7469C80.508 36.6049 80.5374 36.4483 80.5374 36.2819C80.5374 35.9049 80.4101 35.6112 80.1556 35.3959C79.901 35.1805 79.5339 34.9847 79.0591 34.8134C78.7507 34.6959 78.4668 34.5784 78.2172 34.4511C77.9675 34.3238 77.7472 34.177 77.5661 34.0155C77.385 33.8539 77.248 33.6581 77.1501 33.4379C77.0522 33.2176 77.0032 32.9581 77.0032 32.6546C77.0032 32.3903 77.0522 32.1358 77.1501 31.9008C77.248 31.6659 77.3899 31.4652 77.571 31.2889C77.757 31.1176 77.9773 30.9806 78.2367 30.8778C78.4962 30.775 78.7899 30.726 79.113 30.726C79.436 30.726 79.7738 30.7603 80.0871 30.8239C80.3954 30.8875 80.7479 30.9952 81.1346 31.147C81.1493 31.3624 81.1689 31.5973 81.1933 31.8421C81.2178 32.0917 81.2521 32.3218 81.2961 32.5372L81.3059 32.5421Z" fill="#99A0A0"/>
<path id="Vector_18" d="M85.8876 34.3581C85.8876 33.8588 85.9758 33.3938 86.1569 32.9532C86.338 32.5127 86.5827 32.126 86.8911 31.798C87.1995 31.4651 87.5617 31.2057 87.9729 31.0099C88.3841 30.8141 88.8149 30.7162 89.2701 30.7162C89.8967 30.7162 90.4449 30.8141 90.9148 31.0148C91.3847 31.2155 91.7715 31.4798 92.0798 31.8127C92.3833 32.1455 92.6134 32.5371 92.7652 32.9728C92.9169 33.4133 92.9903 33.8735 92.9903 34.3581C92.9903 34.9259 92.8973 35.4399 92.7113 35.8902C92.5253 36.3406 92.2659 36.7224 91.9379 37.0357C91.6099 37.3489 91.2232 37.5888 90.7827 37.7552C90.3372 37.9216 89.8673 38.0049 89.3582 38.0049C88.8491 38.0049 88.3792 37.9168 87.9533 37.7454C87.5275 37.5741 87.1604 37.3245 86.8569 37.0063C86.5485 36.6881 86.3135 36.3014 86.1422 35.856C85.9709 35.4105 85.8876 34.9112 85.8876 34.363V34.3581ZM89.6079 37.4811C89.9456 37.4811 90.2589 37.4175 90.5379 37.2853C90.8169 37.1531 91.0617 36.9769 91.2624 36.7468C91.4631 36.5168 91.6197 36.2427 91.7323 35.9245C91.8449 35.6063 91.8987 35.2637 91.8987 34.8867C91.8987 34.3679 91.8449 33.8882 91.7372 33.4427C91.6295 32.9973 91.4631 32.6155 91.2477 32.2875C91.0274 31.9595 90.7484 31.7001 90.4155 31.5141C90.0778 31.3281 89.6911 31.2351 89.2407 31.2351C88.947 31.2351 88.6631 31.2889 88.3939 31.4015C88.1247 31.5141 87.8848 31.6756 87.6792 31.8861C87.4736 32.0966 87.3121 32.3609 87.1897 32.6693C87.0674 32.9777 87.0037 33.335 87.0037 33.7413C87.0037 34.2749 87.0624 34.7693 87.175 35.2294C87.2876 35.6895 87.459 36.0811 87.6792 36.4189C87.8995 36.7517 88.1687 37.0161 88.4967 37.2021C88.8198 37.3881 89.1918 37.4811 89.6079 37.4811Z" fill="#99A0A0"/>
<path id="Vector_19" d="M99.9363 34.7154H99.1384V37.0944C99.1384 37.2511 99.2119 37.3588 99.3587 37.4175C99.5056 37.4762 99.7307 37.5203 100.034 37.5595C100.122 37.5741 100.162 37.6329 100.162 37.7455C100.162 37.7944 100.157 37.858 100.142 37.9315C99.9461 37.9168 99.7112 37.9021 99.4321 37.8923C99.1531 37.8825 98.8839 37.8776 98.6147 37.8776C98.4287 37.8776 98.2084 37.8825 97.9636 37.8923C97.7189 37.9021 97.4888 37.9168 97.2734 37.9315C97.2588 37.858 97.2539 37.7993 97.2539 37.7601C97.2539 37.6574 97.293 37.6035 97.3713 37.5888C97.6455 37.5448 97.8364 37.4909 97.949 37.4322C98.0615 37.3734 98.1154 37.2706 98.1154 37.1238V31.6218C98.1154 31.4847 98.0615 31.3819 97.9587 31.3134C97.856 31.2449 97.6504 31.191 97.3469 31.1568C97.2734 31.1519 97.2392 31.0882 97.2392 30.9708C97.2392 30.9267 97.2441 30.868 97.2588 30.7994C97.4741 30.8141 97.6993 30.8288 97.9294 30.8386C98.1594 30.8484 98.3797 30.8533 98.5902 30.8533H100.049C100.827 30.8533 101.415 31.0246 101.811 31.3673C102.208 31.7099 102.403 32.1749 102.403 32.7574C102.403 32.9141 102.374 33.0805 102.32 33.2567C102.266 33.433 102.183 33.5994 102.071 33.7658C101.958 33.9322 101.816 34.084 101.64 34.2259C101.464 34.3679 101.258 34.4805 101.018 34.5686L102.824 37.0748C102.961 37.2609 103.113 37.393 103.28 37.4664C103.446 37.5399 103.603 37.5937 103.745 37.628C103.808 37.6427 103.843 37.6916 103.843 37.7797C103.843 37.8385 103.838 37.9021 103.823 37.9755C103.657 37.9608 103.456 37.9462 103.216 37.9364C102.976 37.9266 102.761 37.9217 102.555 37.9217C102.403 37.9217 102.252 37.858 102.095 37.7259C101.938 37.5986 101.796 37.4322 101.659 37.2266L99.9314 34.7301L99.9363 34.7154ZM99.7063 34.27C100.21 34.27 100.602 34.1623 100.876 33.9518C101.15 33.7413 101.287 33.3644 101.287 32.8309C101.287 32.6057 101.258 32.4001 101.199 32.2141C101.141 32.0281 101.048 31.8666 100.925 31.7295C100.803 31.5924 100.631 31.4847 100.426 31.4064C100.22 31.3281 99.9706 31.2889 99.6769 31.2889H99.1384V34.2749H99.7112L99.7063 34.27Z" fill="#99A0A0"/>
<path id="Vector_20" d="M109.144 34.7595L107.338 31.5141C107.264 31.4064 107.176 31.3232 107.068 31.2693C106.961 31.2155 106.814 31.1763 106.623 31.1469C106.589 31.1421 106.559 31.1176 106.54 31.0833C106.52 31.049 106.51 31.005 106.51 30.9511V30.9022C106.51 30.9022 106.51 30.8679 106.52 30.8532C106.52 30.8337 106.52 30.8092 106.53 30.7896C106.687 30.8043 106.892 30.819 107.137 30.8288C107.382 30.8386 107.622 30.8435 107.852 30.8435C107.94 30.8435 108.038 30.8435 108.155 30.8386C108.273 30.8337 108.39 30.8337 108.512 30.8288C108.635 30.8288 108.752 30.819 108.865 30.8141C108.977 30.8092 109.07 30.7994 109.149 30.7945C109.149 30.8239 109.149 30.8484 109.159 30.8679C109.159 30.8875 109.159 30.9071 109.163 30.9218C109.163 30.9365 109.168 30.9511 109.168 30.9658C109.168 31.0099 109.159 31.049 109.144 31.0833C109.124 31.1176 109.1 31.1421 109.061 31.1469C108.85 31.1763 108.703 31.2106 108.625 31.2497C108.542 31.2889 108.503 31.3476 108.503 31.4162C108.503 31.4749 108.527 31.5434 108.576 31.6218L109.917 34.0448L111.18 31.798C111.254 31.6658 111.288 31.5679 111.288 31.4945C111.288 31.4015 111.239 31.3281 111.141 31.2791C111.043 31.2302 110.891 31.1861 110.681 31.1469C110.603 31.1421 110.563 31.0784 110.563 30.9609C110.563 30.9267 110.563 30.8924 110.573 30.863C110.573 30.8435 110.573 30.8141 110.583 30.7896C110.74 30.8043 110.926 30.819 111.141 30.8288C111.352 30.8386 111.552 30.8435 111.728 30.8435C111.895 30.8435 112.071 30.8386 112.252 30.8288C112.438 30.819 112.619 30.8043 112.8 30.7896C112.8 30.819 112.8 30.8435 112.81 30.863C112.81 30.8826 112.81 30.9022 112.815 30.9169C112.815 30.9316 112.82 30.9463 112.82 30.9609C112.82 31.0637 112.781 31.1225 112.703 31.1469C112.448 31.1812 112.272 31.2302 112.169 31.284C112.066 31.3379 111.978 31.4309 111.905 31.5581L110.152 34.6616V37.0846C110.152 37.2412 110.211 37.3538 110.333 37.4126C110.451 37.4762 110.652 37.5252 110.935 37.5692C111.014 37.5839 111.053 37.6426 111.053 37.7405C111.053 37.7552 111.053 37.7748 111.048 37.7944C111.048 37.814 111.043 37.8335 111.043 37.8482C111.038 37.8776 111.033 37.8972 111.033 37.9119C110.862 37.907 110.691 37.8972 110.524 37.8923C110.382 37.8874 110.226 37.8776 110.064 37.8727C109.903 37.8678 109.761 37.8629 109.638 37.8629C109.516 37.8629 109.374 37.8629 109.217 37.8727C109.061 37.8776 108.909 37.8874 108.762 37.8923C108.596 37.8972 108.429 37.907 108.263 37.9119C108.258 37.8972 108.253 37.8776 108.253 37.8482C108.243 37.8335 108.243 37.814 108.243 37.7944V37.7405C108.243 37.6377 108.277 37.5839 108.351 37.5692C108.63 37.5105 108.835 37.4566 108.958 37.4028C109.08 37.3489 109.144 37.2412 109.144 37.0846V34.7595Z" fill="#99A0A0"/>
</g>
<g id="Group_4">
<path id="Vector_21" d="M153.708 1.68879C153.708 1.68879 153.723 1.66432 153.728 1.64963C153.733 1.63495 153.747 1.63005 153.767 1.62026C153.786 1.61537 153.811 1.61047 153.84 1.60558C153.87 1.60558 153.914 1.60068 153.968 1.60068C153.992 1.60068 154.026 1.60068 154.065 1.60068C154.105 1.60068 154.149 1.60068 154.198 1.60068C154.242 1.60068 154.291 1.60068 154.34 1.59579C154.388 1.59579 154.433 1.59089 154.472 1.586C154.477 1.61537 154.481 1.63984 154.481 1.65942C154.481 1.70837 154.467 1.73285 154.437 1.73774C154.325 1.75243 154.251 1.77201 154.217 1.80138C154.183 1.83075 154.163 1.86012 154.163 1.90417C154.163 1.90417 154.163 1.94823 154.168 2.02655C154.168 2.10487 154.178 2.23704 154.188 2.41815C154.198 2.60416 154.207 2.84891 154.222 3.1524C154.237 3.45589 154.251 3.83771 154.271 4.29294C154.271 4.35168 154.295 4.39574 154.33 4.42511C154.369 4.45448 154.442 4.47406 154.555 4.49364C154.57 4.49364 154.584 4.50343 154.589 4.51811C154.594 4.5328 154.599 4.54748 154.599 4.56706C154.599 4.58664 154.599 4.61112 154.589 4.64049C154.481 4.63559 154.384 4.6307 154.295 4.6258C154.207 4.62091 154.124 4.62091 154.051 4.62091C154.021 4.62091 153.982 4.62091 153.933 4.62091C153.889 4.62091 153.84 4.62091 153.786 4.62091C153.737 4.62091 153.684 4.62091 153.635 4.6258C153.586 4.6258 153.542 4.6307 153.502 4.63559C153.498 4.60622 153.493 4.58175 153.493 4.56217C153.493 4.51322 153.507 4.48874 153.537 4.48874C153.659 4.46427 153.742 4.43979 153.791 4.41532C153.835 4.39084 153.86 4.34679 153.86 4.28805C153.86 4.27826 153.86 4.21952 153.855 4.11672C153.855 4.01393 153.845 3.88176 153.835 3.73002C153.826 3.57827 153.821 3.41673 153.811 3.24051C153.801 3.06429 153.796 2.89786 153.786 2.74122C153.777 2.58458 153.772 2.45242 153.767 2.33983C153.762 2.22725 153.757 2.15872 153.757 2.13424L152.744 4.58664C152.729 4.61601 152.719 4.63559 152.709 4.65028C152.7 4.66496 152.685 4.66986 152.665 4.66986C152.646 4.66986 152.631 4.66986 152.626 4.66986L151.491 2.06571C151.491 2.09508 151.486 2.1734 151.481 2.29088C151.481 2.40836 151.471 2.55032 151.461 2.71675C151.451 2.87828 151.447 3.0545 151.437 3.23562C151.427 3.41673 151.417 3.58806 151.412 3.7398C151.403 3.89645 151.398 4.02372 151.393 4.13141C151.393 4.2342 151.388 4.29294 151.388 4.29784C151.388 4.39574 151.491 4.45937 151.701 4.49853C151.73 4.49853 151.745 4.5279 151.745 4.57196C151.745 4.59154 151.745 4.61601 151.735 4.64538C151.652 4.64049 151.569 4.63559 151.491 4.6307C151.407 4.6307 151.339 4.6258 151.275 4.6258C151.226 4.6258 151.158 4.6258 151.075 4.6307C150.991 4.6307 150.913 4.64049 150.84 4.64538C150.835 4.61601 150.83 4.59154 150.83 4.57196C150.83 4.5279 150.844 4.50343 150.874 4.49853C150.957 4.48385 151.026 4.45937 151.075 4.43C151.123 4.40063 151.153 4.35658 151.158 4.29784C151.158 4.26847 151.158 4.19015 151.168 4.06288C151.177 3.93561 151.182 3.78386 151.187 3.60764C151.197 3.43142 151.202 3.24541 151.212 3.04471C151.221 2.84891 151.231 2.6629 151.236 2.49647C151.246 2.33004 151.251 2.18809 151.256 2.0804C151.256 1.9727 151.261 1.91396 151.261 1.90907C151.261 1.86012 151.241 1.82096 151.202 1.80138C151.163 1.7818 151.089 1.75732 150.982 1.73774C150.952 1.73774 150.937 1.70837 150.937 1.65942C150.937 1.63984 150.937 1.61537 150.947 1.586C150.986 1.586 151.031 1.59089 151.084 1.59579C151.133 1.59579 151.187 1.60068 151.236 1.60068C151.285 1.60068 151.334 1.60068 151.383 1.60068C151.427 1.60068 151.466 1.60068 151.496 1.60068C151.549 1.60068 151.593 1.60068 151.623 1.60558C151.652 1.60558 151.677 1.61537 151.696 1.62026C151.716 1.62516 151.726 1.63495 151.735 1.64963C151.745 1.66432 151.75 1.67411 151.755 1.68879L152.749 3.99924L153.688 1.68879H153.708Z" fill="white"/>
<path id="Vector_22" d="M155.837 1.79158V2.97617H156.562C156.626 2.97617 156.67 2.9468 156.694 2.88806C156.719 2.82932 156.743 2.75589 156.758 2.66778C156.767 2.62862 156.797 2.60904 156.841 2.60904C156.851 2.60904 156.86 2.60904 156.88 2.60904C156.895 2.60904 156.909 2.61394 156.919 2.61883C156.914 2.68736 156.909 2.76568 156.905 2.8489C156.905 2.93701 156.9 3.01044 156.9 3.07407C156.9 3.12792 156.9 3.19155 156.9 3.26498C156.9 3.3384 156.909 3.42651 156.919 3.52441C156.895 3.52931 156.87 3.5342 156.851 3.5342C156.802 3.5342 156.772 3.51462 156.763 3.47546C156.748 3.38735 156.728 3.31393 156.699 3.25519C156.67 3.19645 156.63 3.16708 156.567 3.16708H155.842V4.25866C155.842 4.3223 155.886 4.36635 155.97 4.38593C156.053 4.40551 156.19 4.4202 156.381 4.4202H156.635C156.723 4.4202 156.802 4.40551 156.87 4.38104C156.939 4.35656 156.998 4.3174 157.046 4.27335C157.095 4.22929 157.144 4.17545 157.184 4.11181C157.223 4.04818 157.262 3.97965 157.301 3.90622C157.311 3.88664 157.335 3.87196 157.37 3.87196C157.384 3.87196 157.404 3.87196 157.419 3.88664C157.438 3.89643 157.453 3.90622 157.467 3.91601C157.438 3.97475 157.414 4.04328 157.394 4.1265C157.374 4.20971 157.355 4.28803 157.335 4.36146C157.316 4.43488 157.296 4.49852 157.277 4.55237C157.257 4.60621 157.232 4.63069 157.198 4.63069C157.174 4.63069 157.139 4.63069 157.091 4.63069C157.046 4.63069 156.993 4.62579 156.939 4.62579C156.885 4.62579 156.831 4.62579 156.772 4.6209C156.719 4.6209 156.67 4.6209 156.63 4.6209H155.617C155.529 4.6209 155.431 4.6209 155.328 4.62579C155.226 4.63069 155.128 4.63558 155.035 4.64048C155.03 4.61111 155.025 4.58663 155.025 4.56705C155.025 4.523 155.04 4.49852 155.069 4.49363C155.186 4.47405 155.27 4.44957 155.323 4.42509C155.372 4.40062 155.402 4.35656 155.402 4.29293V1.92864C155.402 1.865 155.377 1.82584 155.333 1.80137C155.289 1.77689 155.201 1.75242 155.069 1.72794C155.04 1.72305 155.025 1.69368 155.025 1.64962C155.025 1.63494 155.025 1.62025 155.025 1.61046C155.025 1.60067 155.025 1.58599 155.03 1.5762C155.162 1.58599 155.274 1.59088 155.363 1.59578C155.451 1.59578 155.534 1.59578 155.602 1.59578H156.518C156.655 1.59578 156.777 1.59578 156.88 1.58109C156.983 1.5713 157.051 1.56641 157.086 1.56641C157.125 1.56641 157.154 1.59088 157.169 1.64473C157.184 1.69857 157.193 1.75731 157.203 1.82584C157.213 1.89927 157.223 1.97269 157.237 2.05101C157.247 2.12933 157.272 2.19786 157.306 2.2566C157.281 2.27618 157.252 2.28597 157.223 2.28597C157.184 2.28597 157.154 2.27129 157.144 2.24681C157.105 2.16849 157.071 2.09996 157.037 2.04122C157.002 1.98248 156.963 1.93843 156.919 1.89927C156.875 1.86011 156.821 1.83563 156.758 1.81605C156.694 1.79647 156.616 1.78668 156.523 1.78668H155.837V1.79158Z" fill="white"/>
<path id="Vector_23" d="M160.223 3.87683V1.9384C160.223 1.86987 160.199 1.82092 160.15 1.79645C160.101 1.76708 160.018 1.7475 159.9 1.73281C159.866 1.73281 159.851 1.70344 159.851 1.65449C159.851 1.63491 159.851 1.61044 159.861 1.58107C159.939 1.58596 160.018 1.59086 160.096 1.59575C160.174 1.59575 160.253 1.60065 160.321 1.60065C160.39 1.60065 160.458 1.60065 160.537 1.59575C160.61 1.59575 160.683 1.58596 160.752 1.58107C160.757 1.61044 160.762 1.63491 160.762 1.65449C160.762 1.70344 160.747 1.72792 160.718 1.73281C160.615 1.7475 160.542 1.77197 160.502 1.79645C160.463 1.82582 160.444 1.86987 160.444 1.92861V4.66003C160.444 4.66003 160.424 4.66493 160.409 4.66493C160.395 4.66493 160.38 4.66493 160.37 4.66493C160.351 4.66493 160.326 4.66003 160.311 4.65024C160.292 4.64045 160.272 4.61598 160.248 4.58171L158.368 2.10483V4.28801C158.368 4.35165 158.388 4.39081 158.432 4.42018C158.476 4.44465 158.559 4.46913 158.681 4.48871C158.711 4.4936 158.725 4.51808 158.725 4.56213C158.725 4.58171 158.725 4.60619 158.716 4.63556C158.637 4.63066 158.559 4.62577 158.481 4.62087C158.402 4.62087 158.329 4.61598 158.26 4.61598C158.197 4.61598 158.128 4.61598 158.04 4.62087C157.957 4.62087 157.884 4.63066 157.815 4.63556C157.81 4.60619 157.805 4.58171 157.805 4.56213C157.805 4.51808 157.825 4.4936 157.854 4.48871C157.967 4.46913 158.04 4.44465 158.079 4.42018C158.118 4.3957 158.138 4.35165 158.138 4.28801V1.90903C158.138 1.86008 158.118 1.82092 158.084 1.79645C158.05 1.77197 157.977 1.7475 157.864 1.73281C157.83 1.72792 157.815 1.69855 157.815 1.65449C157.815 1.63981 157.815 1.62512 157.815 1.61044C157.815 1.60065 157.815 1.59086 157.815 1.57617C157.879 1.58107 157.937 1.58596 157.991 1.59086C158.04 1.59086 158.094 1.59575 158.148 1.59575C158.202 1.59575 158.251 1.59575 158.295 1.59575C158.383 1.59575 158.442 1.59575 158.471 1.60554C158.5 1.61044 158.525 1.62512 158.544 1.6496L160.209 3.86704L160.223 3.87683Z" fill="white"/>
<path id="Vector_24" d="M162.69 3.50973H161.658L161.359 4.25377C161.344 4.29293 161.335 4.3223 161.335 4.34677C161.335 4.41041 161.428 4.45936 161.618 4.48384C161.638 4.48384 161.653 4.49363 161.662 4.50831C161.672 4.523 161.672 4.53768 161.672 4.55726C161.672 4.57684 161.672 4.60132 161.662 4.63069C161.579 4.62579 161.491 4.6209 161.398 4.616C161.305 4.61111 161.212 4.61111 161.124 4.61111C161.06 4.61111 160.997 4.61111 160.933 4.61111C160.869 4.61111 160.801 4.6209 160.728 4.63069C160.723 4.60621 160.718 4.58174 160.718 4.55726C160.718 4.53768 160.718 4.5181 160.728 4.50342C160.737 4.48873 160.752 4.47894 160.776 4.47405C160.874 4.45936 160.943 4.43978 160.992 4.41531C161.041 4.39083 161.075 4.35656 161.095 4.30761L162.211 1.62025C162.23 1.56641 162.26 1.54193 162.299 1.54193C162.309 1.54193 162.328 1.54193 162.353 1.55172L163.474 4.3223C163.493 4.36635 163.532 4.40062 163.601 4.42509C163.665 4.44957 163.728 4.46426 163.792 4.47405C163.811 4.47894 163.826 4.48873 163.836 4.49852C163.846 4.50831 163.851 4.52789 163.851 4.55726C163.851 4.57684 163.851 4.60132 163.841 4.63069C163.743 4.62579 163.645 4.6209 163.547 4.616C163.449 4.616 163.361 4.61111 163.278 4.61111C163.195 4.61111 163.092 4.61111 162.979 4.616C162.867 4.616 162.769 4.62579 162.676 4.63069C162.671 4.60132 162.666 4.57684 162.666 4.55726C162.666 4.52789 162.671 4.50831 162.681 4.49852C162.69 4.48873 162.7 4.48384 162.71 4.48384C162.788 4.46915 162.857 4.44957 162.906 4.42999C162.955 4.41041 162.979 4.38104 162.979 4.34188C162.979 4.3223 162.974 4.29782 162.96 4.27335L162.666 3.50973H162.69ZM162.617 3.31882L162.186 2.18318L161.736 3.31882H162.617Z" fill="white"/>
</g>
<path id="Vector_25" d="M31.1222 31.6414H0.391304V32.1309H31.1222V31.6414Z" fill="#BDAC5F"/>
<path id="Vector_26" d="M148.955 31.6414H118.224V32.1309H148.955V31.6414Z" fill="#BDAC5F"/>
</g>
<defs>
<clipPath id="clip0_6320_314">
<rect width="163.474" height="38" fill="white" transform="translate(0.391304)"/>
</clipPath>
</defs>
</svg>
