<svg width="200" height="47" viewBox="0 0 200 47" fill="none" xmlns="http://www.w3.org/2000/svg">
<g id="Layer_1" clip-path="url(#clip0_6319_1217)">
<g id="Group">
<path id="Vector" d="M1.03013 27.5774C0.976233 27.3048 0.946289 27.0856 0.946289 26.9197C0.946289 26.5345 1.09601 26.3153 1.40143 26.2619C2.25782 26.096 2.99444 25.3672 2.99444 24.4961V3.34785C2.99444 2.96269 2.89263 2.55383 2.63511 2.25755C2.33568 1.9198 1.91647 1.84869 1.49126 1.78943C1.18584 1.7361 1.03612 1.49908 1.03612 1.09022C1.03612 0.953933 1.0481 0.728762 1.07804 0.616177H3.16811C3.66518 0.628028 4.10834 0.633953 4.49761 0.633953C5.3001 0.633953 5.8331 0.663581 6.09661 0.716911C6.36011 0.770241 6.57571 0.912454 6.74339 1.12577L21.6673 20.8282V5.49883C21.6673 5.20255 21.6733 4.90627 21.6673 4.61592C21.6494 3.8219 21.7871 3.09305 21.1703 2.47087C20.8109 2.10349 20.3079 1.89017 19.7988 1.80721C19.6731 1.78943 19.5413 1.77166 19.4455 1.69463C19.3317 1.60574 19.2898 1.4576 19.2658 1.31539C19.2239 1.02504 19.2479 0.722837 19.3377 0.444336C19.3377 0.444336 22.7273 0.734688 25.4582 0.456187C25.5361 0.722837 25.56 1.00726 25.5361 1.28576C25.5241 1.4102 25.5001 1.53464 25.4223 1.62944C25.2785 1.80129 25.0809 1.77758 24.8833 1.82499C24.6318 1.89017 24.4042 2.04423 24.2245 2.22792C23.8532 2.60716 23.6257 3.02195 23.6257 3.55525V27.7848C23.5718 27.8144 23.4759 27.8322 23.3322 27.8441C23.1945 27.8559 23.0807 27.8618 22.9968 27.8618C22.8052 27.8618 22.6255 27.8144 22.4578 27.7196C22.2902 27.6248 22.0985 27.4233 21.8769 27.1211L4.98869 5.11959V24.4961C4.98869 25.5153 5.95887 26.1079 6.86915 26.2619C7.14464 26.3153 7.28238 26.5345 7.28238 26.9197C7.28238 27.0856 7.48001 27.6011 7.19853 27.5774C4.03648 27.3345 1.02414 27.5774 1.02414 27.5774H1.03013Z" fill="#30485B"/>
<path id="Vector_2" d="M59.6661 24.3121C59.3187 24.6558 58.9175 24.9343 58.4863 25.1654C58.0192 25.4143 57.5101 25.6335 56.9951 25.752C56.4442 25.912 55.7674 25.989 54.9589 25.989H49.0001V14.8846H55.2823C55.5937 14.8846 55.8872 14.9794 56.1148 15.1927C56.4561 15.5186 56.6897 16.0164 56.8813 16.4371C57.049 16.8163 57.2287 17.16 57.7018 17.16C57.7796 17.16 57.8874 17.1481 58.0252 17.1185C58.1569 17.0948 58.2647 17.0652 58.3486 17.0415C58.2947 16.4548 58.2468 16.6978 58.2048 15.9571C58.1689 15.2579 58.1509 14.6535 58.145 14.1202C58.145 13.5869 58.1629 12.9825 58.2048 12.2833C58.2468 11.5426 58.2947 11.7796 58.3486 11.1989C58.2707 11.1752 58.1629 11.1456 58.0252 11.1219C57.8934 11.0982 57.7856 11.0804 57.7018 11.0804C57.2287 11.0804 57.049 11.43 56.8813 11.8033C56.6957 12.2299 56.4621 12.7277 56.1148 13.0477C55.8872 13.261 55.5937 13.3558 55.2823 13.3558H49.0001V2.26316H54.9589C55.7674 2.26316 56.4442 2.3402 56.9951 2.50019C57.5101 2.6187 58.0192 2.83794 58.4863 3.08681C58.9175 3.31791 59.3187 3.59641 59.6661 3.94009C60.1871 4.46154 60.4746 5.04817 61.337 4.71041L60.5764 1.0425C60.4566 0.604011 60.223 0.384766 59.8697 0.384766C59.5763 0.384766 58.9834 0.426244 58.097 0.503277C57.2107 0.580309 56.1627 0.621787 54.9589 0.621787H47.0239C46.407 0.621787 45.7063 0.609936 44.9278 0.580309C44.1493 0.556606 44.0954 0.503277 42.9455 0.420319C42.9216 0.526979 42.8976 0.627713 42.8856 0.716596C42.8737 0.811405 42.8677 0.92399 42.8677 1.05435C42.8677 1.45136 42.9994 1.67653 43.2689 1.72986C44.0714 1.88393 45.0775 2.35205 45.1973 3.2468C45.2931 3.96379 45.2153 4.74004 45.2153 5.46888V22.7596C45.2153 23.4885 45.2991 24.2588 45.1973 24.9817C45.0775 25.8765 44.0714 26.3505 43.2689 26.4986C42.9994 26.552 42.8677 26.7771 42.8677 27.1742C42.8677 27.3045 42.8737 27.4171 42.8856 27.5119C42.8976 27.6067 42.9216 27.7075 42.9455 27.8082C44.1014 27.7312 44.1493 27.6719 44.9278 27.6482C45.7063 27.6186 46.407 27.6067 47.0239 27.6067H54.9589C56.1687 27.6067 57.2167 27.6482 58.097 27.7252C58.9834 27.8023 59.5703 27.8437 59.8697 27.8437C60.2171 27.8437 60.4566 27.6245 60.5764 27.186L61.337 23.5181C60.4746 23.1744 60.1871 23.761 59.6661 24.2884V24.3121Z" fill="#30485B"/>
<path id="Vector_3" d="M144.676 17.3788C144.676 18.9431 144.496 20.3593 144.137 21.6333C143.778 22.9073 143.173 24.0154 142.328 24.9457C141.484 25.876 140.364 26.5989 138.981 27.1085C137.591 27.6181 135.861 27.867 133.783 27.867C131.399 27.867 129.471 27.5707 128.003 26.9841C126.536 26.3915 125.404 25.6212 124.614 24.6613C123.823 23.7013 123.296 22.5992 123.033 21.3489C122.769 20.1045 122.638 18.8364 122.638 17.5447V5.18399C122.638 4.4433 122.811 3.54262 122.47 2.86118C122.146 2.2153 121.494 1.85384 120.799 1.78273C120.523 1.7531 120.386 1.52201 120.386 1.08352C120.386 0.917601 120.416 0.698356 120.47 0.425781C121.302 0.479111 121.206 0.526516 122.081 0.567994C122.955 0.609473 123.793 0.62725 124.596 0.62725C125.314 0.62725 126.159 0.609473 127.135 0.567994C128.105 0.526516 128.063 0.479111 128.89 0.425781C128.944 0.698356 128.974 0.917601 128.974 1.08352C128.974 1.52201 128.836 1.7531 128.56 1.78273C127.896 1.87161 127.213 2.18567 126.818 2.74859C126.333 3.43596 126.554 4.47293 126.554 5.26695V12.1169C126.554 13.622 126.554 15.1271 126.554 16.6321C126.554 19.4823 127.129 21.6689 128.279 23.1917C129.429 24.7146 131.375 25.4731 134.118 25.4731C135.669 25.4731 136.987 25.3012 138.065 24.9575C139.148 24.6139 140.035 24.0865 140.724 23.3754C141.418 22.6643 141.915 21.74 142.221 20.5963C142.526 19.4586 142.676 18.0958 142.676 16.5018V4.84031C142.676 4.20035 142.814 3.43596 142.508 2.85525C142.179 2.23307 141.436 1.84791 140.753 1.78866C140.448 1.75903 140.298 1.52793 140.298 1.08944C140.298 0.923527 140.328 0.704282 140.382 0.431707C141.185 0.485037 141.023 0.532441 141.789 0.57392C142.55 0.615399 143.209 0.633175 143.766 0.633175C144.431 0.633175 145.101 0.615399 145.784 0.57392C146.467 0.532441 146.191 0.485037 146.856 0.431707C146.91 0.704282 146.94 0.923527 146.94 1.08944C146.94 1.22573 146.898 1.36794 146.814 1.52201C146.73 1.67015 146.622 1.76495 146.485 1.78866C145.556 1.97235 144.688 2.52342 144.688 3.55447V17.3788H144.676Z" fill="#30485B"/>
<path id="Vector_4" d="M180.8 6.13844C180.393 6.39916 179.824 6.2451 179.453 5.93105C179.081 5.61699 178.848 5.18443 178.56 4.78742C177.339 3.08678 175.189 2.22165 173.087 2.07352C171.308 1.94908 169.338 2.37572 168.248 3.77415C167.445 4.79927 167.265 6.26288 167.787 7.45391C168.302 8.62124 169.391 9.43897 170.511 10.0671C172.452 11.1514 174.602 11.821 176.584 12.8284C178.566 13.8357 180.459 15.2756 181.291 17.3259C181.842 18.6769 181.878 20.1998 181.597 21.6337C181.315 23.0677 180.698 24.4662 179.662 25.509C177.973 27.2156 175.422 27.7845 173.009 27.8556C170.224 27.9385 167.397 27.4704 164.894 26.2557C164.193 25.9179 164.295 24.9165 164.193 24.241C164.062 23.3581 163.93 22.4752 163.804 21.5923C163.702 20.8812 164.9 21.296 165.157 21.5449C165.637 22.007 165.828 22.6707 166.235 23.1862C167.96 25.3787 171.583 26.5282 174.278 25.8053C176.297 25.2602 178.027 23.4351 177.997 21.3671C177.973 19.7672 176.937 18.3154 175.638 17.3614C174.338 16.4074 172.781 15.8682 171.26 15.3171C169.739 14.766 168.194 14.1794 166.948 13.1543C164.984 11.5366 163.972 8.84641 164.397 6.35176C164.828 3.82748 166.756 1.49874 169.218 0.645459C170.661 0.141788 172.5 0.16549 174.003 0.260299C175.608 0.361033 177.195 0.698789 178.704 1.25579C179.093 1.398 179.482 1.55799 179.86 1.73576C179.968 1.78909 180.081 1.84242 180.153 1.93723C180.231 2.03796 180.249 2.17425 180.267 2.29869C180.441 3.5786 180.614 4.86445 180.782 6.14436L180.8 6.13844Z" fill="#30485B"/>
<g id="Group_2">
<path id="Vector_5" d="M89.1787 14.0261L91.706 14.038L91.7179 11.5137L89.1787 14.0261Z" fill="#F2DA77"/>
<path id="Vector_6" d="M91.7299 11.5195L91.7119 14.026L94.2691 14.032L91.7299 11.5195Z" fill="#7FC1D3"/>
<path id="Vector_7" d="M94.2692 14.0549L91.736 14.0371L91.73 16.5673L94.2692 14.0549Z" fill="#B6D27C"/>
<path id="Vector_8" d="M91.7179 16.5623L91.7299 14.0558L89.1787 14.0439L91.7179 16.5623Z" fill="#E98B62"/>
<path id="Vector_9" d="M102.671 23.9273C103.629 24.8517 104.755 26.0783 106.109 26.3213C106.414 26.3746 106.564 26.6116 106.564 27.0205C106.564 27.1568 106.552 27.3819 106.522 27.4945C104.216 27.4945 101.917 27.4175 99.623 27.6545C99.5212 27.6664 99.4134 27.6723 99.3235 27.6249C99.1439 27.5301 99.1978 27.0027 99.2157 26.8249C99.2457 26.5287 99.3535 26.505 99.587 26.3983C100.336 26.0546 99.7128 25.4739 99.3116 25.0769L92.8677 17.51L95.1853 15.2168L102.665 23.9273H102.671Z" fill="#30485B"/>
<path id="Vector_10" d="M80.7643 4.1779C79.8061 3.25352 78.6802 2.02693 77.3267 1.78398C77.0213 1.73065 76.8716 1.49363 76.8716 1.08477C76.8716 0.948479 76.8836 0.723308 76.9135 0.610722C79.2192 0.610722 81.5188 0.687755 83.8125 0.450733C83.9143 0.438882 84.0221 0.432956 84.112 0.480361C84.2916 0.575169 84.2377 1.10254 84.2198 1.28031C84.1898 1.57659 84.082 1.60029 83.8485 1.70695C83.0999 2.05063 83.7227 2.63133 84.1239 3.02834L90.5678 10.5953L88.2502 12.8885L80.7702 4.1779H80.7643Z" fill="#30485B"/>
<path id="Vector_11" d="M99.3173 2.83828C99.7185 2.44127 100.341 1.86057 99.5928 1.51688C99.3592 1.41022 99.2514 1.3806 99.2215 1.09024C99.2035 0.912478 99.1436 0.385105 99.3293 0.290296C99.4191 0.242892 99.5269 0.254743 99.6287 0.260668C101.922 0.491764 104.222 0.420658 106.528 0.420658C106.558 0.533243 106.57 0.758414 106.57 0.894701C106.57 1.30356 106.42 1.54059 106.115 1.59392C104.761 1.83686 103.635 3.06345 102.677 3.98784L95.197 12.6984L92.8794 10.4052L99.3233 2.83828H99.3173Z" fill="#30485B"/>
<path id="Vector_12" d="M87.927 15.4297L90.2446 17.7229L83.8007 25.2898C83.3995 25.6868 82.7766 26.2675 83.5252 26.6112C83.7588 26.7179 83.8666 26.7475 83.8965 27.0378C83.9145 27.2156 83.9744 27.743 83.7887 27.8378C83.6989 27.8852 83.5911 27.8733 83.4893 27.8674C81.1956 27.6363 78.8959 27.7074 76.5903 27.7074C76.5603 27.5948 76.5483 27.3697 76.5483 27.2334C76.5483 26.8245 76.6981 26.5875 77.0035 26.5342C78.3569 26.2912 79.4828 25.0646 80.441 24.1402L87.921 15.4297H87.927Z" fill="#30485B"/>
</g>
</g>
<g id="Group_3">
<path id="Vector_13" d="M50.473 42.9243H47.5206L46.6761 45.0338C46.6342 45.1405 46.6103 45.2234 46.6103 45.2945C46.6103 45.4782 46.8798 45.6086 47.4188 45.6856C47.4786 45.6915 47.5206 45.7212 47.5445 45.7567C47.5685 45.7982 47.5804 45.8397 47.5804 45.893C47.5804 45.9463 47.5685 46.0174 47.5565 46.1004C47.3169 46.0826 47.0654 46.0648 46.8019 46.053C46.5384 46.0411 46.2749 46.0352 46.0234 46.0352C45.8497 46.0352 45.6641 46.0352 45.4784 46.0471C45.2927 46.0589 45.1011 46.0708 44.8975 46.1004C44.8795 46.0293 44.8735 45.9582 44.8735 45.893C44.8735 45.8337 44.8855 45.7804 44.9095 45.7389C44.9334 45.6975 44.9753 45.6678 45.0472 45.6619C45.3227 45.6204 45.5263 45.5612 45.664 45.496C45.8018 45.4308 45.8976 45.3301 45.9635 45.1879L49.1495 37.5972C49.2094 37.4491 49.2932 37.3721 49.401 37.3721C49.437 37.3721 49.4909 37.378 49.5627 37.3958L52.7667 45.2234C52.8206 45.3479 52.9404 45.4427 53.126 45.5138C53.3117 45.5849 53.4913 45.6323 53.671 45.656C53.7249 45.6738 53.7668 45.6975 53.7968 45.7271C53.8267 45.7567 53.8447 45.81 53.8447 45.893C53.8447 45.9463 53.8387 46.0174 53.8207 46.1004C53.5392 46.0826 53.2578 46.0648 52.9883 46.053C52.7128 46.0411 52.4613 46.0352 52.2217 46.0352C51.9822 46.0352 51.6947 46.0411 51.3773 46.053C51.0599 46.0648 50.7724 46.0826 50.5149 46.1004C50.497 46.0115 50.491 45.9404 50.491 45.893C50.491 45.816 50.5089 45.7626 50.5389 45.7271C50.5688 45.6975 50.5988 45.6797 50.6227 45.6797C50.8503 45.6382 51.0359 45.5849 51.1797 45.5315C51.3234 45.4723 51.3893 45.3893 51.3893 45.2767C51.3893 45.2234 51.3713 45.1582 51.3354 45.0812L50.503 42.9243H50.473ZM50.2634 42.3851L49.0357 39.1794L47.7541 42.3851H50.2694H50.2634Z" fill="#99A0A0"/>
<path id="Vector_14" d="M67.2714 41.7864C67.2714 42.3019 67.1815 42.8115 67.0019 43.3152C66.8222 43.8188 66.5467 44.2751 66.1814 44.684C65.8161 45.0869 65.355 45.4187 64.792 45.6676C64.2291 45.9165 63.5763 46.0409 62.8277 46.0409H60.1148C59.8872 46.0409 59.6237 46.0469 59.3363 46.0587C59.0428 46.0706 58.7613 46.0883 58.4919 46.1061C58.4739 46.0172 58.4679 45.9461 58.4679 45.8987C58.4679 45.7743 58.5158 45.7091 58.6116 45.6913C58.935 45.6143 59.1746 45.5373 59.3123 45.4662C59.456 45.395 59.5219 45.2825 59.5219 45.1284V38.4681C59.5219 38.2962 59.456 38.1718 59.3243 38.1007C59.1925 38.0296 58.953 37.9644 58.6116 37.9052C58.5577 37.8992 58.5218 37.8696 58.4978 37.8281C58.4739 37.7866 58.4619 37.7392 58.4619 37.6859C58.4619 37.6326 58.4679 37.5615 58.4859 37.4785C58.6715 37.4963 58.8332 37.5081 58.971 37.5141C59.1087 37.5141 59.2405 37.5259 59.3602 37.5318C59.486 37.5437 59.6058 37.5437 59.7255 37.5437H62.8157C63.5583 37.5437 64.2051 37.6563 64.7681 37.8815C65.331 38.1066 65.7921 38.4148 66.1634 38.7999C66.5347 39.1851 66.8102 39.6354 66.9959 40.145C67.1815 40.6605 67.2714 41.2116 67.2714 41.7923V41.7864ZM65.882 42.0353C65.882 40.6902 65.5466 39.6947 64.8699 39.0429C64.1931 38.391 63.211 38.0651 61.9114 38.0651H60.7616V45.0277C60.7616 45.1165 60.7855 45.1877 60.8275 45.2528C60.8694 45.318 60.9472 45.3595 61.055 45.395C61.1628 45.4306 61.3066 45.4543 61.4922 45.4721C61.6779 45.4899 61.9114 45.4958 62.1929 45.4958C62.8696 45.4958 63.4445 45.4128 63.9117 45.2528C64.3788 45.0928 64.7561 44.8617 65.0495 44.5595C65.343 44.2573 65.5526 43.8959 65.6843 43.4692C65.8161 43.0426 65.882 42.5626 65.882 42.0293V42.0353Z" fill="#99A0A0"/>
<path id="Vector_15" d="M78.4346 38.5809C78.4706 38.4861 78.4885 38.3972 78.4885 38.3201C78.4885 38.1957 78.4286 38.1068 78.3029 38.0476C78.1771 37.9883 77.9795 37.9409 77.71 37.9054C77.6022 37.8994 77.5543 37.8224 77.5543 37.6802C77.5543 37.6387 77.5543 37.5972 77.5663 37.5617C77.5663 37.538 77.5662 37.5024 77.5782 37.4728C77.5962 37.4728 77.6501 37.4728 77.7519 37.4846C77.8477 37.4965 77.9675 37.5024 78.1052 37.5083C78.243 37.5143 78.3867 37.5261 78.5484 37.5261C78.7101 37.5261 78.8598 37.532 78.9976 37.532C79.291 37.532 79.5545 37.5261 79.8001 37.5083C80.0396 37.4906 80.1833 37.4787 80.2312 37.4669C80.2312 37.4906 80.2312 37.5261 80.2432 37.5557C80.2432 37.5794 80.2432 37.6031 80.2492 37.6269C80.2552 37.6506 80.2552 37.6683 80.2552 37.6861C80.2552 37.8283 80.2073 37.9054 80.1115 37.9231C79.83 37.9409 79.6204 37.9824 79.4886 38.0535C79.3569 38.1246 79.2551 38.2431 79.1832 38.409L75.9134 46.1833C75.9134 46.1833 75.8774 46.1833 75.8535 46.1893C75.8295 46.1893 75.8115 46.1952 75.7936 46.1952C75.6978 46.1952 75.6199 46.1182 75.554 45.97L72.4459 38.3379C72.392 38.2135 72.3021 38.1246 72.1824 38.0653C72.0566 38.0061 71.841 37.9528 71.5236 37.9054C71.4278 37.8994 71.3799 37.8165 71.3799 37.6683C71.3799 37.5972 71.3859 37.5261 71.4038 37.4609C71.6673 37.4787 71.9548 37.4965 72.2662 37.5083C72.5776 37.5202 72.8411 37.5261 73.0747 37.5261C73.3083 37.5261 73.5658 37.5202 73.8832 37.5083C74.2006 37.4965 74.494 37.4787 74.7695 37.4609C74.7875 37.5498 74.7935 37.6209 74.7935 37.6683C74.7935 37.7987 74.7396 37.8757 74.6318 37.8935C74.1107 37.9468 73.8532 38.0831 73.8532 38.3142C73.8532 38.3735 73.8592 38.4327 73.8772 38.4861L76.123 44.1805L78.4406 38.5809H78.4346Z" fill="#99A0A0"/>
<path id="Vector_16" d="M87.1421 45.1225C87.1421 45.2944 87.202 45.4188 87.3278 45.484C87.4535 45.5492 87.6811 45.6203 88.0165 45.6855C88.1063 45.7032 88.1482 45.7743 88.1482 45.8929C88.1482 45.9462 88.1422 46.0173 88.1243 46.1003C87.8488 46.0825 87.5793 46.0647 87.3038 46.0528C87.0283 46.041 86.7708 46.0351 86.5253 46.0351C86.2797 46.0351 86.0222 46.041 85.7408 46.0528C85.4593 46.0647 85.1838 46.0825 84.9263 46.1003C84.9083 46.0114 84.9023 45.9403 84.9023 45.8929C84.9023 45.7684 84.9443 45.7032 85.0341 45.6855C85.3695 45.6262 85.597 45.561 85.7228 45.4899C85.8486 45.4188 85.9084 45.3003 85.9084 45.1225V38.4622C85.9084 38.2904 85.8486 38.1659 85.7228 38.0889C85.597 38.0178 85.3695 37.9526 85.0341 37.8993C84.9802 37.8934 84.9443 37.8637 84.9263 37.8223C84.9083 37.7808 84.9023 37.7334 84.9023 37.68C84.9023 37.6267 84.9083 37.5556 84.9263 37.4727C85.1898 37.4904 85.4653 37.5082 85.7527 37.5201C86.0402 37.5319 86.2977 37.5378 86.5253 37.5378C86.7529 37.5378 86.9984 37.5319 87.2859 37.5201C87.5733 37.5082 87.8548 37.4904 88.1243 37.4727C88.1422 37.5615 88.1482 37.6326 88.1482 37.68C88.1482 37.8104 88.1063 37.8874 88.0165 37.9052C87.6811 37.9586 87.4535 38.0237 87.3278 38.0948C87.202 38.1719 87.1421 38.2904 87.1421 38.4681V45.1285V45.1225Z" fill="#99A0A0"/>
<path id="Vector_17" d="M98.9938 39.588C98.904 39.6058 98.8381 39.6117 98.7962 39.6117C98.6824 39.6117 98.5986 39.588 98.5447 39.5465C98.4908 39.5051 98.4489 39.4577 98.4249 39.4043C98.1973 38.9066 97.9219 38.5451 97.6045 38.32C97.2871 38.0948 96.8559 37.9822 96.3049 37.9822C96.0953 37.9822 95.8917 38.0118 95.706 38.0652C95.5204 38.1185 95.3527 38.2074 95.209 38.314C95.0652 38.4207 94.9574 38.557 94.8736 38.711C94.7897 38.8651 94.7478 39.0429 94.7478 39.2325C94.7478 39.6414 94.9215 39.9791 95.2688 40.2398C95.6162 40.5006 96.1312 40.7672 96.808 41.0398C97.6524 41.3716 98.2812 41.739 98.6764 42.1479C99.0777 42.5567 99.2753 43.0545 99.2753 43.647C99.2753 44.0026 99.2214 44.3403 99.1076 44.6484C98.9998 44.9566 98.8262 45.2291 98.5926 45.4602C98.359 45.6913 98.0596 45.875 97.6883 46.0054C97.317 46.1358 96.8738 46.2009 96.3528 46.2009C95.8078 46.2009 95.3108 46.1417 94.8616 46.0291C94.4184 45.9165 94.0412 45.7684 93.7297 45.5847C93.7058 45.2173 93.6639 44.8677 93.61 44.524C93.5561 44.1862 93.4962 43.8426 93.4243 43.5048C93.4842 43.4811 93.5621 43.4633 93.6519 43.4633C93.7597 43.4633 93.8375 43.487 93.8974 43.5344C93.9573 43.5818 94.0052 43.6589 94.0471 43.7655C94.2687 44.3936 94.5502 44.8558 94.8976 45.1521C95.2449 45.4484 95.73 45.5965 96.3588 45.5965C96.6403 45.5965 96.8858 45.555 97.1014 45.478C97.311 45.401 97.4907 45.2884 97.6284 45.1521C97.7721 45.0099 97.874 44.8558 97.9458 44.6781C98.0177 44.5062 98.0536 44.3166 98.0536 44.1151C98.0536 43.6589 97.8979 43.3033 97.5865 43.0426C97.2751 42.7819 96.8259 42.5449 96.245 42.3375C95.8677 42.1953 95.5204 42.0531 95.215 41.899C94.9095 41.7449 94.64 41.5672 94.4184 41.3716C94.1969 41.1761 94.0292 40.939 93.9094 40.6724C93.7896 40.4057 93.7297 40.0917 93.7297 39.7243C93.7297 39.4043 93.7896 39.0962 93.9094 38.8118C94.0292 38.5274 94.2029 38.2844 94.4244 38.0711C94.652 37.8637 94.9215 37.6978 95.2389 37.5733C95.5563 37.4489 95.9156 37.3896 96.3109 37.3896C96.7062 37.3896 97.1194 37.4311 97.5026 37.5082C97.8799 37.5852 98.3111 37.7156 98.7842 37.8992C98.8022 38.16 98.8262 38.4444 98.8561 38.7407C98.8861 39.0429 98.928 39.3214 98.9819 39.5821L98.9938 39.588Z" fill="#99A0A0"/>
<path id="Vector_18" d="M104.599 41.7865C104.599 41.1821 104.707 40.6192 104.929 40.0859C105.15 39.5526 105.45 39.0845 105.827 38.6875C106.204 38.2845 106.647 37.9705 107.15 37.7335C107.653 37.4964 108.18 37.3779 108.737 37.3779C109.504 37.3779 110.175 37.4964 110.75 37.7394C111.324 37.9823 111.798 38.3023 112.175 38.7053C112.546 39.1082 112.828 39.5822 113.013 40.1096C113.199 40.6429 113.289 41.1999 113.289 41.7865C113.289 42.4739 113.175 43.0961 112.947 43.6412C112.72 44.1864 112.402 44.6486 112.001 45.0278C111.6 45.407 111.127 45.6974 110.588 45.8989C110.043 46.1003 109.468 46.2011 108.845 46.2011C108.222 46.2011 107.647 46.0944 107.126 45.887C106.605 45.6796 106.156 45.3774 105.785 44.9923C105.408 44.6071 105.12 44.139 104.911 43.5998C104.701 43.0605 104.599 42.4561 104.599 41.7925V41.7865ZM109.151 45.567C109.564 45.567 109.947 45.49 110.288 45.33C110.63 45.17 110.929 44.9567 111.175 44.6782C111.42 44.3997 111.612 44.0679 111.75 43.6827C111.887 43.2975 111.953 42.8828 111.953 42.4265C111.953 41.7984 111.887 41.2177 111.756 40.6785C111.624 40.1392 111.42 39.677 111.157 39.28C110.887 38.883 110.546 38.569 110.139 38.3438C109.725 38.1186 109.252 38.006 108.701 38.006C108.342 38.006 107.995 38.0712 107.665 38.2075C107.336 38.3438 107.043 38.5393 106.791 38.7941C106.539 39.0489 106.342 39.3689 106.192 39.7422C106.042 40.1155 105.965 40.5481 105.965 41.0399C105.965 41.6858 106.036 42.2843 106.174 42.8413C106.312 43.3983 106.522 43.8723 106.791 44.2812C107.06 44.6841 107.39 45.0041 107.791 45.2293C108.186 45.4544 108.642 45.567 109.151 45.567Z" fill="#99A0A0"/>
<path id="Vector_19" d="M121.787 42.219H120.811V45.0988C120.811 45.2884 120.901 45.4187 121.08 45.4899C121.26 45.561 121.536 45.6143 121.907 45.6617C122.015 45.6795 122.063 45.7506 122.063 45.8869C122.063 45.9461 122.057 46.0232 122.039 46.112C121.799 46.0943 121.512 46.0765 121.17 46.0646C120.829 46.0528 120.5 46.0469 120.17 46.0469C119.943 46.0469 119.673 46.0528 119.374 46.0646C119.074 46.0765 118.793 46.0943 118.529 46.112C118.511 46.0232 118.505 45.952 118.505 45.9046C118.505 45.7802 118.553 45.715 118.649 45.6972C118.984 45.6439 119.218 45.5787 119.356 45.5076C119.493 45.4365 119.559 45.3121 119.559 45.1343V38.474C119.559 38.3081 119.493 38.1837 119.368 38.1007C119.242 38.0177 118.99 37.9526 118.619 37.9111C118.529 37.9052 118.487 37.8281 118.487 37.6859C118.487 37.6326 118.493 37.5615 118.511 37.4785C118.775 37.4963 119.05 37.5141 119.332 37.5259C119.613 37.5378 119.883 37.5437 120.14 37.5437H121.925C122.877 37.5437 123.596 37.7511 124.081 38.1659C124.566 38.5807 124.805 39.1436 124.805 39.8487C124.805 40.0384 124.769 40.2398 124.704 40.4531C124.638 40.6665 124.536 40.8679 124.398 41.0694C124.26 41.2709 124.087 41.4546 123.871 41.6264C123.656 41.7982 123.404 41.9345 123.111 42.0412L125.32 45.0751C125.488 45.3002 125.674 45.4602 125.877 45.5491C126.081 45.638 126.273 45.7032 126.446 45.7447C126.524 45.7624 126.566 45.8217 126.566 45.9283C126.566 45.9994 126.56 46.0765 126.542 46.1654C126.339 46.1476 126.093 46.1298 125.8 46.118C125.506 46.1061 125.243 46.1002 124.991 46.1002C124.805 46.1002 124.62 46.0232 124.428 45.8632C124.236 45.7091 124.063 45.5076 123.895 45.2588L121.781 42.2367L121.787 42.219ZM121.506 41.6797C122.122 41.6797 122.602 41.5494 122.937 41.2946C123.272 41.0398 123.44 40.5835 123.44 39.9376C123.44 39.665 123.404 39.4162 123.332 39.191C123.26 38.9658 123.147 38.7703 122.997 38.6044C122.847 38.4385 122.637 38.3081 122.386 38.2133C122.134 38.1185 121.829 38.0711 121.47 38.0711H120.811V41.6857H121.512L121.506 41.6797Z" fill="#99A0A0"/>
<path id="Vector_20" d="M133.052 42.2724L130.842 38.3438C130.752 38.2134 130.644 38.1127 130.512 38.0475C130.381 37.9823 130.201 37.9349 129.967 37.8994C129.925 37.8934 129.889 37.8638 129.866 37.8223C129.842 37.7808 129.83 37.7275 129.83 37.6623V37.6031C129.83 37.6031 129.83 37.5616 129.842 37.5438C129.842 37.5201 129.842 37.4905 129.854 37.4668C130.045 37.4846 130.297 37.5023 130.596 37.5142C130.896 37.5261 131.189 37.532 131.471 37.532C131.578 37.532 131.698 37.532 131.842 37.5261C131.986 37.5201 132.129 37.5201 132.279 37.5142C132.429 37.5142 132.572 37.5023 132.71 37.4964C132.848 37.4905 132.962 37.4786 133.058 37.4727C133.058 37.5083 133.058 37.5379 133.07 37.5616C133.07 37.5853 133.07 37.609 133.075 37.6268C133.075 37.6446 133.081 37.6623 133.081 37.6801C133.081 37.7334 133.07 37.7808 133.052 37.8223C133.028 37.8638 132.998 37.8934 132.95 37.8994C132.692 37.9349 132.513 37.9764 132.417 38.0238C132.315 38.0712 132.267 38.1423 132.267 38.2253C132.267 38.2964 132.297 38.3793 132.357 38.4741L133.998 41.4073L135.543 38.6875C135.633 38.5275 135.675 38.409 135.675 38.3201C135.675 38.2075 135.615 38.1186 135.495 38.0594C135.375 38.0001 135.19 37.9468 134.932 37.8994C134.836 37.8934 134.788 37.8164 134.788 37.6742C134.788 37.6327 134.788 37.5912 134.8 37.5557C134.8 37.532 134.8 37.4964 134.812 37.4668C135.004 37.4846 135.231 37.5023 135.495 37.5142C135.752 37.5261 135.998 37.532 136.214 37.532C136.417 37.532 136.633 37.5261 136.854 37.5142C137.082 37.5023 137.304 37.4846 137.525 37.4668C137.525 37.5024 137.525 37.532 137.537 37.5557C137.537 37.5794 137.537 37.6031 137.543 37.6209C137.543 37.6386 137.549 37.6564 137.549 37.6742C137.549 37.7986 137.501 37.8697 137.405 37.8994C137.094 37.9408 136.878 38.0001 136.753 38.0653C136.627 38.1305 136.519 38.243 136.429 38.3971L134.285 42.1539V45.087C134.285 45.2767 134.357 45.413 134.507 45.4841C134.651 45.5611 134.896 45.6203 135.243 45.6737C135.339 45.6915 135.387 45.7626 135.387 45.8811C135.387 45.8988 135.387 45.9225 135.381 45.9462C135.381 45.97 135.375 45.9937 135.375 46.0114C135.369 46.047 135.363 46.0707 135.363 46.0885C135.154 46.0825 134.944 46.0707 134.74 46.0648C134.567 46.0588 134.375 46.047 134.177 46.0411C133.98 46.0351 133.806 46.0292 133.656 46.0292C133.507 46.0292 133.333 46.0292 133.141 46.0411C132.95 46.047 132.764 46.0588 132.584 46.0648C132.381 46.0707 132.177 46.0825 131.974 46.0885C131.968 46.0707 131.962 46.047 131.962 46.0114C131.95 45.9937 131.95 45.97 131.95 45.9462V45.8811C131.95 45.7566 131.992 45.6915 132.081 45.6737C132.423 45.6026 132.674 45.5374 132.824 45.4722C132.974 45.407 133.052 45.2767 133.052 45.087V42.2724Z" fill="#99A0A0"/>
</g>
<g id="Group_4">
<path id="Vector_21" d="M187.573 2.23967C187.573 2.23967 187.591 2.21004 187.597 2.19227C187.603 2.17449 187.621 2.16856 187.645 2.15671C187.669 2.15079 187.699 2.14486 187.735 2.13894C187.771 2.13894 187.825 2.13301 187.891 2.13301C187.92 2.13301 187.962 2.13301 188.01 2.13301C188.058 2.13301 188.112 2.13301 188.172 2.13301C188.226 2.13301 188.286 2.13301 188.346 2.12709C188.406 2.12709 188.459 2.12116 188.507 2.11523C188.513 2.15079 188.519 2.18042 188.519 2.20412C188.519 2.26337 188.501 2.293 188.465 2.29893C188.328 2.3167 188.238 2.34041 188.196 2.37596C188.154 2.41151 188.13 2.44706 188.13 2.50039C188.13 2.50039 188.13 2.55372 188.136 2.64853C188.136 2.74334 188.148 2.90333 188.16 3.12258C188.172 3.34775 188.184 3.64402 188.202 4.01141C188.22 4.37879 188.238 4.84099 188.262 5.39206C188.262 5.46317 188.292 5.5165 188.334 5.55205C188.382 5.5876 188.471 5.61131 188.609 5.63501C188.627 5.63501 188.645 5.64686 188.651 5.66464C188.657 5.68241 188.663 5.70019 188.663 5.72389C188.663 5.74759 188.663 5.77722 188.651 5.81277C188.519 5.80685 188.4 5.80092 188.292 5.795C188.184 5.78907 188.082 5.78907 187.992 5.78907C187.956 5.78907 187.909 5.78907 187.849 5.78907C187.795 5.78907 187.735 5.78907 187.669 5.78907C187.609 5.78907 187.543 5.78907 187.483 5.795C187.423 5.795 187.37 5.80092 187.322 5.80685C187.316 5.7713 187.31 5.74167 187.31 5.71797C187.31 5.65871 187.328 5.62908 187.364 5.62908C187.513 5.59945 187.615 5.56983 187.675 5.5402C187.729 5.51057 187.759 5.45724 187.759 5.38614C187.759 5.37428 187.759 5.30318 187.753 5.17874C187.753 5.0543 187.741 4.89431 187.729 4.71062C187.717 4.52693 187.711 4.33139 187.699 4.11807C187.687 3.90475 187.681 3.70328 187.669 3.51366C187.657 3.32405 187.651 3.16406 187.645 3.02777C187.639 2.89148 187.633 2.80852 187.633 2.7789L186.393 5.74759C186.375 5.78315 186.363 5.80685 186.351 5.82463C186.339 5.8424 186.321 5.84833 186.298 5.84833C186.274 5.84833 186.256 5.84833 186.25 5.84833L184.86 2.69594C184.86 2.73149 184.854 2.8263 184.848 2.96851C184.848 3.11073 184.836 3.28257 184.824 3.48404C184.812 3.67958 184.806 3.8929 184.794 4.11214C184.782 4.33139 184.77 4.53878 184.764 4.72247C184.752 4.91209 184.746 5.06616 184.74 5.19652C184.74 5.32095 184.734 5.39206 184.734 5.39799C184.734 5.5165 184.86 5.59353 185.118 5.64093C185.154 5.64093 185.172 5.67649 185.172 5.72982C185.172 5.75352 185.172 5.78315 185.16 5.8187C185.058 5.81277 184.956 5.80685 184.86 5.80092C184.758 5.80092 184.675 5.795 184.597 5.795C184.537 5.795 184.453 5.795 184.351 5.80092C184.249 5.80092 184.154 5.81277 184.064 5.8187C184.058 5.78315 184.052 5.75352 184.052 5.72982C184.052 5.67649 184.07 5.64686 184.106 5.64093C184.207 5.62316 184.291 5.59353 184.351 5.55798C184.411 5.52242 184.447 5.46909 184.453 5.39799C184.453 5.36243 184.453 5.26762 184.465 5.11356C184.477 4.9595 184.483 4.7758 184.489 4.56248C184.501 4.34916 184.507 4.12399 184.519 3.88105C184.531 3.64402 184.543 3.41885 184.549 3.21739C184.561 3.01592 184.567 2.84408 184.573 2.71371C184.573 2.58335 184.579 2.51225 184.579 2.50632C184.579 2.44706 184.555 2.39966 184.507 2.37596C184.459 2.35226 184.369 2.32263 184.237 2.29893C184.201 2.29893 184.184 2.26337 184.184 2.20412C184.184 2.18042 184.184 2.15079 184.196 2.11523C184.243 2.11523 184.297 2.12116 184.363 2.12709C184.423 2.12709 184.489 2.13301 184.549 2.13301C184.609 2.13301 184.669 2.13301 184.728 2.13301C184.782 2.13301 184.83 2.13301 184.866 2.13301C184.932 2.13301 184.986 2.13301 185.022 2.13894C185.058 2.13894 185.088 2.15079 185.112 2.15671C185.136 2.16264 185.148 2.17449 185.16 2.19227C185.172 2.21004 185.178 2.22189 185.184 2.23967L186.399 5.03653L187.549 2.23967H187.573Z" fill="#30485B"/>
<path id="Vector_22" d="M190.178 2.3634V3.79738H191.065C191.142 3.79738 191.196 3.76182 191.226 3.69072C191.256 3.61961 191.286 3.53073 191.304 3.42407C191.316 3.37666 191.352 3.35296 191.406 3.35296C191.418 3.35296 191.43 3.35296 191.454 3.35296C191.472 3.35296 191.49 3.35889 191.502 3.36481C191.496 3.44777 191.49 3.54258 191.484 3.64331C191.484 3.74997 191.478 3.83886 191.478 3.91589C191.478 3.98107 191.478 4.0581 191.478 4.14698C191.478 4.23587 191.49 4.34253 191.502 4.46104C191.472 4.46696 191.442 4.47289 191.418 4.47289C191.358 4.47289 191.322 4.44919 191.31 4.40178C191.292 4.29512 191.268 4.20624 191.232 4.13513C191.196 4.06403 191.148 4.02847 191.071 4.02847H190.184V5.34987C190.184 5.4269 190.238 5.48023 190.34 5.50393C190.442 5.52764 190.609 5.54541 190.843 5.54541H191.154C191.262 5.54541 191.358 5.52764 191.442 5.49801C191.526 5.46838 191.598 5.42098 191.657 5.36765C191.717 5.31432 191.777 5.24914 191.825 5.1721C191.873 5.09507 191.921 5.01211 191.969 4.92323C191.981 4.89953 192.011 4.88175 192.053 4.88175C192.071 4.88175 192.095 4.88175 192.113 4.89953C192.137 4.91138 192.155 4.92323 192.172 4.93508C192.137 5.00619 192.107 5.08915 192.083 5.18988C192.059 5.29061 192.035 5.38542 192.011 5.47431C191.987 5.56319 191.963 5.64022 191.939 5.7054C191.915 5.77058 191.885 5.80021 191.843 5.80021C191.813 5.80021 191.771 5.80021 191.711 5.80021C191.657 5.80021 191.592 5.79429 191.526 5.79429C191.46 5.79429 191.394 5.79429 191.322 5.78836C191.256 5.78836 191.196 5.78836 191.148 5.78836H189.909C189.801 5.78836 189.681 5.78836 189.555 5.79429C189.43 5.80021 189.31 5.80614 189.196 5.81206C189.19 5.77651 189.184 5.74688 189.184 5.72318C189.184 5.66985 189.202 5.64022 189.238 5.6343C189.382 5.61059 189.484 5.58097 189.549 5.55134C189.609 5.52171 189.645 5.46838 189.645 5.39135V2.52931C189.645 2.45228 189.615 2.40487 189.561 2.37525C189.507 2.34562 189.4 2.31599 189.238 2.28636C189.202 2.28044 189.184 2.24488 189.184 2.19155C189.184 2.17378 189.184 2.156 189.184 2.14415C189.184 2.1323 189.184 2.11452 189.19 2.10267C189.352 2.11452 189.49 2.12045 189.597 2.12637C189.705 2.12637 189.807 2.12637 189.891 2.12637H191.011C191.178 2.12637 191.328 2.12637 191.454 2.1086C191.58 2.09675 191.663 2.09082 191.705 2.09082C191.753 2.09082 191.789 2.12045 191.807 2.18563C191.825 2.25081 191.837 2.32192 191.849 2.40487C191.861 2.49376 191.873 2.58264 191.891 2.67745C191.903 2.77226 191.933 2.85522 191.975 2.92632C191.945 2.95002 191.909 2.96188 191.873 2.96188C191.825 2.96188 191.789 2.9441 191.777 2.91447C191.729 2.81966 191.687 2.7367 191.645 2.6656C191.604 2.59449 191.556 2.54116 191.502 2.49376C191.448 2.44635 191.382 2.41673 191.304 2.39302C191.226 2.36932 191.13 2.35747 191.017 2.35747H190.178V2.3634Z" fill="#30485B"/>
<path id="Vector_23" d="M195.544 4.88754V2.54103C195.544 2.45807 195.514 2.39882 195.455 2.36919C195.395 2.33364 195.293 2.30993 195.149 2.29216C195.107 2.29216 195.089 2.2566 195.089 2.19735C195.089 2.17365 195.089 2.14402 195.101 2.10846C195.197 2.11439 195.293 2.12032 195.389 2.12624C195.485 2.12624 195.58 2.13217 195.664 2.13217C195.748 2.13217 195.832 2.13217 195.928 2.12624C196.017 2.12624 196.107 2.11439 196.191 2.10846C196.197 2.14402 196.203 2.17365 196.203 2.19735C196.203 2.2566 196.185 2.28623 196.149 2.29216C196.023 2.30993 195.934 2.33956 195.886 2.36919C195.838 2.40474 195.814 2.45807 195.814 2.52918V5.83563C195.814 5.83563 195.79 5.84156 195.772 5.84156C195.754 5.84156 195.736 5.84156 195.724 5.84156C195.7 5.84156 195.67 5.83563 195.652 5.82378C195.628 5.81193 195.604 5.7823 195.574 5.74082L193.275 2.7425V5.38529C193.275 5.46232 193.299 5.50973 193.352 5.54528C193.406 5.57491 193.508 5.60454 193.658 5.62824C193.694 5.63416 193.712 5.66379 193.712 5.71712C193.712 5.74082 193.712 5.77045 193.7 5.806C193.604 5.80008 193.508 5.79415 193.412 5.78823C193.317 5.78823 193.227 5.7823 193.143 5.7823C193.065 5.7823 192.981 5.7823 192.873 5.78823C192.772 5.78823 192.682 5.80008 192.598 5.806C192.592 5.77045 192.586 5.74082 192.586 5.71712C192.586 5.66379 192.61 5.63416 192.646 5.62824C192.784 5.60454 192.873 5.57491 192.921 5.54528C192.969 5.51565 192.993 5.46232 192.993 5.38529V2.50548C192.993 2.44622 192.969 2.39882 192.927 2.36919C192.885 2.33956 192.796 2.30993 192.658 2.29216C192.616 2.28623 192.598 2.25068 192.598 2.19735C192.598 2.17957 192.598 2.16179 192.598 2.14402C192.598 2.13217 192.598 2.12032 192.598 2.10254C192.676 2.10846 192.748 2.11439 192.814 2.12032C192.873 2.12032 192.939 2.12624 193.005 2.12624C193.071 2.12624 193.131 2.12624 193.185 2.12624C193.293 2.12624 193.364 2.12624 193.4 2.13809C193.436 2.14402 193.466 2.16179 193.49 2.19142L195.526 4.87569L195.544 4.88754Z" fill="#30485B"/>
<path id="Vector_24" d="M198.562 4.44359H197.299L196.933 5.34427C196.915 5.39168 196.904 5.42723 196.904 5.45686C196.904 5.53389 197.017 5.59315 197.251 5.62278C197.275 5.62278 197.293 5.63463 197.305 5.6524C197.317 5.67018 197.317 5.68796 197.317 5.71166C197.317 5.73536 197.317 5.76499 197.305 5.80054C197.203 5.79462 197.095 5.78869 196.981 5.78277C196.868 5.77684 196.754 5.77684 196.646 5.77684C196.568 5.77684 196.49 5.77684 196.412 5.77684C196.335 5.77684 196.251 5.78869 196.161 5.80054C196.155 5.77091 196.149 5.74129 196.149 5.71166C196.149 5.68796 196.149 5.66425 196.161 5.64648C196.173 5.6287 196.191 5.61685 196.221 5.61092C196.341 5.59315 196.424 5.56945 196.484 5.53982C196.544 5.51019 196.586 5.46871 196.61 5.40946L197.975 2.15633C197.999 2.09115 198.035 2.06152 198.083 2.06152C198.095 2.06152 198.119 2.06152 198.149 2.07337L199.521 5.42723C199.545 5.48056 199.592 5.52204 199.676 5.55167C199.754 5.5813 199.832 5.59907 199.91 5.61092C199.934 5.61685 199.952 5.6287 199.964 5.64055C199.976 5.6524 199.982 5.67611 199.982 5.71166C199.982 5.73536 199.982 5.76499 199.97 5.80054C199.85 5.79462 199.73 5.78869 199.61 5.78277C199.491 5.78277 199.383 5.77684 199.281 5.77684C199.179 5.77684 199.053 5.77684 198.916 5.78277C198.778 5.78277 198.658 5.79462 198.544 5.80054C198.538 5.76499 198.532 5.73536 198.532 5.71166C198.532 5.67611 198.538 5.6524 198.55 5.64055C198.562 5.6287 198.574 5.62278 198.586 5.62278C198.682 5.605 198.766 5.5813 198.826 5.55759C198.886 5.53389 198.916 5.49834 198.916 5.45093C198.916 5.42723 198.91 5.3976 198.892 5.36798L198.532 4.44359H198.562ZM198.473 4.2125L197.946 2.83777L197.395 4.2125H198.473Z" fill="#30485B"/>
</g>
<path id="Vector_25" d="M37.5973 38.498H0V39.0906H37.5973V38.498Z" fill="#BDAC5F"/>
<path id="Vector_26" d="M181.758 38.498H144.161V39.0906H181.758V38.498Z" fill="#BDAC5F"/>
</g>
<defs>
<clipPath id="clip0_6319_1217">
<rect width="200" height="46" fill="white" transform="translate(0 0.195312)"/>
</clipPath>
</defs>
</svg>
