<svg width="48" height="49" viewBox="0 0 48 49" fill="none" xmlns="http://www.w3.org/2000/svg">
<path d="M19.4845 44.2848L18.531 38.0733C17.9463 37.8733 17.2873 37.5719 16.554 37.1693C15.8207 36.7669 15.195 36.3413 14.677 35.8923L8.8845 38.4888L4.3385 30.3233L9.4425 26.4958C9.40917 26.2188 9.37767 25.8828 9.348 25.4878C9.31867 25.0928 9.304 24.7306 9.304 24.4013C9.304 24.1313 9.31867 23.8053 9.348 23.4233C9.37767 23.0413 9.40917 22.6719 9.4425 22.3153L4.3385 18.5273L8.8845 10.4693L14.5575 13.0273C15.1012 12.5963 15.7385 12.1699 16.4695 11.7483C17.2002 11.3266 17.8808 11.0093 18.5115 10.7963L19.4845 4.63477H28.5655L29.469 10.8158C30.1383 11.0541 30.8243 11.3746 31.527 11.7773C32.2293 12.1796 32.8422 12.5963 33.3655 13.0273L39.1845 10.4693L43.7115 18.5273L40.273 21.0003C39.7217 20.7439 39.1352 20.5381 38.5135 20.3828C37.8915 20.2278 37.2742 20.1066 36.6615 20.0193L39.8115 17.7193L37.8615 14.1773L32.5805 16.3888C31.8782 15.5991 31.013 14.8896 29.985 14.2603C28.9567 13.6313 27.896 13.2394 26.803 13.0848L26.1925 7.55427H21.8075L21.196 13.0658C20.0217 13.3194 18.9518 13.7219 17.9865 14.2733C17.0212 14.8246 16.136 15.5233 15.331 16.3693L10.2025 14.1773L8.1385 17.7193L12.7115 21.1118C12.5655 21.6731 12.454 22.2256 12.377 22.7693C12.3 23.3129 12.2615 23.8659 12.2615 24.4283C12.2615 24.9659 12.3 25.5084 12.377 26.0558C12.454 26.6034 12.5592 27.1811 12.6925 27.7888L8.1385 31.2003L10.1885 34.7423L15.3615 32.5003C16.1632 33.3153 17.0072 33.9876 17.8935 34.5173C18.7798 35.0469 19.7167 35.4386 20.704 35.6923C20.8707 37.4129 21.311 38.9944 22.025 40.4368C22.739 41.8791 23.646 43.1618 24.746 44.2848H19.4845ZM21.3845 30.2348C21.4462 29.7501 21.5777 29.2769 21.779 28.8153C21.9803 28.3539 22.1758 27.9079 22.3655 27.4773C21.7988 27.1899 21.3423 26.7861 20.996 26.2658C20.65 25.7451 20.477 25.1348 20.477 24.4348C20.477 23.4928 20.8107 22.6879 21.478 22.0203C22.1453 21.3529 22.9502 21.0193 23.8925 21.0193C24.5128 21.0193 25.0678 21.1566 25.5575 21.4313C26.0472 21.7056 26.4562 22.0849 26.7845 22.5693C27.1405 22.2713 27.5378 21.9968 27.9765 21.7458C28.4152 21.4948 28.8602 21.2821 29.3115 21.1078C28.7552 20.2028 28 19.4753 27.046 18.9253C26.092 18.3753 25.0318 18.1003 23.8655 18.1003C22.1268 18.1003 20.6408 18.7154 19.4075 19.9458C18.1745 21.1758 17.558 22.6721 17.558 24.4348C17.558 25.7808 17.9112 26.9616 18.6175 27.9773C19.3238 28.9926 20.2462 29.7451 21.3845 30.2348Z" fill="#475467" fill-opacity="0.45"/>
<path d="M35.0684 40.485L41.2494 34.304L35.0684 28.1235L33.4724 29.7195L36.8919 33.1695H28.9189V35.439H36.8919L33.4224 38.839L35.0684 40.485ZM35.0184 44.285C32.2697 44.285 29.9192 43.3087 27.9669 41.356C26.0142 39.4037 25.0379 37.053 25.0379 34.304C25.0379 31.5553 26.0142 29.2048 27.9669 27.2525C29.9192 25.2998 32.2697 24.3235 35.0184 24.3235C37.7674 24.3235 40.1181 25.2998 42.0704 27.2525C44.0231 29.2048 44.9994 31.5553 44.9994 34.304C44.9994 37.053 44.0231 39.4037 42.0704 41.356C40.1181 43.3087 37.7674 44.285 35.0184 44.285Z" fill="#E15247"/>
</svg>
