<svg width="49" height="50" viewBox="0 0 49 50" fill="none" xmlns="http://www.w3.org/2000/svg">
<path d="M24.287 44.3251C21.6367 44.3251 19.1382 43.8257 16.7915 42.827C14.4448 41.828 12.3933 40.4522 10.637 38.6996C8.88067 36.9469 7.50217 34.898 6.5015 32.553C5.5005 30.208 5 27.7024 5 25.036C5 22.3697 5.49883 19.8637 6.4965 17.518C7.49383 15.1724 8.871 13.1212 10.628 11.3645C12.3853 9.60755 14.4417 8.22005 16.797 7.20205C19.1523 6.18405 21.6533 5.67505 24.3 5.67505H25.7845V22.048C26.3178 22.3447 26.762 22.7545 27.117 23.2775C27.4723 23.8009 27.65 24.3842 27.65 25.0275C27.65 25.9559 27.3202 26.7375 26.6605 27.3725C26.0012 28.0075 25.2143 28.325 24.3 28.325C23.37 28.325 22.5875 28.0075 21.9525 27.3725C21.3175 26.7375 21 25.9565 21 25.0295C21 24.4205 21.1693 23.8495 21.508 23.3165C21.8463 22.7832 22.2988 22.3604 22.8655 22.048V16.806C20.8525 17.116 19.1915 18.045 17.8825 19.593C16.5738 21.141 15.9195 22.9517 15.9195 25.025C15.9195 27.3694 16.7302 29.3522 18.3515 30.9735C19.9728 32.5949 21.9543 33.4055 24.296 33.4055C26.6377 33.4055 28.6288 32.5922 30.2695 30.9655C31.9102 29.3389 32.7305 27.3645 32.7305 25.0425C32.7305 23.7692 32.4703 22.5904 31.95 21.506C31.4293 20.4214 30.7485 19.4919 29.9075 18.7175L31.9885 16.6365C33.1115 17.6802 34.0025 18.928 34.6615 20.38C35.3205 21.8324 35.65 23.3869 35.65 25.0435C35.65 28.1969 34.5518 30.8654 32.3555 33.049C30.1592 35.233 27.4755 36.325 24.3045 36.325C21.1475 36.325 18.4742 35.2312 16.2845 33.0435C14.0948 30.8562 13 28.1834 13 25.025C13 22.1027 13.9455 19.5914 15.8365 17.491C17.7275 15.3907 20.0705 14.1624 22.8655 13.806V8.72505C18.6192 9.06872 15.0665 10.7917 12.2075 13.894C9.34883 16.996 7.9195 20.7064 7.9195 25.025C7.9195 29.5651 9.5145 33.4302 12.7045 36.6206C15.8948 39.8106 19.76 41.4055 24.3 41.4055C28.854 41.4055 32.731 39.8117 35.931 36.624C39.1307 33.4364 40.7305 29.574 40.7305 25.037C40.7305 22.634 40.2715 20.4214 39.3535 18.399C38.4352 16.3767 37.1698 14.5995 35.5575 13.0675L37.6385 10.9865C39.4948 12.7635 40.9608 14.8517 42.0365 17.251C43.1122 19.6501 43.65 22.2344 43.65 25.004C43.65 27.677 43.1427 30.1869 42.128 32.5336C41.113 34.8802 39.7298 36.9317 37.9785 38.688C36.2268 40.4444 34.1753 41.8229 31.824 42.8235C29.4727 43.8245 26.9603 44.3251 24.287 44.3251Z" fill="#475467" fill-opacity="0.45"/>
<circle cx="24.5" cy="25" r="4" fill="#E15247"/>
</svg>
