<svg width="48" height="48" viewBox="0 0 48 48" fill="none" xmlns="http://www.w3.org/2000/svg">
<path d="M19.4844 43.8L18.5309 37.5885C17.9462 37.3885 17.2872 37.0872 16.5539 36.6845C15.8205 36.2822 15.1949 35.8565 14.6769 35.4075L8.88438 38.004L4.33838 29.8385L9.44238 26.011C9.40905 25.734 9.37755 25.398 9.34788 25.003C9.31855 24.608 9.30388 24.2459 9.30388 23.9165C9.30388 23.6465 9.31855 23.3205 9.34788 22.9385C9.37755 22.5565 9.40905 22.1872 9.44238 21.8305L4.33838 18.0425L8.88438 9.98452L14.5574 12.5425C15.101 12.1115 15.7384 11.6852 16.4694 11.2635C17.2 10.8419 17.8807 10.5245 18.5114 10.3115L19.4844 4.15002H28.5654L29.4689 10.331C30.1382 10.5694 30.8242 10.8899 31.5269 11.2925C32.2292 11.6949 32.842 12.1115 33.3654 12.5425L39.1844 9.98452L43.7114 18.0425L40.2729 20.5155C39.7215 20.2592 39.135 20.0534 38.5134 19.898C37.8914 19.743 37.274 19.6219 36.6614 19.5345L39.8114 17.2345L37.8614 13.6925L32.5804 15.904C31.878 15.1144 31.0129 14.4049 29.9849 13.7755C28.9565 13.1465 27.8959 12.7547 26.8029 12.6L26.1924 7.06953H21.8074L21.1959 12.581C20.0215 12.8347 18.9517 13.2372 17.9864 13.7885C17.021 14.3399 16.1359 15.0385 15.3309 15.8845L10.2024 13.6925L8.13838 17.2345L12.7114 20.627C12.5654 21.1884 12.4539 21.7409 12.3769 22.2845C12.2999 22.8282 12.2614 23.3812 12.2614 23.9435C12.2614 24.4812 12.2999 25.0237 12.3769 25.571C12.4539 26.1187 12.559 26.6964 12.6924 27.304L8.13838 30.7155L10.1884 34.2575L15.3614 32.0155C16.163 32.8305 17.007 33.5029 17.8934 34.0325C18.7797 34.5622 19.7165 34.9539 20.7039 35.2075C20.8705 36.9282 21.3109 38.5097 22.0249 39.952C22.7389 41.3944 23.6459 42.677 24.7459 43.8H19.4844ZM21.3844 29.75C21.446 29.2654 21.5775 28.7922 21.7789 28.3305C21.9802 27.8692 22.1757 27.4232 22.3654 26.9925C21.7987 26.7052 21.3422 26.3014 20.9959 25.781C20.6499 25.2604 20.4769 24.65 20.4769 23.95C20.4769 23.008 20.8105 22.2032 21.4779 21.5355C22.1452 20.8682 22.95 20.5345 23.8924 20.5345C24.5127 20.5345 25.0677 20.6719 25.5574 20.9465C26.047 21.2209 26.456 21.6002 26.7844 22.0845C27.1404 21.7865 27.5377 21.512 27.9764 21.261C28.415 21.01 28.86 20.7974 29.3114 20.623C28.755 19.718 27.9999 18.9905 27.0459 18.4405C26.0919 17.8905 25.0317 17.6155 23.8654 17.6155C22.1267 17.6155 20.6407 18.2307 19.4074 19.461C18.1744 20.691 17.5579 22.1874 17.5579 23.95C17.5579 25.296 17.911 26.4769 18.6174 27.4925C19.3237 28.5079 20.246 29.2604 21.3844 29.75Z" fill="#475467" fill-opacity="0.45"/>
<path d="M35.0683 40L41.2493 33.819L35.0683 27.6385L33.4723 29.2345L36.8918 32.6845H28.9188V34.954H36.8918L33.4223 38.354L35.0683 40ZM35.0183 43.8C32.2697 43.8 29.9192 42.8237 27.9668 40.871C26.0142 38.9187 25.0378 36.568 25.0378 33.819C25.0378 31.0703 26.0142 28.7198 27.9668 26.7675C29.9192 24.8148 32.2697 23.8385 35.0183 23.8385C37.7673 23.8385 40.118 24.8148 42.0703 26.7675C44.023 28.7198 44.9993 31.0703 44.9993 33.819C44.9993 36.568 44.023 38.9187 42.0703 40.871C40.118 42.8237 37.7673 43.8 35.0183 43.8Z" fill="#E15247"/>
</svg>
