<svg width="49" height="48" viewBox="0 0 49 48" fill="none" xmlns="http://www.w3.org/2000/svg">
<path d="M4.854 26.554L2.5 24.796L11.996 9.98445L18.204 16.7425L26.404 3.94595L32.6115 12.6655L39.696 1.94995L42.0305 3.67695L32.6425 17.7L26.5345 9.08045L18.727 21.3925L12.5 14.704L4.854 26.554Z" fill="#475467" fill-opacity="0.45"/>
<path d="M29.5771 36.8804C31.1951 36.8804 32.5802 36.3311 33.7326 35.2324C34.8852 34.1334 35.4616 32.7751 35.4616 31.1574C35.4616 29.5191 34.8904 28.1288 33.7481 26.9864C32.6054 25.8441 31.2149 25.2729 29.5766 25.2729C27.9589 25.2729 26.6007 25.8526 25.5021 27.0119C24.4034 28.1709 23.8541 29.5529 23.8541 31.1579C23.8541 32.7756 24.4034 34.1338 25.5021 35.2324C26.6011 36.3311 27.9594 36.8804 29.5771 36.8804ZM40.2001 43.7999L34.5926 38.1919C33.8976 38.6716 33.1264 39.0594 32.2791 39.3554C31.4314 39.6518 30.5307 39.7999 29.5771 39.7999C27.1611 39.7999 25.1166 38.9639 23.4436 37.2919C21.7709 35.6196 20.9346 33.5759 20.9346 31.1609C20.9346 28.7586 21.7707 26.6986 23.4431 24.9809C25.1151 23.2629 27.1586 22.4039 29.5736 22.4039C32.0092 22.4039 34.0777 23.2569 35.7791 24.9629C37.4801 26.6689 38.3306 28.7338 38.3306 31.1574C38.3306 32.1114 38.1826 33.0236 37.8866 33.8939C37.5902 34.7646 37.1921 35.5474 36.6921 36.2424L42.2306 41.7689L40.2001 43.7999Z" fill="#E15247"/>
</svg>
