<svg width="48" height="48" viewBox="0 0 48 48" fill="none" xmlns="http://www.w3.org/2000/svg">
<g id="Frame">
<path id="Vector" d="M22.492 29.119H25.3115L25.473 27.019C25.896 26.9396 26.2944 26.7983 26.668 26.595C27.0417 26.3916 27.3704 26.1266 27.654 25.8L29.6155 26.45L30.946 24.131L29.5305 22.996C29.7025 22.4816 29.7885 21.9671 29.7885 21.4525C29.7885 20.9381 29.7025 20.4258 29.5305 19.9155L30.946 18.781L29.6155 16.4615L27.654 17.1115C27.3584 16.7988 27.0215 16.5373 26.6435 16.327C26.2659 16.1166 25.8757 15.9781 25.473 15.9115L25.2965 13.7925H22.477L22.3155 15.9115C21.9002 15.9781 21.5035 16.1166 21.1255 16.327C20.7479 16.5373 20.4112 16.7988 20.1155 17.1115L18.154 16.4615L16.8425 18.781L18.2575 19.9155C18.0732 20.4298 17.981 20.9443 17.981 21.459C17.981 21.9736 18.0732 22.486 18.2575 22.996L16.8425 24.131L18.154 26.45L20.1155 25.8C20.3992 26.1266 20.7277 26.3916 21.101 26.595C21.4747 26.7983 21.8795 26.9396 22.3155 27.019L22.492 29.119ZM23.893 25.246C22.8337 25.246 21.943 24.8783 21.221 24.143C20.4994 23.4076 20.1385 22.5148 20.1385 21.4645C20.1385 20.4021 20.5012 19.5065 21.2265 18.7775C21.9522 18.0488 22.84 17.6845 23.89 17.6845C24.9404 17.6845 25.8379 18.0493 26.5825 18.779C27.3275 19.5083 27.7 20.401 27.7 21.457C27.7 22.5126 27.3275 23.4081 26.5825 24.1435C25.8372 24.8785 24.9407 25.246 23.893 25.246Z" fill="#E15247"/>
<path id="Vector_2" d="M12.6992 43.2999V35.0849C10.7659 33.3206 9.28255 31.3097 8.24922 29.0524C7.21589 26.7951 6.69922 24.4456 6.69922 22.0039C6.69922 17.1599 8.37355 13.0566 11.7222 9.6939C15.0709 6.33124 19.1602 4.6499 23.9902 4.6499C27.9476 4.6499 31.4894 5.8404 34.6157 8.2214C37.7424 10.6024 39.7831 13.6684 40.7377 17.4194L43.1357 27.1254C43.2857 27.7134 43.1886 28.2229 42.8442 28.6539C42.4996 29.0846 42.0307 29.2999 41.4377 29.2999H37.3492V35.7654C37.3492 36.7487 36.9976 37.5836 36.2942 38.2699C35.5912 38.9566 34.7647 39.2999 33.8147 39.2999H29.3492V43.2999H26.4297V36.3804H33.8147C33.9941 36.3804 34.1414 36.3227 34.2567 36.2074C34.3721 36.0921 34.4297 35.9447 34.4297 35.7654V26.3804H39.9532L37.8992 18.1074C37.0786 15.0127 35.3792 12.4827 32.8012 10.5174C30.2229 8.55207 27.2889 7.5694 23.9992 7.5694C20.0036 7.5694 16.6079 8.9644 13.8122 11.7544C11.0166 14.5447 9.61872 17.9309 9.61872 21.9129C9.61872 23.9792 10.0431 25.9441 10.8917 27.8074C11.7404 29.6704 12.9339 31.2981 14.4722 32.6904L15.6187 33.7844V43.2999H12.6992Z" fill="#475467" fill-opacity="0.45"/>
</g>
</svg>
