<svg width="49" height="48" viewBox="0 0 49 48" fill="none" xmlns="http://www.w3.org/2000/svg">
<path d="M8.23445 41.8C7.29278 41.8 6.46828 41.4464 5.76095 40.739C5.05362 40.0317 4.69995 39.2072 4.69995 38.2655V16.0845C4.69995 15.1429 5.05362 14.3184 5.76095 13.611C6.46828 12.9037 7.29278 12.55 8.23445 12.55H16.8V8.43502C16.8 7.49303 17.1536 6.66836 17.861 5.96102C18.5683 5.25369 19.3928 4.90002 20.3345 4.90002H28.6655C29.6071 4.90002 30.4316 5.25369 31.139 5.96102C31.8463 6.66836 32.2 7.49303 32.2 8.43502V12.55H40.7655C41.7071 12.55 42.5316 12.9037 43.239 13.611C43.9463 14.3184 44.3 15.1429 44.3 16.0845V38.2655C44.3 39.2072 43.9463 40.0317 43.239 40.739C42.5316 41.4464 41.7071 41.8 40.7655 41.8H8.23445ZM8.23445 38.8805H40.7655C40.9191 38.8805 41.0601 38.8165 41.1885 38.6885C41.3165 38.5602 41.3805 38.4192 41.3805 38.2655V16.0845C41.3805 15.9309 41.3165 15.7899 41.1885 15.6615C41.0601 15.5335 40.9191 15.4695 40.7655 15.4695H8.23445C8.08079 15.4695 7.93978 15.5335 7.81145 15.6615C7.68345 15.7899 7.61945 15.9309 7.61945 16.0845V38.2655C7.61945 38.4192 7.68345 38.5602 7.81145 38.6885C7.93978 38.8165 8.08079 38.8805 8.23445 38.8805ZM19.7195 12.55H29.2805V8.43502C29.2805 8.28103 29.2165 8.13986 29.0885 8.01152C28.9601 7.88352 28.8191 7.81953 28.6655 7.81953H20.3345C20.1808 7.81953 20.0398 7.88352 19.9115 8.01152C19.7835 8.13986 19.7195 8.28103 19.7195 8.43502V12.55Z" fill="#475467" fill-opacity="0.45"/>
<circle cx="24.5" cy="27" r="5" fill="#E15247"/>
</svg>
