<svg width="48" height="48" viewBox="0 0 48 48" fill="none" xmlns="http://www.w3.org/2000/svg">
<path d="M11.651 38.8805C12.392 38.8805 13.002 38.6438 13.481 38.1705C13.9603 37.6972 14.2 37.09 14.2 36.349C14.2 35.608 13.9595 34.998 13.4785 34.519C12.9978 34.0397 12.4028 33.8 11.6935 33.8C10.9358 33.8 10.3173 34.0405 9.83795 34.5215C9.35895 35.0022 9.11945 35.5972 9.11945 36.3065C9.11945 37.0642 9.35612 37.6827 9.82945 38.162C10.3028 38.641 10.91 38.8805 11.651 38.8805ZM11.7035 41.8C10.1628 41.8 8.86045 41.2677 7.79645 40.203C6.73212 39.1383 6.19995 37.8463 6.19995 36.327C6.19995 34.808 6.73295 33.5205 7.79895 32.4645C8.86462 31.4085 10.158 30.8805 11.679 30.8805C12.9196 30.8805 14.027 31.2672 15.001 32.0405C15.9746 32.8135 16.6063 33.7935 16.896 34.9805C18.514 35.0191 19.8955 34.4723 21.0405 33.34C22.1851 32.2073 22.7575 30.8478 22.7575 29.2615V20.2885C22.7575 17.6628 23.6728 15.4256 25.5035 13.577C27.3338 11.7283 29.5634 10.804 32.1924 10.804H36.204L32.4885 7.13849L34.569 5.05798L41.8 12.2885L34.569 19.519L32.4885 17.4885L36.1845 13.723H32.1924C30.3814 13.723 28.8428 14.361 27.5765 15.637C26.3101 16.9133 25.677 18.4638 25.677 20.2885V29.2765C25.677 31.7125 24.8135 33.7767 23.0865 35.469C21.3595 37.1613 19.296 37.9717 16.896 37.9C16.5396 39.087 15.8821 40.0338 14.9235 40.7405C13.9651 41.4468 12.8918 41.8 11.7035 41.8Z" fill="#E15247"/>
<path d="M33.4182 41.7501L31.3877 39.7191L34.5377 36.5191L31.3877 33.3691L33.4182 31.2886L36.6182 34.4886L39.7682 31.2886L41.8297 33.3691L38.6297 36.5191L41.8297 39.7191L39.7682 41.7501L36.6182 38.6001L33.4182 41.7501ZM8.23022 16.6616L6.19922 14.6311L9.34922 11.4311L6.19922 8.28107L8.23022 6.20007L11.4302 9.40007L14.5802 6.20007L16.6607 8.28107L13.4607 11.4311L16.6607 14.6311L14.5802 16.6616L11.4302 13.5116L8.23022 16.6616Z" fill="#475467" fill-opacity="0.45"/>
</svg>
