<svg width="49" height="48" viewBox="0 0 49 48" fill="none" xmlns="http://www.w3.org/2000/svg">
<g id="Frame">
<path id="Vector" d="M22.5499 37.3575C22.4729 36.3832 22.1941 35.5262 21.7134 34.7865C21.2328 34.0468 20.7116 33.3097 20.1499 32.575C19.5883 31.8403 19.0883 31.0883 18.6499 30.319C18.2116 29.55 17.9924 28.6488 17.9924 27.6155C17.9924 25.8102 18.6258 24.2658 19.8924 22.9825C21.1591 21.6992 22.6949 21.0575 24.4999 21.0575C26.3049 21.0575 27.8491 21.6992 29.1324 22.9825C30.4158 24.2658 31.0574 25.8102 31.0574 27.6155C31.0574 28.6025 30.8299 29.4922 30.3749 30.2845C29.9199 31.0768 29.4116 31.8403 28.8499 32.575C28.2883 33.3097 27.7754 34.0552 27.3114 34.8115C26.8474 35.5678 26.5769 36.4165 26.4999 37.3575H22.5499ZM22.5074 42.6425V39.7425H26.5424V42.6425H22.5074Z" fill="#E15247"/>
<path id="Vector_2" d="M10.8377 37.3999C9.44539 35.7769 8.40755 34.0244 7.72422 32.1424C7.04089 30.26 6.69922 28.2126 6.69922 25.9999C6.69922 21.0282 8.39789 16.8487 11.7952 13.4614C15.1929 10.0744 19.2442 8.33088 23.9492 8.23088C24.4289 8.23088 24.8654 8.23922 25.2587 8.25588C25.6524 8.27255 26.0621 8.29105 26.4877 8.31138L22.3992 4.22289L24.4302 2.19238L32.2377 9.99988L24.4302 17.8074L22.3492 15.7269L26.7837 11.2924C26.2634 11.251 25.7557 11.2171 25.2607 11.1904C24.7661 11.1634 24.2956 11.1499 23.8492 11.1499C19.9979 11.3166 16.6632 12.8037 13.8452 15.6114C11.0272 18.4191 9.61822 21.8819 9.61822 25.9999C9.61822 27.6075 9.89389 29.2492 10.4452 30.9249C10.9966 32.6006 11.8274 34.0652 12.9377 35.3189L10.8377 37.3999ZM38.2107 37.3999L36.1107 35.3499C37.0927 34.1166 37.8914 32.7024 38.5067 31.1074C39.1224 29.5127 39.4302 27.8102 39.4302 25.9999C39.4302 23.8922 39.0192 21.9211 38.1972 20.0864C37.3756 18.2517 36.1454 16.5576 34.5067 15.0039L36.6182 12.8924C38.4106 14.5744 39.8139 16.5096 40.8282 18.6979C41.8422 20.8866 42.3492 23.3206 42.3492 25.9999C42.3492 28.1126 41.9826 30.1434 41.2492 32.0924C40.5159 34.041 39.5031 35.8102 38.2107 37.3999Z" fill="#475467" fill-opacity="0.45"/>
</g>
</svg>
