<svg width="56" height="57" viewBox="0 0 56 57" fill="none" xmlns="http://www.w3.org/2000/svg">
<circle cx="28" cy="28.835" r="28" fill="#77B548"/>
<g clip-path="url(#clip0_6204_2915)">
<path d="M19.7827 43.6667C18.7087 43.6667 17.7957 43.2908 17.0437 42.539C16.2919 41.787 15.916 40.874 15.916 39.8C15.916 38.726 16.2919 37.813 17.0437 37.061C17.7957 36.3092 18.7087 35.9333 19.7827 35.9333C20.0938 35.9333 20.3716 35.963 20.616 36.0223C20.8605 36.0814 21.1049 36.1666 21.3493 36.2777L23.8717 33.1333C23.3828 32.5629 23.0235 31.9148 22.7937 31.189C22.5641 30.463 22.5086 29.7186 22.627 28.9557L19.0383 27.7443C18.6901 28.2999 18.2382 28.737 17.6827 29.0557C17.1271 29.3741 16.4938 29.5333 15.7827 29.5333C14.7087 29.5333 13.7957 29.1574 13.0437 28.4057C12.2919 27.6537 11.916 26.7407 11.916 25.6667C11.916 24.5927 12.2919 23.6797 13.0437 22.9277C13.7957 22.1759 14.7087 21.8 15.7827 21.8C16.8567 21.8 17.7697 22.1759 18.5217 22.9277C19.2735 23.6797 19.6493 24.5927 19.6493 25.6667V25.8443L23.2603 27.089C23.6752 26.3481 24.1957 25.7592 24.8217 25.3223C25.4475 24.8852 26.1456 24.5889 26.916 24.4333V20.6C26.0493 20.3556 25.3549 19.8797 24.8327 19.1723C24.3105 18.4648 24.0493 17.6962 24.0493 16.8667C24.0493 15.7927 24.4252 14.8797 25.177 14.1277C25.929 13.3759 26.842 13 27.916 13C28.99 13 29.903 13.3759 30.655 14.1277C31.4068 14.8797 31.7827 15.7927 31.7827 16.8667C31.7827 17.6962 31.516 18.4648 30.9827 19.1723C30.4494 19.8797 29.7605 20.3556 28.916 20.6V24.4333C29.6865 24.5889 30.3883 24.8852 31.0217 25.3223C31.655 25.7592 32.179 26.3481 32.5937 27.089L36.1827 25.8443V25.6667C36.1827 24.5927 36.5586 23.6797 37.3104 22.9277C38.0624 22.1759 38.9753 21.8 40.0494 21.8C41.1234 21.8 42.0364 22.1759 42.7883 22.9277C43.5401 23.6797 43.916 24.5927 43.916 25.6667C43.916 26.7407 43.5401 27.6537 42.7883 28.4057C42.0364 29.1574 41.1234 29.5333 40.0494 29.5333C39.3382 29.5333 38.6994 29.3741 38.1327 29.0557C37.566 28.737 37.1197 28.2999 36.7937 27.7443L33.205 28.9557C33.3235 29.7186 33.2716 30.4611 33.0494 31.1833C32.8271 31.9056 32.4641 32.5556 31.9604 33.1333L34.4827 36.2667C34.7271 36.1556 34.9716 36.0722 35.216 36.0167C35.4605 35.9611 35.735 35.9333 36.0397 35.9333C37.1277 35.9333 38.0457 36.3092 38.7937 37.061C39.5419 37.813 39.916 38.726 39.916 39.8C39.916 40.874 39.5401 41.787 38.7883 42.539C38.0364 43.2908 37.1234 43.6667 36.0494 43.6667C34.9753 43.6667 34.0624 43.2908 33.3104 42.539C32.5586 41.787 32.1827 40.874 32.1827 39.8C32.1827 39.3556 32.2475 38.9463 32.377 38.5723C32.5068 38.1981 32.6865 37.8443 32.916 37.511L30.3937 34.3667C29.6141 34.7889 28.7822 35 27.898 35C27.0138 35 26.1828 34.7889 25.405 34.3667L22.916 37.5333C23.1456 37.8667 23.3252 38.2167 23.455 38.5833C23.5846 38.95 23.6493 39.3556 23.6493 39.8C23.6493 40.874 23.2735 41.787 22.5217 42.539C21.7697 43.2908 20.8567 43.6667 19.7827 43.6667ZM15.7833 27.311C16.2496 27.311 16.6401 27.1533 16.955 26.838C17.2697 26.5227 17.427 26.132 17.427 25.666C17.427 25.1998 17.2693 24.8092 16.954 24.4943C16.6387 24.1797 16.248 24.0223 15.782 24.0223C15.3158 24.0223 14.9252 24.18 14.6103 24.4953C14.2957 24.8107 14.1383 25.2013 14.1383 25.6673C14.1383 26.1336 14.296 26.5241 14.6113 26.839C14.9267 27.1537 15.3173 27.311 15.7833 27.311ZM19.7833 41.4443C20.2496 41.4443 20.6401 41.2867 20.955 40.9713C21.2697 40.656 21.427 40.2653 21.427 39.7993C21.427 39.3331 21.2694 38.9426 20.954 38.6277C20.6387 38.313 20.248 38.1557 19.782 38.1557C19.3158 38.1557 18.9252 38.3133 18.6103 38.6287C18.2957 38.944 18.1383 39.3347 18.1383 39.8007C18.1383 40.2669 18.296 40.6574 18.6113 40.9723C18.9267 41.287 19.3173 41.4443 19.7833 41.4443ZM27.9167 18.511C28.3829 18.511 28.7735 18.3533 29.0883 18.038C29.403 17.7227 29.5604 17.332 29.5604 16.866C29.5604 16.3998 29.4027 16.0092 29.0874 15.6943C28.772 15.3797 28.3813 15.2223 27.9153 15.2223C27.4491 15.2223 27.0586 15.38 26.7437 15.6953C26.429 16.0107 26.2717 16.4013 26.2717 16.8673C26.2717 17.3336 26.4293 17.7241 26.7447 18.039C27.06 18.3537 27.4507 18.511 27.9167 18.511ZM27.927 32.7777C28.7937 32.7777 29.527 32.474 30.127 31.8667C30.727 31.2593 31.027 30.5223 31.027 29.6557C31.027 28.789 30.7264 28.0557 30.125 27.4557C29.5235 26.8557 28.7871 26.5557 27.916 26.5557C27.0567 26.5557 26.3233 26.8563 25.716 27.4577C25.1087 28.0592 24.805 28.7956 24.805 29.6667C24.805 30.526 25.1087 31.2593 25.716 31.8667C26.3233 32.474 27.0603 32.7777 27.927 32.7777ZM36.05 41.4443C36.5162 41.4443 36.9068 41.2867 37.2217 40.9713C37.5364 40.656 37.6937 40.2653 37.6937 39.7993C37.6937 39.3331 37.536 38.9426 37.2207 38.6277C36.9054 38.313 36.5147 38.1557 36.0487 38.1557C35.5825 38.1557 35.1919 38.3133 34.877 38.6287C34.5624 38.944 34.405 39.3347 34.405 39.8007C34.405 40.2669 34.5627 40.6574 34.878 40.9723C35.1933 41.287 35.584 41.4443 36.05 41.4443ZM40.05 27.311C40.5162 27.311 40.9068 27.1533 41.2217 26.838C41.5364 26.5227 41.6937 26.132 41.6937 25.666C41.6937 25.1998 41.536 24.8092 41.2207 24.4943C40.9054 24.1797 40.5147 24.0223 40.0487 24.0223C39.5825 24.0223 39.1919 24.18 38.877 24.4953C38.5624 24.8107 38.405 25.2013 38.405 25.6673C38.405 26.1336 38.5627 26.5241 38.878 26.839C39.1933 27.1537 39.584 27.311 40.05 27.311Z" fill="white"/>
</g>
<defs>
<clipPath id="clip0_6204_2915">
<rect width="32" height="32" fill="white" transform="translate(11.916 13)"/>
</clipPath>
</defs>
</svg>
