<svg width="57" height="57" viewBox="0 0 57 57" fill="none" xmlns="http://www.w3.org/2000/svg">
<circle cx="28.6667" cy="28.835" r="28" fill="#60B0FF"/>
<path d="M17.6377 41.0001C17.0377 41.0001 16.5173 40.7797 16.0764 40.3391C15.6357 39.8982 15.4154 39.3778 15.4154 38.7778V23.2224C15.4154 22.6224 15.6357 22.102 16.0764 21.6611C16.5173 21.2204 17.0377 21.0001 17.6377 21.0001H23.4154V17.8891C23.4154 17.2891 23.6357 16.7686 24.0764 16.3277C24.5173 15.8871 25.0377 15.6667 25.6377 15.6667H31.8597C32.4597 15.6667 32.9801 15.8871 33.421 16.3277C33.8617 16.7686 34.082 17.2891 34.082 17.8891V21.0001H39.8597C40.4597 21.0001 40.9801 21.2204 41.421 21.6611C41.8617 22.102 42.082 22.6224 42.082 23.2224V38.7778C42.082 39.3778 41.8617 39.8982 41.421 40.3391C40.9801 40.7797 40.4597 41.0001 39.8597 41.0001H17.6377ZM25.6377 21.0001H31.8597V17.8891H25.6377V21.0001ZM39.8597 32.7558H32.1044V34.9777H25.4377V32.7558H17.6377V38.7778H39.8597V32.7558ZM27.6597 32.7558H29.882V30.5334H27.6597V32.7558ZM17.6377 30.5334H25.4377V28.3111H32.1044V30.5334H39.8597V23.2224H17.6377V30.5334Z" fill="white"/>
</svg>
