<svg width="57" height="57" viewBox="0 0 57 57" fill="none" xmlns="http://www.w3.org/2000/svg">
<circle cx="28.3333" cy="28.835" r="28" fill="#EDA34F"/>
<g clip-path="url(#clip0_6204_2935)">
<path d="M11.9153 37V35.1223C11.9153 34.2323 12.3856 33.508 13.3263 32.9493C14.2672 32.3904 15.5033 32.111 17.0346 32.111C17.3113 32.111 17.5772 32.1166 17.8323 32.1277C18.0876 32.1388 18.3375 32.164 18.582 32.2033C18.3597 32.616 18.1931 33.0394 18.082 33.4737C17.9708 33.9081 17.9153 34.3613 17.9153 34.8333V37H11.9153ZM19.9153 37V34.8333C19.9153 34.1222 20.1097 33.4722 20.4986 32.8833C20.8875 32.2944 21.4375 31.7778 22.1486 31.3333C22.8597 30.8889 23.7097 30.5556 24.6986 30.3333C25.6875 30.1111 26.7597 30 27.9153 30C29.0931 30 30.1764 30.1111 31.1653 30.3333C32.1542 30.5556 33.0042 30.8889 33.7153 31.3333C34.4264 31.7778 34.9708 32.2944 35.3486 32.8833C35.7264 33.4722 35.9153 34.1222 35.9153 34.8333V37H19.9153ZM37.9153 37V34.8333C37.9153 34.3464 37.8653 33.8877 37.7653 33.457C37.6653 33.0263 37.5078 32.609 37.293 32.205C37.5374 32.1646 37.785 32.1388 38.0356 32.1277C38.2865 32.1166 38.5427 32.111 38.8043 32.111C40.3376 32.111 41.5727 32.3852 42.5096 32.9337C43.4467 33.4821 43.9153 34.2117 43.9153 35.1223V37H37.9153ZM22.193 34.7777H33.6486V34.6443C33.5746 33.9481 32.995 33.3703 31.9096 32.911C30.8245 32.4519 29.4931 32.2223 27.9153 32.2223C26.3375 32.2223 25.0061 32.4519 23.921 32.911C22.8356 33.3703 22.2596 33.9556 22.193 34.6667V34.7777ZM17.0166 31C16.3491 31 15.7764 30.7607 15.2986 30.282C14.8208 29.8033 14.5819 29.2279 14.5819 28.5557C14.5819 27.8741 14.8213 27.2963 15.3 26.8223C15.7786 26.3481 16.3541 26.111 17.0263 26.111C17.7078 26.111 18.2856 26.3481 18.7596 26.8223C19.2338 27.2963 19.471 27.8773 19.471 28.5653C19.471 29.2329 19.2338 29.8056 18.7596 30.2833C18.2856 30.7611 17.7046 31 17.0166 31ZM38.7946 31C38.1268 31 37.5541 30.7607 37.0763 30.282C36.5985 29.8033 36.3596 29.2279 36.3596 28.5557C36.3596 27.8741 36.5991 27.2963 37.078 26.8223C37.5566 26.3481 38.1321 26.111 38.8043 26.111C39.4856 26.111 40.0634 26.3481 40.5376 26.8223C41.0116 27.2963 41.2486 27.8773 41.2486 28.5653C41.2486 29.2329 41.0116 29.8056 40.5376 30.2833C40.0634 30.7611 39.4824 31 38.7946 31ZM27.9153 29C26.8042 29 25.8597 28.6111 25.082 27.8333C24.3042 27.0556 23.9153 26.1111 23.9153 25C23.9153 23.8667 24.3042 22.9167 25.082 22.15C25.8597 21.3833 26.8042 21 27.9153 21C29.0486 21 29.9986 21.3833 30.7653 22.15C31.5319 22.9167 31.9153 23.8667 31.9153 25C31.9153 26.1111 31.5319 27.0556 30.7653 27.8333C29.9986 28.6111 29.0486 29 27.9153 29ZM27.923 26.7777C28.429 26.7777 28.8505 26.6066 29.1876 26.2643C29.5245 25.9221 29.693 25.4981 29.693 24.9923C29.693 24.4863 29.5234 24.0648 29.1843 23.7277C28.845 23.3908 28.4245 23.2223 27.923 23.2223C27.4216 23.2223 26.9987 23.3919 26.6543 23.731C26.3098 24.0703 26.1376 24.4908 26.1376 24.9923C26.1376 25.4937 26.3087 25.9166 26.651 26.261C26.9932 26.6054 27.4172 26.7777 27.923 26.7777Z" fill="white"/>
</g>
<defs>
<clipPath id="clip0_6204_2935">
<rect width="32" height="32" fill="white" transform="translate(11.9153 13)"/>
</clipPath>
</defs>
</svg>
