<svg width="49" height="50" viewBox="0 0 49 50" fill="none" xmlns="http://www.w3.org/2000/svg">
<path d="M24.287 44.485C21.6367 44.485 19.1382 43.9856 16.7915 42.987C14.4448 41.988 12.3933 40.6121 10.637 38.8595C8.88067 37.1068 7.50217 35.058 6.5015 32.713C5.5005 30.368 5 27.8623 5 25.196C5 22.5296 5.49883 20.0236 6.4965 17.678C7.49383 15.3323 8.871 13.2811 10.628 11.5245C12.3853 9.76746 14.4417 8.37996 16.797 7.36196C19.1523 6.34396 21.6533 5.83496 24.3 5.83496H25.7845V22.208C26.3178 22.5046 26.762 22.9145 27.117 23.4375C27.4723 23.9608 27.65 24.5441 27.65 25.1875C27.65 26.1158 27.3202 26.8975 26.6605 27.5325C26.0012 28.1675 25.2143 28.485 24.3 28.485C23.37 28.485 22.5875 28.1675 21.9525 27.5325C21.3175 26.8975 21 26.1165 21 25.1895C21 24.5805 21.1693 24.0095 21.508 23.4765C21.8463 22.9431 22.2988 22.5203 22.8655 22.208V16.966C20.8525 17.276 19.1915 18.205 17.8825 19.753C16.5738 21.301 15.9195 23.1116 15.9195 25.185C15.9195 27.5293 16.7302 29.5121 18.3515 31.1335C19.9728 32.7548 21.9543 33.5655 24.296 33.5655C26.6377 33.5655 28.6288 32.7521 30.2695 31.1255C31.9102 29.4988 32.7305 27.5245 32.7305 25.2025C32.7305 23.9291 32.4703 22.7503 31.95 21.666C31.4293 20.5813 30.7485 19.6518 29.9075 18.8775L31.9885 16.7965C33.1115 17.8401 34.0025 19.088 34.6615 20.54C35.3205 21.9923 35.65 23.5468 35.65 25.2035C35.65 28.3568 34.5518 31.0253 32.3555 33.209C30.1592 35.393 27.4755 36.485 24.3045 36.485C21.1475 36.485 18.4742 35.3911 16.2845 33.2035C14.0948 31.0161 13 28.3433 13 25.185C13 22.2626 13.9455 19.7513 15.8365 17.651C17.7275 15.5506 20.0705 14.3223 22.8655 13.966V8.88496C18.6192 9.22863 15.0665 10.9516 12.2075 14.054C9.34883 17.156 7.9195 20.8663 7.9195 25.185C7.9195 29.725 9.5145 33.5901 12.7045 36.7805C15.8948 39.9705 19.76 41.5655 24.3 41.5655C28.854 41.5655 32.731 39.9716 35.931 36.784C39.1307 33.5963 40.7305 29.734 40.7305 25.197C40.7305 22.794 40.2715 20.5813 39.3535 18.559C38.4352 16.5366 37.1698 14.7595 35.5575 13.2275L37.6385 11.1465C39.4948 12.9235 40.9608 15.0116 42.0365 17.411C43.1122 19.81 43.65 22.3943 43.65 25.164C43.65 27.837 43.1427 30.3468 42.128 32.6935C41.113 35.0401 39.7298 37.0916 37.9785 38.848C36.2268 40.6043 34.1753 41.9828 31.824 42.9835C29.4727 43.9845 26.9603 44.485 24.287 44.485Z" fill="#475467" fill-opacity="0.45"/>
<circle cx="24.5" cy="25.1599" r="4" fill="#E15247"/>
</svg>
