<svg width="57" height="56" viewBox="0 0 57 56" fill="none" xmlns="http://www.w3.org/2000/svg">
<circle cx="28.5" cy="28" r="28" fill="#E15247"/>
<path d="M8.5 38V35.6529C8.5 34.5404 9.08792 33.635 10.2638 32.9367C11.4399 32.2381 12.985 31.8888 14.8992 31.8888C15.245 31.8888 15.5774 31.8957 15.8962 31.9096C16.2154 31.9235 16.5278 31.955 16.8333 32.0042C16.5556 32.52 16.3472 33.0493 16.2083 33.5921C16.0694 34.1351 16 34.7017 16 35.2917V38H8.5ZM18.5 38V35.2917C18.5 34.4028 18.7431 33.5903 19.2292 32.8542C19.7153 32.1181 20.4028 31.4722 21.2917 30.9167C22.1806 30.3611 23.2431 29.9444 24.4792 29.6667C25.7153 29.3889 27.0556 29.25 28.5 29.25C29.9722 29.25 31.3264 29.3889 32.5625 29.6667C33.7986 29.9444 34.8611 30.3611 35.75 30.9167C36.6389 31.4722 37.3194 32.1181 37.7917 32.8542C38.2639 33.5903 38.5 34.4028 38.5 35.2917V38H18.5ZM41 38V35.2917C41 34.6831 40.9375 34.1096 40.8125 33.5712C40.6875 33.0329 40.4907 32.5113 40.2221 32.0063C40.5276 31.9557 40.8371 31.9235 41.1504 31.9096C41.464 31.8957 41.7843 31.8888 42.1113 31.8888C44.0279 31.8888 45.5718 32.2315 46.7429 32.9171C47.9143 33.6026 48.5 34.5146 48.5 35.6529V38H41ZM21.3471 35.2221H35.6667V35.0554C35.5742 34.1851 34.8496 33.4629 33.4929 32.8888C32.1365 32.3149 30.4722 32.0279 28.5 32.0279C26.5278 32.0279 24.8635 32.3149 23.5071 32.8888C22.1504 33.4629 21.4304 34.1944 21.3471 35.0833V35.2221ZM14.8767 30.5C14.0422 30.5 13.3264 30.2008 12.7292 29.6025C12.1319 29.0042 11.8333 28.2849 11.8333 27.4446C11.8333 26.5926 12.1325 25.8704 12.7308 25.2779C13.3292 24.6851 14.0485 24.3888 14.8888 24.3888C15.7407 24.3888 16.4629 24.6851 17.0554 25.2779C17.6482 25.8704 17.9446 26.5967 17.9446 27.4567C17.9446 28.2911 17.6482 29.0069 17.0554 29.6042C16.4629 30.2014 15.7367 30.5 14.8767 30.5ZM42.0992 30.5C41.2644 30.5 40.5485 30.2008 39.9513 29.6025C39.354 29.0042 39.0554 28.2849 39.0554 27.4446C39.0554 26.5926 39.3547 25.8704 39.9533 25.2779C40.5517 24.6851 41.271 24.3888 42.1113 24.3888C42.9629 24.3888 43.6851 24.6851 44.2779 25.2779C44.8704 25.8704 45.1667 26.5967 45.1667 27.4567C45.1667 28.2911 44.8704 29.0069 44.2779 29.6042C43.6851 30.2014 42.9589 30.5 42.0992 30.5ZM28.5 28C27.1111 28 25.9306 27.5139 24.9583 26.5417C23.9861 25.5694 23.5 24.3889 23.5 23C23.5 21.5833 23.9861 20.3958 24.9583 19.4375C25.9306 18.4792 27.1111 18 28.5 18C29.9167 18 31.1042 18.4792 32.0625 19.4375C33.0208 20.3958 33.5 21.5833 33.5 23C33.5 24.3889 33.0208 25.5694 32.0625 26.5417C31.1042 27.5139 29.9167 28 28.5 28ZM28.5096 25.2221C29.1421 25.2221 29.669 25.0082 30.0904 24.5804C30.5115 24.1526 30.7221 23.6226 30.7221 22.9904C30.7221 22.3579 30.5101 21.831 30.0863 21.4096C29.6621 20.9885 29.1365 20.7779 28.5096 20.7779C27.8829 20.7779 27.3543 20.9899 26.9238 21.4137C26.4932 21.8379 26.2779 22.3635 26.2779 22.9904C26.2779 23.6171 26.4918 24.1457 26.9196 24.5763C27.3474 25.0068 27.8774 25.2221 28.5096 25.2221Z" fill="white"/>
</svg>
