<svg width="56" height="56" viewBox="0 0 56 56" fill="none" xmlns="http://www.w3.org/2000/svg">
<circle cx="28" cy="28" r="28" fill="#E15247"/>
<path d="M27.9997 44.6663C25.6941 44.6663 23.5275 44.2288 21.4997 43.3538C19.4719 42.4788 17.708 41.2913 16.208 39.7913C14.708 38.2913 13.5205 36.5275 12.6455 34.4997C11.7705 32.4719 11.333 30.3052 11.333 27.9997C11.333 25.6941 11.7705 23.5275 12.6455 21.4997C13.5205 19.4719 14.708 17.708 16.208 16.208C17.708 14.708 19.4719 13.5205 21.4997 12.6455C23.5275 11.7705 25.6941 11.333 27.9997 11.333C30.3052 11.333 32.4719 11.7705 34.4997 12.6455C36.5275 13.5205 38.2913 14.708 39.7913 16.208C41.2913 17.708 42.4788 19.4719 43.3538 21.4997C44.2288 23.5275 44.6663 25.6941 44.6663 27.9997C44.6663 30.3052 44.2288 32.4719 43.3538 34.4997C42.4788 36.5275 41.2913 38.2913 39.7913 39.7913C38.2913 41.2913 36.5275 42.4788 34.4997 43.3538C32.4719 44.2288 30.3052 44.6663 27.9997 44.6663ZM26.2497 41.833V38.4718C25.2961 38.4718 24.4881 38.1223 23.8259 37.4234C23.164 36.7243 22.833 35.8979 22.833 34.9443V33.1663L14.4718 24.8051C14.3515 25.3423 14.2612 25.8748 14.2009 26.4026C14.1409 26.9304 14.1109 27.4627 14.1109 27.9997C14.1109 31.5275 15.2613 34.6108 17.5622 37.2497C19.863 39.8886 22.7588 41.4163 26.2497 41.833ZM38.2497 37.4163C39.4441 36.1108 40.3493 34.6501 40.9651 33.0343C41.5807 31.4187 41.8884 29.7405 41.8884 27.9997C41.8884 25.1294 41.0991 22.5183 39.5205 20.1663C37.9419 17.8144 35.8331 16.1015 33.1943 15.0276V15.7497C33.1943 16.7033 32.8631 17.5297 32.2009 18.2288C31.539 18.928 30.7312 19.2776 29.7776 19.2776H26.2497V22.8051C26.2497 23.2773 26.0715 23.6686 25.7151 23.9788C25.3584 24.2891 24.944 24.4443 24.4718 24.4443H21.0551V27.9997H31.5551C32.0273 27.9997 32.4186 28.1733 32.7288 28.5205C33.0391 28.8677 33.1943 29.2775 33.1943 29.7497V34.9443H34.9443C35.722 34.9443 36.4118 35.1734 37.0134 35.6318C37.6154 36.0901 38.0275 36.685 38.2497 37.4163Z" fill="white"/>
</svg>
